<svg version="1.1" width="625" height="625" viewBox="0 0 625 625" xmlns:xlink="http://www.w3.org/1999/xlink" xmlns="http://www.w3.org/2000/svg">
  <desc>Created with Raven (http://www.aviary.com)</desc>
  <defs/>
  <path d="M1040 863M1040 863C1012 853 970 806 948 762C927 718 927 718 876 726C807 737 697 735 570 722C447 710 452 711 331 651C240 607 232 605 153 606C50 606 44 588 135 550C185 529 211 525 295 525C395 525 395 525 393 497C392 482 382 457 371 441C348 409 345 384 359 347C369 322 418 270 433 270C437 270 454 254 471 235C546 150 744 180 779 281C792 318 811 318 833 280C844 263 862 248 878 244C893 241 913 235 922 229C996 190 1080 270 1080 380C1080 408 1084 429 1088 426C1099 419 1180 459 1180 471C1180 476 1186 480 1193 480C1201 480 1226 494 1249 511C1346 581 1342 720 1241 782C1221 794 1199 812 1192 822C1164 861 1089 881 1040 863M1172 808C1188 790 1211 771 1223 765C1297 728 1314 594 1252 539C1234 523 1212 510 1204 510C1195 510 1172 497 1153 480C1077 412 977 442 835 576C751 654 756 666 850 612C987 534 1039 523 1114 554C1230 602 1207 781 1087 766C1008 757 968 671 1025 634C1060 611 1100 628 1100 665C1100 695 1085 698 1077 670C1070 645 1044 644 1030 669C1002 723 1101 770 1142 723C1192 666 1162 592 1081 570C983 544 906 635 955 720C962 734 975 759 983 776C1017 849 1118 866 1172 808M867 698C904 689 908 685 913 652C918 604 921 605 859 637C829 652 776 669 741 675C705 681 675 691 673 697C665 720 776 721 867 698M683 655C799 583 830 540 830 451C830 407 825 396 790 355C768 330 750 303 750 296C750 289 738 272 723 258C649 188 528 193 472 269C460 286 443 300 435 300C389 300 365 398 400 443C411 457 420 474 420 482C420 515 513 580 560 580C600 580 647 552 670 515C728 421 637 305 542 354C473 390 490 503 565 503C596 503 620 484 620 458C620 435 595 424 576 439C561 452 549 444 557 424C562 409 607 405 627 418C675 448 632 530 568 530C477 530 438 412 508 349C604 263 758 379 711 503C697 540 649 580 579 611C491 650 475 649 320 591C286 578 244 570 210 571L155 572L212 581C267 589 338 618 370 645C430 697 606 703 683 655M508 597C449 554 424 546 330 544L235 542L300 560C336 570 381 585 400 593C443 613 534 616 508 597M900 485C929 463 931 460 914 455C904 451 887 444 878 439C862 431 860 435 860 470C860 517 858 516 900 485M1037 420C1086 420 1047 282 991 254C957 237 870 269 852 304C825 359 872 435 929 428C983 422 987 335 934 335C907 335 904 366 931 373C955 380 948 400 921 400C875 400 869 333 912 313C970 287 1020 353 991 416C981 439 982 440 999 430C1010 425 1027 420 1037 420" id="ShapeObject_1255451884078" stroke="none" style="fill:#000000;fill-opacity:1" transform="matrix(0.10000000149011612,0,0,0.10000000149011612,-7,-18)" opacity="1"/>
</svg>