<svg version="1.1" width="752" height="1104" viewBox="0 0 752 1104" xmlns:xlink="http://www.w3.org/1999/xlink" xmlns="http://www.w3.org/2000/svg">
  <desc>Created with Raven (http://www.aviary.com)</desc>
  <defs/>
  <g id="Layer_1256395740015" opacity="1"/>
  <g id="Layer_1256395740017" opacity="1">
    <g id="Layer_1256395740018" opacity="1">
      <path d="M4945 7930M4945 7930C4935 7919 4921 7910 4913 7910C4906 7910 4900 7906 4900 7900C4900 7895 4893 7890 4885 7890C4877 7890 4870 7886 4870 7880C4870 7875 4861 7870 4850 7870C4839 7870 4830 7866 4830 7860C4830 7855 4821 7850 4810 7850C4799 7850 4790 7846 4790 7840C4790 7835 4785 7830 4779 7830C4773 7830 4762 7823 4753 7815C4745 7807 4734 7802 4729 7805C4724 7809 4720 7806 4720 7801C4720 7795 4707 7790 4690 7790C4670 7790 4660 7785 4660 7775C4660 7766 4651 7760 4635 7760C4621 7760 4610 7756 4610 7751C4610 7746 4602 7739 4593 7736C4554 7721 4530 7705 4530 7693C4530 7686 4523 7680 4515 7680C4507 7680 4500 7676 4500 7670C4500 7665 4495 7660 4488 7660C4476 7660 4463 7650 4392 7579C4366 7553 4335 7529 4323 7526C4289 7515 4281 7433 4310 7395C4315 7390 4321 7322 4324 7245C4333 7013 4342 6896 4351 6884C4356 6878 4362 6847 4364 6814C4366 6782 4369 6752 4369 6748C4370 6743 4376 6740 4383 6740C4401 6740 4520 6617 4520 6598C4520 6594 4526 6585 4534 6578C4541 6570 4555 6548 4565 6530C4575 6511 4596 6479 4611 6459C4627 6439 4640 6417 4640 6411C4640 6405 4645 6400 4650 6400C4656 6400 4660 6395 4660 6389C4660 6383 4669 6366 4679 6351C4690 6336 4702 6312 4705 6297C4709 6282 4716 6270 4722 6270C4727 6270 4738 6255 4746 6238C4754 6220 4774 6183 4790 6155C4832 6082 4831 6019 4788 5979C4770 5963 4753 5950 4749 5950C4735 5950 4628 5853 4614 5828C4609 5819 4581 5796 4551 5777C4506 5747 4495 5743 4484 5755C4476 5762 4470 5775 4470 5783C4470 5795 4456 5808 4401 5850C4388 5860 4290 5998 4290 6006C4290 6018 4250 6043 4226 6047C4209 6050 4208 6045 4213 5986C4216 5950 4223 5913 4228 5903C4234 5893 4245 5863 4253 5835C4292 5706 4337 5600 4357 5587C4364 5583 4370 5574 4370 5568C4370 5550 4403 5480 4412 5480C4416 5480 4420 5473 4420 5465C4420 5448 4471 5347 4483 5342C4487 5340 4490 5329 4490 5317C4491 5293 4532 5164 4543 5153C4547 5150 4550 5139 4550 5130C4550 5120 4557 5107 4565 5100C4573 5093 4580 5079 4580 5069C4580 5058 4585 5050 4590 5050C4596 5050 4600 5042 4600 5032C4600 5022 4607 5004 4617 4991C4626 4978 4629 4969 4624 4971C4553 5000 4450 5057 4450 5066C4450 5083 4400 5114 4399 5098C4399 5091 4395 5095 4390 5108C4385 5120 4372 5130 4361 5130C4351 5130 4339 5137 4336 5146C4332 5156 4323 5159 4310 5155C4295 5150 4290 5153 4290 5165C4290 5176 4285 5180 4275 5176C4267 5173 4261 5174 4263 5178C4264 5182 4261 5187 4255 5189C4250 5191 4223 5208 4196 5227C4170 5245 4139 5260 4128 5260C4118 5260 4098 5271 4084 5285C4070 5299 4053 5310 4046 5310C4038 5310 4030 5317 4026 5325C4023 5333 4015 5340 4007 5340C4000 5340 3984 5349 3972 5361C3959 5372 3940 5383 3928 5385C3917 5388 3900 5396 3890 5405C3881 5413 3868 5420 3862 5420C3856 5420 3840 5431 3826 5443C3801 5467 3801 5467 3811 5561C3817 5613 3825 5657 3829 5660C3834 5663 3837 5681 3838 5700C3839 5736 3864 5927 3880 6015C3884 6043 3894 6099 3902 6140C3914 6211 3917 6215 3943 6218C3958 6220 3970 6226 3970 6231C3970 6236 3977 6240 3985 6240C3993 6240 4000 6245 4000 6252C4000 6258 4006 6271 4013 6279C4036 6306 4080 6479 4080 6540C4080 6561 4086 6580 4093 6583C4100 6586 4082 6609 4048 6643C4016 6673 3990 6702 3990 6707C3990 6715 3966 6742 3830 6887C3808 6911 3790 6934 3790 6940C3790 6945 3772 6969 3750 6991C3728 7014 3710 7034 3710 7036C3710 7038 3697 7053 3680 7070C3664 7087 3650 7107 3650 7115C3650 7123 3646 7130 3640 7130C3635 7130 3630 7137 3630 7145C3630 7154 3623 7163 3615 7166C3607 7170 3600 7179 3600 7186C3600 7194 3591 7211 3579 7223C3549 7255 3520 7324 3520 7363C3520 7413 3499 7510 3488 7510C3482 7510 3480 7516 3483 7524C3486 7532 3483 7557 3476 7580C3464 7621 3461 7624 3409 7636C3292 7665 3240 7684 3240 7697C3240 7704 3231 7710 3220 7710C3209 7710 3200 7714 3200 7719C3200 7725 3185 7723 3166 7715C3148 7707 3130 7704 3127 7707C3123 7710 3113 7707 3105 7700C3093 7690 3086 7690 3078 7698C3062 7714 3030 7713 3030 7696C3030 7678 2998 7670 2976 7682C2966 7687 2954 7687 2944 7682C2934 7677 2911 7676 2890 7681C2870 7686 2833 7686 2809 7682C2773 7676 2764 7670 2762 7650C2760 7637 2764 7621 2772 7616C2779 7610 2786 7595 2787 7583C2789 7570 2798 7552 2809 7541C2819 7531 2834 7506 2841 7486C2848 7466 2858 7450 2862 7450C2866 7450 2870 7444 2870 7436C2870 7428 2876 7415 2883 7408C2910 7378 2931 7327 2920 7316C2899 7295 2911 7271 2963 7229C3039 7165 3074 7130 3102 7085C3116 7063 3135 7039 3144 7031C3153 7024 3160 7012 3160 7006C3160 6995 3170 6983 3268 6872C3334 6797 3344 6785 3355 6768C3361 6760 3378 6733 3394 6709C3410 6685 3426 6663 3430 6660C3434 6657 3455 6633 3475 6605C3496 6578 3517 6554 3522 6552C3526 6550 3530 6540 3530 6530C3530 6520 3541 6503 3555 6492C3568 6481 3577 6471 3575 6468C3572 6465 3579 6455 3590 6445C3614 6424 3616 6394 3595 6386C3587 6383 3580 6376 3580 6369C3580 6352 3491 6270 3473 6270C3464 6270 3459 6268 3462 6265C3469 6258 3342 6130 3329 6130C3324 6130 3320 6124 3320 6117C3320 6110 3309 6096 3295 6086C3281 6076 3270 6062 3270 6055C3270 6048 3262 6034 3253 6022C3243 6011 3226 5989 3215 5973C3204 5958 3176 5927 3153 5904C3129 5881 3110 5860 3110 5857C3110 5851 3078 5819 3035 5783C3027 5776 3017 5770 3011 5770C3006 5770 2982 5752 2958 5731C2915 5692 2915 5692 2914 5573C2914 5507 2908 5439 2901 5418C2894 5397 2891 5376 2894 5371C2898 5366 2895 5360 2889 5358C2884 5356 2877 5328 2874 5295C2868 5217 2863 5183 2850 5140C2834 5086 2837 5010 2855 5004C2863 5000 2870 4988 2870 4975C2870 4963 2879 4945 2890 4935C2901 4925 2910 4911 2910 4903C2910 4895 2920 4870 2932 4847C2944 4824 2960 4790 2966 4772C2978 4740 2977 4739 2949 4733C2928 4729 2918 4719 2910 4694C2903 4673 2892 4660 2881 4660C2860 4660 2640 4459 2640 4439C2640 4435 2628 4427 2613 4422C2597 4416 2565 4394 2540 4371C2516 4349 2462 4312 2420 4290C2379 4268 2316 4234 2281 4215C2208 4175 2180 4172 2162 4200C2150 4220 2110 4228 2110 4210C2110 4205 2099 4190 2086 4177C2073 4164 2059 4139 2056 4123C2052 4106 2038 4084 2024 4074C2010 4063 2000 4045 2000 4030C2000 4006 1951 3864 1930 3828C1924 3818 1920 3801 1920 3791C1920 3780 1916 3769 1911 3765C1906 3762 1899 3746 1895 3730C1891 3713 1885 3700 1880 3700C1875 3700 1868 3686 1865 3668C1861 3651 1849 3621 1839 3603C1828 3584 1820 3561 1820 3550C1820 3539 1815 3530 1809 3530C1803 3530 1800 3523 1804 3515C1809 3500 1792 3450 1778 3440C1774 3436 1761 3408 1751 3377C1729 3313 1695 3263 1685 3280C1673 3299 1634 3291 1620 3265C1608 3242 1601 3240 1541 3240C1505 3240 1448 3234 1415 3226C1382 3219 1324 3212 1285 3211C1247 3210 1177 3203 1130 3195C1083 3187 1000 3178 944 3174L843 3168L827 3212C818 3236 810 3267 810 3280C810 3294 799 3337 785 3375C771 3414 753 3483 744 3530C730 3614 730 3614 766 3647C813 3689 934 3770 985 3794C1027 3814 1062 3822 1170 3840C1206 3846 1250 3856 1268 3861C1286 3867 1318 3874 1338 3876C1395 3883 1410 3890 1419 3913C1428 3937 1415 4047 1401 4065C1396 4070 1390 4098 1386 4125C1383 4153 1379 4187 1377 4203C1375 4218 1373 4250 1372 4274C1370 4313 1367 4319 1340 4329C1311 4339 1310 4341 1310 4404C1310 4467 1309 4470 1286 4470C1273 4470 1249 4463 1234 4455C1218 4447 1197 4440 1188 4440C1179 4440 1168 4436 1165 4430C1162 4425 1144 4420 1127 4420C1101 4420 1087 4412 1060 4378C1041 4355 1014 4327 1001 4315C987 4304 969 4288 961 4280C925 4246 890 4230 866 4236C846 4241 831 4232 784 4186C752 4155 718 4130 709 4130C700 4130 690 4123 686 4115C683 4107 674 4100 665 4100C657 4100 650 4096 650 4090C650 4085 644 4080 636 4080C629 4080 617 4073 610 4065C595 4046 566 4046 548 4063C541 4071 525 4082 513 4089C468 4112 428 4054 464 4018C490 3991 452 3890 415 3890C409 3890 397 3878 388 3863C376 3841 372 3804 371 3696C370 3620 366 3552 362 3546C358 3540 355 3519 354 3500C354 3481 350 3440 346 3410C339 3357 333 3332 309 3255C300 3224 302 3216 331 3173C349 3147 375 3106 388 3081C401 3055 419 3023 428 3008C442 2984 442 2980 427 2965C405 2944 405 2905 428 2882C437 2872 460 2834 478 2797C500 2750 518 2726 536 2720C550 2714 674 2710 814 2710C1109 2710 1130 2706 1130 2652C1130 2631 1124 2597 1116 2575C1108 2550 1102 2475 1101 2375C1098 2170 1094 2117 1079 2077C1064 2035 1082 1993 1153 1906C1180 1872 1207 1835 1213 1822C1218 1810 1227 1800 1232 1800C1236 1800 1240 1793 1240 1785C1240 1777 1244 1770 1248 1770C1253 1770 1266 1752 1279 1730C1291 1708 1305 1690 1311 1690C1316 1690 1320 1685 1320 1679C1320 1672 1331 1657 1345 1644C1359 1631 1370 1618 1370 1615C1370 1612 1387 1586 1408 1557C1442 1510 1480 1441 1480 1426C1480 1423 1473 1420 1465 1420C1457 1420 1450 1416 1450 1412C1450 1407 1432 1396 1410 1386C1388 1376 1356 1357 1340 1344C1324 1330 1284 1306 1253 1290C1190 1259 1169 1242 1130 1192C1105 1161 1068 1150 1055 1170C1052 1176 1038 1180 1026 1180C999 1180 840 1242 794 1271C728 1312 660 1286 660 1220C660 1206 655 1189 648 1182C641 1175 640 1170 644 1170C649 1170 641 1161 627 1150C613 1139 598 1130 594 1130C589 1130 566 1122 543 1113C489 1090 472 1061 488 1016C495 998 500 976 500 967C500 958 506 947 514 943C526 936 535 910 544 854C546 842 555 819 564 802C573 785 580 760 580 747C580 715 614 673 653 655C712 628 782 584 792 567C797 558 809 550 819 550C830 550 840 544 843 537C846 529 881 506 922 485C962 464 997 443 1000 439C1003 435 1017 429 1032 425C1047 421 1083 393 1112 363C1141 333 1175 299 1188 287C1200 276 1210 260 1210 253C1210 246 1217 240 1225 240C1233 240 1240 235 1240 228C1240 222 1254 204 1271 189C1302 161 1304 161 1414 164C1475 166 1546 172 1572 179C1617 189 1621 188 1662 161C1703 132 1753 91 1795 50C1831 15 1900 28 1900 71C1900 103 1928 115 1960 97C1975 88 1995 80 2004 80C2013 80 2020 73 2020 64C2020 56 2023 51 2028 54C2032 56 2053 50 2075 40C2125 16 2147 15 2159 38C2169 57 2167 161 2155 222C2148 257 2150 260 2176 266C2192 270 2209 275 2215 278C2220 281 2240 285 2260 287C2279 289 2304 297 2315 304C2326 311 2360 323 2390 330C2420 337 2466 348 2492 356C2518 364 2545 370 2554 370C2562 370 2570 374 2572 380C2574 385 2585 391 2597 393C2648 400 2663 431 2675 550C2679 580 2685 616 2690 630C2700 659 2713 711 2715 725C2724 801 2734 831 2766 869C2797 905 2882 965 2902 965C2906 965 2918 973 2930 982C2941 992 2961 1002 2975 1006C2989 1009 3000 1016 3000 1021C3000 1026 3006 1030 3013 1030C3020 1030 3057 1043 3095 1060C3134 1076 3183 1090 3205 1090C3272 1090 3410 1145 3410 1171C3410 1185 3367 1222 3338 1232C3322 1238 3310 1246 3310 1250C3310 1254 3299 1261 3285 1264C3271 1268 3260 1275 3260 1280C3260 1286 3253 1290 3245 1290C3237 1290 3222 1294 3212 1299C3203 1304 3156 1327 3108 1350C3048 1379 3020 1399 3016 1413C3013 1425 3015 1436 3020 1438C3026 1440 3030 1448 3030 1456C3030 1464 3035 1470 3040 1470C3046 1470 3050 1477 3050 1485C3050 1493 3054 1500 3058 1500C3063 1500 3073 1512 3081 1528C3106 1578 3184 1670 3298 1788L3412 1904L3406 2014C3403 2075 3397 2164 3394 2212C3388 2299 3388 2299 3416 2306C3432 2310 3462 2324 3483 2337C3504 2350 3525 2358 3530 2355C3535 2352 3549 2358 3560 2368C3571 2378 3598 2393 3620 2400C3642 2407 3665 2419 3671 2426C3686 2444 3687 2513 3672 2518C3665 2520 3660 2530 3660 2540C3660 2551 3652 2576 3643 2597C3568 2768 3564 2783 3577 2823C3583 2840 3591 2869 3595 2887C3599 2905 3609 2922 3619 2925C3629 2928 3660 2952 3687 2978C3715 3005 3759 3040 3786 3058C3813 3075 3853 3105 3875 3124C3897 3144 3918 3160 3922 3160C3926 3160 3939 3170 3952 3183C3965 3195 3998 3223 4025 3245C4053 3267 4078 3290 4083 3297C4091 3310 4136 3355 4166 3381C4226 3432 4390 3615 4390 3631C4390 3642 4395 3650 4400 3650C4406 3650 4413 3658 4417 3668C4425 3691 4487 3767 4530 3808C4571 3846 4567 3841 4625 3902C4649 3928 4672 3961 4676 3975C4679 3989 4686 4000 4691 4000C4695 4000 4707 4016 4716 4036C4725 4056 4739 4074 4747 4077C4754 4080 4760 4089 4760 4096C4760 4104 4767 4113 4775 4116C4783 4119 4795 4137 4801 4155C4808 4174 4821 4191 4831 4193C4854 4199 4861 4273 4843 4325C4835 4347 4825 4392 4820 4425C4815 4458 4806 4508 4800 4535C4794 4563 4790 4619 4791 4660C4794 4735 4794 4735 4844 4785C4904 4844 4974 4900 4988 4900C4994 4900 5000 4903 5002 4908C5004 4912 5040 4933 5084 4955C5127 4977 5172 5004 5184 5015C5196 5026 5219 5044 5234 5055C5260 5073 5277 5091 5348 5168C5376 5200 5376 5227 5346 5287C5333 5313 5319 5355 5315 5380C5312 5405 5305 5434 5301 5445C5296 5456 5285 5484 5275 5507C5265 5530 5258 5560 5258 5575C5258 5589 5254 5603 5249 5606C5244 5609 5240 5620 5240 5631C5240 5642 5233 5653 5225 5656C5217 5660 5210 5671 5210 5682C5210 5692 5203 5715 5194 5731C5176 5768 5174 5844 5191 5885C5198 5902 5203 5918 5202 5923C5201 5927 5204 5930 5209 5930C5213 5930 5220 5950 5223 5975C5227 6000 5237 6031 5245 6044C5254 6057 5260 6072 5259 6076C5255 6093 5273 6145 5291 6172C5302 6186 5310 6205 5310 6214C5310 6223 5317 6233 5325 6236C5354 6247 5340 6281 5280 6342C5247 6375 5220 6407 5220 6411C5220 6415 5199 6441 5174 6467C5149 6493 5121 6527 5112 6543C5103 6558 5092 6570 5088 6570C5084 6570 5080 6574 5080 6580C5080 6585 5062 6608 5040 6632C5018 6656 5000 6679 5000 6684C5000 6688 4978 6715 4951 6744C4869 6828 4840 6873 4857 6889C4877 6908 4869 6945 4845 6945C4822 6945 4812 6911 4832 6899C4839 6894 4840 6890 4835 6890C4823 6890 4790 6926 4790 6939C4790 6944 4783 6950 4775 6954C4767 6957 4760 6969 4760 6980C4760 6991 4756 7000 4750 7000C4738 7000 4737 7037 4749 7044C4753 7047 4813 7051 4881 7054C5073 7061 5106 7085 5028 7163C5019 7172 5008 7180 5005 7180C5002 7180 4979 7195 4953 7214C4926 7232 4885 7258 4860 7271C4791 7308 4773 7327 4788 7348C4794 7357 4806 7379 4813 7395C4821 7412 4847 7446 4871 7472C4895 7497 4923 7534 4934 7553C4958 7600 4997 7614 5095 7615C5139 7615 5178 7620 5182 7625C5187 7631 5190 7631 5190 7624C5190 7611 5324 7617 5350 7630C5377 7644 5371 7675 5339 7689C5315 7700 5307 7700 5294 7689C5281 7679 5277 7679 5269 7691C5262 7701 5258 7702 5252 7693C5248 7686 5201 7680 5125 7676C5006 7672 4954 7662 4893 7634C4876 7626 4857 7620 4851 7620C4845 7620 4840 7616 4840 7610C4840 7605 4832 7600 4823 7600C4805 7599 4714 7570 4695 7558C4690 7555 4658 7547 4625 7540C4592 7533 4549 7522 4530 7515C4511 7508 4478 7500 4458 7496C4425 7490 4420 7491 4420 7509C4420 7529 4432 7544 4469 7570C4480 7578 4490 7590 4490 7598C4490 7605 4494 7609 4499 7605C4505 7602 4512 7606 4517 7613C4521 7621 4535 7632 4548 7639C4560 7645 4570 7658 4570 7668C4570 7681 4572 7682 4579 7672C4586 7661 4588 7661 4593 7674C4597 7683 4606 7690 4614 7690C4621 7690 4630 7696 4633 7704C4636 7712 4655 7724 4675 7731C4695 7739 4709 7749 4706 7756C4701 7769 4722 7792 4736 7789C4770 7783 4810 7792 4810 7805C4810 7814 4816 7817 4825 7814C4833 7810 4840 7813 4840 7819C4840 7825 4847 7830 4855 7830C4863 7830 4875 7839 4882 7850C4889 7861 4903 7870 4912 7870C4922 7870 4930 7874 4930 7879C4930 7888 4988 7872 5000 7860C5010 7850 5072 7820 5082 7820C5088 7820 5105 7809 5119 7796C5222 7699 5238 7691 5266 7721C5276 7732 5278 7740 5272 7740C5265 7740 5251 7749 5239 7761C5228 7772 5210 7782 5199 7783C5189 7784 5180 7790 5180 7797C5180 7804 5169 7812 5156 7816C5141 7819 5130 7830 5128 7843C5126 7857 5114 7867 5090 7873C5071 7878 5051 7888 5047 7896C5043 7904 5033 7910 5025 7910C5018 7910 5008 7919 5005 7930C5002 7941 4991 7950 4981 7950C4971 7950 4955 7941 4945 7930M3000 7626C3000 7612 3005 7598 3010 7595C3016 7591 3030 7570 3041 7547C3053 7525 3077 7492 3094 7475C3129 7439 3148 7413 3156 7388C3160 7378 3169 7370 3176 7370C3184 7370 3190 7364 3190 7356C3190 7348 3197 7334 3205 7326C3219 7312 3214 7311 3148 7311C3039 7311 3017 7317 2995 7352C2984 7369 2966 7398 2955 7415C2944 7433 2920 7464 2903 7484C2885 7504 2870 7526 2870 7533C2870 7540 2856 7560 2839 7578C2821 7597 2811 7615 2816 7620C2823 7627 2897 7639 2988 7649C2994 7649 3000 7639 3000 7626M3171 7590C3190 7539 3210 7457 3205 7452C3197 7444 3160 7472 3160 7485C3160 7493 3154 7500 3147 7500C3140 7500 3130 7510 3125 7523C3119 7535 3109 7544 3102 7543C3095 7541 3090 7548 3090 7559C3090 7569 3083 7583 3075 7590C3049 7612 3090 7641 3140 7636C3148 7635 3162 7615 3171 7590M3256 7575C3265 7556 3276 7540 3281 7540C3286 7540 3290 7535 3290 7530C3290 7515 3370 7389 3397 7361C3422 7335 3425 7324 3410 7315C3384 7299 3308 7371 3290 7427C3283 7448 3273 7470 3269 7476C3264 7482 3259 7500 3258 7516C3256 7532 3246 7554 3235 7565C3210 7590 3205 7610 3225 7610C3233 7610 3247 7594 3256 7575M3388 7569C3421 7558 3433 7533 3445 7455L3452 7415L3415 7455C3396 7477 3371 7504 3361 7515C3351 7526 3338 7545 3331 7558C3321 7577 3322 7580 3338 7580C3349 7580 3371 7575 3388 7569M4803 7477C4777 7443 4752 7414 4748 7412C4744 7410 4740 7402 4740 7394C4740 7386 4731 7380 4721 7380C4683 7380 4670 7369 4670 7336C4670 7318 4662 7295 4653 7284C4643 7274 4629 7253 4621 7238C4613 7222 4601 7210 4593 7210C4586 7210 4580 7205 4580 7198C4580 7192 4561 7207 4538 7232C4471 7304 4457 7323 4437 7359C4419 7392 4419 7394 4436 7407C4446 7414 4462 7420 4472 7420C4482 7420 4490 7425 4490 7430C4490 7436 4498 7440 4508 7440C4517 7440 4537 7446 4552 7454C4566 7462 4601 7471 4629 7475C4657 7479 4680 7485 4680 7490C4680 7494 4697 7500 4718 7503C4738 7507 4773 7518 4795 7529C4817 7539 4838 7546 4843 7543C4847 7541 4829 7511 4803 7477M4437 7220C4447 7201 4457 7183 4461 7180C4464 7177 4476 7159 4487 7140C4508 7106 4508 7103 4492 7070C4468 7021 4400 6962 4416 7005C4420 7013 4417 7020 4410 7020C4403 7020 4400 7027 4404 7035C4407 7043 4406 7050 4402 7050C4398 7050 4394 7082 4393 7122C4392 7161 4387 7197 4383 7201C4378 7206 4376 7230 4379 7256C4382 7303 4382 7303 4401 7279C4411 7266 4427 7239 4437 7220M4787 7240C4811 7224 4840 7210 4851 7210C4861 7210 4870 7206 4870 7200C4870 7195 4876 7190 4883 7190C4890 7190 4913 7176 4934 7158C4969 7129 4971 7125 4955 7114C4943 7105 4931 7104 4912 7111C4882 7123 4668 7126 4651 7116C4644 7112 4640 7117 4640 7130C4640 7151 4687 7230 4700 7230C4704 7230 4710 7239 4713 7250C4720 7277 4734 7275 4787 7240M3486 7252C3491 7248 3509 7227 3525 7205C3542 7183 3561 7161 3567 7157C3574 7153 3580 7142 3580 7134C3580 7126 3587 7117 3595 7114C3603 7110 3610 7104 3610 7099C3610 7090 3618 7078 3648 7045C3654 7038 3660 7027 3660 7021C3660 7015 3668 7006 3679 7001C3689 6995 3713 6967 3731 6938C3749 6909 3767 6883 3771 6880C3774 6877 3794 6853 3815 6825C3835 6798 3864 6763 3879 6749C3914 6714 3940 6681 3940 6672C3940 6668 3948 6657 3958 6648C3979 6627 3992 6611 4013 6580C4026 6559 4026 6553 4015 6542C4003 6532 3984 6546 3906 6623C3854 6675 3795 6728 3775 6741C3756 6754 3737 6774 3734 6785C3730 6795 3717 6813 3704 6823C3691 6833 3680 6846 3680 6851C3680 6864 3654 6890 3642 6890C3636 6890 3629 6908 3625 6930C3621 6952 3614 6970 3609 6970C3604 6970 3600 6974 3600 6979C3600 6984 3582 7006 3560 7029C3538 7051 3520 7077 3520 7085C3520 7093 3516 7100 3510 7100C3505 7100 3500 7107 3500 7115C3500 7123 3496 7130 3490 7130C3485 7130 3483 7137 3486 7145C3490 7154 3486 7160 3477 7160C3468 7160 3456 7176 3449 7195C3442 7214 3432 7230 3426 7230C3421 7230 3425 7237 3436 7245C3457 7261 3470 7263 3486 7252M3260 7237C3260 7232 3253 7222 3245 7214C3237 7205 3230 7202 3230 7205C3230 7209 3216 7198 3200 7180C3166 7143 3147 7149 3137 7199C3133 7219 3122 7231 3103 7238C3081 7246 3094 7248 3167 7247C3218 7246 3260 7241 3260 7237M3336 7077C3374 6978 3377 6969 3389 6950C3415 6904 3430 6870 3430 6856C3430 6847 3435 6840 3440 6840C3446 6840 3450 6831 3450 6819C3450 6808 3460 6785 3471 6768C3483 6752 3496 6723 3500 6704C3507 6673 3506 6671 3489 6681C3479 6686 3470 6696 3470 6703C3470 6710 3456 6728 3440 6744C3423 6760 3410 6780 3410 6787C3410 6795 3406 6798 3400 6795C3395 6792 3390 6795 3390 6802C3390 6810 3368 6839 3340 6867C3313 6895 3290 6922 3290 6927C3290 6931 3278 6946 3265 6959C3251 6972 3240 6988 3240 6994C3240 7001 3229 7012 3216 7020C3189 7034 3175 7071 3192 7081C3199 7085 3208 7086 3212 7084C3216 7081 3220 7086 3220 7094C3220 7103 3225 7110 3230 7110C3236 7110 3253 7121 3268 7135C3283 7149 3297 7160 3300 7160C3303 7160 3319 7123 3336 7077M3425 7109C3442 7081 3465 7050 3478 7040C3490 7030 3500 7018 3500 7013C3500 7007 3510 6992 3523 6978C3535 6965 3554 6936 3565 6915C3576 6893 3590 6870 3596 6863C3602 6857 3620 6831 3636 6806C3652 6781 3670 6760 3677 6760C3683 6760 3691 6752 3695 6741C3702 6719 3760 6657 3796 6634C3809 6625 3820 6613 3820 6607C3820 6602 3831 6587 3845 6574C3879 6543 3877 6534 3830 6510C3808 6499 3790 6486 3790 6481C3790 6476 3772 6465 3749 6456C3706 6439 3680 6446 3680 6476C3680 6484 3676 6490 3670 6490C3665 6490 3660 6497 3660 6505C3660 6512 3654 6523 3647 6527C3636 6534 3617 6569 3592 6630C3556 6716 3544 6743 3513 6810C3494 6851 3465 6912 3450 6945C3417 7014 3386 7093 3376 7133C3365 7178 3392 7165 3425 7109M4584 6967C4598 6946 4610 6923 4610 6915C4610 6907 4615 6900 4620 6900C4626 6900 4630 6891 4630 6881C4630 6871 4637 6860 4645 6856C4653 6853 4660 6843 4660 6834C4660 6825 4669 6805 4681 6789C4692 6773 4706 6744 4711 6725C4717 6706 4725 6690 4730 6690C4736 6690 4740 6680 4740 6667C4740 6654 4748 6635 4758 6624C4767 6614 4781 6593 4787 6578C4799 6551 4799 6551 4754 6568C4730 6577 4710 6588 4710 6592C4710 6596 4705 6600 4699 6600C4692 6600 4672 6616 4653 6635C4634 6654 4615 6670 4611 6670C4594 6670 4533 6737 4526 6763C4521 6786 4514 6790 4486 6790C4455 6790 4452 6792 4446 6831C4440 6866 4444 6880 4466 6914C4491 6952 4550 7013 4556 7007C4558 7006 4570 6988 4584 6967M4718 6912C4730 6899 4740 6885 4740 6880C4740 6874 4745 6870 4750 6870C4756 6870 4760 6864 4760 6857C4760 6849 4797 6805 4843 6757C4888 6710 4948 6643 4975 6609C5003 6575 5031 6542 5038 6534C5044 6527 5050 6518 5050 6513C5050 6509 5059 6499 5070 6492C5081 6485 5090 6474 5090 6467C5090 6460 5106 6441 5125 6425C5144 6408 5160 6392 5160 6388C5160 6385 5182 6358 5210 6328C5237 6299 5260 6268 5260 6260C5259 6242 5225 6142 5216 6133C5213 6130 5210 6120 5210 6111C5210 6102 5203 6082 5195 6066C5187 6050 5173 6013 5164 5984C5148 5927 5141 5917 5123 5928C5108 5938 5062 6042 5067 6057C5069 6063 5066 6071 5061 6075C5055 6078 5050 6092 5050 6106C5050 6119 5046 6130 5040 6130C5035 6130 5030 6136 5030 6144C5030 6151 5024 6163 5016 6169C5009 6175 5000 6198 4996 6220C4993 6242 4985 6260 4980 6260C4974 6260 4970 6269 4970 6279C4970 6290 4966 6302 4960 6305C4955 6308 4950 6321 4950 6333C4950 6346 4943 6366 4934 6379C4921 6397 4919 6415 4924 6471C4933 6556 4926 6580 4895 6580C4868 6580 4847 6607 4805 6693C4790 6724 4774 6753 4769 6756C4764 6759 4760 6770 4760 6781C4760 6791 4756 6800 4750 6800C4745 6800 4740 6804 4740 6809C4740 6815 4727 6839 4710 6863C4694 6888 4680 6915 4680 6923C4680 6932 4676 6942 4670 6945C4665 6948 4660 6959 4661 6968C4661 6981 4665 6979 4678 6960C4687 6946 4705 6925 4718 6912M4719 6501C4733 6492 4760 6478 4778 6470C4829 6450 4840 6426 4839 6340C4839 6299 4835 6257 4831 6246C4824 6229 4823 6229 4809 6251C4800 6264 4790 6283 4787 6293C4783 6303 4776 6308 4770 6305C4765 6302 4760 6306 4760 6315C4760 6324 4749 6346 4735 6364C4721 6382 4710 6402 4710 6408C4710 6415 4704 6420 4696 6420C4680 6420 4668 6443 4663 6485C4661 6502 4655 6517 4650 6518C4644 6520 4640 6526 4640 6531C4640 6542 4684 6526 4719 6501M3910 6440C3910 6429 3901 6411 3890 6400C3879 6389 3870 6371 3870 6360C3870 6333 3849 6326 3803 6337C3751 6349 3751 6371 3801 6406C3888 6466 3910 6473 3910 6440M3677 6294C3698 6292 3729 6284 3745 6276C3762 6267 3785 6260 3798 6260C3832 6260 3825 6242 3765 6185C3735 6156 3710 6127 3710 6121C3710 6115 3700 6105 3688 6099C3665 6087 3643 6070 3612 6038C3603 6028 3592 6020 3587 6020C3583 6020 3567 6009 3552 5995C3537 5981 3520 5970 3513 5970C3507 5970 3489 5959 3473 5946C3458 5933 3435 5920 3423 5916C3410 5912 3400 5902 3400 5894C3400 5886 3396 5881 3391 5884C3386 5887 3377 5883 3370 5875C3364 5868 3337 5853 3312 5844C3286 5834 3258 5821 3250 5814C3226 5795 3130 5757 3123 5764C3119 5767 3131 5783 3148 5798C3166 5814 3180 5831 3180 5837C3180 5842 3192 5860 3206 5876C3231 5904 3312 6019 3337 6064C3344 6075 3350 6079 3350 6073C3350 6048 3366 6061 3379 6095C3386 6114 3395 6128 3400 6125C3404 6122 3435 6149 3468 6184C3501 6219 3541 6255 3556 6263C3572 6271 3594 6288 3604 6299C3617 6314 3626 6317 3631 6309C3635 6303 3655 6296 3677 6294M4920 6216C4920 6203 4926 6190 4933 6187C4939 6185 4951 6165 4959 6144C4972 6105 5001 6040 5058 5920C5078 5879 5087 5846 5083 5832C5077 5808 5060 5802 5060 5824C5060 5832 5049 5852 5035 5868C5021 5885 5010 5901 5010 5904C5010 5914 4960 5990 4923 6036C4889 6079 4881 6131 4896 6209C4904 6246 4920 6251 4920 6216M3767 6053C3761 6032 3753 6013 3750 6010C3744 6004 3726 5958 3699 5880C3688 5850 3675 5821 3670 5816C3664 5810 3660 5798 3660 5787C3660 5777 3653 5762 3645 5754C3637 5745 3630 5725 3630 5709C3630 5693 3626 5680 3620 5680C3615 5680 3610 5670 3610 5658C3610 5634 3574 5554 3559 5544C3554 5541 3550 5530 3550 5519C3550 5509 3544 5500 3538 5499C3504 5496 3466 5503 3455 5514C3448 5521 3424 5532 3401 5540C3379 5547 3360 5557 3360 5561C3360 5572 3277 5616 3191 5651L3127 5678L3204 5715C3246 5736 3280 5755 3280 5759C3280 5762 3295 5771 3313 5778C3330 5785 3352 5796 3360 5801C3368 5806 3385 5814 3398 5820C3410 5825 3420 5834 3420 5840C3420 5845 3427 5850 3435 5850C3443 5850 3450 5853 3450 5858C3450 5862 3466 5874 3485 5884C3504 5895 3520 5907 3520 5912C3520 5916 3527 5920 3535 5920C3543 5920 3550 5925 3550 5930C3550 5936 3556 5940 3564 5940C3572 5940 3592 5954 3608 5970C3625 5987 3641 6000 3645 6000C3648 6000 3656 6004 3663 6010C3702 6042 3766 6089 3772 6089C3775 6090 3773 6073 3767 6053M4937 5923C4953 5896 4970 5868 4974 5860C4977 5852 4991 5825 5005 5801C5030 5757 5040 5680 5020 5680C5015 5680 4994 5647 4974 5608C4954 5568 4925 5511 4910 5482C4894 5453 4877 5416 4871 5400C4855 5352 4829 5361 4835 5413C4837 5436 4842 5482 4846 5515C4855 5602 4859 5631 4865 5639C4867 5644 4870 5714 4871 5796C4873 5984 4884 6005 4937 5923M4809 5798C4808 5736 4804 5681 4800 5675C4795 5670 4789 5629 4786 5585C4779 5496 4763 5386 4761 5410C4761 5418 4747 5436 4730 5450C4714 5464 4700 5478 4700 5482C4700 5489 4689 5503 4646 5553C4608 5597 4580 5650 4580 5677C4580 5698 4599 5725 4659 5788C4703 5833 4743 5870 4747 5870C4752 5870 4763 5879 4773 5890C4806 5929 4811 5915 4809 5798M3786 5838C3782 5803 3772 5744 3764 5705C3745 5620 3734 5568 3725 5515C3716 5465 3696 5446 3669 5463C3655 5472 3648 5472 3638 5462C3618 5442 3602 5448 3608 5475C3610 5489 3616 5500 3621 5500C3626 5500 3630 5508 3630 5518C3630 5528 3637 5545 3645 5556C3653 5566 3660 5587 3660 5603C3660 5618 3665 5630 3670 5630C3676 5630 3680 5641 3680 5655C3680 5668 3694 5705 3710 5735C3727 5765 3740 5797 3740 5804C3740 5819 3781 5900 3788 5900C3790 5900 3789 5872 3786 5838M4467 5692C4505 5642 4530 5584 4530 5546C4530 5528 4534 5510 4539 5505C4544 5499 4550 5477 4553 5455C4561 5400 4579 5311 4591 5275C4605 5233 4612 5162 4603 5157C4598 5154 4594 5163 4593 5177C4593 5191 4582 5215 4571 5231C4559 5247 4550 5266 4551 5273C4552 5279 4548 5298 4542 5313C4535 5329 4530 5346 4530 5351C4530 5356 4523 5363 4515 5366C4507 5370 4500 5381 4500 5391C4500 5402 4492 5420 4482 5430C4472 5441 4458 5472 4451 5499C4444 5527 4432 5554 4424 5561C4416 5567 4410 5580 4410 5589C4410 5599 4401 5616 4391 5627C4380 5639 4373 5650 4376 5653C4379 5655 4372 5682 4360 5711C4349 5741 4340 5781 4340 5800C4340 5835 4340 5835 4389 5782C4417 5752 4451 5712 4467 5692M5155 5540C5181 5509 5240 5373 5250 5321C5264 5247 5263 5240 5240 5240C5218 5240 5214 5250 5230 5266C5245 5281 5231 5312 5211 5308C5202 5306 5191 5294 5185 5282C5174 5256 5168 5256 5015 5279C4879 5300 4885 5298 4904 5319C4913 5329 4920 5342 4920 5348C4920 5355 4924 5360 4929 5360C4934 5360 4941 5370 4945 5383C4959 5431 5000 5518 5028 5556C5040 5573 5050 5596 5050 5607C5050 5618 5060 5631 5072 5637C5091 5645 5096 5641 5118 5601C5131 5576 5148 5548 5155 5540M3114 5605C3145 5591 3179 5580 3190 5580C3210 5580 3246 5564 3418 5482C3526 5430 3524 5421 3406 5419C3364 5418 3313 5414 3293 5409C3271 5404 3251 5405 3244 5411C3229 5423 3202 5413 3190 5390C3185 5381 3161 5365 3136 5356C3092 5339 3091 5339 3071 5359C3059 5371 3050 5391 3050 5405C3050 5419 3041 5440 3031 5452C3020 5463 3007 5493 3001 5519C2993 5559 2994 5567 3010 5582C3021 5592 3027 5607 3024 5615C3015 5638 3049 5634 3114 5605M4679 5400C4685 5400 4690 5396 4690 5391C4690 5386 4706 5356 4726 5324C4761 5265 4761 5265 4756 5105C4749 4902 4750 4907 4727 4933C4698 4964 4689 4997 4679 5093C4674 5149 4665 5220 4659 5250C4654 5280 4648 5313 4648 5323C4647 5332 4643 5340 4639 5340C4635 5340 4632 5364 4632 5393C4631 5445 4631 5445 4650 5423C4660 5410 4673 5400 4679 5400M2999 5370C3021 5325 3025 5310 3014 5310C3006 5310 3000 5306 3000 5300C3000 5295 2984 5290 2964 5290C2929 5290 2929 5291 2935 5321C2947 5373 2948 5384 2949 5408C2951 5446 2969 5432 2999 5370M3528 5327C3531 5315 3527 5312 3514 5317C3503 5321 3499 5319 3503 5313C3507 5307 3496 5292 3480 5280C3463 5267 3450 5252 3450 5245C3450 5238 3439 5221 3425 5206C3411 5191 3400 5175 3400 5170C3400 5165 3394 5157 3387 5153C3380 5149 3358 5125 3338 5101C3308 5065 3261 5030 3244 5030C3242 5030 3240 5041 3240 5054C3240 5067 3233 5083 3225 5090C3217 5097 3210 5109 3210 5116C3210 5124 3207 5130 3202 5130C3198 5130 3186 5147 3176 5168C3166 5188 3151 5217 3144 5232C3122 5274 3127 5285 3178 5302C3222 5317 3253 5322 3385 5337C3413 5340 3437 5344 3440 5347C3442 5349 3463 5350 3485 5348C3513 5345 3526 5339 3528 5327M3660 5330C3660 5325 3666 5320 3674 5320C3681 5320 3694 5308 3701 5292C3709 5277 3722 5265 3730 5265C3747 5266 3770 5246 3770 5232C3770 5227 3781 5201 3795 5174C3809 5147 3820 5115 3820 5103C3820 5090 3825 5080 3830 5080C3836 5080 3840 5074 3840 5067C3840 5060 3849 5036 3859 5015C3869 4993 3876 4970 3873 4963C3870 4956 3873 4950 3879 4950C3885 4950 3890 4943 3890 4935C3890 4922 3870 4920 3767 4920C3694 4920 3640 4924 3633 4931C3628 4936 3596 4944 3564 4947C3532 4950 3498 4956 3489 4961C3481 4965 3445 4970 3411 4971C3375 4972 3346 4978 3344 4985C3341 4991 3358 5016 3380 5040C3402 5064 3420 5088 3420 5093C3420 5098 3437 5122 3458 5145C3478 5168 3510 5206 3529 5228C3547 5251 3571 5272 3581 5275C3592 5279 3600 5287 3600 5294C3600 5302 3610 5315 3623 5323C3649 5342 3660 5344 3660 5330M3888 5324C3920 5315 3956 5300 3970 5291C3984 5282 4009 5268 4025 5260C4042 5252 4061 5239 4068 5233C4075 5226 4087 5220 4094 5220C4102 5220 4136 5201 4171 5177C4206 5154 4251 5127 4270 5118C4289 5108 4321 5087 4340 5070C4359 5054 4384 5037 4395 5034C4406 5030 4438 5008 4466 4984C4494 4960 4529 4935 4544 4929C4558 4922 4570 4911 4570 4903C4570 4885 4555 4886 4539 4906C4532 4914 4519 4919 4509 4917C4499 4914 4478 4921 4461 4931C4443 4942 4421 4950 4410 4950C4399 4950 4390 4955 4390 4960C4390 4966 4381 4970 4371 4970C4361 4970 4350 4977 4346 4985C4343 4993 4333 5000 4323 5000C4313 5000 4294 5010 4280 5023C4256 5045 4206 5073 4115 5116C4093 5127 4074 5138 4072 5143C4070 5147 4064 5150 4060 5150C4046 5150 3876 5262 3867 5277C3863 5284 3853 5290 3846 5290C3833 5290 3820 5311 3820 5331C3820 5343 3823 5343 3888 5324M3059 5220C3072 5209 3107 5153 3119 5122C3127 5104 3140 5085 3149 5080C3163 5071 3163 5069 3147 5056C3132 5045 3130 5034 3135 5010C3142 4979 3125 4934 3080 4865C3069 4849 3056 4824 3050 4811C3040 4789 3038 4789 3022 4803C3013 4812 2994 4840 2980 4867C2966 4893 2950 4922 2943 4930C2937 4938 2927 4964 2921 4988C2914 5011 2905 5030 2899 5030C2893 5030 2893 5036 2899 5048C2905 5058 2907 5076 2904 5087C2901 5098 2905 5127 2913 5151C2925 5186 2937 5200 2969 5217C3020 5243 3044 5249 3049 5235C3051 5230 3056 5223 3059 5220M5125 5200C5256 5166 5261 5161 5200 5106C5178 5086 5160 5066 5160 5060C5160 5055 5151 5050 5141 5050C5130 5050 5119 5046 5116 5041C5113 5037 5089 5025 5063 5015C5037 5005 4999 4986 4980 4973C4961 4961 4938 4950 4929 4950C4921 4950 4903 4939 4891 4926C4878 4913 4860 4900 4849 4897C4831 4892 4831 4898 4836 5019C4845 5229 4832 5210 4968 5210C5032 5210 5103 5205 5125 5200M3902 5183C3904 5178 3928 5164 3955 5150C3983 5136 4007 5122 4010 5118C4013 5114 4054 5092 4100 5068C4147 5044 4205 5011 4230 4994C4255 4977 4307 4946 4345 4925C4442 4872 4461 4859 4454 4848C4447 4838 4330 4839 4315 4850C4310 4854 4298 4858 4290 4858C4163 4865 4094 4873 4077 4885C4066 4893 4046 4897 4030 4893C4007 4889 3998 4894 3978 4922C3953 4955 3904 5068 3890 5125C3886 5142 3879 5163 3875 5173C3870 5185 3873 5190 3883 5190C3891 5190 3900 5187 3902 5183M3346 4803C3414 4733 3470 4673 3470 4668C3470 4664 3476 4660 3483 4660C3489 4660 3508 4642 3523 4620C3539 4598 3556 4580 3561 4580C3566 4580 3601 4550 3639 4513C3718 4435 3758 4400 3770 4400C3774 4400 3789 4383 3803 4363C3833 4318 3904 4240 3914 4240C3924 4240 3940 4226 4041 4128C4133 4038 4143 4021 4078 4065C4058 4079 4035 4090 4027 4090C4019 4090 3993 4105 3969 4122C3919 4159 3882 4180 3867 4180C3862 4180 3852 4186 3846 4193C3840 4200 3815 4215 3790 4225C3765 4236 3743 4247 3740 4250C3737 4253 3713 4266 3686 4280C3660 4294 3636 4311 3633 4318C3630 4324 3622 4330 3615 4330C3609 4330 3589 4344 3572 4360C3554 4377 3534 4390 3527 4390C3520 4390 3501 4404 3485 4420C3469 4437 3451 4450 3444 4450C3437 4450 3423 4461 3412 4475C3401 4489 3388 4500 3382 4500C3377 4500 3355 4516 3334 4535C3312 4554 3287 4572 3278 4576C3268 4579 3260 4586 3260 4591C3260 4596 3255 4600 3250 4600C3244 4600 3211 4621 3176 4648C3124 4686 3111 4702 3106 4730C3102 4753 3105 4769 3115 4780C3123 4789 3130 4806 3130 4818C3130 4830 3134 4840 3140 4840C3145 4840 3158 4860 3169 4885C3181 4911 3196 4930 3205 4930C3214 4930 3277 4873 3346 4803M3545 4889C3595 4883 3673 4874 3720 4869C3888 4852 3923 4845 3931 4830C3936 4822 3953 4784 3970 4745C3987 4707 4005 4668 4009 4660C4014 4651 4021 4630 4025 4612C4029 4594 4043 4560 4056 4537C4069 4514 4080 4487 4080 4478C4080 4469 4086 4449 4094 4433C4102 4418 4115 4383 4123 4355C4153 4258 4210 4095 4220 4078C4225 4068 4230 4058 4230 4055C4230 4048 4167 4087 4143 4110C4131 4121 4117 4130 4112 4130C4107 4130 4098 4140 4091 4153C4079 4174 3979 4260 3967 4260C3963 4260 3915 4305 3860 4360C3805 4415 3756 4460 3751 4460C3745 4460 3738 4469 3735 4480C3731 4491 3725 4498 3720 4495C3715 4492 3706 4498 3701 4509C3695 4520 3681 4532 3670 4535C3659 4539 3652 4545 3655 4550C3658 4554 3653 4560 3645 4564C3637 4567 3630 4576 3630 4585C3630 4598 3612 4605 3588 4601C3583 4601 3580 4605 3580 4611C3580 4618 3570 4633 3558 4646C3545 4658 3529 4675 3522 4682C3515 4689 3490 4715 3465 4739C3440 4764 3420 4788 3420 4792C3420 4800 3398 4829 3367 4862C3329 4902 3378 4909 3545 4889M4195 4814C4258 4809 4325 4801 4325 4800C4325 4797 4364 4793 4430 4787C4615 4770 4666 4744 4658 4668C4653 4623 4625 4509 4610 4475C4592 4433 4580 4386 4580 4358C4580 4342 4571 4309 4560 4286C4550 4262 4536 4221 4530 4194C4524 4167 4516 4136 4511 4125C4506 4114 4497 4087 4491 4065C4468 3977 4445 3920 4433 3920C4426 3920 4420 3925 4420 3931C4420 3938 4411 3940 4396 3936C4368 3929 4352 3946 4321 4015C4299 4063 4265 4138 4249 4171C4245 4180 4238 4204 4235 4224C4231 4244 4224 4260 4220 4260C4216 4260 4210 4272 4207 4288C4202 4315 4165 4428 4149 4465C4144 4476 4134 4505 4126 4530C4095 4628 4036 4786 4021 4809C4006 4833 4006 4833 4080 4826C4121 4821 4173 4816 4195 4814M2900 4571C2900 4566 2893 4557 2885 4550C2877 4543 2870 4533 2870 4528C2870 4523 2859 4508 2845 4494C2831 4480 2817 4458 2814 4445C2811 4431 2804 4420 2800 4420C2796 4420 2789 4409 2786 4395C2782 4381 2771 4361 2760 4350C2749 4339 2741 4329 2742 4328C2746 4322 2705 4260 2698 4260C2694 4260 2690 4252 2690 4242C2690 4233 2679 4208 2665 4188C2651 4167 2637 4137 2634 4120C2630 4103 2623 4087 2619 4084C2614 4081 2610 4068 2610 4054C2610 4040 2603 4027 2595 4024C2587 4020 2580 4014 2580 4008C2580 3997 2531 3930 2512 3915C2504 3909 2495 3890 2492 3872C2485 3840 2485 3840 2440 3881C2415 3904 2376 3936 2353 3952C2325 3973 2306 3996 2294 4028C2284 4054 2270 4081 2263 4089C2251 4100 2253 4104 2275 4116C2289 4123 2307 4136 2316 4145C2324 4153 2336 4160 2341 4160C2347 4160 2366 4171 2384 4185C2402 4199 2422 4210 2427 4210C2433 4210 2443 4217 2450 4225C2457 4233 2469 4240 2477 4240C2485 4240 2501 4251 2512 4265C2523 4279 2536 4290 2542 4290C2548 4290 2581 4315 2615 4345C2650 4375 2683 4400 2689 4400C2695 4400 2700 4404 2700 4409C2700 4423 2813 4530 2829 4530C2832 4530 2844 4541 2855 4555C2875 4579 2900 4588 2900 4571M3065 4532C3064 4530 3074 4517 3089 4501C3137 4451 3190 4388 3190 4383C3190 4380 3200 4368 3213 4356C3225 4345 3245 4319 3257 4300C3269 4281 3288 4259 3299 4252C3311 4245 3320 4233 3320 4225C3320 4217 3325 4210 3330 4210C3336 4210 3340 4206 3340 4201C3340 4196 3364 4156 3393 4113C3422 4070 3460 4005 3478 3969C3496 3932 3519 3894 3528 3884C3537 3873 3554 3847 3565 3826C3576 3805 3590 3785 3597 3783C3604 3780 3610 3774 3610 3768C3610 3763 3624 3741 3642 3719C3659 3698 3671 3678 3669 3676C3653 3661 3620 3666 3460 3710C3402 3726 3324 3746 3285 3755C3247 3765 3208 3779 3199 3787C3189 3795 3152 3805 3115 3811C3078 3816 3044 3823 3039 3826C3020 3837 3000 3985 2994 4150C2993 4180 2992 4207 2990 4210C2989 4213 2986 4251 2984 4295C2982 4339 2979 4382 2979 4390C2974 4453 2984 4542 2996 4547C3004 4550 3010 4559 3010 4567C3010 4578 3017 4576 3039 4558C3054 4545 3066 4534 3065 4532M3216 4549C3233 4540 3260 4520 3276 4505C3292 4490 3325 4464 3350 4447C3375 4430 3397 4413 3398 4408C3400 4404 3408 4400 3415 4400C3422 4400 3446 4382 3468 4360C3490 4338 3511 4320 3515 4320C3519 4320 3559 4296 3604 4267C3649 4238 3716 4197 3753 4177C3791 4157 3833 4131 3847 4120C3861 4109 3879 4100 3886 4100C3894 4100 3900 4097 3900 4092C3900 4088 3929 4070 3965 4052C4001 4033 4030 4014 4030 4009C4030 4004 4037 4000 4045 4000C4060 4000 4198 3913 4250 3871C4264 3860 4286 3850 4300 3849C4316 3849 4319 3846 4310 3843C4302 3840 4293 3834 4290 3830C4282 3819 4172 3780 4150 3780C4139 3780 4130 3776 4130 3770C4130 3765 4120 3760 4108 3760C4095 3760 4058 3748 4025 3735C3992 3721 3958 3710 3949 3710C3941 3710 3930 3706 3924 3701C3919 3696 3880 3689 3838 3685C3772 3679 3760 3680 3760 3693C3760 3701 3749 3711 3735 3714C3721 3718 3710 3724 3710 3729C3710 3734 3692 3758 3670 3782C3648 3805 3630 3830 3630 3836C3630 3843 3619 3855 3605 3864C3591 3873 3580 3887 3580 3894C3580 3901 3573 3913 3565 3920C3557 3927 3550 3941 3550 3951C3550 3961 3544 3973 3537 3977C3523 3985 3506 4019 3508 4032C3509 4036 3501 4044 3490 4050C3479 4056 3470 4070 3470 4080C3470 4091 3466 4100 3460 4100C3455 4100 3450 4105 3450 4112C3450 4118 3443 4131 3435 4140C3427 4149 3419 4165 3417 4177C3416 4188 3406 4205 3397 4214C3388 4224 3380 4236 3380 4241C3380 4246 3360 4271 3335 4297C3310 4322 3290 4349 3290 4356C3290 4362 3279 4375 3265 4384C3251 4393 3240 4406 3240 4413C3240 4420 3229 4437 3216 4451C3195 4474 3171 4519 3157 4562C3150 4581 3163 4578 3216 4549M4728 4565C4725 4562 4730 4529 4737 4492C4745 4455 4754 4413 4757 4398C4760 4382 4767 4370 4772 4370C4778 4370 4780 4361 4777 4350C4774 4339 4776 4328 4780 4325C4792 4318 4785 4239 4771 4211C4760 4191 4737 4162 4688 4110C4679 4100 4669 4083 4665 4071C4662 4059 4655 4050 4650 4050C4645 4050 4639 4042 4635 4031C4628 4008 4546 3920 4531 3920C4524 3920 4525 3932 4534 3958C4542 3978 4556 4029 4565 4070C4574 4111 4586 4153 4591 4162C4596 4172 4600 4194 4600 4211C4600 4242 4629 4341 4641 4350C4645 4353 4651 4381 4655 4413C4659 4444 4666 4470 4671 4470C4676 4470 4680 4481 4680 4495C4680 4509 4687 4523 4695 4526C4705 4530 4708 4539 4705 4551C4700 4565 4704 4570 4716 4570C4726 4570 4731 4568 4728 4565M2919 4418C2918 4400 2920 4349 2924 4305C2927 4261 2932 4178 2934 4120C2937 4062 2942 3996 2946 3973C2956 3911 2942 3820 2922 3812C2900 3804 2889 3792 2866 3750C2855 3731 2834 3699 2818 3680C2771 3623 2770 3621 2770 3612C2770 3606 2761 3600 2750 3597C2730 3592 2717 3603 2613 3716C2601 3729 2594 3740 2597 3740C2601 3740 2596 3746 2587 3753C2571 3764 2571 3768 2591 3804C2604 3829 2610 3853 2606 3871C2603 3886 2604 3900 2608 3902C2619 3907 2676 4021 2684 4053C2687 4068 2695 4080 2700 4080C2706 4080 2710 4096 2710 4115C2710 4134 2714 4150 2718 4150C2723 4150 2736 4173 2748 4200C2760 4228 2774 4250 2778 4250C2783 4250 2792 4266 2800 4285C2808 4304 2817 4320 2820 4320C2824 4320 2838 4342 2851 4370C2864 4397 2880 4419 2886 4420C2893 4420 2900 4427 2904 4435C2913 4460 2920 4452 2919 4418M1218 4253C1218 4237 1220 4197 1223 4163C1227 4113 1225 4100 1212 4095C1192 4087 1187 4095 1167 4159C1155 4197 1153 4216 1160 4225C1166 4232 1169 4244 1168 4251C1166 4258 1176 4267 1190 4271C1204 4275 1215 4278 1216 4279C1217 4280 1217 4268 1218 4253M1080 4233C1081 4212 1087 4177 1095 4155C1115 4101 1114 4060 1093 4044C1082 4036 1047 4031 1003 4030C932 4030 932 4030 923 4083C912 4151 924 4184 967 4201C985 4208 1000 4217 1000 4221C1000 4229 1060 4270 1073 4270C1077 4270 1080 4253 1080 4233M844 4059C853 4001 831 3965 772 3941C754 3933 722 3915 702 3900C669 3877 586 3840 603 3856C606 3860 599 3877 586 3894C557 3932 561 3945 608 3969C629 3980 655 3998 667 4009C679 4021 694 4030 700 4030C705 4030 710 4034 710 4039C710 4044 720 4052 733 4056C745 4060 757 4066 760 4069C773 4086 814 4108 825 4104C832 4101 840 4081 844 4059M2135 3888C2147 3876 2170 3854 2188 3840C2205 3826 2220 3809 2220 3803C2220 3796 2226 3790 2233 3790C2239 3789 2256 3780 2269 3769C2294 3749 2294 3749 2267 3726C2252 3713 2240 3699 2240 3694C2239 3684 2223 3670 2143 3611C2114 3589 2083 3565 2074 3556C2066 3547 2054 3543 2049 3546C2043 3549 2036 3543 2033 3531C2030 3519 2024 3510 2019 3510C2015 3510 2003 3502 1993 3492C1966 3464 1862 3390 1850 3390C1838 3390 1837 3403 1848 3414C1852 3418 1855 3425 1856 3428C1858 3448 1872 3497 1879 3510C1884 3519 1891 3540 1894 3558C1898 3575 1906 3592 1911 3595C1916 3599 1920 3612 1920 3625C1920 3638 1924 3651 1929 3655C1934 3658 1942 3675 1946 3692C1949 3710 1956 3731 1960 3740C1964 3748 1973 3772 1980 3794C1987 3815 2000 3841 2009 3851C2018 3862 2025 3874 2025 3878C2025 3882 2034 3897 2044 3912C2061 3938 2064 3939 2088 3926C2103 3918 2124 3901 2135 3888M922 3880C943 3861 943 3861 919 3841C906 3830 886 3818 875 3814C864 3811 842 3798 825 3786C779 3752 764 3749 744 3771C730 3787 729 3795 738 3815C744 3829 754 3840 759 3840C764 3840 775 3846 782 3853C834 3902 887 3913 922 3880M4370 3761C4370 3749 4338 3690 4323 3672C4312 3661 4310 3661 4310 3675C4310 3710 4282 3701 4133 3622C4120 3615 4101 3605 4090 3600C4070 3590 3946 3564 3870 3553C3821 3547 3772 3523 3760 3500C3754 3489 3747 3461 3744 3438C3740 3414 3734 3393 3730 3390C3726 3387 3719 3355 3715 3317C3711 3280 3704 3247 3699 3244C3694 3241 3690 3226 3690 3210C3690 3195 3685 3180 3679 3178C3673 3176 3666 3156 3665 3133C3662 3095 3643 3050 3629 3050C3626 3050 3625 3061 3628 3075C3630 3089 3636 3100 3642 3100C3647 3100 3648 3120 3645 3145C3640 3186 3642 3192 3662 3200C3675 3205 3679 3209 3672 3209C3664 3210 3661 3222 3664 3248C3675 3332 3680 3463 3675 3481C3671 3491 3660 3500 3650 3500C3630 3500 3536 3527 3504 3542C3492 3548 3468 3553 3451 3555C3434 3556 3417 3560 3413 3564C3410 3567 3398 3570 3388 3570C3357 3570 3267 3612 3242 3638C3211 3671 3166 3665 3162 3628C3160 3613 3166 3590 3174 3578C3183 3566 3190 3546 3190 3533C3190 3521 3195 3508 3200 3505C3206 3502 3210 3486 3210 3470C3210 3453 3217 3437 3228 3431C3242 3422 3241 3421 3218 3420C3197 3420 3192 3424 3197 3436C3200 3445 3199 3455 3194 3459C3176 3471 3100 3579 3100 3592C3100 3599 3091 3611 3080 3618C3069 3625 3060 3639 3060 3650C3060 3662 3047 3678 3028 3690C2998 3708 2997 3710 3018 3710C3030 3710 3043 3717 3046 3725C3054 3744 3118 3745 3145 3726C3156 3719 3179 3710 3195 3707C3234 3699 3381 3661 3400 3653C3408 3650 3418 3648 3423 3648C3427 3649 3430 3646 3430 3642C3430 3638 3453 3633 3481 3632C3534 3630 3614 3607 3638 3588C3660 3570 3770 3572 3784 3591C3791 3601 3816 3610 3845 3613C3873 3615 3911 3622 3930 3628C3990 3646 4064 3671 4085 3681C4096 3685 4129 3697 4158 3706C4187 3715 4213 3726 4216 3731C4219 3736 4231 3740 4243 3741C4255 3741 4281 3747 4300 3754C4343 3771 4370 3773 4370 3761M511 3720C524 3720 528 3706 529 3638C530 3593 535 3549 539 3541C544 3532 550 3491 553 3450C557 3409 571 3330 585 3275C614 3157 614 3160 595 3160C587 3160 580 3164 580 3168C580 3173 555 3184 525 3194C467 3212 390 3257 390 3273C390 3278 397 3308 405 3339C413 3370 422 3436 426 3485C432 3576 437 3631 440 3640C441 3643 441 3660 440 3677C438 3719 447 3733 474 3726C485 3723 502 3720 511 3720M2982 3694C2989 3687 2940 3610 2928 3610C2924 3610 2920 3605 2920 3600C2920 3584 2839 3460 2829 3460C2824 3460 2820 3455 2820 3449C2820 3443 2807 3421 2792 3401C2777 3381 2758 3353 2751 3338C2743 3322 2731 3310 2725 3310C2719 3310 2708 3298 2701 3283C2686 3249 2665 3210 2634 3152C2616 3117 2613 3104 2622 3086C2632 3064 2685 3040 2724 3040C2733 3040 2743 3033 2746 3025C2750 3017 2758 3010 2766 3010C2774 3010 2780 3006 2780 3000C2780 2995 2759 2998 2733 3007C2706 3015 2667 3024 2645 3027C2623 3029 2595 3036 2583 3042C2551 3058 2510 3044 2510 3018C2510 2995 2531 2928 2541 2920C2550 2912 2580 2852 2580 2841C2580 2836 2591 2819 2605 2804C2619 2789 2630 2771 2630 2764C2630 2756 2634 2750 2639 2750C2644 2750 2652 2741 2655 2730C2658 2719 2681 2675 2704 2632C2728 2590 2752 2539 2759 2519C2765 2499 2780 2473 2791 2461C2802 2449 2814 2423 2817 2402C2822 2367 2822 2366 2807 2385C2798 2396 2790 2413 2790 2422C2790 2432 2784 2437 2778 2435C2770 2432 2757 2448 2745 2473C2734 2496 2715 2525 2703 2537C2690 2549 2680 2566 2680 2575C2680 2584 2669 2603 2655 2618C2641 2633 2630 2652 2630 2661C2630 2670 2623 2681 2614 2684C2604 2688 2600 2696 2604 2706C2607 2714 2603 2728 2594 2737C2586 2745 2576 2765 2573 2781C2570 2797 2563 2810 2558 2810C2552 2810 2550 2819 2553 2830C2558 2850 2522 2916 2471 2981C2452 3006 2451 3010 2466 3038C2474 3055 2490 3072 2500 3075C2511 3079 2520 3085 2520 3090C2520 3094 2528 3100 2538 3102C2554 3107 2565 3131 2585 3206C2588 3218 2601 3239 2613 3252C2671 3317 2730 3401 2730 3419C2730 3425 2737 3427 2745 3424C2754 3420 2760 3424 2760 3434C2760 3443 2767 3450 2775 3450C2784 3450 2790 3459 2790 3472C2790 3495 2839 3577 2870 3605C2881 3615 2890 3628 2890 3634C2890 3640 2904 3658 2921 3673C2951 3699 2971 3706 2982 3694M2360 3670C2370 3665 2409 3631 2447 3595C2484 3559 2518 3530 2523 3530C2527 3530 2530 3523 2530 3515C2530 3507 2534 3500 2538 3500C2543 3500 2566 3482 2590 3461C2633 3423 2634 3421 2620 3393C2612 3378 2579 3332 2547 3291C2514 3250 2486 3210 2483 3203C2477 3187 2411 3186 2343 3200C2317 3205 2284 3211 2270 3214C2231 3220 2121 3240 2060 3251C1936 3274 1900 3284 1900 3295C1900 3305 1976 3390 1985 3390C1988 3390 1999 3398 2009 3408C2047 3442 2114 3495 2139 3511C2153 3520 2189 3551 2217 3579C2246 3607 2273 3630 2278 3630C2282 3630 2297 3641 2310 3654C2340 3683 2337 3682 2360 3670M656 3597C656 3596 663 3583 672 3569C688 3543 694 3522 709 3423C713 3395 721 3365 727 3358C733 3351 741 3318 744 3285C759 3163 758 3160 708 3160C685 3160 680 3165 674 3198C670 3218 663 3240 658 3247C653 3254 651 3264 654 3269C658 3274 656 3281 651 3284C646 3288 639 3316 635 3348C627 3424 623 3447 611 3495C605 3517 600 3552 600 3574C600 3611 601 3612 627 3605C643 3601 655 3598 656 3597M2205 3160C2244 3156 2288 3148 2303 3141C2319 3135 2345 3130 2361 3130C2393 3130 2409 3108 2392 3087C2387 3081 2379 3053 2376 3026C2370 2984 2372 2974 2397 2941C2412 2921 2427 2903 2430 2900C2452 2882 2487 2760 2484 2710C2480 2623 2468 2550 2459 2550C2454 2550 2450 2538 2450 2523C2450 2496 2450 2496 2420 2528C2404 2546 2390 2570 2390 2581C2390 2591 2386 2600 2382 2600C2377 2600 2365 2617 2354 2637C2344 2657 2325 2684 2313 2696C2300 2708 2290 2722 2290 2729C2290 2735 2286 2740 2282 2740C2274 2740 2165 2896 2134 2951C2128 2961 2116 2978 2108 2987C2084 3014 2032 3114 2028 3141C2025 3161 2030 3166 2060 3171C2079 3175 2104 3176 2115 3173C2126 3170 2167 3164 2205 3160M510 3117C572 3094 601 3077 597 3066C593 3054 532 3010 520 3010C512 3010 450 3107 450 3121C450 3133 468 3132 510 3117M1977 3044C1996 3003 2016 2970 2021 2970C2026 2970 2030 2963 2030 2955C2030 2941 2027 2941 2006 2956C1991 2965 1984 2977 1987 2986C1990 2994 1986 3000 1978 3000C1955 3000 1898 3087 1905 3110C1915 3143 1939 3121 1977 3044M1290 3090C1320 3085 1390 3078 1445 3075C1542 3069 1610 3063 1620 3060C1623 3059 1635 3059 1648 3060C1660 3061 1670 3059 1670 3056C1670 3046 1615 3000 1602 3000C1595 3000 1587 2993 1584 2985C1580 2977 1572 2970 1565 2970C1549 2970 1486 2938 1482 2928C1480 2923 1471 2920 1463 2920C1454 2920 1432 2909 1414 2895C1396 2881 1375 2870 1366 2870C1358 2870 1347 2864 1343 2857C1331 2839 1253 2790 1236 2790C1219 2790 1000 2901 958 2931C944 2942 928 2950 923 2950C910 2950 800 3051 800 3064C800 3071 835 3076 903 3078C959 3080 1019 3084 1035 3086C1052 3088 1090 3093 1120 3096C1150 3099 1176 3103 1178 3105C1181 3107 1206 3104 1290 3090M1951 2905C2025 2829 2037 2815 2064 2776C2076 2758 2105 2724 2128 2701C2151 2678 2170 2655 2170 2652C2170 2648 2186 2628 2204 2608C2223 2587 2247 2557 2256 2540C2266 2524 2278 2510 2282 2510C2286 2510 2290 2505 2290 2500C2290 2488 2291 2487 2352 2416C2422 2336 2422 2336 2410 2288C2403 2264 2392 2232 2385 2215C2378 2199 2365 2160 2356 2130C2335 2062 2317 2020 2308 2020C2305 2020 2299 2006 2295 1989C2291 1972 2282 1956 2274 1953C2266 1950 2260 1941 2260 1933C2260 1908 2228 1923 2208 1958C2198 1976 2173 2028 2153 2073C2132 2118 2112 2157 2108 2158C2103 2160 2100 2168 2100 2176C2100 2184 2096 2198 2091 2208C2079 2230 2057 2284 2035 2343C2025 2369 2013 2393 2009 2396C2004 2399 2000 2411 2000 2422C2000 2434 1994 2451 1986 2459C1979 2468 1965 2498 1955 2525C1945 2553 1933 2579 1928 2584C1924 2590 1920 2605 1920 2619C1920 2634 1913 2654 1905 2664C1897 2675 1890 2692 1890 2702C1890 2712 1886 2720 1880 2720C1875 2720 1870 2730 1870 2743C1870 2755 1863 2778 1855 2794C1847 2809 1840 2830 1840 2839C1840 2849 1833 2865 1825 2876C1803 2905 1805 2997 1828 3003C1847 3007 1868 2991 1951 2905M660 2978C660 2951 584 2810 569 2810C558 2810 510 2885 510 2904C510 2906 529 2918 553 2930C576 2942 597 2955 600 2959C606 2968 642 2989 653 2990C657 2990 660 2985 660 2978M813 2961C830 2945 862 2920 884 2905C905 2891 929 2873 937 2865C944 2857 964 2843 980 2833C997 2823 1009 2811 1007 2805C999 2783 695 2776 681 2798C672 2814 679 2870 691 2870C696 2870 700 2874 700 2879C700 2884 710 2911 723 2939C749 2999 766 3003 813 2961M1701 2908C1695 2891 1690 2868 1690 2858C1690 2847 1684 2824 1676 2807C1668 2789 1651 2744 1639 2705C1626 2667 1610 2629 1603 2622C1596 2615 1587 2597 1584 2582C1581 2567 1572 2539 1565 2520C1543 2463 1509 2367 1500 2335C1466 2216 1422 2115 1405 2115C1399 2115 1394 2130 1392 2148C1390 2165 1385 2180 1379 2180C1374 2180 1370 2191 1370 2205C1370 2219 1366 2230 1360 2230C1355 2230 1350 2247 1350 2268C1350 2290 1341 2342 1329 2386C1318 2429 1307 2474 1304 2485C1290 2552 1286 2577 1289 2594C1290 2604 1286 2623 1280 2636C1257 2678 1273 2691 1342 2690C1377 2689 1427 2683 1453 2678C1493 2669 1505 2670 1517 2683C1549 2715 1507 2760 1444 2760C1431 2760 1420 2765 1420 2770C1420 2776 1412 2780 1403 2781C1389 2781 1388 2783 1400 2787C1408 2791 1438 2810 1467 2832C1496 2853 1526 2870 1533 2870C1541 2870 1553 2877 1560 2885C1567 2893 1577 2900 1582 2900C1588 2900 1605 2909 1621 2921C1656 2946 1704 2960 1708 2948C1710 2943 1707 2925 1701 2908M3095 2893C3103 2897 3110 2895 3110 2889C3110 2883 3117 2880 3125 2884C3133 2887 3140 2885 3140 2880C3140 2874 3149 2870 3160 2870C3171 2870 3183 2863 3186 2855C3190 2846 3205 2840 3224 2840C3242 2840 3260 2836 3265 2831C3271 2826 3286 2820 3300 2818C3325 2814 3325 2814 3297 2800C3276 2790 3267 2789 3258 2798C3251 2805 3236 2810 3224 2810C3211 2810 3195 2817 3186 2825C3178 2833 3164 2840 3156 2840C3147 2840 3132 2844 3122 2849C3113 2855 3075 2869 3038 2880C2969 2902 2946 2917 2999 2905C3016 2901 3031 2903 3035 2910C3040 2918 3048 2916 3061 2904C3071 2895 3086 2890 3095 2893M1770 2805C1770 2797 1774 2790 1779 2790C1784 2790 1794 2773 1800 2753C1807 2732 1818 2706 1825 2694C1832 2683 1841 2660 1844 2644C1850 2607 1878 2535 1921 2445C1948 2387 2000 2248 2000 2233C2000 2226 2004 2220 2008 2220C2013 2220 2022 2201 2029 2178C2036 2154 2050 2115 2061 2090C2106 1990 2113 1974 2127 1947C2135 1932 2139 1916 2136 1911C2133 1906 2137 1900 2145 1896C2170 1887 2163 1851 2133 1838C2098 1824 2084 1826 1980 1857C1933 1872 1888 1884 1880 1885C1848 1888 1573 1983 1537 2003C1500 2023 1499 2026 1505 2065C1509 2087 1519 2121 1527 2140C1536 2159 1545 2195 1548 2220C1550 2245 1556 2270 1560 2275C1565 2281 1580 2327 1594 2378C1628 2496 1658 2578 1681 2610C1691 2624 1704 2653 1709 2675C1735 2779 1770 2853 1770 2805M3410 2721C3405 2710 3400 2692 3400 2680C3400 2652 3359 2526 3348 2522C3344 2520 3340 2508 3340 2496C3340 2483 3337 2470 3333 2466C3329 2463 3325 2453 3324 2445C3320 2417 3258 2350 3232 2344C3217 2341 3187 2332 3165 2324C3142 2316 3118 2310 3110 2310C3102 2310 3068 2299 3036 2285C2973 2259 2961 2259 2982 2282C2989 2289 3000 2303 3005 2312C3033 2356 3055 2386 3064 2395C3070 2401 3082 2419 3090 2436C3109 2476 3159 2539 3233 2614C3264 2647 3290 2676 3290 2679C3291 2682 3313 2701 3340 2720C3368 2739 3390 2759 3390 2763C3390 2768 3397 2764 3405 2756C3417 2744 3418 2736 3410 2721M3529 2677C3541 2656 3550 2633 3550 2626C3550 2619 3557 2599 3566 2581C3575 2563 3584 2532 3587 2512C3592 2476 3591 2474 3538 2447C3509 2432 3478 2420 3469 2420C3461 2420 3445 2413 3434 2405C3385 2368 3380 2399 3420 2485C3430 2507 3441 2541 3445 2560C3458 2629 3497 2727 3506 2716C3507 2716 3517 2698 3529 2677M2587 2541C2640 2487 2710 2386 2710 2364C2710 2358 2717 2350 2725 2346C2733 2343 2740 2332 2740 2322C2740 2286 2658 2311 2537 2384C2523 2393 2520 2403 2525 2430C2533 2477 2554 2570 2557 2570C2558 2570 2571 2557 2587 2541M1210 2527C1210 2515 1217 2495 1225 2483C1233 2471 1247 2431 1256 2393C1277 2303 1276 2307 1283 2290C1296 2255 1330 2089 1330 2061C1330 2033 1327 2030 1296 2030C1256 2030 1200 2047 1180 2067C1168 2078 1165 2110 1163 2213C1160 2453 1161 2475 1171 2513C1182 2554 1210 2565 1210 2527M2580 2265C2602 2251 2627 2240 2636 2240C2644 2240 2658 2233 2666 2225C2675 2217 2677 2210 2671 2210C2666 2210 2655 2204 2648 2197C2641 2190 2613 2169 2585 2150C2558 2131 2534 2113 2532 2108C2530 2104 2523 2100 2517 2100C2510 2100 2492 2089 2476 2075C2441 2045 2420 2043 2420 2070C2420 2081 2424 2090 2429 2090C2434 2090 2441 2112 2445 2140C2449 2167 2456 2192 2461 2196C2466 2199 2470 2210 2470 2220C2470 2230 2476 2243 2483 2247C2491 2251 2499 2263 2503 2273C2512 2297 2533 2294 2580 2265M3239 2234C3241 2232 3237 2222 3229 2213C3207 2185 3190 2152 3190 2135C3190 2121 3181 2100 3158 2060C3154 2052 3145 2034 3139 2020C3116 1970 3082 1894 3066 1855C3057 1833 3045 1807 3040 1798C3034 1788 3030 1773 3030 1764C3030 1754 3019 1732 3005 1714C2991 1696 2975 1669 2969 1653C2958 1625 2958 1625 2943 1660C2933 1684 2927 1745 2923 1850C2921 1935 2914 2021 2908 2040C2900 2065 2900 2075 2909 2078C2915 2080 2920 2088 2920 2097C2920 2113 2935 2129 2965 2146C2976 2152 3007 2169 3033 2183C3059 2198 3087 2210 3095 2210C3103 2210 3110 2214 3110 2218C3110 2237 3222 2251 3239 2234M3326 2077C3330 2048 3334 2016 3334 2005C3333 1928 3329 1918 3285 1873C3260 1848 3240 1825 3240 1821C3240 1817 3229 1807 3215 1800C3201 1793 3190 1784 3190 1780C3190 1776 3159 1740 3120 1701C3045 1624 3035 1622 3075 1691C3089 1715 3100 1742 3100 1751C3100 1759 3108 1784 3119 1806C3129 1827 3143 1862 3151 1883C3158 1903 3168 1920 3172 1920C3176 1920 3180 1931 3180 1944C3180 1957 3187 1973 3195 1980C3203 1987 3210 2000 3210 2010C3210 2020 3217 2030 3225 2034C3233 2037 3240 2046 3240 2055C3240 2063 3244 2070 3249 2070C3254 2070 3261 2078 3264 2088C3293 2162 3314 2159 3326 2077M2760 2068C2760 2051 2741 1980 2730 1955C2725 1944 2714 1917 2705 1895C2695 1873 2682 1842 2675 1825C2667 1809 2649 1755 2635 1705C2620 1656 2602 1594 2594 1568C2586 1542 2580 1512 2580 1501C2580 1490 2576 1479 2571 1476C2566 1472 2559 1447 2555 1420C2551 1393 2545 1368 2541 1366C2537 1363 2533 1347 2532 1328C2530 1310 2525 1294 2520 1292C2514 1290 2510 1281 2510 1272C2509 1263 2502 1237 2494 1215C2486 1193 2478 1168 2476 1160C2475 1152 2471 1138 2467 1130C2444 1076 2425 1014 2404 925C2400 909 2391 889 2383 882C2376 875 2370 861 2370 852C2369 843 2363 824 2355 810C2340 785 2340 785 2342 820C2344 879 2329 1101 2319 1170C2314 1206 2308 1276 2306 1325C2303 1375 2299 1467 2295 1530C2289 1624 2291 1652 2304 1683C2313 1703 2325 1720 2330 1720C2336 1720 2340 1726 2340 1733C2340 1740 2361 1763 2387 1785C2413 1807 2444 1834 2456 1845C2468 1856 2484 1870 2492 1875C2500 1881 2520 1894 2536 1904C2552 1915 2577 1936 2592 1952C2607 1967 2623 1980 2627 1980C2636 1980 2675 2015 2707 2054C2731 2081 2760 2089 2760 2068M1346 1930C1363 1930 1386 1922 1396 1913C1418 1892 1451 1835 1448 1823C1446 1814 1465 1746 1488 1682C1496 1659 1500 1637 1497 1634C1494 1631 1473 1648 1450 1671C1428 1695 1401 1724 1390 1736C1379 1748 1370 1761 1370 1766C1370 1771 1359 1788 1345 1803C1321 1828 1270 1919 1270 1935C1270 1939 1280 1940 1293 1936C1305 1933 1329 1930 1346 1930M1582 1893C1586 1883 1713 1840 1739 1840C1750 1840 1762 1836 1765 1830C1768 1825 1784 1820 1800 1820C1816 1820 1841 1814 1857 1806C1872 1798 1904 1787 1926 1781C1980 1767 1991 1736 1949 1715C1933 1706 1920 1696 1920 1692C1920 1687 1904 1677 1885 1670C1865 1662 1844 1650 1838 1643C1832 1636 1821 1630 1814 1630C1807 1630 1767 1608 1727 1580C1686 1553 1651 1530 1647 1530C1640 1530 1610 1589 1610 1603C1610 1613 1580 1684 1559 1722C1554 1732 1550 1747 1550 1755C1550 1763 1546 1770 1540 1770C1535 1770 1530 1785 1530 1803C1530 1821 1526 1840 1521 1846C1516 1851 1509 1865 1505 1878C1499 1898 1502 1900 1538 1900C1560 1900 1580 1897 1582 1893M2860 1785C2865 1780 2869 1698 2870 1604C2871 1461 2868 1431 2855 1420C2847 1413 2840 1402 2840 1395C2840 1388 2800 1342 2750 1292C2701 1242 2660 1196 2660 1190C2660 1184 2656 1181 2651 1184C2646 1188 2648 1214 2657 1248C2665 1279 2674 1323 2677 1345C2679 1367 2688 1399 2696 1415C2721 1469 2778 1624 2785 1660C2788 1679 2803 1729 2818 1770C2839 1827 2846 1839 2848 1820C2850 1806 2856 1791 2860 1785M2118 1617C2105 1597 2090 1581 2085 1580C2079 1580 2067 1567 2058 1552C2043 1526 2022 1502 1939 1410C1908 1375 1908 1375 1943 1425C1962 1453 1985 1490 1994 1508C2004 1527 2016 1538 2022 1534C2028 1530 2031 1533 2028 1541C2026 1548 2032 1563 2042 1574C2052 1585 2066 1606 2072 1622C2084 1648 2132 1676 2138 1660C2139 1656 2130 1636 2118 1617M2160 1461C2154 1439 2148 1404 2145 1383C2143 1362 2137 1318 2131 1285C2124 1252 2117 1200 2114 1170C2110 1140 2104 1106 2099 1094C2095 1082 2088 1043 2085 1008C2078 938 2062 880 2051 880C2038 880 1969 958 1937 1009C1925 1029 1905 1055 1893 1066C1880 1078 1870 1095 1870 1104C1870 1113 1863 1123 1855 1126C1847 1130 1840 1140 1840 1149C1840 1158 1835 1171 1829 1177C1821 1185 1830 1196 1862 1218C1910 1251 2020 1353 2020 1364C2020 1368 2050 1407 2087 1451C2139 1513 2156 1527 2162 1515C2167 1507 2166 1483 2160 1461M1833 1440C1823 1423 1795 1386 1771 1358C1721 1302 1712 1306 1711 1383C1710 1417 1717 1425 1743 1421C1747 1421 1750 1424 1750 1430C1750 1441 1806 1468 1833 1469C1850 1470 1850 1469 1833 1440M2240 1265C2240 1223 2244 1190 2250 1190C2255 1190 2256 1181 2251 1168C2247 1156 2246 1132 2250 1114C2264 1053 2270 537 2257 524C2253 520 2235 523 2217 532C2200 540 2175 546 2163 544C2137 540 2052 582 2034 609C2022 626 2024 628 2050 634C2089 641 2130 668 2130 686C2130 694 2135 700 2141 700C2149 700 2151 712 2147 735C2143 758 2145 770 2153 770C2162 770 2162 772 2154 778C2146 783 2145 803 2151 845C2155 878 2161 932 2164 965C2175 1083 2189 1175 2199 1203C2205 1219 2210 1246 2210 1263C2210 1305 2220 1340 2231 1340C2236 1340 2240 1306 2240 1265M3048 1295C3198 1234 3250 1209 3250 1198C3250 1193 3260 1190 3273 1189C3293 1188 3292 1187 3265 1175C3249 1167 3223 1161 3209 1160C3181 1160 3087 1134 3058 1119C3028 1104 2956 1080 2938 1080C2922 1080 2920 1092 2920 1199C2920 1350 2917 1348 3048 1295M1590 1297C1612 1280 1640 1238 1640 1223C1640 1213 1613 1210 1534 1210L1428 1210L1472 1250C1495 1272 1523 1290 1532 1290C1541 1290 1552 1295 1555 1300C1563 1313 1571 1312 1590 1297M2840 1160C2842 1037 2849 1048 2774 1052C2688 1056 2671 1067 2700 1100C2712 1114 2729 1139 2737 1155C2757 1192 2821 1253 2831 1243C2835 1238 2839 1201 2840 1160M797 1169C816 1157 834 1150 837 1154C841 1157 853 1154 864 1147C876 1139 910 1127 940 1120C1015 1102 1053 1078 1095 1021C1142 956 1142 937 1093 946C1072 950 1054 957 1052 961C1050 966 1043 970 1036 970C1029 970 1019 975 1012 982C1006 988 990 995 978 997C966 999 949 1007 940 1015C931 1023 918 1030 911 1030C891 1030 746 1090 731 1104C720 1116 720 1124 731 1154C746 1196 751 1197 797 1169M1530 1074C1551 1069 1542 1063 1474 1031C1429 1010 1390 987 1386 981C1382 975 1366 970 1349 970C1333 970 1320 964 1319 958C1318 951 1315 956 1311 970C1302 1002 1310 1033 1336 1062C1354 1084 1363 1086 1431 1083C1472 1081 1516 1077 1530 1074M625 1010C628 1005 642 1000 656 1000C669 1000 680 996 680 991C680 986 701 974 728 965C754 955 782 945 790 942C798 939 808 938 813 938C817 939 820 935 820 930C820 924 827 920 835 920C843 920 864 912 882 902C900 892 951 869 995 850C1107 802 1114 794 1107 724C1104 693 1096 662 1091 657C1085 651 1080 622 1080 592C1080 533 1060 505 1030 521C1022 525 986 543 950 560C914 578 855 613 819 640C782 666 737 695 717 705C660 732 653 745 588 960C582 979 575 1001 573 1008C567 1023 616 1025 625 1010M1690 1004C1690 995 1698 976 1709 962C1729 934 1774 788 1772 758C1772 748 1775 740 1781 740C1786 740 1790 729 1790 715C1790 701 1788 690 1785 690C1772 690 1669 720 1651 729C1640 735 1621 745 1610 750C1599 756 1581 760 1571 760C1560 760 1549 764 1545 769C1542 774 1515 786 1485 794C1455 803 1428 815 1425 820C1422 826 1410 830 1400 830C1384 830 1351 868 1362 873C1364 874 1411 899 1467 928C1523 956 1575 980 1582 980C1589 980 1606 989 1620 1000C1651 1024 1690 1026 1690 1004M1840 964C1840 956 1844 950 1849 950C1857 950 1898 900 1957 816C1969 799 1987 777 1996 767C2019 745 2008 735 1943 723C1892 713 1892 713 1866 779C1852 816 1840 857 1840 871C1840 885 1833 905 1825 916C1817 926 1810 950 1810 969C1810 998 1812 1001 1825 990C1833 983 1840 971 1840 964M2640 969C2640 963 2647 961 2656 964C2670 969 2672 965 2667 936C2661 899 2634 865 2530 762C2475 707 2465 701 2459 717C2456 727 2457 737 2461 738C2466 740 2470 752 2470 764C2470 776 2477 795 2485 806C2493 816 2500 833 2500 843C2500 852 2504 868 2509 878C2514 887 2525 912 2533 932C2547 964 2554 969 2587 973C2608 975 2628 977 2633 978C2637 979 2640 975 2640 969M2628 688C2624 659 2617 598 2614 553C2607 471 2607 471 2561 449C2532 435 2489 425 2446 422L2377 418L2383 463C2389 505 2399 518 2505 625C2569 688 2624 740 2629 740C2633 740 2633 716 2628 688M1290 700C1290 695 1301 690 1314 690C1328 690 1345 683 1354 675C1362 667 1380 660 1393 660C1407 660 1420 653 1424 645C1427 637 1436 630 1444 630C1451 630 1469 624 1482 617C1508 604 1509 580 1484 580C1476 580 1462 576 1452 570C1443 565 1415 557 1390 551C1365 546 1319 535 1287 526C1255 517 1226 510 1223 510C1220 510 1221 531 1224 558C1228 584 1234 623 1237 645C1240 667 1247 691 1252 698C1264 712 1290 714 1290 700M1680 517C1680 510 1689 504 1699 503C1710 502 1735 491 1755 478C1791 456 1791 454 1786 405C1783 378 1776 354 1770 352C1765 350 1760 342 1760 334C1760 314 1745 317 1716 343C1693 365 1692 367 1710 378C1720 384 1727 397 1725 407C1723 417 1721 428 1721 432C1719 448 1650 470 1597 473C1566 474 1540 476 1540 477C1540 488 1601 507 1623 503C1643 499 1650 502 1650 514C1650 523 1657 530 1665 530C1673 530 1680 524 1680 517M1464 441C1461 425 1463 403 1469 391C1477 377 1477 370 1470 370C1465 370 1460 375 1460 380C1460 387 1454 387 1442 381C1431 375 1418 375 1409 381C1402 386 1383 390 1369 390C1355 390 1336 396 1326 403C1310 415 1310 416 1327 432C1337 441 1363 451 1384 454C1406 458 1426 463 1429 465C1431 468 1441 470 1451 470C1466 470 1468 464 1464 441M1960 328C1960 319 1964 320 1970 330C1976 340 1980 341 1980 333C1980 326 1987 320 1995 320C2003 320 2010 315 2010 310C2010 304 2019 290 2029 279C2040 267 2051 242 2055 222C2058 201 2063 177 2066 168C2081 118 1981 185 1951 245C1938 270 1921 290 1912 291C1901 291 1900 293 1908 297C1914 299 1920 310 1920 321C1920 333 1927 340 1940 340C1951 340 1960 334 1960 328M1376 294C1414 290 1450 283 1457 278C1464 273 1474 272 1481 276C1488 280 1491 278 1488 269C1486 261 1461 251 1433 245C1405 240 1378 232 1374 228C1360 213 1340 220 1340 240C1340 251 1333 260 1325 260C1317 260 1310 267 1310 275C1310 283 1306 290 1301 290C1296 290 1289 297 1286 306C1281 319 1282 320 1293 312C1300 306 1338 298 1376 294" id="ShapeObject_1256395740020" stroke="none" style="fill:#f5c75a;fill-opacity:1" transform="matrix(0.13823530077934265,0,0,0.1379999965429306,-10,-3)" opacity="1"/>
      <path d="M663 933M663 933C650 925 640 912 640 905C640 884 672 826 693 810C704 802 722 785 733 773C758 745 765 745 790 770C816 796 815 799 784 835C770 852 751 878 743 895C713 952 699 959 663 933" id="ShapeObject_1256395740022" stroke="none" style="fill:#f1cc74;fill-opacity:1" transform="matrix(0.13823529411764707,0,0,0.13799999999999998,0,0)" opacity="1"/>
    </g>
  </g>
</svg>