<svg version="1.1" width="752" height="1104" viewBox="0 0 752 1104" xmlns:xlink="http://www.w3.org/1999/xlink" xmlns="http://www.w3.org/2000/svg">
  <desc>Created with Raven (http://www.aviary.com)</desc>
  <defs/>
  <g id="Layer_1256398266989" opacity="1"/>
  <g id="Layer_1256398266991" opacity="1">
    <g id="Layer_1256398266992" opacity="1">
      <path d="M4950 7930M4950 7930C4936 7919 4893 7894 4853 7874C4813 7854 4776 7832 4769 7824C4763 7816 4754 7810 4749 7810C4722 7810 4546 7710 4494 7665C4487 7660 4462 7639 4437 7620C4412 7601 4384 7572 4374 7557C4363 7542 4345 7527 4333 7524C4304 7516 4285 7469 4299 7442C4305 7431 4312 7377 4315 7323C4322 7207 4326 7164 4333 7130C4337 7116 4342 7065 4345 7015C4356 6836 4363 6785 4378 6758C4387 6742 4397 6730 4400 6730C4403 6730 4420 6717 4438 6700C4456 6684 4475 6670 4481 6670C4486 6670 4490 6664 4490 6656C4490 6648 4496 6635 4503 6628C4523 6607 4636 6430 4695 6326C4712 6298 4733 6263 4743 6250C4752 6236 4760 6220 4760 6213C4760 6206 4763 6200 4768 6200C4772 6200 4788 6173 4804 6139C4841 6061 4836 6020 4783 5973C4763 5955 4743 5940 4738 5940C4733 5940 4691 5902 4644 5855C4596 5808 4554 5770 4550 5770C4546 5770 4537 5763 4530 5755C4513 5735 4491 5736 4483 5758C4479 5767 4456 5796 4431 5822C4374 5879 4318 5947 4299 5980C4265 6040 4214 6059 4216 6010C4220 5956 4243 5845 4255 5825C4262 5814 4277 5774 4290 5735C4302 5697 4319 5652 4327 5635C4336 5619 4349 5593 4357 5578C4365 5563 4375 5548 4381 5545C4386 5541 4390 5528 4390 5515C4390 5502 4394 5490 4399 5488C4414 5483 4490 5331 4490 5307C4490 5295 4497 5276 4505 5266C4513 5255 4520 5238 4520 5228C4520 5219 4526 5196 4534 5178C4542 5160 4556 5125 4566 5100C4576 5075 4587 5053 4590 5050C4600 5040 4630 4968 4623 4972C4524 5017 4441 5065 4426 5085C4416 5099 4401 5110 4394 5110C4386 5110 4380 5114 4380 5118C4380 5122 4368 5131 4353 5138C4337 5144 4303 5163 4275 5180C4248 5197 4217 5213 4208 5216C4198 5220 4190 5226 4190 5230C4190 5234 4170 5245 4146 5254C4121 5263 4096 5278 4090 5286C4083 5293 4070 5300 4060 5300C4050 5300 4040 5307 4036 5315C4033 5323 4015 5338 3995 5347C3976 5356 3960 5367 3960 5372C3960 5376 3952 5380 3943 5380C3934 5380 3896 5398 3859 5420L3792 5460L3805 5522C3819 5590 3835 5695 3850 5830C3856 5877 3867 5949 3874 5990C3882 6031 3892 6088 3895 6115C3908 6216 3909 6218 3947 6227C3967 6231 3988 6244 3994 6255C4000 6265 4011 6280 4018 6288C4024 6295 4030 6311 4030 6324C4030 6336 4035 6351 4041 6357C4051 6367 4060 6409 4079 6542C4088 6599 4088 6599 4041 6648C3942 6754 3880 6824 3880 6831C3880 6835 3867 6850 3850 6863C3834 6877 3820 6893 3820 6899C3820 6905 3817 6910 3812 6910C3808 6910 3798 6921 3790 6934C3775 6958 3700 7049 3668 7081C3659 7091 3654 7100 3656 7103C3658 7105 3654 7113 3645 7120C3637 7127 3630 7139 3630 7146C3630 7154 3626 7160 3621 7160C3616 7160 3600 7180 3586 7205C3571 7230 3556 7250 3551 7250C3538 7250 3510 7355 3510 7408C3510 7456 3494 7510 3481 7510C3478 7510 3476 7529 3476 7552C3478 7594 3459 7630 3436 7630C3430 7630 3390 7638 3346 7647C3294 7659 3259 7673 3241 7690C3210 7719 3174 7726 3153 7708C3143 7700 3110 7696 3064 7696C3023 7697 2990 7695 2990 7691C2990 7688 2958 7686 2918 7687C2767 7691 2741 7671 2785 7585C2802 7553 2821 7525 2828 7523C2834 7520 2840 7509 2840 7499C2840 7489 2843 7480 2848 7480C2852 7480 2864 7460 2875 7435C2886 7410 2898 7390 2902 7390C2914 7390 2929 7329 2924 7301C2919 7277 2927 7266 2992 7209C3074 7137 3099 7110 3100 7094C3100 7087 3112 7069 3128 7053C3143 7036 3162 7010 3170 6994C3178 6978 3196 6953 3210 6939C3243 6904 3298 6841 3335 6795C3352 6774 3371 6751 3378 6744C3384 6737 3390 6729 3390 6725C3390 6716 3462 6622 3504 6576C3524 6554 3540 6530 3540 6523C3540 6515 3556 6493 3575 6473C3594 6453 3610 6427 3610 6416C3610 6394 3570 6350 3391 6177C3330 6118 3280 6067 3280 6064C3280 6044 3043 5770 3026 5770C3009 5770 2930 5705 2924 5686C2920 5674 2918 5623 2919 5572C2920 5512 2916 5462 2906 5432C2898 5406 2892 5378 2891 5370C2890 5343 2882 5295 2876 5280C2873 5272 2866 5227 2860 5180C2854 5133 2847 5080 2844 5062C2840 5029 2861 4977 2902 4921C2912 4908 2920 4889 2920 4879C2920 4868 2925 4860 2930 4860C2936 4860 2940 4852 2940 4843C2940 4834 2946 4819 2954 4811C2961 4802 2970 4781 2973 4764C2979 4735 2976 4732 2950 4726C2933 4723 2920 4714 2920 4706C2920 4698 2903 4679 2883 4663C2835 4629 2776 4575 2685 4485C2646 4446 2600 4408 2582 4401C2565 4394 2550 4382 2550 4376C2550 4366 2442 4290 2427 4290C2423 4290 2401 4278 2377 4263C2318 4225 2272 4201 2225 4185C2173 4166 2175 4166 2162 4195C2150 4222 2110 4230 2110 4206C2110 4198 2099 4179 2086 4165C2072 4150 2058 4125 2055 4109C2051 4091 2038 4074 2024 4068C2008 4060 2000 4049 2000 4031C2000 3994 1982 3931 1961 3890C1951 3871 1935 3831 1925 3803C1916 3774 1904 3748 1899 3745C1894 3741 1890 3731 1890 3721C1890 3711 1883 3697 1875 3690C1867 3683 1860 3665 1860 3649C1860 3633 1856 3620 1850 3620C1845 3620 1840 3612 1840 3602C1840 3592 1833 3575 1825 3564C1817 3554 1810 3534 1810 3520C1810 3506 1803 3482 1794 3465C1785 3449 1767 3406 1752 3371C1726 3304 1689 3257 1682 3278C1675 3299 1634 3291 1620 3266C1606 3240 1602 3239 1395 3220C1340 3215 1255 3206 1205 3201C1156 3195 1070 3185 1015 3180C960 3174 899 3167 879 3165C835 3159 827 3173 809 3285C802 3329 791 3369 783 3373C776 3377 770 3394 770 3411C770 3427 764 3451 756 3463C749 3475 740 3518 737 3558C732 3621 733 3632 748 3637C757 3641 777 3656 793 3672C808 3687 824 3700 829 3700C833 3700 848 3710 862 3723C894 3752 944 3780 963 3780C972 3780 980 3784 982 3789C986 3800 1104 3840 1134 3840C1148 3840 1162 3844 1165 3850C1168 3855 1195 3859 1226 3858C1256 3857 1286 3862 1292 3868C1299 3875 1319 3880 1336 3880C1424 3880 1443 3915 1411 4018C1388 4094 1379 4144 1373 4248C1369 4314 1367 4320 1344 4326C1310 4335 1301 4357 1307 4412C1314 4472 1299 4480 1234 4451C1208 4439 1168 4427 1146 4424C1115 4419 1095 4407 1060 4371C1035 4346 991 4303 961 4277C911 4233 904 4229 869 4235C834 4241 829 4239 812 4211C793 4180 685 4100 663 4100C656 4100 650 4096 650 4092C650 4087 635 4075 616 4065C583 4047 582 4047 537 4069C500 4087 487 4089 471 4080C444 4066 444 4035 471 4016C485 4007 489 3997 484 3988C480 3981 475 3967 475 3956C474 3945 455 3919 432 3898C409 3877 386 3851 380 3839C373 3827 369 3768 370 3697C371 3592 362 3488 345 3390C342 3376 337 3344 334 3317C330 3291 323 3267 319 3264C300 3253 312 3209 350 3152C372 3119 390 3087 390 3081C390 3075 394 3070 399 3070C404 3070 411 3059 414 3045C418 3031 425 3020 430 3020C436 3020 440 3007 440 2990C440 2974 436 2960 430 2960C425 2960 420 2949 420 2935C420 2909 449 2840 460 2840C464 2840 472 2823 479 2802C486 2781 500 2753 510 2741C527 2717 528 2717 796 2713C944 2711 1076 2708 1090 2706C1104 2703 1118 2701 1123 2701C1136 2699 1130 2606 1116 2578C1105 2558 1101 2505 1101 2373C1100 2181 1092 2083 1079 2074C1064 2065 1069 2010 1085 2004C1093 2000 1100 1992 1100 1984C1100 1976 1104 1970 1109 1970C1114 1970 1121 1962 1125 1951C1128 1941 1142 1920 1156 1904C1179 1880 1247 1786 1275 1742C1288 1720 1293 1715 1350 1643C1377 1608 1407 1567 1416 1550C1426 1534 1438 1520 1442 1520C1446 1520 1450 1514 1450 1506C1450 1499 1456 1487 1464 1480C1472 1474 1480 1459 1482 1447C1484 1429 1472 1418 1415 1386C1377 1365 1340 1342 1335 1335C1329 1328 1309 1315 1290 1306C1214 1270 1193 1255 1148 1208C1103 1159 1101 1158 1058 1165C1007 1174 891 1217 820 1255C806 1263 775 1275 751 1284C697 1302 691 1297 664 1215C645 1160 640 1153 594 1131C493 1081 495 1083 492 1047C490 1026 499 991 514 958C528 928 544 885 549 864C589 708 600 689 664 656C695 640 720 623 720 619C720 615 731 609 745 606C770 600 785 589 833 544C845 533 863 521 872 517C882 514 890 506 890 500C890 495 895 490 902 490C924 490 1061 418 1067 404C1070 396 1077 390 1084 390C1090 390 1102 381 1110 370C1118 359 1130 350 1137 350C1143 350 1151 342 1154 333C1157 323 1193 280 1234 238C1286 184 1313 162 1324 166C1333 170 1353 167 1369 161C1391 151 1411 152 1464 164C1603 197 1655 182 1761 85C1786 62 1817 39 1829 35C1859 26 1898 47 1902 74C1907 110 1994 104 2022 65C2026 60 2030 58 2030 62C2030 66 2051 58 2077 45C2163 -2 2176 24 2151 202C2141 274 2148 278 2278 284C2290 285 2300 290 2300 295C2300 308 2341 323 2435 345C2474 354 2535 370 2571 381C2650 404 2650 403 2681 575C2693 641 2706 699 2711 704C2716 710 2720 731 2720 751C2720 796 2735 839 2758 861C2767 870 2782 887 2790 899C2798 910 2810 920 2817 920C2824 920 2830 925 2830 930C2830 936 2836 940 2843 940C2850 940 2879 956 2907 975C2936 994 2963 1010 2967 1010C2971 1010 3002 1024 3035 1040C3068 1056 3102 1070 3110 1070C3119 1070 3130 1074 3136 1080C3141 1085 3176 1092 3214 1096C3251 1099 3294 1108 3309 1116C3323 1124 3342 1130 3350 1130C3370 1131 3400 1154 3400 1168C3400 1182 3369 1220 3357 1220C3353 1220 3319 1238 3283 1260C3246 1282 3206 1300 3194 1300C3182 1300 3167 1306 3161 1314C3155 1322 3135 1334 3117 1341C3057 1365 3010 1399 3013 1418C3017 1440 3052 1500 3062 1500C3066 1500 3070 1506 3070 1514C3070 1536 3233 1733 3321 1819L3402 1897L3401 2001C3400 2115 3397 2161 3385 2233C3377 2287 3389 2310 3426 2310C3438 2310 3452 2314 3455 2320C3458 2325 3491 2343 3528 2360C3616 2401 3651 2420 3673 2438C3691 2454 3696 2485 3681 2495C3676 2498 3664 2522 3655 2548C3634 2607 3581 2740 3570 2761C3560 2780 3562 2793 3578 2833C3585 2849 3590 2868 3590 2876C3590 2884 3594 2890 3600 2890C3605 2890 3607 2896 3604 2904C3601 2913 3608 2923 3621 2930C3633 2937 3659 2956 3678 2974C3697 2991 3716 3004 3721 3003C3726 3001 3729 3005 3727 3011C3725 3021 3760 3048 3800 3067C3816 3074 3830 3085 3858 3110C3867 3119 3892 3138 3913 3154C3934 3170 3964 3194 3980 3209C3995 3223 4038 3262 4075 3295C4112 3328 4159 3372 4179 3394C4199 3415 4244 3463 4280 3500C4366 3589 4401 3636 4428 3695C4436 3712 4507 3793 4539 3823C4614 3892 4679 3971 4713 4035C4722 4052 4740 4078 4754 4094C4768 4110 4780 4126 4780 4130C4780 4134 4796 4154 4815 4174C4847 4208 4850 4217 4850 4270C4850 4302 4843 4341 4835 4356C4827 4372 4820 4399 4820 4416C4820 4433 4815 4460 4810 4476C4804 4492 4796 4543 4792 4590C4783 4677 4792 4732 4817 4758C4824 4765 4835 4779 4842 4788C4874 4830 4973 4902 5066 4949C5121 4977 5177 5011 5190 5025C5203 5039 5218 5050 5225 5050C5231 5050 5264 5080 5298 5116C5368 5190 5375 5217 5340 5285C5329 5307 5320 5334 5320 5347C5320 5359 5316 5372 5310 5375C5305 5378 5300 5392 5300 5404C5300 5427 5276 5515 5259 5555C5255 5566 5246 5594 5239 5618C5232 5641 5223 5660 5217 5660C5212 5660 5210 5667 5214 5675C5217 5683 5213 5695 5206 5702C5186 5722 5162 5852 5178 5858C5185 5860 5190 5871 5190 5882C5190 5893 5197 5916 5205 5933C5213 5951 5228 5998 5239 6039C5250 6080 5269 6131 5280 6152C5291 6173 5300 6195 5300 6201C5300 6207 5309 6225 5320 6240C5336 6263 5338 6271 5328 6282C5321 6289 5293 6322 5265 6355C5200 6433 5170 6468 5145 6494C5134 6506 5110 6538 5091 6565C5072 6593 5044 6625 5028 6638C5013 6651 5000 6667 5000 6673C5000 6680 4973 6714 4940 6749C4907 6784 4880 6817 4880 6822C4880 6826 4862 6849 4840 6872C4817 6894 4792 6927 4782 6944C4773 6961 4759 6979 4753 6983C4746 6987 4740 7004 4740 7020C4740 7048 4742 7050 4783 7051C4806 7052 4836 7055 4850 7059C4864 7063 4887 7063 4903 7059C4940 7049 5050 7072 5061 7093C5068 7105 5062 7118 5039 7144C5022 7164 5002 7180 4995 7180C4988 7180 4980 7184 4978 7189C4974 7200 4864 7270 4851 7270C4845 7270 4825 7284 4805 7301C4770 7332 4759 7360 4783 7360C4790 7360 4803 7375 4812 7393C4821 7410 4850 7450 4878 7482C4905 7513 4930 7549 4934 7563C4945 7609 4994 7620 5203 7625C5290 7626 5364 7630 5367 7633C5378 7645 5358 7681 5344 7676C5336 7673 5331 7674 5334 7679C5341 7690 5312 7702 5299 7694C5294 7691 5290 7696 5290 7705C5290 7714 5286 7718 5280 7715C5275 7712 5270 7715 5270 7722C5270 7730 5249 7749 5224 7765C5199 7781 5170 7804 5161 7817C5151 7829 5140 7836 5136 7833C5133 7830 5130 7832 5130 7838C5130 7845 5113 7858 5093 7868C5051 7887 5047 7889 5007 7925C4992 7939 4978 7950 4977 7950C4976 7950 4964 7941 4950 7930M5036 7844C5074 7824 5107 7805 5110 7802C5122 7786 5217 7713 5233 7707C5242 7704 5250 7694 5250 7685C5250 7672 5232 7670 5138 7670C5014 7669 4921 7650 4857 7613C4836 7600 4815 7590 4810 7590C4805 7590 4762 7577 4713 7561C4665 7546 4598 7527 4565 7520C4532 7513 4500 7504 4495 7500C4489 7495 4466 7489 4442 7486C4400 7481 4400 7481 4414 7509C4422 7524 4436 7542 4444 7549C4453 7557 4460 7569 4460 7577C4460 7585 4465 7588 4470 7585C4476 7582 4480 7584 4480 7589C4480 7595 4486 7600 4494 7600C4502 7600 4510 7607 4514 7615C4517 7623 4531 7635 4545 7642C4559 7648 4570 7660 4571 7669C4571 7679 4573 7680 4577 7673C4580 7665 4590 7669 4608 7686C4623 7700 4656 7723 4682 7737C4715 7755 4727 7767 4723 7779C4719 7793 4720 7793 4729 7780C4737 7768 4742 7768 4752 7778C4758 7784 4774 7790 4787 7790C4800 7790 4810 7795 4810 7800C4810 7806 4819 7810 4830 7810C4841 7810 4850 7814 4850 7820C4850 7825 4862 7836 4878 7844C4894 7853 4899 7860 4890 7861C4874 7862 4923 7877 4951 7879C4960 7879 4998 7864 5036 7844M2998 7638C2993 7624 3076 7495 3109 7466C3120 7455 3130 7443 3130 7438C3130 7434 3150 7405 3175 7374C3200 7344 3220 7317 3220 7315C3220 7312 3175 7312 3120 7314C3010 7318 3020 7313 2960 7397C2943 7420 2930 7443 2930 7448C2930 7452 2917 7472 2900 7490C2884 7508 2870 7529 2870 7536C2870 7543 2857 7562 2840 7578C2824 7595 2810 7613 2810 7617C2810 7631 2878 7647 2943 7649C2986 7650 3001 7647 2998 7638M3157 7632C3174 7605 3212 7461 3205 7450C3198 7439 3160 7469 3160 7487C3160 7494 3154 7500 3147 7500C3139 7500 3128 7511 3122 7525C3116 7539 3106 7550 3100 7550C3095 7550 3090 7557 3090 7565C3090 7572 3083 7583 3075 7588C3053 7600 3066 7627 3098 7639C3137 7653 3144 7652 3157 7632M3260 7584C3263 7574 3280 7544 3298 7518C3315 7492 3330 7468 3330 7464C3330 7455 3411 7346 3422 7342C3442 7333 3427 7320 3397 7320C3373 7320 3355 7329 3332 7351C3314 7368 3303 7386 3306 7391C3309 7396 3306 7400 3301 7400C3295 7400 3290 7407 3290 7415C3290 7423 3285 7430 3279 7430C3273 7430 3271 7437 3274 7445C3277 7454 3266 7490 3249 7525C3220 7586 3218 7616 3243 7607C3249 7605 3257 7595 3260 7584M3412 7570C3424 7570 3430 7557 3435 7518C3438 7489 3444 7457 3447 7447C3454 7422 3421 7428 3406 7454C3400 7465 3388 7481 3380 7490C3349 7524 3320 7565 3320 7573C3320 7579 3337 7580 3358 7576C3378 7573 3402 7570 3412 7570M4850 7540C4850 7534 4839 7517 4825 7502C4811 7487 4800 7470 4800 7463C4800 7456 4796 7450 4790 7450C4785 7450 4769 7432 4755 7409C4735 7379 4725 7370 4710 7375C4689 7382 4676 7366 4674 7330C4673 7305 4595 7190 4579 7190C4569 7190 4450 7321 4450 7332C4450 7337 4443 7348 4435 7356C4410 7382 4420 7417 4455 7423C4466 7425 4486 7432 4500 7437C4514 7443 4542 7455 4564 7464C4585 7473 4611 7480 4621 7480C4631 7480 4651 7485 4667 7492C4682 7498 4700 7504 4705 7505C4742 7510 4810 7534 4810 7541C4810 7546 4819 7550 4830 7550C4841 7550 4850 7545 4850 7540M4460 7191C4511 7106 4511 7106 4495 7070C4477 7031 4423 6974 4413 6984C4410 6987 4405 7027 4403 7072C4400 7118 4392 7169 4385 7185C4378 7202 4373 7229 4375 7245C4376 7262 4378 7282 4379 7290C4381 7313 4402 7287 4460 7191M4773 7256C4791 7243 4833 7219 4867 7202C4901 7185 4938 7163 4949 7153C4993 7116 4978 7112 4805 7114C4642 7115 4640 7115 4640 7137C4640 7149 4653 7174 4668 7192C4683 7210 4704 7237 4713 7253C4723 7268 4733 7280 4736 7280C4739 7280 4756 7269 4773 7256M3080 7250C3080 7245 3071 7240 3060 7240C3049 7240 3040 7245 3040 7250C3040 7256 3049 7260 3060 7260C3071 7260 3080 7256 3080 7250M3270 7247C3270 7233 3181 7150 3165 7150C3156 7150 3147 7162 3143 7181C3140 7198 3126 7219 3112 7228C3092 7241 3091 7245 3103 7249C3128 7258 3270 7256 3270 7247M3499 7241C3510 7230 3527 7209 3537 7193C3554 7166 3594 7118 3633 7078C3642 7068 3650 7055 3650 7050C3650 7044 3668 7020 3690 6996C3712 6972 3730 6949 3730 6944C3730 6939 3744 6919 3761 6900C3778 6881 3800 6854 3809 6840C3818 6826 3837 6802 3852 6785C3866 6769 3888 6744 3899 6730C3910 6716 3924 6700 3930 6693C3935 6686 3940 6677 3940 6673C3940 6668 3948 6657 3958 6648C3967 6639 3985 6620 3998 6606C4035 6566 4015 6507 3977 6545C3968 6553 3957 6560 3951 6560C3945 6560 3940 6564 3940 6569C3940 6584 3887 6640 3873 6640C3866 6640 3860 6646 3860 6654C3860 6662 3839 6686 3813 6707C3786 6728 3756 6756 3745 6769C3734 6782 3713 6807 3699 6824C3661 6870 3610 6947 3610 6959C3610 6965 3606 6970 3600 6970C3595 6970 3590 6976 3590 6984C3590 6992 3578 7009 3563 7022C3547 7035 3527 7061 3518 7080C3497 7122 3479 7149 3463 7168C3456 7175 3450 7186 3450 7192C3450 7198 3442 7212 3433 7222C3418 7239 3418 7242 3430 7250C3454 7265 3478 7262 3499 7241M3334 7087C3350 7048 3376 6988 3393 6955C3432 6876 3510 6693 3510 6680C3510 6663 3495 6669 3480 6691C3472 6702 3453 6725 3438 6743C3422 6760 3410 6777 3410 6782C3410 6792 3368 6841 3323 6886C3305 6903 3290 6920 3290 6923C3290 6926 3279 6940 3265 6954C3251 6968 3240 6986 3240 6995C3240 7003 3237 7010 3233 7010C3200 7012 3162 7090 3194 7090C3203 7090 3219 7098 3231 7108C3242 7117 3261 7133 3272 7143C3284 7152 3296 7160 3299 7160C3302 7160 3318 7127 3334 7087M3396 7146C3404 7138 3427 7109 3447 7083C3467 7057 3489 7029 3496 7022C3503 7016 3511 7001 3515 6991C3518 6980 3527 6969 3535 6966C3543 6963 3550 6954 3550 6946C3550 6938 3553 6930 3558 6928C3562 6927 3573 6909 3583 6889C3593 6869 3611 6842 3623 6829C3635 6816 3664 6780 3688 6749C3711 6718 3752 6672 3778 6647C3842 6586 3870 6554 3870 6542C3870 6537 3855 6523 3838 6511C3820 6500 3794 6482 3780 6470C3746 6443 3690 6432 3690 6453C3690 6462 3677 6484 3660 6502C3644 6520 3630 6540 3630 6547C3630 6554 3626 6560 3620 6560C3615 6560 3610 6567 3610 6575C3610 6583 3606 6590 3600 6590C3595 6590 3590 6599 3590 6610C3590 6628 3580 6655 3540 6745C3530 6767 3517 6796 3511 6810C3505 6824 3496 6842 3491 6850C3468 6886 3430 6973 3430 6990C3430 7000 3426 7010 3422 7012C3417 7014 3402 7048 3387 7088C3362 7157 3365 7177 3396 7146M4583 6975C4595 6953 4608 6933 4611 6930C4615 6927 4621 6914 4625 6900C4629 6886 4643 6859 4656 6840C4669 6821 4680 6800 4680 6794C4680 6788 4686 6777 4694 6771C4702 6764 4712 6745 4715 6729C4719 6713 4726 6700 4731 6700C4736 6700 4740 6693 4740 6685C4740 6664 4789 6572 4803 6566C4810 6564 4802 6561 4787 6561C4758 6560 4706 6583 4681 6607C4673 6615 4644 6639 4616 6660C4553 6706 4523 6739 4518 6765C4516 6779 4506 6786 4483 6788C4455 6791 4449 6796 4440 6830C4431 6863 4432 6874 4447 6897C4457 6913 4470 6929 4477 6933C4484 6937 4490 6948 4490 6955C4490 6963 4496 6970 4503 6970C4511 6970 4523 6981 4530 6995C4547 7027 4556 7024 4583 6975M4736 6883C4739 6870 4748 6860 4756 6860C4764 6860 4770 6854 4770 6847C4770 6840 4807 6796 4853 6749C4898 6702 4946 6649 4960 6631C4974 6613 4991 6591 4999 6583C5007 6575 5033 6543 5057 6512C5128 6418 5135 6411 5145 6410C5151 6410 5163 6398 5172 6383C5181 6367 5204 6339 5224 6320C5263 6281 5272 6230 5245 6194C5237 6184 5230 6165 5230 6153C5230 6141 5226 6128 5220 6125C5215 6122 5210 6111 5210 6102C5210 6093 5203 6072 5195 6056C5187 6041 5180 6023 5180 6016C5179 5988 5140 5921 5127 5925C5113 5931 5060 6041 5060 6065C5060 6083 5021 6168 5010 6175C5004 6178 5000 6189 5000 6200C5000 6210 4989 6240 4976 6267C4964 6293 4948 6331 4943 6350C4937 6369 4927 6405 4919 6429C4909 6464 4908 6474 4918 6478C4925 6480 4930 6499 4930 6522C4930 6559 4927 6563 4890 6577C4854 6591 4845 6602 4807 6679C4784 6726 4762 6767 4758 6768C4753 6770 4750 6777 4750 6783C4750 6790 4736 6815 4720 6840C4704 6865 4690 6892 4690 6901C4690 6910 4683 6923 4675 6930C4667 6937 4660 6952 4660 6964C4661 6982 4666 6979 4695 6945C4715 6923 4733 6895 4736 6883M4760 6484C4833 6451 4840 6438 4840 6328C4840 6274 4836 6230 4832 6230C4815 6230 4769 6291 4754 6333C4751 6342 4744 6350 4739 6350C4734 6350 4730 6356 4730 6364C4730 6372 4719 6392 4705 6408C4692 6424 4683 6439 4686 6442C4688 6445 4684 6453 4675 6460C4667 6467 4660 6481 4660 6491C4660 6501 4656 6512 4650 6515C4645 6518 4640 6527 4640 6535C4640 6545 4652 6542 4683 6524C4706 6511 4741 6493 4760 6484M3910 6442C3910 6433 3901 6412 3890 6395C3879 6379 3870 6358 3870 6349C3870 6340 3860 6330 3848 6327C3820 6319 3760 6345 3760 6364C3760 6379 3795 6408 3860 6446C3898 6469 3910 6468 3910 6442M3747 6277C3787 6265 3820 6250 3820 6244C3820 6237 3802 6216 3780 6196C3758 6176 3740 6156 3740 6150C3740 6145 3736 6140 3730 6140C3725 6140 3720 6133 3720 6125C3720 6117 3717 6110 3712 6110C3708 6110 3675 6086 3638 6058C3602 6029 3562 5998 3550 5990C3538 5982 3522 5971 3516 5965C3510 5960 3487 5946 3465 5935C3443 5924 3419 5907 3412 5898C3405 5888 3392 5880 3384 5880C3376 5880 3367 5873 3364 5865C3360 5857 3349 5850 3338 5850C3318 5850 3266 5825 3244 5805C3227 5789 3122 5755 3114 5763C3110 5766 3124 5784 3144 5802C3164 5819 3180 5840 3180 5847C3180 5854 3185 5860 3190 5860C3196 5860 3200 5865 3200 5871C3200 5878 3215 5897 3233 5915C3250 5932 3273 5963 3282 5983C3292 6003 3304 6020 3308 6020C3313 6020 3322 6032 3328 6046C3335 6060 3345 6068 3350 6065C3356 6062 3360 6065 3360 6073C3360 6080 3368 6094 3378 6103C3387 6112 3426 6148 3464 6184C3502 6220 3536 6250 3539 6250C3542 6250 3561 6264 3580 6281C3619 6315 3625 6315 3747 6277M4925 6220C4934 6204 4937 6190 4933 6190C4928 6190 4930 6186 4935 6182C4950 6172 4970 6133 4970 6115C4970 6107 4975 6100 4980 6100C4986 6100 4990 6094 4990 6086C4990 6078 4996 6059 5004 6043C5012 6028 5024 6002 5030 5985C5037 5969 5053 5934 5066 5909C5091 5860 5097 5820 5080 5820C5064 5820 5011 5883 5010 5902C5010 5911 5002 5924 4993 5929C4983 5935 4978 5940 4983 5940C4987 5940 4967 5972 4939 6010C4898 6066 4889 6087 4892 6110C4895 6126 4892 6141 4886 6144C4879 6146 4879 6152 4888 6161C4894 6168 4900 6191 4900 6212C4900 6258 4905 6259 4925 6220M3770 6050C3763 6028 3753 6010 3748 6010C3743 6010 3740 6004 3741 5998C3742 5991 3739 5976 3735 5965C3731 5954 3718 5923 3708 5895C3697 5868 3678 5822 3664 5793C3651 5764 3638 5729 3634 5715C3631 5701 3624 5687 3619 5684C3614 5681 3610 5667 3610 5652C3610 5637 3603 5614 3595 5600C3588 5586 3572 5556 3560 5533C3537 5484 3525 5482 3461 5510C3437 5521 3414 5530 3408 5530C3403 5530 3376 5547 3347 5569C3318 5590 3284 5611 3270 5615C3256 5619 3241 5626 3235 5629C3230 5633 3205 5643 3180 5650C3155 5658 3133 5665 3131 5667C3123 5673 3163 5710 3178 5710C3194 5710 3263 5749 3268 5762C3270 5766 3288 5774 3308 5781C3343 5793 3428 5845 3516 5910C3539 5926 3560 5940 3564 5940C3573 5940 3654 6002 3658 6013C3660 6017 3668 6020 3675 6020C3682 6020 3690 6024 3692 6029C3696 6041 3774 6099 3779 6094C3781 6092 3777 6072 3770 6050M4937 5930C4946 5908 4957 5890 4962 5890C4966 5890 4970 5885 4970 5879C4970 5873 4986 5841 5005 5809C5024 5776 5040 5742 5040 5733C5040 5716 4989 5617 4978 5612C4973 5610 4970 5602 4970 5594C4970 5586 4952 5551 4930 5516C4908 5481 4890 5443 4890 5432C4890 5421 4885 5408 4880 5405C4874 5401 4873 5394 4876 5388C4880 5381 4878 5380 4872 5384C4865 5388 4860 5386 4860 5381C4860 5375 4851 5370 4839 5370C4828 5370 4822 5374 4825 5380C4834 5395 4838 5420 4844 5507C4851 5596 4861 5686 4867 5715C4872 5744 4872 5931 4866 5937C4858 5946 4884 5969 4903 5970C4916 5970 4927 5957 4937 5930M4800 5653C4791 5613 4777 5489 4776 5428C4775 5402 4750 5386 4750 5411C4750 5417 4722 5456 4688 5499C4599 5607 4579 5637 4573 5673C4569 5702 4574 5711 4629 5762C4663 5793 4690 5821 4690 5825C4690 5834 4754 5889 4766 5890C4772 5890 4784 5897 4791 5907C4803 5921 4805 5907 4808 5809C4810 5746 4806 5676 4800 5653M3790 5866C3785 5851 3780 5812 3780 5779C3780 5747 3776 5720 3770 5720C3765 5720 3763 5713 3767 5705C3770 5696 3765 5670 3757 5647C3748 5624 3739 5585 3735 5560C3724 5477 3719 5462 3703 5456C3695 5452 3681 5455 3674 5461C3663 5470 3655 5469 3642 5456C3613 5431 3599 5436 3606 5468C3610 5483 3619 5502 3626 5511C3634 5519 3640 5535 3640 5546C3640 5557 3645 5571 3652 5578C3659 5585 3661 5590 3658 5590C3649 5590 3696 5720 3709 5733C3715 5739 3720 5750 3720 5757C3720 5764 3724 5778 3729 5788C3733 5797 3748 5828 3761 5857C3785 5909 3810 5917 3790 5866M4366 5816C4374 5808 4380 5799 4380 5796C4380 5787 4419 5750 4429 5750C4434 5750 4443 5737 4450 5721C4456 5705 4470 5684 4481 5674C4491 5665 4500 5651 4500 5644C4500 5637 4504 5630 4510 5628C4520 5625 4563 5433 4575 5338C4579 5306 4586 5280 4591 5280C4596 5280 4600 5263 4600 5242C4600 5221 4605 5199 4611 5193C4617 5187 4619 5177 4615 5171C4606 5155 4576 5186 4583 5205C4586 5212 4583 5224 4575 5230C4567 5236 4558 5255 4555 5271C4551 5287 4544 5302 4539 5305C4534 5309 4530 5319 4530 5329C4530 5339 4523 5353 4515 5360C4506 5367 4501 5379 4504 5386C4507 5393 4500 5408 4490 5420C4480 5432 4459 5473 4445 5511C4430 5549 4414 5582 4409 5586C4404 5589 4400 5602 4400 5616C4400 5631 4394 5640 4384 5640C4376 5640 4372 5645 4375 5650C4379 5656 4375 5671 4367 5683C4359 5695 4351 5725 4348 5750C4345 5775 4339 5803 4335 5813C4326 5834 4345 5836 4366 5816M5100 5636C5100 5629 5118 5600 5140 5572C5162 5545 5180 5515 5180 5506C5180 5497 5184 5490 5188 5490C5199 5490 5257 5332 5264 5282C5270 5241 5269 5239 5248 5242C5230 5244 5226 5251 5228 5272C5232 5309 5215 5315 5191 5284C5171 5258 5171 5258 5078 5270C4926 5289 4910 5292 4905 5301C4902 5305 4911 5331 4924 5357C4953 5413 4980 5475 4980 5486C4980 5490 4990 5507 5003 5524C5016 5541 5032 5571 5040 5590C5059 5638 5100 5669 5100 5636M3095 5617C3106 5609 3144 5596 3180 5586C3249 5568 3299 5548 3340 5524C3354 5516 3400 5493 3444 5473C3504 5445 3518 5435 3504 5429C3478 5420 3313 5406 3270 5409C3221 5412 3192 5403 3185 5382C3180 5364 3123 5340 3088 5340C3079 5340 3068 5357 3061 5382C3054 5405 3042 5429 3036 5435C3025 5444 3016 5469 2995 5548C2991 5561 2993 5570 2999 5570C3005 5570 3010 5577 3010 5585C3010 5593 3014 5600 3020 5600C3025 5600 3027 5607 3024 5615C3016 5635 3067 5636 3095 5617M4675 5403C4694 5382 4710 5361 4710 5357C4710 5352 4720 5334 4732 5317C4745 5299 4755 5282 4755 5278C4755 5275 4757 5269 4760 5267C4763 5264 4764 5199 4762 5123C4759 4905 4756 4892 4721 4924C4702 4942 4684 5015 4675 5120C4670 5174 4661 5234 4640 5334C4635 5360 4633 5386 4636 5391C4639 5396 4637 5400 4632 5400C4626 5400 4624 5409 4627 5420C4630 5431 4634 5440 4637 5440C4639 5440 4657 5423 4675 5403M2997 5384C3030 5324 3027 5302 2984 5294C2964 5290 2944 5292 2939 5297C2925 5311 2949 5432 2964 5427C2970 5425 2985 5406 2997 5384M3524 5344C3526 5338 3512 5312 3492 5287C3472 5263 3446 5229 3435 5214C3417 5189 3382 5146 3328 5086C3318 5075 3310 5063 3310 5059C3310 5048 3252 5028 3241 5035C3235 5038 3230 5049 3230 5059C3230 5069 3222 5088 3211 5101C3201 5114 3180 5150 3166 5180C3151 5210 3134 5243 3129 5253C3122 5266 3122 5276 3130 5285C3143 5301 3235 5324 3254 5317C3262 5314 3270 5315 3272 5320C3275 5328 3298 5332 3425 5346C3453 5349 3476 5353 3477 5354C3484 5361 3520 5354 3524 5344M3675 5322C3687 5313 3699 5297 3703 5288C3707 5277 3720 5270 3735 5270C3750 5270 3759 5266 3755 5260C3752 5255 3755 5250 3762 5250C3769 5250 3776 5238 3776 5224C3777 5210 3785 5191 3794 5181C3803 5171 3810 5158 3810 5150C3810 5139 3825 5101 3876 4983C3901 4926 3897 4920 3828 4919C3793 4918 3761 4919 3755 4920C3750 4922 3725 4924 3700 4926C3675 4927 3635 4932 3610 4936C3585 4940 3558 4944 3550 4945C3469 4954 3370 4974 3370 4981C3370 4986 3363 4987 3355 4984C3330 4974 3338 4996 3375 5036C3394 5058 3410 5078 3410 5082C3410 5086 3427 5109 3448 5134C3468 5159 3494 5191 3505 5206C3536 5246 3573 5280 3587 5280C3594 5280 3600 5287 3600 5295C3600 5303 3607 5310 3615 5310C3624 5310 3633 5317 3636 5325C3644 5344 3650 5343 3675 5322M3907 5324C3928 5315 3952 5304 3960 5299C3968 5294 3997 5279 4023 5267C4049 5254 4068 5241 4064 5237C4060 5233 4066 5230 4078 5230C4090 5230 4102 5230 4105 5230C4107 5230 4121 5219 4135 5206C4149 5193 4176 5174 4195 5165C4214 5156 4230 5145 4230 5140C4230 5134 4239 5130 4249 5130C4260 5130 4281 5120 4297 5108C4345 5069 4389 5040 4398 5040C4403 5040 4419 5029 4434 5015C4450 5001 4473 4982 4486 4973C4508 4959 4521 4910 4502 4910C4498 4910 4468 4923 4435 4940C4402 4956 4369 4970 4363 4970C4356 4970 4350 4974 4350 4978C4350 4983 4329 4996 4303 5009C4276 5021 4233 5047 4205 5066C4178 5085 4143 5104 4128 5107C4113 5110 4095 5119 4089 5126C4083 5134 4073 5140 4068 5140C4063 5140 4033 5158 4003 5180C3972 5202 3941 5220 3933 5220C3926 5220 3920 5225 3920 5230C3920 5236 3915 5240 3910 5240C3890 5240 3820 5308 3820 5327C3820 5345 3862 5343 3907 5324M3084 5198C3098 5169 3120 5128 3132 5106C3149 5076 3151 5064 3142 5050C3136 5040 3134 5021 3139 5005C3144 4984 3138 4962 3115 4917C3099 4883 3077 4847 3068 4836C3058 4825 3050 4810 3050 4803C3050 4788 3048 4788 3026 4796C3017 4799 3010 4807 3010 4814C3010 4820 2996 4843 2980 4864C2963 4886 2950 4910 2950 4917C2950 4924 2946 4930 2940 4930C2935 4930 2930 4939 2930 4950C2930 4973 2910 5020 2900 5020C2890 5020 2901 5122 2913 5145C2919 5156 2923 5169 2922 5174C2917 5189 2944 5212 2985 5231C3046 5258 3054 5255 3084 5198M5158 5194C5181 5186 5208 5180 5218 5180C5227 5180 5241 5176 5248 5172C5261 5163 5245 5145 5158 5066C5143 5053 5078 5016 5013 4984C4948 4953 4891 4921 4885 4914C4880 4907 4862 4898 4846 4894C4821 4888 4818 4889 4823 4905C4827 4914 4833 4968 4836 5024C4842 5120 4844 5154 4848 5201C4850 5221 4854 5221 4983 5215C5055 5211 5134 5202 5158 5194M3940 5161C3940 5157 3993 5127 4058 5095C4122 5063 4177 5033 4178 5028C4180 5024 4186 5020 4191 5020C4196 5020 4219 5007 4242 4990C4264 4974 4289 4960 4297 4960C4304 4960 4310 4956 4310 4950C4310 4945 4316 4940 4324 4940C4331 4940 4343 4933 4350 4925C4357 4917 4369 4910 4378 4910C4386 4910 4409 4898 4428 4884C4456 4862 4460 4856 4447 4849C4439 4844 4415 4842 4394 4844C4372 4846 4299 4854 4230 4860C4161 4867 4093 4879 4078 4886C4063 4894 4038 4900 4022 4900C4007 4900 3987 4906 3978 4913C3962 4925 3937 4976 3927 5015C3924 5026 3910 5068 3895 5108C3881 5148 3872 5185 3875 5189C3881 5199 3940 5173 3940 5161M3395 4758C3612 4540 3722 4434 3773 4396C3793 4380 3810 4364 3810 4360C3810 4350 3920 4240 3980 4190C4058 4124 4102 4078 4093 4070C4083 4059 3961 4116 3939 4141C3930 4152 3917 4160 3911 4160C3900 4160 3861 4179 3850 4190C3839 4201 3799 4220 3787 4220C3780 4220 3765 4228 3754 4238C3744 4247 3715 4265 3690 4278C3616 4316 3596 4328 3580 4347C3571 4357 3549 4374 3530 4384C3511 4395 3484 4414 3471 4427C3458 4440 3443 4450 3438 4450C3433 4450 3419 4460 3406 4473C3393 4485 3361 4511 3335 4530C3310 4549 3280 4573 3269 4583C3259 4592 3248 4600 3246 4600C3234 4600 3148 4664 3143 4676C3140 4684 3132 4690 3125 4690C3103 4690 3101 4752 3121 4790C3132 4809 3140 4833 3140 4842C3140 4852 3145 4860 3150 4860C3156 4860 3160 4869 3160 4880C3160 4891 3164 4900 3169 4900C3174 4900 3182 4909 3185 4920C3188 4931 3196 4940 3203 4940C3209 4940 3296 4858 3395 4758M4553 4926C4562 4919 4570 4908 4570 4901C4570 4895 4577 4890 4585 4890C4593 4890 4600 4885 4600 4879C4600 4863 4559 4879 4538 4904C4509 4939 4518 4952 4553 4926M3648 4879C3695 4869 3813 4856 3845 4858C3856 4859 3882 4855 3903 4849C3930 4842 3940 4834 3940 4820C3940 4809 3943 4800 3948 4800C3957 4800 3981 4746 4006 4670C4015 4640 4037 4586 4053 4550C4097 4453 4096 4455 4140 4320C4162 4251 4185 4188 4190 4179C4195 4170 4202 4146 4205 4126C4209 4106 4216 4087 4221 4084C4236 4075 4231 4060 4212 4060C4194 4060 4180 4071 4051 4188C4011 4225 3973 4257 3966 4259C3960 4261 3926 4291 3890 4326C3681 4531 3598 4610 3595 4610C3587 4610 3430 4766 3430 4773C3430 4777 3412 4805 3391 4834C3369 4864 3354 4891 3358 4895C3367 4904 3590 4891 3648 4879M4085 4829C4136 4816 4164 4813 4276 4806C4326 4803 4379 4796 4394 4790C4409 4785 4457 4780 4501 4780C4547 4780 4580 4776 4580 4770C4580 4765 4588 4760 4597 4760C4629 4760 4658 4714 4655 4667C4650 4607 4621 4477 4611 4470C4606 4467 4599 4449 4597 4430C4594 4411 4591 4395 4590 4395C4589 4395 4582 4370 4575 4340C4568 4310 4555 4260 4546 4230C4507 4103 4499 4073 4490 4038C4484 4017 4470 3980 4458 3956C4440 3918 4434 3913 4422 3923C4413 3930 4396 3935 4383 3935C4366 3935 4354 3945 4340 3970C4306 4032 4272 4110 4265 4140C4261 4157 4254 4172 4249 4175C4244 4179 4240 4190 4240 4201C4240 4211 4236 4220 4230 4220C4225 4220 4220 4231 4220 4244C4220 4257 4213 4285 4204 4306C4170 4387 4140 4476 4140 4496C4140 4508 4133 4523 4125 4530C4117 4537 4110 4553 4110 4566C4110 4579 4101 4605 4090 4625C4079 4645 4070 4668 4070 4678C4070 4687 4063 4709 4054 4725C4045 4742 4034 4766 4030 4780C4026 4794 4019 4813 4015 4823C4007 4843 4024 4845 4085 4829M2900 4572C2900 4567 2880 4537 2855 4504C2831 4472 2810 4440 2810 4433C2810 4427 2792 4394 2770 4361C2748 4328 2730 4297 2730 4292C2730 4287 2721 4275 2710 4265C2699 4255 2690 4243 2690 4238C2690 4232 2676 4198 2659 4162C2641 4125 2619 4077 2609 4055C2599 4033 2582 4005 2571 3994C2560 3982 2553 3970 2556 3968C2558 3965 2544 3945 2525 3923C2506 3900 2490 3875 2490 3866C2490 3840 2468 3848 2422 3890C2398 3912 2376 3930 2372 3930C2359 3931 2320 3968 2320 3979C2320 3985 2316 3990 2310 3990C2305 3990 2300 3999 2300 4010C2300 4021 2296 4030 2290 4030C2285 4030 2280 4037 2280 4045C2280 4054 2273 4071 2264 4085C2250 4107 2250 4109 2272 4121C2285 4127 2297 4136 2300 4139C2303 4142 2325 4156 2350 4169C2375 4182 2402 4198 2410 4204C2418 4211 2439 4222 2455 4230C2472 4238 2491 4251 2498 4258C2506 4264 2521 4275 2533 4282C2545 4288 2580 4315 2611 4342C2641 4368 2672 4390 2678 4390C2685 4390 2690 4393 2690 4398C2690 4409 2787 4510 2798 4510C2804 4510 2810 4514 2812 4519C2815 4530 2880 4578 2893 4579C2897 4580 2900 4576 2900 4572M4751 4451C4768 4384 4780 4314 4780 4277C4780 4219 4777 4210 4745 4173C4726 4150 4710 4127 4710 4121C4710 4115 4706 4110 4701 4110C4692 4110 4660 4062 4632 4008C4624 3993 4609 3978 4599 3975C4589 3971 4580 3965 4580 3960C4580 3946 4550 3920 4534 3920C4518 3920 4520 3938 4545 3995C4552 4012 4561 4050 4565 4081C4568 4111 4577 4148 4584 4162C4592 4177 4603 4221 4610 4262C4617 4302 4626 4340 4629 4345C4633 4351 4647 4391 4660 4435C4672 4479 4686 4519 4691 4525C4696 4530 4700 4545 4700 4559C4700 4608 4721 4564 4751 4451M3052 4550C3064 4539 3071 4530 3068 4530C3065 4530 3084 4507 3111 4480C3138 4452 3160 4427 3160 4424C3160 4422 3169 4409 3181 4397C3246 4327 3280 4286 3280 4278C3280 4273 3294 4256 3310 4240C3327 4224 3340 4208 3340 4204C3340 4200 3351 4182 3365 4164C3379 4146 3390 4129 3390 4126C3390 4124 3407 4095 3428 4063C3449 4031 3478 3979 3494 3948C3510 3916 3526 3890 3531 3890C3536 3890 3549 3871 3560 3848C3595 3776 3607 3759 3629 3744C3640 3736 3650 3724 3650 3719C3650 3713 3657 3701 3666 3692C3681 3677 3681 3675 3660 3666C3643 3658 3630 3660 3608 3673C3592 3682 3559 3690 3535 3690C3511 3690 3488 3695 3485 3700C3481 3706 3474 3708 3469 3704C3464 3701 3454 3703 3447 3708C3440 3713 3422 3720 3405 3723C3317 3740 3275 3751 3272 3760C3270 3766 3256 3770 3240 3770C3225 3770 3208 3776 3202 3783C3196 3790 3154 3802 3110 3809C3055 3818 3030 3827 3030 3836C3030 3844 3026 3850 3021 3850C3017 3850 3012 3887 3011 3933C3010 3978 3003 4067 2996 4130C2989 4193 2982 4313 2982 4397C2981 4526 2983 4548 2995 4543C3003 4540 3013 4545 3016 4554C3024 4574 3026 4574 3052 4550M3215 4556C3229 4548 3250 4534 3260 4524C3285 4498 3305 4482 3390 4425C3430 4398 3480 4360 3499 4343C3519 4325 3540 4310 3545 4310C3551 4310 3567 4299 3582 4285C3597 4271 3616 4260 3624 4260C3632 4260 3643 4254 3647 4248C3656 4234 3664 4229 3767 4174C3805 4154 3843 4131 3853 4123C3872 4105 3903 4086 3938 4070C3967 4058 4095 3980 4170 3930C4258 3873 4290 3847 4290 3836C4290 3824 4191 3782 4100 3755C4070 3746 4036 3735 4025 3730C4000 3719 3948 3706 3847 3685C3769 3669 3769 3669 3740 3699C3725 3716 3707 3730 3701 3730C3695 3730 3690 3736 3690 3743C3690 3750 3680 3766 3667 3780C3654 3794 3641 3813 3637 3823C3633 3834 3621 3844 3611 3847C3600 3850 3589 3864 3585 3878C3581 3893 3563 3926 3544 3952C3525 3979 3510 4009 3510 4020C3510 4031 3504 4040 3497 4040C3490 4040 3477 4055 3468 4073C3428 4155 3395 4216 3383 4228C3376 4235 3370 4246 3370 4251C3370 4257 3356 4275 3339 4293C3322 4310 3297 4341 3284 4362C3271 4383 3255 4400 3250 4400C3244 4400 3240 4407 3240 4415C3240 4423 3236 4430 3232 4430C3220 4430 3160 4533 3160 4553C3160 4574 3179 4575 3215 4556M2921 4433C2921 4428 2923 4409 2925 4390C2933 4324 2939 4155 2941 3991C2942 3837 2941 3826 2922 3811C2911 3802 2882 3765 2858 3729C2834 3693 2808 3656 2800 3646C2766 3606 2749 3590 2741 3590C2736 3590 2710 3612 2683 3639C2574 3749 2563 3772 2596 3818C2604 3830 2610 3850 2609 3863C2605 3892 2616 3923 2651 3981C2666 4008 2684 4048 2690 4071C2702 4115 2786 4281 2802 4291C2807 4294 2821 4316 2834 4341C2847 4365 2867 4389 2879 4395C2890 4400 2900 4413 2900 4422C2900 4439 2919 4448 2921 4433M1209 4246C1232 4209 1237 4160 1218 4160C1209 4160 1209 4157 1218 4148C1236 4130 1232 4102 1210 4090C1195 4082 1190 4082 1190 4092C1190 4099 1183 4117 1176 4132C1158 4166 1155 4197 1165 4235C1179 4290 1182 4291 1209 4246M1090 4185C1111 4130 1122 4081 1115 4061C1108 4036 1089 4031 998 4027C940 4025 930 4027 930 4042C930 4051 926 4062 920 4065C904 4075 909 4143 928 4166C937 4178 972 4206 1005 4229L1065 4270L1074 4238C1078 4220 1086 4196 1090 4185M1334 4124C1344 4098 1341 4080 1326 4080C1312 4080 1297 4117 1306 4132C1314 4145 1327 4141 1334 4124M838 4079C840 4066 846 4050 851 4044C869 4022 827 3967 770 3938C756 3931 729 3913 709 3898C689 3883 666 3870 658 3870C650 3870 639 3865 633 3859C625 3851 614 3857 591 3881C574 3900 560 3921 560 3927C560 3934 579 3952 603 3966C626 3981 647 3996 650 3999C663 4015 731 4061 754 4070C768 4075 780 4084 780 4089C780 4099 808 4109 825 4105C831 4104 837 4093 838 4079M1138 3948C1136 3935 1128 3925 1120 3925C1112 3925 1101 3921 1097 3915C1091 3908 1087 3909 1084 3916C1081 3922 1068 3925 1055 3922C1037 3919 1030 3922 1030 3933C1030 3941 1040 3948 1053 3948C1085 3950 1108 3955 1116 3963C1130 3977 1141 3969 1138 3948M2185 3845C2233 3801 2277 3762 2283 3758C2302 3747 2180 3622 2118 3589C2105 3582 2089 3569 2082 3558C2075 3548 2063 3540 2056 3540C2048 3540 2040 3533 2036 3525C2033 3517 2025 3510 2018 3510C2011 3510 1992 3494 1977 3475C1945 3434 1855 3384 1844 3401C1841 3407 1842 3416 1848 3422C1854 3428 1856 3438 1854 3445C1851 3452 1853 3461 1859 3465C1865 3468 1870 3482 1870 3495C1870 3508 1874 3522 1880 3525C1885 3528 1894 3550 1900 3573C1906 3596 1915 3624 1920 3635C1941 3682 1963 3738 1977 3784C1985 3811 1998 3840 2006 3847C2014 3855 2020 3867 2020 3875C2020 3899 2063 3938 2081 3931C2090 3928 2137 3889 2185 3845M924 3881C941 3863 941 3861 923 3843C913 3833 882 3815 855 3803C827 3791 810 3780 815 3780C828 3779 779 3751 764 3750C758 3750 747 3764 740 3781C728 3809 729 3813 752 3835C789 3869 850 3900 881 3900C895 3900 915 3891 924 3881M520 3840C534 3815 525 3799 502 3807C480 3815 471 3830 477 3847C485 3866 508 3863 520 3840M4356 3741C4347 3725 4340 3704 4340 3695C4340 3683 4334 3680 4318 3685C4305 3689 4292 3693 4289 3694C4285 3695 4239 3673 4085 3597C4055 3581 3950 3561 3903 3560C3863 3560 3798 3537 3774 3515C3768 3509 3760 3487 3756 3465C3752 3443 3742 3414 3735 3399C3727 3385 3723 3364 3726 3353C3729 3341 3727 3329 3721 3326C3715 3322 3710 3304 3710 3285C3710 3266 3705 3248 3700 3245C3694 3241 3690 3231 3692 3222C3693 3212 3691 3199 3686 3192C3682 3185 3677 3161 3675 3139C3673 3114 3663 3088 3646 3068L3620 3036L3620 3077C3620 3100 3624 3121 3629 3124C3634 3127 3641 3160 3645 3197C3648 3235 3656 3283 3662 3305C3678 3367 3681 3473 3667 3491C3660 3500 3637 3510 3615 3513C3593 3515 3550 3526 3520 3535C3490 3545 3441 3555 3413 3557C3384 3560 3360 3566 3360 3571C3360 3576 3353 3580 3345 3580C3323 3580 3248 3620 3229 3641C3200 3675 3140 3632 3168 3597C3173 3590 3185 3561 3195 3531C3204 3502 3218 3466 3226 3452C3233 3438 3237 3423 3234 3418C3231 3414 3233 3410 3237 3410C3242 3410 3256 3382 3270 3348C3283 3313 3300 3276 3307 3265C3314 3254 3320 3236 3320 3223C3320 3211 3325 3198 3330 3195C3336 3192 3340 3180 3340 3169C3340 3159 3345 3150 3350 3150C3356 3150 3360 3142 3360 3131C3360 3121 3367 3107 3375 3100C3383 3093 3390 3081 3390 3074C3390 3066 3394 3052 3399 3042C3441 2958 3454 2900 3420 2943C3409 2957 3400 2972 3400 2977C3400 2982 3389 3008 3376 3036C3363 3063 3343 3106 3331 3133C3319 3159 3305 3180 3299 3180C3293 3180 3291 3184 3295 3189C3303 3203 3222 3402 3201 3420C3198 3423 3194 3431 3192 3439C3190 3447 3180 3466 3169 3481C3159 3496 3150 3513 3150 3519C3150 3525 3146 3530 3140 3530C3135 3530 3123 3546 3114 3565C3105 3585 3089 3605 3079 3610C3069 3616 3060 3634 3058 3653C3056 3677 3050 3686 3033 3688C3020 3690 3010 3695 3010 3699C3010 3712 3064 3731 3101 3732C3139 3732 3264 3697 3255 3689C3252 3685 3276 3680 3307 3676C3339 3673 3392 3661 3424 3650C3457 3639 3495 3630 3509 3630C3534 3629 3623 3602 3646 3588C3665 3576 3738 3567 3765 3574C3779 3578 3790 3586 3790 3594C3790 3602 3803 3607 3823 3608C3841 3609 3872 3616 3893 3625C3913 3633 3933 3639 3937 3638C3948 3635 4022 3660 4036 3671C4042 3676 4055 3678 4064 3674C4073 3671 4080 3672 4080 3677C4080 3683 4122 3699 4173 3715C4223 3730 4270 3745 4275 3749C4286 3755 4305 3760 4332 3764C4342 3765 4353 3769 4356 3773C4371 3788 4371 3770 4356 3741M700 3703C700 3696 693 3690 684 3690C676 3690 672 3686 675 3680C685 3664 664 3668 650 3685C643 3694 641 3707 645 3717C650 3727 652 3742 651 3750C649 3760 657 3757 674 3741C688 3727 700 3711 700 3703M528 3658C528 3621 534 3573 539 3553C545 3532 550 3498 550 3478C550 3438 564 3361 585 3285C607 3205 611 3160 595 3160C587 3160 579 3164 575 3169C572 3174 555 3182 537 3185C501 3193 421 3236 404 3256C397 3265 396 3285 401 3312C405 3336 413 3382 419 3414C427 3457 426 3477 419 3487C411 3496 411 3504 419 3514C426 3523 431 3565 432 3617C432 3665 437 3711 443 3718C448 3725 469 3730 490 3728C526 3726 526 3726 528 3658M2985 3691C2988 3685 2985 3678 2978 3673C2963 3664 2934 3618 2917 3578C2911 3562 2902 3550 2898 3550C2894 3550 2890 3545 2890 3540C2890 3529 2879 3514 2844 3475C2832 3462 2824 3449 2827 3446C2830 3443 2820 3429 2805 3414C2790 3399 2771 3371 2763 3352C2755 3333 2740 3316 2729 3313C2719 3310 2707 3296 2703 3281C2700 3267 2686 3238 2674 3218C2661 3198 2649 3175 2648 3168C2646 3161 2639 3149 2632 3141C2613 3121 2621 3076 2645 3071C2656 3069 2667 3064 2670 3059C2673 3055 2689 3049 2705 3047C2722 3045 2734 3037 2732 3031C2731 3025 2739 3020 2749 3020C2760 3020 2771 3016 2774 3011C2778 3006 2798 2999 2820 2995C2842 2991 2860 2984 2860 2979C2860 2974 2868 2970 2878 2970C2888 2970 2906 2963 2918 2954C2931 2945 2944 2940 2947 2944C2950 2947 2959 2943 2967 2935C2975 2927 2999 2920 3020 2920C3044 2920 3060 2915 3064 2905C3067 2897 3078 2890 3088 2890C3116 2890 3200 2859 3200 2849C3200 2844 3216 2840 3235 2840C3258 2840 3273 2834 3276 2825C3281 2813 3286 2812 3296 2821C3304 2828 3310 2828 3310 2822C3310 2817 3303 2807 3295 2800C3284 2791 3269 2792 3225 2804C3195 2813 3170 2825 3170 2829C3170 2834 3155 2841 3138 2845C3095 2854 3042 2870 3003 2887C2986 2894 2965 2900 2958 2900C2950 2900 2936 2908 2927 2918C2917 2928 2877 2947 2837 2959C2798 2972 2745 2991 2720 3002C2695 3013 2650 3026 2620 3031C2521 3047 2515 3047 2512 3024C2509 3002 2547 2908 2562 2902C2566 2900 2570 2893 2570 2886C2570 2870 2599 2815 2633 2765C2648 2743 2660 2720 2660 2713C2660 2706 2664 2700 2668 2700C2679 2700 2736 2586 2774 2488C2782 2467 2793 2450 2799 2450C2813 2450 2831 2394 2822 2377C2816 2364 2790 2391 2790 2411C2790 2422 2784 2430 2776 2430C2768 2430 2760 2436 2756 2443C2753 2449 2740 2471 2728 2492C2715 2512 2689 2554 2670 2586C2651 2617 2627 2657 2617 2673C2607 2689 2601 2704 2604 2707C2606 2710 2599 2721 2588 2732C2577 2743 2571 2758 2574 2766C2577 2774 2576 2779 2571 2776C2566 2773 2560 2783 2557 2798C2546 2856 2501 2945 2464 2982C2448 2999 2448 3001 2463 3018C2473 3028 2480 3043 2480 3051C2480 3060 2497 3076 2518 3088C2550 3105 2558 3117 2569 3160C2576 3187 2586 3210 2592 3210C2597 3210 2599 3214 2595 3219C2592 3225 2602 3242 2617 3259C2671 3316 2694 3348 2727 3410C2734 3424 2740 3431 2740 3426C2740 3415 2825 3535 2839 3565C2844 3576 2857 3594 2869 3604C2880 3615 2890 3629 2890 3637C2890 3644 2902 3655 2916 3660C2930 3666 2939 3674 2935 3679C2931 3687 2944 3694 2972 3699C2976 3699 2981 3696 2985 3691M2418 3629C2441 3608 2460 3586 2460 3580C2460 3575 2465 3570 2470 3570C2476 3570 2515 3536 2557 3495C2634 3420 2634 3420 2616 3384C2601 3352 2555 3291 2498 3226C2488 3215 2480 3203 2480 3198C2480 3186 2346 3188 2314 3201C2298 3206 2256 3215 2220 3221C2149 3231 2053 3247 2030 3253C2022 3255 1994 3260 1969 3264C1941 3269 1919 3279 1912 3291C1899 3311 1903 3330 1920 3330C1925 3330 1948 3349 1972 3373C2031 3432 2136 3520 2147 3520C2152 3520 2178 3543 2205 3571C2232 3599 2271 3630 2292 3641C2313 3652 2330 3664 2330 3669C2330 3688 2380 3666 2418 3629M653 3600C667 3600 695 3526 705 3465C709 3443 723 3383 736 3332C750 3280 760 3222 758 3202C755 3167 753 3165 719 3162C687 3159 682 3162 673 3187C650 3249 632 3335 609 3497C597 3587 601 3616 626 3606C635 3603 647 3600 653 3600M2130 3172C2130 3167 2156 3162 2187 3161C2218 3160 2268 3152 2299 3144C2329 3136 2365 3130 2378 3130C2397 3130 2401 3126 2395 3113C2391 3103 2386 3065 2383 3029C2378 2965 2379 2962 2409 2931C2426 2914 2440 2894 2440 2887C2440 2880 2445 2869 2452 2862C2500 2814 2501 2633 2453 2523C2439 2492 2436 2489 2432 2505C2430 2516 2422 2529 2414 2533C2406 2537 2400 2546 2400 2552C2400 2567 2342 2659 2310 2695C2283 2725 2146 2921 2123 2963C2116 2975 2105 2989 2097 2995C2090 3000 2078 3021 2070 3040C2063 3059 2051 3082 2043 3091C2036 3100 2028 3120 2027 3136C2025 3160 2029 3166 2055 3171C2100 3181 2130 3181 2130 3172M1800 3150C1800 3136 1792 3133 1748 3137C1719 3139 1694 3143 1692 3145C1680 3156 1704 3165 1749 3166C1790 3166 1800 3163 1800 3150M1625 3150C1622 3145 1612 3140 1604 3140C1596 3140 1590 3145 1590 3150C1590 3156 1599 3160 1611 3160C1622 3160 1628 3156 1625 3150M1680 3150C1680 3145 1671 3140 1660 3140C1649 3140 1640 3145 1640 3150C1640 3156 1649 3160 1660 3160C1671 3160 1680 3156 1680 3150M580 3088C611 3068 605 3042 563 3025C521 3007 500 3012 493 3040C490 3051 484 3060 479 3060C466 3060 448 3110 454 3127C458 3137 470 3136 509 3120C537 3109 569 3095 580 3088M1939 3111C1965 3097 2025 2971 2012 2958C2000 2946 1980 2956 1980 2975C1980 2982 1973 2990 1965 2994C1957 2997 1950 3005 1950 3013C1950 3020 1939 3037 1925 3050C1901 3073 1893 3100 1907 3113C1915 3122 1918 3122 1939 3111M1370 3090C1389 3089 1410 3084 1415 3080C1421 3075 1436 3072 1450 3072C1555 3075 1661 3059 1660 3040C1660 3037 1639 3022 1615 3005C1590 2989 1570 2972 1570 2968C1570 2963 1562 2960 1551 2960C1541 2960 1527 2953 1520 2945C1513 2937 1500 2930 1490 2930C1480 2930 1449 2914 1421 2895C1393 2876 1369 2860 1366 2860C1364 2860 1338 2844 1309 2825C1247 2785 1220 2783 1165 2815C1143 2828 1091 2855 1050 2875C1009 2896 973 2916 970 2919C967 2922 952 2932 935 2940C919 2948 898 2962 890 2970C881 2978 860 2996 843 3010C826 3024 810 3044 806 3055C800 3077 795 3076 945 3079C978 3080 1011 3084 1019 3089C1030 3096 1211 3097 1370 3090M1860 3009C1860 3002 1896 2963 1940 2922C1984 2881 2020 2842 2020 2837C2020 2832 2031 2817 2045 2804C2059 2791 2070 2776 2070 2770C2070 2765 2075 2760 2080 2760C2086 2760 2090 2756 2090 2751C2090 2746 2108 2722 2131 2698C2196 2629 2205 2618 2251 2555C2274 2522 2300 2489 2307 2482C2314 2475 2320 2464 2320 2460C2320 2455 2343 2427 2371 2398C2419 2348 2421 2343 2416 2303C2413 2279 2406 2252 2401 2243C2382 2205 2370 2173 2360 2130C2343 2063 2278 1935 2267 1947C2263 1950 2260 1944 2260 1932C2260 1919 2254 1910 2245 1910C2237 1910 2230 1914 2230 1919C2230 1924 2224 1935 2218 1942C2211 1949 2198 1971 2189 1990C2180 2009 2152 2069 2126 2122C2101 2175 2080 2223 2080 2228C2080 2232 2069 2259 2055 2287C2042 2315 2028 2350 2024 2364C2021 2378 2014 2393 2009 2396C2004 2399 2000 2410 2000 2421C2000 2432 1989 2457 1976 2478C1962 2498 1948 2529 1944 2545C1940 2562 1933 2580 1928 2587C1923 2594 1921 2604 1925 2610C1929 2616 1924 2630 1913 2642C1903 2653 1896 2665 1897 2669C1902 2681 1868 2770 1858 2770C1853 2770 1850 2776 1852 2782C1855 2789 1846 2822 1833 2854C1811 2912 1801 3007 1819 2996C1824 2993 1830 2997 1834 3005C1840 3023 1860 3025 1860 3009M656 2966C652 2934 588 2801 576 2800C561 2800 520 2850 519 2871C518 2881 517 2894 516 2899C515 2910 630 2989 647 2990C653 2990 657 2979 656 2966M833 2950C862 2928 898 2899 914 2887C930 2875 949 2859 956 2853C963 2846 973 2840 979 2840C985 2840 990 2836 990 2830C990 2825 998 2820 1007 2820C1022 2820 1023 2818 1009 2805C999 2795 956 2788 860 2782C723 2773 687 2777 677 2803C669 2824 692 2900 707 2900C714 2900 720 2911 720 2925C720 2959 741 2990 763 2990C773 2990 804 2972 833 2950M1710 2933C1710 2899 1644 2695 1619 2650C1600 2617 1570 2547 1570 2536C1570 2530 1556 2487 1539 2440C1521 2393 1502 2335 1495 2310C1469 2222 1435 2135 1420 2123C1408 2114 1402 2118 1388 2148C1378 2169 1371 2193 1370 2202C1370 2211 1365 2222 1360 2225C1354 2229 1352 2240 1355 2249C1358 2259 1351 2295 1340 2330C1329 2364 1320 2403 1320 2416C1320 2430 1316 2448 1311 2458C1305 2467 1298 2496 1295 2523C1292 2549 1285 2570 1280 2570C1275 2570 1276 2582 1282 2596C1290 2612 1290 2624 1284 2628C1269 2639 1269 2680 1285 2680C1292 2680 1300 2686 1303 2693C1306 2702 1310 2702 1322 2693C1333 2683 1339 2683 1348 2692C1357 2701 1360 2701 1360 2691C1360 2682 1368 2680 1385 2684C1398 2687 1427 2686 1448 2682C1491 2672 1530 2682 1530 2704C1530 2712 1517 2728 1500 2740C1484 2752 1470 2758 1470 2754C1470 2749 1465 2751 1459 2757C1453 2763 1442 2766 1435 2764C1429 2761 1418 2765 1411 2773C1402 2785 1412 2796 1468 2834C1506 2859 1540 2880 1544 2880C1548 2880 1566 2890 1583 2903C1612 2923 1685 2958 1703 2959C1707 2960 1710 2948 1710 2933M1784 2787C1795 2770 1805 2747 1807 2737C1808 2727 1816 2709 1824 2697C1832 2685 1844 2653 1851 2625C1857 2598 1866 2571 1870 2565C1874 2560 1899 2503 1924 2440C1950 2377 1985 2294 2002 2255C2018 2217 2032 2179 2033 2173C2033 2166 2037 2160 2042 2160C2046 2160 2050 2151 2050 2140C2050 2129 2059 2105 2070 2085C2081 2065 2090 2045 2090 2039C2090 2034 2103 2001 2119 1966C2163 1872 2166 1855 2139 1836C2114 1819 2070 1814 2070 1829C2070 1834 2046 1841 2018 1845C1989 1849 1950 1858 1931 1866C1913 1874 1885 1880 1869 1880C1853 1880 1840 1884 1840 1889C1840 1894 1821 1901 1798 1905C1775 1909 1749 1916 1740 1920C1732 1925 1705 1933 1680 1940C1655 1946 1622 1958 1605 1965C1589 1973 1565 1981 1553 1985C1540 1988 1530 1996 1530 2001C1530 2006 1521 2010 1510 2010C1499 2010 1490 2017 1490 2025C1490 2033 1493 2040 1498 2040C1502 2040 1506 2057 1508 2077C1509 2097 1514 2118 1519 2124C1523 2130 1535 2169 1545 2210C1560 2274 1578 2338 1598 2400C1601 2408 1605 2426 1607 2440C1609 2454 1622 2487 1636 2514C1649 2542 1660 2569 1660 2576C1660 2582 1667 2593 1675 2600C1683 2607 1690 2623 1690 2635C1690 2647 1697 2663 1705 2670C1714 2677 1719 2689 1716 2695C1714 2702 1718 2720 1726 2736C1739 2760 1747 2786 1749 2813C1751 2829 1766 2818 1784 2787M3409 2749C3410 2757 3412 2761 3415 2758C3418 2756 3413 2728 3405 2696C3397 2665 3390 2630 3390 2619C3390 2607 3384 2586 3376 2572C3368 2557 3353 2520 3344 2490C3335 2460 3316 2421 3303 2404C3291 2387 3280 2368 3280 2363C3280 2357 3260 2349 3235 2346C3210 2342 3190 2335 3190 2329C3190 2324 3182 2320 3172 2320C3154 2320 3074 2297 3035 2280C2988 2260 2970 2258 2976 2274C2979 2283 2986 2290 2991 2290C2996 2290 3000 2297 3000 2305C3000 2312 3008 2324 3018 2329C3027 2335 3030 2340 3023 2340C3017 2340 3027 2356 3046 2375C3065 2395 3080 2419 3080 2430C3080 2441 3085 2450 3090 2450C3096 2450 3104 2458 3107 2467C3111 2477 3124 2494 3137 2506C3150 2518 3160 2532 3160 2539C3160 2545 3168 2550 3178 2551C3188 2551 3190 2554 3183 2557C3170 2562 3228 2630 3246 2630C3251 2630 3266 2646 3280 2664C3294 2683 3319 2706 3335 2716C3352 2726 3371 2743 3379 2754C3393 2773 3394 2773 3401 2754C3406 2743 3409 2741 3409 2749M3520 2698C3520 2692 3526 2679 3534 2671C3541 2662 3555 2630 3564 2600C3574 2570 3584 2538 3587 2530C3590 2522 3594 2508 3596 2500C3599 2483 3542 2431 3520 2430C3512 2430 3493 2424 3478 2416C3463 2408 3437 2399 3420 2395C3388 2388 3388 2388 3395 2421C3399 2440 3407 2466 3414 2480C3420 2494 3439 2551 3455 2607C3471 2663 3488 2706 3492 2704C3496 2701 3500 2704 3500 2710C3500 2716 3505 2718 3510 2715C3516 2712 3520 2704 3520 2698M2580 2555C2580 2547 2586 2540 2593 2540C2613 2539 2719 2374 2733 2321C2738 2301 2736 2300 2702 2306C2659 2314 2618 2328 2610 2338C2607 2342 2584 2355 2557 2367C2504 2393 2505 2385 2538 2508C2547 2542 2560 2570 2567 2570C2574 2570 2580 2563 2580 2555M1235 2462C1250 2414 1269 2355 1277 2330C1286 2305 1294 2276 1296 2265C1306 2211 1319 2151 1329 2115C1346 2049 1339 2035 1291 2032C1263 2030 1233 2036 1204 2049L1160 2070L1160 2203C1161 2275 1160 2362 1159 2395C1156 2490 1176 2570 1200 2555C1205 2552 1220 2511 1235 2462M2609 2253C2633 2241 2656 2233 2661 2236C2666 2239 2670 2239 2670 2236C2670 2234 2673 2225 2676 2216C2680 2206 2677 2200 2669 2200C2662 2200 2650 2193 2641 2185C2618 2162 2462 2060 2451 2060C2446 2060 2440 2055 2438 2048C2436 2042 2429 2039 2423 2043C2413 2050 2428 2131 2443 2146C2447 2150 2450 2161 2450 2171C2450 2181 2456 2195 2463 2202C2469 2209 2476 2221 2478 2228C2479 2236 2488 2252 2496 2266C2515 2294 2538 2291 2609 2253M3226 2239C3232 2229 3225 2210 3199 2158C3194 2148 3190 2135 3190 2128C3190 2121 3179 2093 3165 2065C3152 2038 3140 2011 3140 2006C3140 2001 3127 1972 3111 1940C3095 1909 3067 1847 3049 1804C3031 1761 3009 1714 3001 1700C2992 1686 2978 1663 2970 1648C2954 1616 2935 1610 2943 1640C2946 1651 2945 1662 2941 1665C2936 1667 2930 1722 2925 1787C2915 1953 2913 1976 2905 2035C2896 2107 2910 2121 3055 2197C3066 2203 3089 2213 3105 2220C3122 2227 3142 2236 3150 2241C3172 2253 3218 2252 3226 2239M3322 2114C3334 2074 3343 1963 3336 1936C3333 1924 3270 1852 3195 1775C3093 1669 3060 1641 3060 1657C3060 1669 3067 1691 3075 1707C3100 1755 3123 1814 3121 1828C3120 1834 3124 1840 3130 1840C3135 1840 3140 1847 3140 1855C3140 1863 3144 1878 3149 1888C3154 1897 3172 1934 3190 1970C3208 2006 3233 2049 3246 2067C3259 2084 3275 2111 3280 2125C3293 2158 3311 2153 3322 2114M2760 2046C2760 2027 2756 2009 2751 2005C2746 2002 2739 1985 2735 1967C2732 1950 2718 1913 2706 1885C2662 1790 2650 1759 2650 1735C2650 1722 2646 1708 2640 1705C2635 1702 2630 1686 2630 1670C2630 1655 2626 1640 2622 1638C2618 1637 2604 1592 2591 1540C2579 1488 2565 1436 2561 1425C2556 1414 2545 1371 2535 1330C2525 1289 2514 1251 2510 1245C2505 1240 2494 1208 2485 1175C2476 1142 2462 1101 2454 1083C2446 1066 2440 1043 2440 1032C2440 1020 2436 1008 2430 1005C2425 1002 2420 989 2420 976C2420 964 2412 936 2401 914C2391 893 2377 860 2369 843C2353 805 2340 800 2340 833C2341 845 2338 875 2335 900C2332 925 2328 997 2325 1060C2315 1289 2311 1332 2299 1346C2292 1354 2292 1360 2298 1360C2304 1360 2305 1373 2299 1398C2294 1418 2290 1485 2290 1547C2290 1643 2293 1664 2313 1702C2339 1753 2335 1749 2425 1823C2464 1854 2501 1886 2509 1893C2517 1899 2531 1910 2540 1915C2567 1931 2641 1991 2683 2032C2743 2090 2760 2093 2760 2046M1408 1911C1424 1891 1441 1852 1446 1825C1448 1814 1463 1765 1480 1716C1497 1668 1509 1625 1506 1623C1501 1617 1384 1733 1365 1762C1360 1770 1339 1802 1319 1831C1280 1891 1268 1918 1275 1929C1283 1943 1394 1928 1408 1911M1627 1874C1639 1866 1660 1860 1673 1860C1685 1860 1700 1856 1705 1852C1711 1847 1750 1835 1793 1825C1835 1815 1870 1803 1870 1799C1870 1792 1891 1786 1954 1776C1995 1769 2010 1751 1986 1736C1976 1730 1952 1713 1933 1698C1913 1682 1877 1660 1851 1648C1826 1635 1803 1623 1800 1620C1797 1617 1784 1609 1770 1602C1756 1595 1727 1576 1705 1560C1660 1527 1630 1522 1630 1546C1630 1555 1614 1596 1595 1636C1576 1676 1560 1711 1560 1715C1560 1719 1554 1736 1546 1753C1538 1771 1527 1805 1522 1830C1517 1855 1509 1882 1506 1891C1500 1906 1505 1906 1552 1898C1581 1893 1615 1882 1627 1874M2853 1834C2845 1830 2845 1822 2855 1804C2863 1787 2868 1735 2868 1647C2869 1574 2872 1496 2876 1473C2881 1438 2879 1430 2861 1421C2850 1414 2840 1402 2840 1394C2840 1385 2822 1360 2800 1338C2778 1315 2760 1293 2760 1288C2760 1284 2753 1280 2745 1280C2737 1280 2726 1272 2721 1262C2715 1251 2696 1231 2677 1217L2643 1191L2657 1263C2665 1303 2675 1344 2679 1355C2684 1366 2696 1402 2705 1435C2715 1468 2734 1519 2747 1548C2759 1577 2770 1609 2770 1618C2770 1636 2793 1714 2810 1755C2828 1799 2833 1816 2831 1828C2830 1834 2837 1840 2847 1839C2857 1839 2860 1836 2853 1834M2158 1662C2129 1621 2091 1580 2082 1580C2077 1580 2070 1571 2067 1559C2064 1547 2057 1541 2051 1545C2045 1548 2039 1543 2039 1533C2038 1516 2037 1516 2033 1533C2031 1542 2023 1548 2017 1544C2010 1541 2017 1549 2033 1562C2048 1575 2060 1593 2060 1601C2060 1610 2069 1625 2080 1636C2091 1646 2106 1660 2113 1667C2119 1674 2135 1679 2148 1680C2169 1680 2170 1678 2158 1662M2020 1510C2020 1499 2013 1490 2005 1490C1997 1490 1990 1482 1989 1473C1989 1463 1986 1460 1984 1466C1978 1481 1997 1530 2010 1530C2015 1530 2020 1521 2020 1510M2166 1488C2162 1470 2157 1428 2154 1395C2150 1362 2144 1331 2139 1326C2134 1320 2130 1300 2130 1281C2130 1261 2119 1184 2106 1110C2073 925 2071 918 2058 892C2046 869 2046 869 2013 907C1995 928 1968 963 1953 985C1937 1007 1915 1036 1902 1050C1875 1079 1851 1121 1834 1168C1822 1200 1823 1201 1859 1220C1879 1231 1911 1255 1930 1275C1949 1294 1968 1310 1972 1310C1976 1310 1980 1314 1980 1320C1980 1325 1998 1348 2020 1372C2042 1396 2060 1419 2060 1423C2060 1427 2076 1447 2095 1467C2114 1487 2130 1507 2130 1512C2130 1516 2140 1520 2151 1520C2170 1520 2171 1516 2166 1488M1850 1475C1850 1467 1833 1436 1813 1408C1738 1304 1727 1298 1710 1360C1697 1407 1700 1413 1740 1430C1756 1437 1770 1446 1770 1450C1770 1454 1786 1461 1805 1464C1825 1468 1838 1475 1835 1481C1831 1486 1834 1490 1839 1490C1845 1490 1850 1483 1850 1475M1966 1444C1959 1419 1933 1384 1926 1391C1919 1399 1940 1440 1950 1440C1955 1440 1960 1447 1960 1455C1960 1463 1963 1470 1966 1470C1969 1470 1969 1458 1966 1444M3043 1299C3064 1289 3086 1280 3092 1280C3110 1280 3180 1247 3180 1238C3180 1234 3191 1230 3205 1230C3219 1230 3230 1226 3230 1220C3230 1215 3237 1210 3245 1210C3253 1210 3260 1206 3260 1200C3260 1195 3267 1190 3276 1190C3290 1190 3290 1188 3276 1175C3268 1167 3244 1160 3221 1160C3199 1160 3179 1156 3176 1151C3173 1147 3150 1140 3125 1137C3101 1133 3072 1126 3063 1120C3027 1100 2967 1080 2943 1080C2919 1080 2919 1081 2921 1169C2922 1218 2920 1262 2916 1268C2906 1284 2921 1311 2944 1320C2969 1330 2991 1325 3043 1299M1608 1285C1620 1271 1630 1256 1630 1251C1630 1246 1636 1239 1643 1237C1661 1229 1631 1211 1600 1210C1586 1209 1544 1207 1507 1206C1470 1204 1437 1206 1435 1210C1429 1219 1488 1274 1525 1293C1567 1315 1583 1314 1608 1285M2237 1283C2237 1267 2240 1237 2244 1215C2251 1172 2257 1069 2264 875C2267 809 2270 755 2270 755C2271 755 2273 710 2275 655C2279 539 2271 515 2232 525C2217 529 2203 536 2199 541C2195 547 2184 547 2167 541C2146 533 2135 536 2101 561C2078 577 2056 590 2051 590C2046 590 2040 599 2037 609C2034 623 2039 629 2059 633C2074 636 2098 650 2113 664C2139 688 2141 696 2144 783C2145 833 2150 883 2155 893C2159 903 2160 924 2156 940C2153 958 2155 970 2161 970C2167 970 2169 978 2166 988C2163 997 2165 1030 2170 1060C2176 1090 2183 1138 2186 1165C2189 1193 2197 1218 2202 1221C2208 1225 2209 1233 2205 1239C2201 1246 2203 1257 2209 1264C2216 1272 2220 1282 2219 1286C2216 1302 2220 1310 2229 1310C2233 1310 2237 1298 2237 1283M2840 1233C2841 1223 2843 1180 2846 1138C2852 1061 2852 1061 2808 1056C2772 1051 2747 1051 2698 1059C2683 1061 2690 1100 2705 1100C2713 1100 2720 1109 2720 1120C2720 1132 2729 1150 2740 1162C2750 1174 2757 1187 2754 1192C2751 1196 2752 1200 2757 1200C2761 1200 2778 1211 2794 1225C2828 1254 2840 1256 2840 1233M803 1170C817 1159 838 1150 849 1150C861 1150 878 1146 888 1141C897 1136 936 1122 973 1110C1025 1093 1050 1079 1078 1048C1152 966 1154 922 1082 943C1062 949 1038 959 1030 966C1022 973 996 986 973 995C949 1005 930 1016 930 1021C930 1026 922 1030 911 1030C884 1030 758 1079 738 1097C728 1106 720 1121 720 1132C720 1150 753 1190 769 1190C773 1190 789 1181 803 1170M1457 1076C1542 1073 1538 1053 1442 1011C1400 992 1352 971 1336 963C1320 956 1305 950 1304 950C1299 950 1310 1009 1321 1046C1332 1081 1368 1103 1387 1088C1394 1082 1426 1077 1457 1076M641 1007C661 1000 684 989 691 983C699 978 723 967 745 960C788 947 831 929 896 899C919 889 942 880 949 880C955 880 960 876 960 870C960 865 965 860 970 860C976 860 1009 847 1044 830C1093 807 1109 795 1112 775C1115 761 1113 747 1108 744C1104 741 1102 735 1105 730C1108 725 1105 702 1099 678C1089 637 1080 582 1078 550C1077 542 1071 529 1063 522C1051 510 1037 514 972 546C930 566 879 596 859 612C839 627 817 640 811 640C805 640 800 644 800 648C800 653 780 667 755 679C730 691 710 706 710 711C710 716 702 720 692 720C668 720 644 750 642 783C637 841 635 848 623 843C614 839 610 848 610 868C610 885 605 902 599 905C594 909 591 917 593 923C595 930 593 944 587 955C581 966 576 985 575 998C574 1023 588 1026 641 1007M1684 1014C1693 1011 1700 999 1700 989C1700 979 1704 970 1710 970C1715 970 1724 951 1730 928C1736 904 1744 878 1747 870C1758 844 1762 826 1764 803C1764 790 1768 780 1771 780C1780 780 1788 731 1783 710C1778 693 1760 692 1720 708C1712 711 1698 714 1690 716C1672 718 1547 765 1505 785C1489 792 1453 807 1426 817C1400 827 1376 841 1373 847C1368 860 1392 890 1408 890C1413 890 1423 896 1429 904C1442 920 1511 955 1523 952C1527 951 1530 954 1530 960C1530 966 1533 969 1538 968C1542 968 1562 974 1582 983C1603 993 1624 1000 1630 1000C1635 1000 1640 1005 1640 1010C1640 1021 1660 1023 1684 1014M1836 978C1840 965 1851 946 1861 935C1923 869 1960 825 1960 819C1960 815 1974 798 1990 780C2019 749 2020 747 2002 735C1992 728 1962 720 1936 719C1888 716 1888 716 1869 765C1851 813 1835 876 1823 948C1820 967 1812 980 1803 980C1795 980 1792 985 1795 990C1806 1008 1828 1001 1836 978M2673 963C2686 955 2680 923 2661 901C2651 889 2632 864 2619 845C2606 826 2592 810 2588 810C2585 810 2557 785 2526 755C2478 707 2450 689 2450 705C2450 713 2491 825 2501 842C2506 852 2510 865 2510 872C2510 879 2518 904 2527 927C2543 964 2549 970 2580 973C2614 976 2657 972 2673 963M2630 693C2629 607 2604 468 2587 455C2557 433 2442 407 2406 414C2375 420 2371 424 2372 451C2373 467 2380 485 2389 490C2403 499 2403 501 2390 510C2378 518 2378 520 2389 520C2404 520 2444 559 2453 584C2457 593 2465 600 2473 600C2480 600 2515 631 2551 670C2586 708 2618 740 2623 740C2627 740 2630 719 2630 693M1385 665C1424 647 1463 630 1472 627C1511 614 1472 560 1424 560C1405 560 1390 556 1390 552C1390 547 1364 538 1333 532C1301 526 1265 518 1254 515C1238 510 1231 514 1227 531C1221 555 1235 652 1250 688C1262 716 1285 712 1385 665M1705 506C1775 474 1800 451 1800 419C1800 403 1796 390 1790 390C1785 390 1780 382 1780 373C1779 352 1757 320 1743 320C1738 320 1723 331 1711 344C1690 366 1690 369 1705 384C1740 419 1710 456 1641 466C1628 468 1614 473 1611 478C1608 483 1598 490 1590 493C1581 496 1585 499 1601 499C1616 500 1633 507 1640 515C1647 524 1656 529 1659 527C1662 525 1683 516 1705 506M1467 428C1469 405 1475 383 1482 378C1489 373 1471 372 1441 375C1411 377 1382 384 1376 390C1371 395 1356 400 1343 400C1318 400 1314 411 1329 439C1336 452 1353 457 1391 459C1420 460 1446 463 1449 465C1460 477 1465 467 1467 428M1997 323C2010 314 2020 304 2020 300C2020 295 2027 285 2035 277C2043 269 2051 252 2054 239C2056 226 2061 198 2065 178C2069 157 2069 140 2065 140C2053 140 1987 191 1972 212C1965 221 1953 235 1945 243C1937 251 1933 260 1936 263C1939 266 1933 274 1923 281C1909 289 1905 301 1908 322C1912 349 1915 351 1944 344C1961 340 1985 331 1997 323M1299 306C1305 298 1325 294 1345 296C1364 297 1382 294 1386 289C1389 284 1416 280 1446 280C1476 280 1500 276 1500 271C1500 258 1443 240 1404 240C1386 240 1369 234 1367 228C1363 219 1353 225 1336 245C1322 262 1301 285 1290 298C1278 310 1273 320 1278 320C1283 320 1293 314 1299 306" id="ShapeObject_1256398266994" stroke="none" style="fill:#000000;fill-opacity:1" transform="matrix(0.13823529411764707,0,0,0.13799999999999998,0,0)" opacity="1"/>
      <path d="M668 929M668 929C658 924 650 910 650 900C650 873 681 810 695 810C701 810 716 799 728 785C751 759 758 756 784 766C807 775 804 811 777 840C765 854 746 882 737 903C719 941 700 948 668 929" id="ShapeObject_1256398266996" stroke="none" style="fill:#000000;fill-opacity:1" transform="matrix(0.13823529411764707,0,0,0.13799999999999998,0,0)" opacity="1"/>
    </g>
  </g>
</svg>