<svg version="1.1" width="422" height="514" viewBox="0 0 422 514" xmlns:xlink="http://www.w3.org/1999/xlink" xmlns="http://www.w3.org/2000/svg">
  <desc>Created with Raven (http://www.aviary.com)</desc>
  <defs/>
  <g id="Layer_1256837442431" opacity="1">
    <path d="M3086 4626M3086 4626C3077 4596 3070 4563 3070 4552C3070 4542 3062 4497 3051 4454C3041 4410 3023 4326 3011 4265C2979 4102 2970 4066 2959 4060C2949 4053 3031 3933 3105 3845C3128 3818 3172 3759 3203 3715C3233 3671 3285 3604 3318 3567C3383 3493 3385 3488 3359 3375C3354 3353 3347 3324 3344 3310C3341 3296 3328 3249 3314 3204C3301 3160 3290 3118 3290 3110C3290 3103 3281 3077 3269 3053C3248 3009 3248 3009 3269 2960C3281 2933 3293 2889 3296 2863C3299 2836 3305 2784 3310 2745C3315 2707 3317 2674 3316 2672C3309 2666 3119 2817 3016 2911C2961 2961 2963 2960 2781 2975C2751 2978 2725 2982 2722 2984C2714 2993 2792 3093 2913 3227C2978 3299 3035 3360 3039 3362C3056 3369 3110 3454 3110 3474C3110 3494 2956 3743 2857 3882C2832 3917 2800 3969 2785 3999C2760 4049 2758 4061 2762 4145L2766 4236L2700 4248C2657 4256 2629 4267 2617 4281C2601 4301 2592 4302 2510 4298C2388 4292 2384 4287 2399 4181C2406 4136 2408 4095 2405 4090C2397 4077 2447 4004 2502 3948C2583 3866 2667 3765 2731 3670C2807 3559 2854 3480 2847 3474C2845 3472 2808 3452 2765 3429C2667 3379 2560 3310 2495 3256C2419 3193 2339 3134 2300 3113C2254 3087 2242 3039 2234 2855C2231 2778 2227 2705 2224 2693C2221 2677 2231 2658 2256 2630C2293 2590 2293 2590 2267 2566C2253 2553 2214 2525 2179 2505C2145 2484 2103 2454 2085 2439C2067 2423 2033 2402 2008 2391C1983 2380 1945 2361 1924 2347C1902 2334 1873 2320 1859 2317C1829 2309 1783 2247 1751 2170C1738 2140 1725 2113 1721 2110C1717 2107 1699 2074 1681 2035C1601 1869 1539 1799 1488 1816C1478 1819 1459 1815 1447 1807C1429 1796 1390 1793 1265 1794L1105 1795L1094 1875C1088 1919 1080 1990 1077 2032L1072 2109L1123 2124C1152 2132 1202 2145 1235 2153C1338 2178 1409 2214 1466 2271C1520 2324 1520 2324 1516 2420C1513 2510 1511 2519 1477 2572C1458 2603 1437 2631 1431 2634C1417 2643 1397 2629 1313 2550C1275 2514 1226 2479 1204 2471C1183 2463 1093 2422 1006 2378C918 2335 839 2300 829 2300C810 2300 793 2259 804 2241C808 2235 810 2155 810 2063C808 1762 807 1772 846 1718C865 1692 880 1667 880 1662C880 1658 900 1626 923 1590C967 1525 967 1525 1046 1528C1089 1530 1178 1540 1244 1551C1390 1575 1392 1574 1386 1482C1380 1408 1353 1224 1340 1171C1329 1129 1336 1116 1403 1047C1431 1017 1472 973 1492 948L1529 903L1488 869C1465 850 1440 831 1431 826C1422 821 1402 805 1385 790C1369 775 1335 749 1310 732C1266 702 1266 702 1220 725C1195 737 1157 753 1135 760C1113 767 1090 776 1085 781C1079 785 1062 790 1046 792C1022 794 1016 791 1010 769C1006 754 985 727 965 708C934 680 929 670 937 654C943 644 954 601 961 560C968 519 979 481 984 475C1001 459 1069 421 1149 384C1225 348 1235 341 1343 255C1439 178 1450 167 1450 152C1450 138 1496 139 1597 156C1626 162 1633 157 1696 81C1767 -2 1781 -7 1794 46C1801 71 1801 71 1829 50C1866 25 1877 25 1885 51C1891 70 1893 70 1909 56C1936 32 1945 36 1971 88C1995 135 1995 135 2054 131C2087 130 2121 123 2131 117C2143 109 2159 110 2188 118C2210 125 2254 133 2285 135C2317 138 2347 143 2352 146C2370 157 2358 179 2324 199C2305 211 2290 225 2292 231C2294 237 2336 281 2385 330C2496 442 2493 456 2363 414C2315 398 2268 385 2260 385C2248 385 2244 402 2242 467L2239 549L2343 672C2426 771 2447 801 2448 827C2448 845 2448 860 2447 860C2438 859 2347 829 2333 822C2297 804 2260 799 2260 813C2260 824 2315 961 2370 1085C2382 1113 2401 1162 2412 1195C2424 1228 2439 1264 2446 1274C2455 1287 2456 1299 2450 1311C2441 1326 2437 1327 2413 1315C2376 1298 2320 1288 2320 1299C2320 1319 2447 1438 2607 1568C2665 1614 2735 1674 2763 1700C2828 1760 2863 1788 2872 1786C2887 1784 2998 1873 3095 1965C3150 2017 3201 2060 3207 2060C3225 2060 3247 2108 3255 2165C3261 2212 3271 2271 3301 2430C3317 2511 3342 2570 3380 2612C3396 2630 3426 2675 3445 2712C3465 2750 3505 2808 3534 2843C3582 2900 3604 2928 3709 3069C3743 3114 3743 3114 3725 3144C3715 3161 3688 3225 3664 3285C3616 3406 3611 3448 3631 3584C3645 3678 3639 3705 3597 3725C3580 3733 3534 3764 3495 3792C3426 3845 3426 3845 3404 3935C3392 3985 3379 4048 3375 4077C3369 4129 3369 4129 3417 4150C3443 4162 3504 4182 3552 4195C3671 4229 3690 4237 3690 4255C3690 4268 3648 4277 3608 4272C3591 4269 3459 4302 3412 4320C3338 4349 3326 4346 3305 4300C3295 4278 3283 4260 3277 4260C3265 4260 3209 4309 3169 4354C3141 4387 3139 4393 3135 4497C3129 4623 3122 4680 3110 4680C3105 4680 3094 4656 3086 4626M3110 4503C3109 4433 3108 4427 3095 4444C3087 4455 3082 4473 3085 4484C3087 4496 3092 4522 3095 4543C3104 4602 3110 4587 3110 4503M3095 4396C3112 4384 3114 4364 3118 4211C3122 4070 3120 4040 3109 4040C3091 4041 3014 4075 3007 4086C3001 4096 3015 4189 3035 4275C3042 4308 3051 4352 3055 4373C3061 4414 3067 4417 3095 4396M3224 4265C3261 4230 3262 4223 3233 4178C3218 4154 3199 4129 3192 4122C3186 4114 3175 4099 3169 4088C3149 4050 3140 4089 3140 4219L3140 4344L3177 4309C3197 4291 3219 4270 3224 4265M3436 4274C3452 4267 3485 4258 3508 4254C3531 4250 3550 4244 3550 4239C3550 4234 3545 4230 3538 4230C3532 4230 3491 4216 3448 4198C3406 4181 3368 4169 3364 4172C3361 4176 3356 4206 3353 4240C3347 4301 3347 4301 3376 4295C3392 4291 3419 4282 3436 4274M2598 4238C2613 4179 2624 4090 2617 4090C2606 4090 2450 4247 2450 4258C2450 4268 2483 4274 2556 4278C2585 4280 2588 4277 2598 4238M3329 4178C3330 4145 3325 4137 3293 4117C3272 4104 3244 4089 3231 4085C3204 4077 3199 4066 3280 4193C3318 4253 3328 4250 3329 4178M2600 4050C2600 4041 2591 4039 2568 4045C2550 4048 2522 4054 2506 4057C2443 4068 2430 4078 2430 4113C2430 4132 2427 4169 2424 4196L2418 4245L2509 4154C2559 4104 2600 4057 2600 4050M2721 4213C2729 4205 2736 4053 2729 4045C2727 4043 2713 4039 2698 4035C2673 4029 2670 4031 2655 4082C2646 4111 2636 4157 2633 4184C2627 4233 2627 4233 2670 4227C2693 4224 2716 4218 2721 4213M3357 4039C3364 4009 3379 3945 3389 3895C3411 3792 3488 3491 3496 3479C3501 3470 3507 3450 3520 3388C3524 3367 3526 3350 3525 3350C3520 3350 3370 3598 3363 3617C3359 3627 3312 3716 3258 3814C3152 4008 3150 4021 3212 4042C3228 4048 3260 4063 3283 4075C3306 4088 3329 4097 3334 4096C3340 4095 3350 4069 3357 4039M3066 4023C3112 4007 3122 3998 3152 3950C3170 3920 3187 3891 3189 3885C3191 3880 3198 3868 3205 3860C3223 3838 3340 3612 3340 3598C3340 3578 3299 3623 3223 3725C3182 3780 3134 3842 3117 3864C3072 3919 3000 4022 3000 4032C3000 4043 3006 4042 3066 4023M2585 4012L2625 4004L2576 3982C2527 3960 2527 3960 2498 3987C2448 4034 2459 4037 2585 4012M2758 3991C2767 3981 2787 3951 2802 3924C2817 3897 2846 3850 2865 3820L2900 3765L2858 3814C2834 3840 2789 3889 2758 3922C2700 3982 2694 3991 2707 4003C2719 4015 2740 4010 2758 3991M2677 3932C2702 3876 2773 3669 2768 3665C2766 3663 2745 3691 2720 3727C2695 3763 2649 3821 2618 3856C2557 3923 2553 3932 2573 3947C2583 3956 2636 3977 2650 3979C2653 3979 2665 3958 2677 3932M2828 3808C2859 3769 2894 3726 2905 3711C2916 3697 2954 3651 2990 3609C3059 3529 3088 3484 3077 3474C3073 3470 3035 3467 2991 3468C2922 3468 2909 3471 2888 3492C2856 3524 2827 3588 2765 3768C2712 3920 2712 3920 2741 3899C2757 3888 2796 3847 2828 3808M3603 3690C3609 3690 3610 3656 3606 3608C3603 3562 3600 3514 3600 3500C3600 3485 3596 3480 3591 3485C3581 3495 3480 3738 3480 3751C3480 3755 3506 3743 3537 3724C3568 3705 3598 3690 3603 3690M3510 3600C3522 3570 3545 3515 3562 3478C3589 3418 3592 3406 3585 3353L3577 3295L3548 3385C3516 3486 3470 3650 3470 3665C3470 3684 3489 3653 3510 3600M3458 3407C3476 3379 3509 3317 3531 3270C3576 3178 3576 3193 3540 3075C3516 2993 3492 2935 3484 2936C3479 2937 3461 2973 3443 3016C3411 3095 3411 3095 3412 3278C3413 3378 3416 3460 3419 3460C3423 3460 3440 3436 3458 3407M3003 3431C3019 3425 3016 3419 2975 3382C2949 3359 2923 3340 2916 3340C2910 3339 2887 3331 2865 3320C2843 3309 2819 3301 2813 3300C2806 3300 2800 3296 2800 3290C2800 3285 2794 3280 2786 3280C2779 3280 2749 3267 2719 3251C2689 3236 2654 3219 2640 3216C2626 3212 2568 3190 2512 3168C2455 3147 2406 3130 2404 3132C2402 3134 2424 3154 2452 3175C2480 3197 2519 3229 2539 3246C2593 3292 2684 3348 2785 3396C2858 3432 2885 3439 2930 3439C2960 3439 2993 3435 3003 3431M3358 3098C3298 3048 3297 3055 3348 3238L3385 3375L3388 3250C3391 3125 3391 3125 3358 3098M2934 3298C2815 3169 2775 3122 2729 3060C2674 2986 2654 2977 2598 2999C2585 3004 2531 3025 2477 3045C2423 3065 2381 3085 2385 3088C2388 3091 2426 3107 2468 3123C2652 3192 2701 3211 2810 3260C2873 3289 2929 3316 2935 3321C2940 3326 2948 3330 2954 3330C2959 3330 2950 3315 2934 3298M3630 3308C3630 3303 3636 3284 3644 3267C3662 3226 3683 3159 3678 3156C3677 3154 3660 3159 3643 3166C3615 3178 3610 3186 3609 3215C3606 3303 3609 3332 3620 3325C3626 3322 3630 3314 3630 3308M3663 3129C3694 3116 3695 3110 3675 3071C3656 3033 3520 2912 3520 2933C3520 2936 3574 3097 3584 3125C3589 3140 3630 3142 3663 3129M2343 3054C2358 3051 2370 3044 2370 3040C2370 3036 2390 3009 2415 2982L2461 2931L2392 2853C2354 2810 2309 2762 2292 2747C2263 2719 2263 2719 2256 2745C2248 2777 2257 2936 2272 3013C2281 3058 2286 3069 2299 3066C2308 3063 2327 3058 2343 3054M3375 3003C3372 2965 3367 2915 3365 2890C3363 2865 3361 2810 3361 2768C3360 2723 3356 2690 3350 2690C3345 2690 3340 2701 3340 2715C3340 2740 3337 2756 3302 2908L3283 2990L3329 3030C3354 3052 3376 3069 3378 3070C3380 3070 3378 3040 3375 3003M2473 3019C2514 3008 2520 2992 2491 2966C2474 2950 2471 2951 2441 2985C2424 3005 2410 3023 2410 3025C2410 3033 2432 3031 2473 3019M3438 2954C3467 2885 3467 2885 3441 2805C3397 2671 3391 2669 3390 2790C3390 2892 3400 3034 3406 3027C3408 3025 3422 2993 3438 2954M2573 2911C2587 2890 2612 2845 2629 2809L2661 2745L2614 2795C2516 2902 2497 2929 2510 2944C2526 2964 2544 2955 2573 2911M2876 2939L2928 2929L2910 2872C2894 2820 2883 2791 2859 2735C2854 2724 2841 2689 2829 2657C2818 2626 2804 2602 2799 2606C2764 2627 2582 2939 2598 2949C2613 2958 2815 2951 2876 2939M3045 2855C3167 2755 3264 2677 3293 2655C3329 2628 3327 2604 3289 2591C3242 2575 2840 2576 2840 2593C2840 2599 2852 2637 2866 2675C2880 2714 2906 2784 2922 2833C2939 2881 2955 2920 2959 2920C2962 2920 3001 2891 3045 2855M2495 2886C2535 2847 2710 2637 2710 2630C2710 2625 2701 2623 2689 2625C2678 2627 2622 2632 2567 2635C2511 2638 2447 2645 2425 2651C2381 2661 2343 2668 2320 2669C2273 2672 2277 2688 2341 2761C2412 2842 2469 2900 2476 2900C2479 2900 2488 2894 2495 2886M2455 2620C2488 2615 2566 2606 2628 2601C2760 2591 2794 2575 2784 2532C2776 2499 2742 2430 2734 2430C2730 2430 2711 2439 2691 2449C2671 2460 2584 2503 2497 2545C2407 2589 2342 2626 2346 2632C2349 2637 2362 2639 2374 2635C2385 2632 2422 2625 2455 2620M1439 2505C1440 2478 1385 2380 1369 2380C1366 2380 1351 2408 1336 2443L1309 2505L1361 2554L1414 2602L1426 2569C1433 2550 1439 2522 1439 2505M2478 2524C2542 2493 2668 2432 2757 2389C2847 2345 2923 2310 2926 2310C2929 2310 2950 2297 2973 2281C2996 2265 3050 2231 3092 2205C3135 2178 3168 2155 3166 2152C3164 2150 3138 2155 3108 2164C3079 2172 2999 2193 2930 2210C2861 2227 2778 2250 2745 2261C2713 2272 2656 2285 2620 2290C2545 2302 2543 2304 2424 2464C2356 2555 2341 2580 2355 2580C2358 2580 2413 2555 2478 2524M3177 2546C3180 2543 3169 2538 3154 2535C3120 2527 2932 2468 2875 2446C2853 2438 2822 2431 2807 2430C2776 2430 2776 2439 2809 2510C2825 2544 2827 2545 2895 2550C2979 2556 3170 2553 3177 2546M2316 2358C2307 2148 2305 2105 2296 2033C2281 1920 2277 1900 2268 1900C2262 1900 2226 1931 2187 1969L2117 2037L2138 2106C2149 2144 2175 2230 2194 2298C2242 2463 2283 2550 2313 2550C2319 2550 2320 2483 2316 2358M3300 2539C3300 2533 3293 2501 3285 2467C3277 2433 3266 2374 3260 2335C3250 2275 3238 2221 3224 2172C3222 2164 3189 2179 3128 2215C3077 2246 3026 2276 3015 2283C3004 2289 2958 2314 2913 2339C2868 2364 2829 2389 2828 2394C2824 2405 2928 2444 3077 2485C3144 2504 3214 2526 3232 2534C3272 2552 3300 2554 3300 2539M2405 2454C2427 2423 2468 2369 2497 2332C2548 2269 2551 2267 2598 2264C2625 2263 2701 2246 2766 2226C2832 2207 2933 2179 2993 2165C3052 2151 3115 2133 3132 2125C3164 2112 3164 2112 3120 2100C3021 2074 3002 2071 2920 2071C2862 2071 2817 2077 2780 2090C2655 2133 2510 2171 2484 2168C2461 2166 2449 2152 2419 2102C2399 2067 2369 2024 2351 2007C2314 1969 2315 1959 2330 2160C2335 2234 2342 2343 2346 2403C2349 2462 2355 2510 2358 2510C2362 2510 2383 2485 2405 2454M2213 2433C2172 2313 2120 2143 2120 2126C2120 2120 2111 2104 2100 2090C2080 2065 2080 2065 1999 2149C1955 2196 1912 2246 1904 2261C1890 2288 1891 2290 1933 2318C1956 2335 1993 2355 2015 2364C2036 2373 2077 2398 2104 2419C2168 2466 2223 2500 2229 2495C2231 2492 2224 2464 2213 2433M1334 2374C1341 2345 1339 2342 1298 2327C1218 2298 1218 2298 1205 2368C1193 2432 1193 2432 1244 2454C1295 2477 1295 2477 1311 2441C1320 2421 1331 2391 1334 2374M1492 2389C1497 2357 1471 2307 1438 2286C1416 2273 1411 2279 1404 2322C1399 2351 1403 2360 1436 2392C1456 2413 1477 2427 1481 2425C1484 2422 1490 2406 1492 2389M1176 2360C1182 2320 1182 2316 1168 2328C1159 2335 1146 2354 1139 2371C1129 2397 1129 2403 1141 2411C1160 2423 1168 2412 1176 2360M1129 2329C1147 2302 1161 2277 1159 2276C1139 2259 995 2210 964 2210C960 2210 920 2286 920 2294C920 2301 1071 2379 1086 2380C1092 2380 1111 2357 1129 2329M1375 2271C1375 2242 1370 2236 1337 2223C1301 2208 1297 2209 1272 2227C1234 2256 1238 2272 1290 2292C1356 2317 1375 2313 1375 2271M905 2250C913 2234 920 2218 920 2215C920 2208 893 2222 865 2244C848 2257 847 2261 860 2270C883 2285 888 2283 905 2250M1865 2251C1868 2240 1883 2224 1898 2214C1913 2204 1934 2185 1945 2171C1964 2146 1991 2119 2168 1947C2238 1879 2251 1860 2230 1860C2212 1860 2000 2043 1870 2170C1816 2223 1814 2227 1828 2248C1846 2275 1857 2276 1865 2251M1230 2218C1265 2197 1265 2197 1235 2184C1219 2177 1195 2171 1183 2170C1171 2170 1131 2163 1095 2155C1044 2143 1025 2142 1014 2151C989 2171 999 2189 1038 2196C1058 2200 1093 2211 1115 2221C1168 2244 1188 2244 1230 2218M926 2150C919 2129 881 1997 862 1928C854 1896 844 1870 839 1870C834 1870 833 2174 839 2212C840 2216 860 2207 885 2192C915 2174 929 2160 926 2150M1990 2021C1990 2013 1832 1942 1795 1934C1779 1930 1739 1916 1706 1903C1674 1890 1646 1881 1643 1883C1641 1886 1675 1958 1720 2044L1802 2200L1896 2113C1948 2066 1990 2024 1990 2021M1021 2117C1045 2100 1048 2089 1054 2017C1065 1891 1070 1837 1076 1812C1080 1792 1077 1789 1059 1792C1044 1794 1033 1805 1028 1825C1009 1889 970 2087 970 2118C970 2153 972 2153 1021 2117M2600 2114C2647 2100 2708 2083 2735 2076C2763 2069 2800 2056 2818 2046C2845 2032 2860 2031 2895 2038C2919 2043 2949 2046 2962 2043C2975 2041 3026 2048 3075 2058C3125 2069 3167 2075 3170 2073C3173 2070 3162 2058 3147 2046C3088 1999 2881 1977 2770 2005C2668 2032 2550 2071 2544 2081C2532 2101 2500 2089 2484 2058C2464 2017 2416 1951 2369 1896C2349 1874 2318 1833 2300 1805C2281 1778 2240 1729 2208 1698L2150 1640L2180 1569C2196 1530 2210 1492 2210 1484C2210 1476 2215 1470 2220 1470C2226 1470 2229 1467 2228 1463C2227 1458 2237 1422 2249 1382C2274 1306 2272 1277 2246 1328C2238 1344 2233 1360 2237 1363C2240 1366 2235 1376 2226 1385C2217 1394 2207 1413 2204 1428C2200 1443 2186 1477 2173 1504C2159 1531 2142 1578 2134 1608C2120 1662 2120 1664 2146 1704C2185 1763 2273 1859 2288 1860C2295 1860 2309 1879 2319 1903C2329 1926 2354 1965 2375 1990C2396 2015 2421 2054 2432 2077C2451 2120 2472 2139 2500 2139C2508 2140 2553 2128 2600 2114M959 2023C965 1991 979 1928 990 1882C1001 1837 1010 1796 1010 1792C1010 1788 975 1787 933 1790C890 1793 855 1800 855 1805C855 1811 867 1853 882 1900C896 1947 914 2006 920 2033C927 2059 936 2080 941 2080C945 2080 953 2054 959 2023M2752 1984C2856 1958 2951 1953 3013 1971C3035 1977 3055 1979 3058 1975C3068 1965 2963 1872 2885 1823C2847 1798 2793 1757 2765 1730C2738 1704 2670 1646 2615 1600C2500 1505 2416 1433 2352 1373C2327 1349 2305 1331 2304 1333C2299 1338 2190 1622 2190 1630C2190 1635 2205 1651 2224 1667C2242 1682 2282 1729 2312 1770C2342 1811 2384 1865 2404 1888C2424 1912 2459 1960 2481 1994L2522 2057L2589 2033C2625 2019 2699 1997 2752 1984M2032 1963C2036 1945 2028 1915 2004 1850C1997 1831 1988 1796 1985 1772C1975 1710 1951 1697 1880 1714C1850 1722 1789 1735 1745 1745C1609 1774 1590 1780 1590 1795C1590 1822 1646 1849 1830 1913C1855 1922 1902 1940 1935 1954C2006 1984 2027 1986 2032 1963M2135 1895C2195 1840 2195 1840 2170 1820C2144 1800 2017 1730 2006 1730C1999 1730 2006 1765 2026 1825C2033 1847 2043 1884 2050 1908C2056 1931 2064 1950 2068 1950C2072 1950 2102 1925 2135 1895M1391 1761C1402 1760 1412 1739 1424 1689C1433 1650 1439 1616 1437 1614C1433 1610 1274 1670 1178 1713C1157 1723 1137 1730 1132 1730C1127 1730 1117 1736 1111 1744C1101 1755 1103 1759 1116 1762C1131 1764 1338 1764 1391 1761M1475 1760C1479 1754 1496 1739 1514 1727C1657 1631 1691 1607 1695 1599C1698 1595 1651 1592 1588 1593L1475 1595L1458 1660C1437 1742 1436 1770 1454 1770C1462 1770 1472 1765 1475 1760M1620 1744C1661 1736 1742 1718 1800 1704C1858 1689 1914 1678 1925 1678C1935 1679 1950 1674 1957 1668C1964 1663 1976 1660 1984 1663C1997 1668 2043 1660 2089 1644C2113 1636 2091 1626 2032 1619C2001 1615 1944 1607 1906 1600C1811 1583 1751 1591 1708 1623C1689 1638 1670 1650 1666 1650C1657 1650 1510 1760 1510 1767C1510 1770 1518 1769 1528 1765C1537 1761 1579 1751 1620 1744M2120 1725C2090 1681 2069 1671 2041 1689C2030 1696 2033 1702 2054 1716C2076 1730 2136 1764 2148 1769C2150 1769 2137 1750 2120 1725M998 1751C1014 1750 1020 1744 1020 1727C1020 1702 985 1601 971 1587C961 1577 927 1620 882 1702L850 1759L913 1756C947 1754 985 1752 998 1751M1182 1675C1213 1661 1245 1650 1252 1650C1260 1650 1274 1644 1285 1636C1296 1628 1324 1617 1348 1610C1371 1603 1390 1594 1390 1591C1390 1588 1369 1586 1343 1586C1316 1587 1266 1581 1230 1574C1165 1560 1014 1553 1003 1563C1000 1566 1010 1607 1025 1654C1052 1739 1052 1739 1089 1720C1109 1709 1151 1689 1182 1675M2118 1570C2120 1557 2128 1537 2136 1525C2147 1508 2200 1366 2200 1353C2200 1333 2065 1395 1970 1460C1940 1480 1893 1510 1865 1526L1815 1554L1895 1568C2051 1593 2065 1595 2090 1594C2108 1594 2116 1587 2118 1570M1737 1555C1745 1552 1740 1529 1721 1478C1676 1361 1617 1239 1609 1247C1600 1256 1490 1537 1490 1550C1490 1564 1697 1569 1737 1555M1485 1483C1500 1440 1519 1392 1526 1375C1560 1297 1580 1237 1580 1211C1580 1179 1567 1175 1432 1164C1362 1158 1367 1140 1390 1310C1395 1346 1405 1417 1411 1468C1421 1544 1426 1560 1440 1560C1453 1560 1465 1538 1485 1483M1890 1482C1931 1458 1972 1432 1980 1425C1988 1418 2027 1395 2067 1373C2106 1352 2139 1331 2140 1326C2141 1315 2016 1274 1957 1267C1934 1264 1877 1254 1830 1246C1675 1219 1650 1217 1650 1233C1650 1241 1670 1289 1694 1341C1718 1393 1743 1453 1750 1475C1774 1551 1773 1551 1890 1482M2415 1273C2411 1263 2398 1228 2387 1195C2363 1125 2326 1035 2277 930L2252 875L2253 1052C2254 1149 2258 1231 2262 1235C2268 1242 2399 1288 2414 1289C2418 1290 2419 1282 2415 1273M2070 1256C2070 1253 2024 1221 1968 1184C1911 1146 1852 1105 1837 1093C1821 1080 1805 1070 1801 1070C1798 1070 1770 1085 1741 1104C1690 1137 1653 1176 1663 1186C1665 1189 1714 1197 1771 1205C1880 1220 1974 1236 2025 1250C2063 1260 2070 1261 2070 1256M2161 1208C2126 1130 2110 1092 2110 1086C2110 1078 2056 962 1989 826C1957 760 1930 699 1930 690C1929 666 1894 606 1886 618C1873 640 1867 955 1879 990C1896 1036 2135 1248 2172 1250C2176 1250 2171 1231 2161 1208M2196 1049C2182 981 2166 896 2161 860C2146 770 2144 762 2117 658C2103 607 2084 528 2074 482C2061 423 2051 400 2040 400C2025 400 1900 516 1900 531C1900 556 1997 794 2053 905C2089 977 2133 1071 2150 1115C2168 1159 2189 1208 2198 1223C2215 1252 2215 1252 2218 1212C2220 1190 2210 1117 2196 1049M1642 1069L1668 993L1613 956C1559 920 1557 919 1540 937C1531 947 1490 991 1449 1035L1375 1115L1460 1131C1507 1141 1561 1147 1580 1147C1614 1145 1616 1143 1642 1069M1704 1101C1715 1089 1727 1080 1732 1080C1737 1080 1748 1074 1756 1066C1768 1053 1766 1049 1741 1031C1725 1019 1708 1010 1702 1010C1693 1010 1650 1110 1650 1131C1650 1144 1680 1127 1704 1101M1920 1096C1920 1079 1852 1035 1842 1045C1835 1052 1897 1110 1912 1110C1916 1110 1920 1104 1920 1096M2230 905C2222 807 2216 781 2170 665C2117 529 2114 533 2149 690C2161 742 2175 810 2181 840C2222 1067 2244 1096 2230 905M1810 1021C1810 1010 1745 960 1731 960C1706 960 1723 989 1758 1008C1800 1031 1810 1034 1810 1021M1850 887C1850 830 1853 741 1856 689C1862 586 1855 585 1819 684C1809 712 1787 773 1770 820C1754 867 1740 912 1740 920C1741 936 1816 989 1838 990C1847 990 1850 963 1850 887M1690 943C1690 922 1606 865 1590 875C1570 887 1581 906 1623 932C1673 963 1690 966 1690 943M1720 885C1720 877 1726 856 1734 838C1742 820 1756 783 1765 755C1773 728 1787 686 1794 663C1802 639 1805 620 1802 620C1798 621 1779 641 1760 667C1741 692 1701 740 1673 773C1644 806 1620 836 1620 841C1620 852 1691 900 1707 900C1714 900 1720 893 1720 885M1555 836C1544 828 1508 807 1475 789C1442 772 1408 751 1399 744C1381 728 1370 726 1370 739C1370 744 1385 758 1403 769C1420 780 1446 799 1460 812C1474 825 1499 845 1515 857C1541 876 1547 877 1560 864C1572 852 1572 848 1555 836M1644 766C1669 737 1690 710 1690 707C1690 704 1627 701 1550 702C1473 703 1410 706 1410 710C1410 720 1567 818 1587 819C1593 820 1619 796 1644 766M2403 793C2360 725 2263 610 2248 610C2239 610 2237 684 2246 728C2251 754 2260 762 2299 777C2324 786 2356 800 2370 807C2412 828 2423 824 2403 793M1120 737C1156 724 1206 703 1232 691C1275 670 1280 665 1286 624C1289 599 1290 577 1287 574C1284 571 1243 587 1197 609C1150 632 1107 650 1102 650C1096 650 1070 661 1043 674C1007 693 999 700 1012 705C1021 709 1031 722 1034 736C1042 765 1040 765 1120 737M2179 516C2125 444 2107 439 2134 502C2142 520 2163 576 2182 625L2215 715L2218 643C2221 573 2220 571 2179 516M1789 588C1814 552 1795 561 1737 611C1691 652 1683 664 1693 674C1703 685 1711 680 1740 647C1759 625 1781 598 1789 588M1589 674C1615 668 1622 661 1631 626C1650 552 1658 516 1665 472C1672 428 1672 428 1644 446C1628 456 1572 499 1519 541C1466 584 1410 626 1396 635C1382 645 1370 656 1370 661C1370 665 1403 671 1443 673C1482 674 1525 677 1536 678C1548 679 1572 677 1589 674M1058 609C1095 592 1134 574 1145 570C1156 565 1186 552 1212 540C1239 529 1271 515 1285 510C1299 505 1310 496 1310 491C1310 479 1260 371 1252 366C1242 360 1105 425 1067 454C1049 467 1026 481 1014 484C997 489 991 503 983 558C973 621 974 640 986 640C989 640 1021 626 1058 609M1411 593C1419 586 1430 580 1434 580C1438 580 1452 569 1465 556C1479 542 1506 519 1525 504C1545 489 1559 475 1557 473C1550 467 1396 518 1379 532C1370 539 1358 564 1353 587C1343 628 1343 628 1369 617C1383 611 1402 600 1411 593M1710 600C1801 529 1798 538 1755 492C1735 469 1712 450 1706 450C1695 450 1660 575 1660 614C1660 635 1667 633 1710 600M2217 373C2208 365 2100 357 2100 365C2100 369 2126 407 2158 448L2215 523L2218 450C2220 410 2219 376 2217 373M1952 443L1985 409L1905 416C1861 420 1814 426 1801 430C1777 436 1777 436 1809 457C1861 489 1912 484 1952 443M1440 445C1475 431 1513 420 1524 420C1557 420 1536 410 1444 384C1395 370 1346 356 1336 353C1319 348 1318 351 1324 384C1334 434 1351 470 1365 470C1371 470 1405 459 1440 445M2339 321C2261 237 2240 232 2240 294C2240 319 2246 342 2253 347C2270 358 2394 397 2399 393C2401 391 2374 359 2339 321M1639 379C1664 370 1670 363 1670 339C1670 317 1661 305 1632 285C1593 260 1593 260 1556 295C1522 327 1514 330 1482 324C1461 320 1443 316 1441 314C1438 311 1452 294 1470 275C1499 245 1509 241 1537 246C1555 249 1570 250 1570 247C1570 237 1493 190 1476 190C1456 190 1340 289 1340 306C1340 323 1406 349 1500 369C1606 392 1601 392 1639 379M1970 375C2021 367 2024 356 1981 332C1943 310 1943 310 1879 336C1745 391 1745 391 1845 385C1895 383 1951 378 1970 375M1783 344C1844 325 1900 299 1900 288C1900 271 1828 228 1792 223C1753 218 1753 218 1740 271C1734 301 1726 333 1723 343C1718 364 1719 364 1783 344M2220 308C2220 240 2209 233 2167 277C2146 297 2130 318 2130 322C2130 326 2142 332 2158 336C2173 339 2190 343 2195 345C2217 352 2220 348 2220 308M2158 247C2212 192 2212 192 2189 176C2176 167 2161 160 2155 160C2145 160 2116 212 2083 288C2070 319 2070 320 2087 311C2097 306 2129 277 2158 247M2020 303C2020 299 2013 270 2004 238C1990 188 1984 180 1963 180C1934 180 1880 206 1880 220C1880 231 1996 310 2012 310C2016 310 2020 307 2020 303M2081 239C2090 220 2101 195 2105 182C2111 160 2110 159 2068 162C2019 165 2013 177 2030 240C2043 288 2058 288 2081 239M1663 200C1659 196 1630 189 1600 185C1539 177 1539 178 1615 235L1665 273L1668 240C1670 222 1668 204 1663 200M1720 223C1720 210 1716 200 1710 200C1705 200 1700 217 1700 238C1700 265 1703 271 1710 260C1715 252 1720 235 1720 223M2305 181C2315 176 2278 163 2246 161C2228 160 2228 161 2244 179C2260 197 2276 198 2305 181M1835 160C1851 129 1855 70 1841 70C1836 70 1827 77 1820 85C1813 93 1804 100 1799 100C1786 100 1710 151 1710 160C1710 169 1767 188 1797 189C1812 190 1824 181 1835 160M1954 116C1941 74 1929 68 1909 94C1888 121 1869 166 1876 173C1878 175 1899 168 1921 157C1954 141 1959 134 1954 116M1744 104C1753 101 1760 87 1760 73C1760 51 1758 49 1744 60C1706 92 1706 119 1744 104" id="ShapeObject_1256837442433" stroke="none" style="fill:#000000;fill-opacity:1" transform="matrix(0.1,0,0,0.1,0,0)" opacity="1"/>
    <path d="M1040 543M1040 543C1040 538 1049 520 1060 503C1074 480 1087 470 1105 470C1134 470 1136 480 1115 520C1103 543 1093 550 1070 550C1053 550 1040 547 1040 543" id="ShapeObject_1256837442435" stroke="none" style="fill:#000000;fill-opacity:1" transform="matrix(0.1,0,0,0.1,0,0)" opacity="1"/>
  </g>
</svg>