<svg version="1.1" width="425" height="425" viewBox="0 0 425 425" xmlns:xlink="http://www.w3.org/1999/xlink" xmlns="http://www.w3.org/2000/svg">
  <desc>Created with Raven (http://www.aviary.com)</desc>
  <defs/>
  <g id="Layer_1256682927565" opacity="1">
    <g id="Layer_1256682927566" opacity="1">
      <path d="M2268 3275M2268 3275C2266 3272 2218 3270 2162 3269C2043 3268 2004 3260 2006 3237C2008 3223 1997 3220 1939 3220C1901 3220 1870 3216 1870 3212C1870 3207 1889 3177 1912 3144C1976 3056 2050 2929 2050 2910C2050 2884 2069 2872 2141 2854C2176 2845 2207 2834 2210 2830C2213 2826 2226 2821 2240 2818C2254 2815 2301 2802 2345 2790C2436 2765 2595 2722 2625 2715C2636 2713 2672 2701 2705 2689C2738 2677 2776 2666 2790 2664C2825 2657 2940 2618 2944 2611C2950 2602 2891 2485 2825 2375C2696 2161 2630 2060 2620 2060C2616 2060 2607 2067 2600 2075C2591 2085 2568 2090 2524 2090C2490 2090 2449 2095 2433 2101C2416 2108 2294 2113 2110 2114C1904 2116 1806 2121 1785 2129C1755 2141 1755 2141 1813 2177C1844 2197 1870 2219 1870 2227C1870 2235 1882 2256 1896 2275C1918 2304 1920 2311 1908 2329C1901 2341 1892 2350 1888 2350C1884 2350 1850 2380 1812 2418C1608 2616 1526 2679 1490 2663C1482 2659 1432 2655 1380 2653C1328 2652 1229 2648 1160 2645C1091 2642 996 2638 948 2637C901 2636 858 2632 854 2628C850 2623 835 2620 821 2620C807 2620 790 2616 785 2612C775 2606 726 2414 713 2333C707 2297 712 2287 762 2228C782 2204 815 2165 834 2140C854 2115 875 2090 880 2083C886 2076 890 2068 890 2066C890 2060 915 2029 938 2004C968 1972 1040 1860 1040 1844C1040 1827 960 1723 916 1682C903 1670 889 1645 885 1627C882 1609 875 1586 870 1575C865 1564 840 1492 814 1415C750 1222 749 1220 697 1221C649 1222 524 1242 516 1251C508 1258 491 1383 475 1550C467 1633 459 1643 416 1625C382 1611 321 1619 293 1642C276 1656 265 1647 201 1561C170 1518 129 1468 111 1449C78 1415 78 1413 74 1301C72 1234 65 1181 58 1173C50 1163 50 1156 57 1152C78 1138 65 990 36 898L8 811L41 763C60 737 75 710 75 703C75 697 86 681 99 669C121 649 122 641 117 581C114 545 108 494 104 468C96 409 112 405 163 450C189 472 200 476 208 468C215 461 220 451 220 446C220 440 233 422 248 405C263 389 296 337 321 291C368 202 381 191 470 167C598 131 838 39 850 21C858 9 932 20 927 33C925 39 899 52 869 62C829 75 799 95 760 135C730 165 709 192 712 195C714 198 802 203 906 207C1083 213 1118 219 1104 242C1101 246 1087 250 1072 250C1057 250 1018 261 985 274C917 302 910 293 1045 344C1078 357 1147 389 1199 415C1288 459 1295 461 1307 444C1314 434 1320 418 1320 409C1320 383 1331 360 1342 360C1357 360 1375 385 1412 456C1439 509 1451 521 1497 545C1527 560 1563 575 1578 579C1593 583 1607 594 1608 604C1611 620 1606 621 1563 615C1524 610 1511 612 1500 625C1489 639 1497 661 1561 787C1602 867 1649 948 1666 966C1695 997 1702 1000 1758 1000C1792 1000 1852 996 1892 990C2046 970 2179 958 2275 956C2337 954 2392 947 2419 936C2443 927 2471 920 2480 920C2490 920 2500 917 2502 912C2504 908 2559 887 2625 865C2734 829 2756 825 2872 822C3007 818 3079 831 3148 871C3166 881 3186 890 3192 890C3197 890 3215 901 3232 915C3248 929 3268 940 3275 940C3283 940 3301 958 3317 979C3332 1001 3352 1021 3360 1024C3368 1027 3395 1041 3419 1055L3464 1080L3585 1020C3651 987 3717 960 3732 960C3747 960 3771 971 3787 986C3822 1019 4066 1232 4127 1282C4151 1302 4180 1322 4191 1325C4201 1329 4210 1336 4210 1341C4210 1346 4216 1350 4224 1350C4246 1350 4248 1369 4233 1450C4220 1517 4204 1572 4140 1770C4127 1809 4120 1874 4115 1995C4111 2089 4106 2179 4104 2195C4102 2212 4098 2308 4095 2410C4089 2607 4074 2757 4059 2766C4054 2769 4046 2761 4040 2748C4031 2726 4004 2562 3993 2458C3987 2407 3976 2396 3967 2433C3964 2445 3946 2518 3926 2594C3901 2691 3890 2751 3892 2791C3893 2823 3892 2852 3888 2855C3882 2861 3910 2968 3960 3128C3986 3209 3990 3234 3980 3243C3971 3252 3958 3243 3921 3201C3896 3171 3814 3086 3740 3011C3587 2857 3568 2825 3601 2770C3612 2753 3620 2736 3620 2731C3620 2726 3636 2699 3655 2670C3687 2622 3719 2559 3787 2410C3800 2380 3826 2326 3843 2291C3874 2228 3874 2228 3873 1926C3872 1565 3861 1261 3849 1238C3839 1220 3707 1173 3641 1165C3621 1162 3590 1157 3572 1154C3540 1149 3539 1149 3557 1168C3567 1179 3585 1200 3597 1216C3610 1232 3638 1265 3660 1290C3730 1369 3767 1479 3757 1577C3750 1643 3658 1840 3571 1975C3539 2025 3495 2097 3475 2135C3454 2174 3429 2219 3420 2236C3380 2306 3312 2509 3300 2592C3287 2685 3290 2700 3321 2700C3335 2700 3340 2706 3338 2717C3336 2729 3313 2739 3260 2751C3178 2771 2966 2827 2855 2858C2817 2869 2743 2890 2692 2904C2561 2940 2482 2980 2431 3035C2381 3090 2360 3135 2360 3189C2360 3256 2346 3280 2307 3280C2288 3280 2271 3278 2268 3275M2284 3209C2295 3154 2291 3120 2275 3120C2266 3120 2245 3113 2228 3104C2183 3081 2160 3092 2108 3164C2054 3238 2050 3234 2186 3238C2277 3241 2277 3241 2284 3209M2090 3113C2090 3101 2093 3084 2096 3075C2102 3061 2096 3059 2054 3062C2003 3065 2010 3059 1940 3173C1929 3190 1932 3191 1974 3189C1999 3187 2023 3189 2026 3193C2037 3204 2089 3138 2090 3113M3925 3099C3900 3003 3851 2865 3840 2862C3834 2860 3830 2850 3830 2841C3830 2826 3819 2822 3777 2817C3709 2810 3630 2819 3630 2834C3630 2840 3637 2856 3646 2869C3668 2900 3933 3170 3938 3166C3940 3164 3934 3134 3925 3099M2402 3018C2439 2978 2470 2940 2470 2934C2470 2927 2458 2920 2443 2917C2427 2914 2382 2902 2341 2890C2244 2861 2244 2860 2269 3000C2285 3088 2286 3090 2312 3090C2328 3090 2357 3067 2402 3018M2250 3045C2250 3032 2245 2998 2239 2969L2228 2918L2206 2957C2193 2979 2178 3011 2172 3029C2162 3057 2163 3061 2175 3056C2183 3053 2200 3055 2212 3060C2247 3073 2250 3072 2250 3045M2080 3000C2080 2971 2064 2968 2052 2995C2044 3013 2044 3020 2053 3023C2071 3029 2080 3021 2080 3000M2146 2993C2163 2970 2190 2908 2190 2894C2190 2885 2127 2891 2109 2901C2092 2910 2090 2918 2096 2958C2106 3031 2114 3036 2146 2993M2576 2869C2593 2855 2622 2837 2639 2829C2656 2821 2670 2812 2670 2809C2670 2805 2693 2792 2722 2780C2781 2755 2883 2689 2875 2682C2868 2674 2768 2697 2660 2731C2608 2747 2560 2760 2554 2760C2542 2760 2472 2780 2395 2805C2373 2812 2342 2821 2325 2825C2295 2832 2295 2832 2320 2845C2334 2852 2378 2866 2419 2876C2459 2887 2495 2900 2497 2907C2503 2921 2528 2909 2576 2869M2700 2875C2725 2871 2774 2858 2810 2845C2879 2822 2997 2787 3068 2770C3091 2764 3110 2755 3110 2751C3110 2746 3085 2721 3055 2696L3000 2649L2958 2678C2874 2735 2804 2778 2735 2813C2657 2853 2600 2895 2635 2886C2646 2884 2675 2878 2700 2875M3841 2769C3858 2736 3876 2518 3870 2400L3865 2295L3827 2373C3807 2415 3780 2474 3769 2503C3758 2531 3724 2600 3694 2656C3664 2712 3640 2762 3640 2768C3640 2780 3663 2784 3762 2788C3822 2791 3830 2789 3841 2769M3238 2712C3246 2701 3247 2693 3240 2686C3224 2670 3138 2653 3110 2660C3085 2667 3085 2667 3125 2704C3158 2735 3169 2740 3195 2734C3211 2731 3231 2721 3238 2712M1507 2614C1508 2609 1506 2599 1501 2592C1495 2581 1459 2581 1307 2590C1072 2604 1019 2618 1198 2617C1271 2617 1332 2619 1335 2621C1343 2630 1504 2623 1507 2614M3219 2613C3179 2559 2770 2170 2754 2170C2750 2170 2754 2180 2762 2193C2854 2337 2934 2473 2977 2558C2988 2579 3001 2590 3015 2590C3026 2590 3041 2595 3048 2602C3054 2608 3090 2616 3127 2620C3241 2632 3234 2632 3219 2613M1105 2575C1188 2566 1289 2557 1330 2554C1371 2551 1407 2547 1409 2545C1410 2543 1405 2527 1396 2509C1370 2457 1375 2444 1443 2399C1525 2344 1550 2320 1550 2298C1550 2288 1566 2250 1585 2213C1607 2170 1616 2143 1610 2135C1605 2129 1579 2117 1553 2107C1526 2097 1496 2078 1486 2065C1476 2051 1461 2040 1453 2040C1440 2040 1321 2115 1310 2130C1307 2134 1267 2163 1220 2195C1085 2288 978 2373 987 2381C991 2385 1040 2391 1095 2394C1272 2404 1350 2416 1350 2434C1350 2447 1283 2446 1190 2431C1165 2427 1089 2423 1020 2421C951 2420 891 2415 886 2410C881 2405 883 2392 892 2378C900 2365 920 2312 935 2260C950 2208 975 2127 991 2080C1007 2033 1020 1986 1020 1975C1020 1952 1007 1965 900 2101C729 2319 738 2296 765 2436C789 2563 796 2578 833 2583C900 2591 960 2589 1105 2575M4064 2451C4068 2387 4073 2304 4076 2265C4086 2123 4089 1975 4080 1995C4058 2046 4018 2222 4013 2285C4010 2324 4013 2391 4020 2435C4026 2479 4034 2532 4037 2554C4046 2619 4058 2575 4064 2451M1642 2531C1671 2504 1707 2471 1722 2458C1743 2441 1748 2431 1740 2420C1733 2409 1727 2408 1717 2415C1709 2421 1679 2441 1651 2460C1623 2479 1598 2502 1595 2511C1592 2520 1581 2535 1570 2545C1545 2568 1545 2580 1570 2580C1580 2580 1613 2558 1642 2531M1495 2528C1488 2510 1430 2478 1430 2492C1430 2498 1437 2512 1447 2522C1465 2542 1502 2547 1495 2528M3246 2248C3237 1772 3228 1516 3221 1503C3214 1490 3177 1511 3070 1587C3038 1610 2993 1638 2970 1650C2948 1661 2927 1677 2924 1685C2919 1698 2972 1841 3001 1894C3007 1904 3029 1962 3051 2024C3157 2321 3212 2478 3221 2508C3227 2525 3235 2540 3241 2540C3248 2540 3249 2442 3246 2248M1599 2464C1644 2416 1644 2421 1600 2368C1592 2358 1582 2350 1577 2350C1565 2350 1460 2431 1460 2440C1460 2452 1532 2510 1546 2510C1552 2510 1576 2489 1599 2464M3120 2313C3083 2204 3043 2091 3031 2062C3020 2033 3010 1998 3010 1985C3010 1971 3006 1960 3000 1960C2995 1960 2990 1953 2990 1945C2990 1930 2891 1713 2874 1692C2863 1677 2773 1774 2663 1919C2625 1970 2623 1976 2635 2000C2642 2014 2674 2048 2706 2075C2738 2103 2803 2162 2850 2206C3005 2354 3175 2510 3181 2510C3185 2510 3157 2421 3120 2313M3945 2355C3952 2322 3964 2270 3971 2240C3983 2184 3977 2110 3960 2110C3954 2110 3950 2118 3950 2128C3950 2137 3938 2163 3923 2185C3891 2231 3883 2310 3895 2438L3903 2515L3917 2465C3925 2438 3938 2388 3945 2355M3328 2350C3367 2254 3438 2122 3513 2003C3528 1979 3540 1958 3540 1954C3540 1951 3527 1931 3512 1911C3496 1891 3471 1853 3454 1825C3378 1694 3276 1550 3259 1550C3255 1550 3253 1610 3255 1683C3257 1755 3262 1925 3266 2060C3270 2195 3274 2321 3276 2340C3277 2359 3279 2391 3279 2410C3280 2454 3290 2442 3328 2350M1843 2346C1875 2316 1879 2308 1869 2292C1858 2274 1855 2275 1825 2309C1795 2343 1770 2381 1770 2395C1770 2405 1803 2383 1843 2346M1722 2367C1738 2354 1758 2328 1768 2309C1786 2273 1786 2273 1737 2231C1710 2209 1684 2190 1678 2190C1671 2190 1672 2366 1679 2388C1682 2395 1698 2387 1722 2367M1640 2274C1640 2206 1631 2199 1610 2250C1600 2274 1600 2286 1610 2310C1630 2358 1640 2345 1640 2274M999 2308C1016 2295 1056 2267 1087 2245C1118 2223 1196 2168 1259 2122C1323 2076 1398 2024 1425 2005C1453 1987 1488 1958 1504 1941C1521 1924 1537 1910 1542 1910C1551 1910 1592 1877 1621 1846C1632 1835 1640 1815 1640 1801C1639 1772 1643 1741 1661 1609C1667 1560 1670 1517 1667 1513C1663 1510 1634 1523 1603 1542C1571 1562 1518 1592 1485 1609C1452 1626 1413 1648 1398 1658C1384 1667 1343 1692 1308 1713C1109 1833 1108 1833 1116 1875C1121 1904 1119 1909 1099 1912C1073 1916 1061 1942 1002 2130C958 2270 945 2330 958 2330C963 2330 981 2320 999 2308M3944 2082C3971 2012 3972 1961 3950 1845C3941 1794 3939 1777 3919 1615C3898 1441 3891 1493 3890 1821C3890 2200 3893 2216 3944 2082M1712 2110C1717 2094 1831 2080 1965 2080L2085 2080L2025 2042C1992 2021 1929 1989 1885 1971C1841 1953 1784 1927 1758 1914C1693 1880 1637 1886 1573 1933C1546 1952 1516 1978 1505 1990C1487 2010 1487 2012 1503 2021C1512 2027 1520 2038 1520 2046C1520 2063 1547 2076 1632 2100C1711 2122 1708 2122 1712 2110M4031 2025C4055 1928 4055 1925 4025 1980C4010 2007 4001 2042 4000 2069C4000 2128 4008 2117 4031 2025M2466 2062C2488 2057 2522 2055 2541 2058L2575 2062L2544 2029C2527 2010 2497 1970 2479 1939C2460 1909 2439 1875 2433 1864C2426 1854 2413 1829 2403 1810C2382 1766 2317 1670 2309 1670C2299 1670 2272 1787 2260 1883C2254 1931 2245 1994 2240 2022C2233 2056 2233 2076 2240 2080C2252 2087 2410 2075 2466 2062M2226 1938C2234 1881 2248 1801 2257 1760C2284 1629 2284 1627 2269 1632C2262 1634 2250 1665 2244 1701C2237 1736 2218 1830 2201 1910C2178 2019 2173 2056 2183 2062C2201 2073 2209 2051 2226 1938M2160 1983C2160 1971 2174 1891 2190 1805C2207 1719 2220 1646 2220 1644C2220 1641 2205 1642 2186 1645C2167 1649 2130 1645 2099 1637C2020 1615 1962 1602 1900 1594C1870 1590 1825 1577 1800 1564C1745 1537 1700 1524 1700 1537C1700 1542 1693 1593 1685 1651C1657 1847 1657 1846 1671 1833C1688 1816 1700 1817 1700 1835C1700 1850 1787 1896 1897 1939C1924 1950 1973 1973 2006 1991C2145 2067 2133 2064 2147 2033C2154 2017 2159 1995 2160 1983M2583 2001C2578 1983 2595 1961 2785 1725C2812 1692 2817 1670 2798 1670C2727 1667 2618 1656 2590 1649C2529 1632 2350 1625 2350 1639C2350 1646 2373 1693 2401 1743C2429 1794 2464 1857 2479 1884C2501 1925 2575 2020 2585 2020C2587 2020 2586 2011 2583 2001M4064 1842C4080 1811 4075 1779 4031 1635C4006 1555 3918 1339 3912 1344C3910 1346 3918 1417 3930 1502C3941 1586 3955 1691 3961 1735C3966 1779 3976 1848 3982 1887L3993 1960L4021 1915C4036 1891 4056 1858 4064 1842M3638 1788C3706 1651 3719 1606 3714 1528C3706 1407 3678 1353 3563 1235C3479 1149 3433 1109 3399 1094C3385 1087 3345 1055 3311 1021C3277 988 3245 960 3239 960C3230 960 3234 1241 3245 1380C3247 1405 3249 1435 3249 1447C3250 1458 3268 1491 3290 1519C3312 1547 3330 1572 3330 1576C3330 1579 3343 1599 3358 1619C3374 1639 3406 1689 3430 1730C3485 1826 3547 1910 3563 1910C3571 1910 3604 1855 3638 1788M1116 1765C1143 1738 1156 1734 1162 1751C1165 1759 1179 1755 1205 1741C1249 1718 1252 1716 1354 1649C1393 1623 1460 1585 1503 1564C1545 1543 1580 1521 1580 1515C1580 1507 1548 1501 1488 1496C1354 1487 1299 1481 1172 1464C1109 1455 1055 1452 1051 1456C1044 1465 1056 1723 1065 1768C1072 1797 1085 1796 1116 1765M1031 1678C1029 1467 1010 1395 923 1263C889 1211 888 1210 839 1210C801 1210 790 1214 790 1226C790 1234 806 1289 826 1348C846 1407 874 1497 890 1548C914 1629 924 1648 971 1698C1001 1730 1027 1755 1029 1753C1031 1752 1032 1718 1031 1678M4129 1710C4136 1693 4149 1656 4156 1627C4164 1598 4180 1544 4190 1505C4201 1467 4209 1426 4209 1415C4209 1389 4135 1335 4079 1320C4055 1314 4011 1300 3981 1289C3922 1267 3913 1269 3929 1297C3955 1343 4060 1623 4080 1698C4093 1748 4110 1752 4129 1710M2854 1654C2873 1647 2895 1601 2949 1460C2987 1359 3066 1171 3116 1062C3147 993 3146 985 3108 1007C3043 1044 2977 1134 2900 1290C2859 1374 2775 1515 2761 1526C2743 1540 2661 1560 2600 1566C2494 1576 2466 1582 2481 1590C2489 1595 2509 1601 2525 1604C2541 1607 2576 1614 2604 1619C2632 1624 2694 1632 2743 1635C2791 1639 2830 1646 2830 1651C2830 1662 2833 1662 2854 1654M2978 1605C3004 1591 3044 1565 3066 1547C3089 1530 3134 1499 3165 1480L3223 1446L3215 1280C3211 1189 3207 1099 3205 1080C3204 1061 3202 1033 3201 1018C3198 960 3182 986 3087 1200C3022 1346 2920 1600 2920 1617C2920 1635 2924 1634 2978 1605M2300 1585C2340 1573 2475 1550 2595 1534C2668 1524 2735 1498 2760 1470C2815 1409 2818 1403 2896 1250C2917 1209 2949 1151 2967 1122C2985 1093 3000 1065 3000 1060C3000 1055 3036 1025 3080 994C3124 964 3160 932 3160 924C3160 916 3150 905 3138 899C3119 891 3103 896 3052 923C2938 984 2891 1034 2800 1192C2681 1398 2667 1419 2648 1420C2639 1420 2608 1429 2578 1439C2549 1450 2469 1468 2400 1480C2331 1492 2249 1510 2217 1521C2159 1541 2159 1541 2110 1516C2083 1502 2054 1490 2047 1490C2040 1490 2011 1483 1983 1475C1939 1462 1931 1455 1925 1430C1921 1413 1912 1386 1903 1370C1895 1353 1891 1332 1894 1324C1897 1316 1896 1311 1892 1314C1881 1321 1853 1257 1844 1205C1841 1183 1834 1161 1830 1155C1826 1150 1816 1126 1809 1102C1793 1047 1780 1037 1753 1058C1730 1075 1730 1075 1781 1230C1808 1315 1838 1408 1847 1437C1868 1504 1891 1525 1969 1545C2004 1554 2055 1570 2084 1580C2171 1612 2207 1613 2300 1585M315 1400C314 1359 311 1303 310 1275C308 1225 308 1225 299 1260C294 1280 293 1360 297 1445C303 1570 305 1585 311 1535C314 1502 316 1441 315 1400M445 1578C447 1571 451 1531 454 1490C457 1449 462 1406 465 1395C468 1384 472 1348 473 1315C475 1282 480 1248 484 1239C492 1220 467 1210 408 1210L371 1210L376 1373C382 1563 384 1577 408 1583C437 1591 441 1590 445 1578M267 1388C265 1206 265 1206 230 1199C211 1195 175 1190 150 1189L105 1186L105 1285C105 1380 106 1386 132 1415C153 1437 158 1440 154 1425C150 1414 143 1400 138 1394C133 1387 136 1378 144 1371C156 1361 162 1365 179 1399C197 1433 198 1441 186 1453C174 1464 178 1475 213 1522C236 1553 258 1576 262 1574C265 1572 268 1488 267 1388M1850 1520C1850 1509 1846 1500 1841 1500C1836 1500 1829 1481 1825 1458C1821 1434 1802 1372 1783 1320C1764 1268 1745 1215 1742 1203C1728 1157 1715 1177 1707 1255C1703 1299 1696 1359 1691 1388C1684 1439 1685 1443 1714 1476C1741 1506 1802 1537 1838 1539C1844 1540 1850 1531 1850 1520M2250 1480C2275 1474 2338 1461 2390 1450C2442 1440 2499 1427 2515 1422C2532 1416 2570 1405 2601 1396C2652 1381 2660 1374 2691 1323C2710 1292 2733 1259 2743 1249C2752 1238 2760 1224 2760 1216C2760 1208 2775 1180 2793 1154C2811 1127 2831 1094 2838 1080C2866 1025 2879 1006 2898 996C2908 990 2937 968 2962 948C2987 927 3012 910 3019 910C3025 910 3030 906 3030 901C3030 896 3039 888 3051 885C3114 865 2944 834 2831 845C2719 857 2723 856 2615 894C2387 976 2361 983 2260 982C2208 981 2136 985 2100 991C2064 997 2010 1003 1980 1005C1907 1009 1831 1021 1826 1029C1824 1032 1838 1087 1856 1150C1875 1213 1892 1272 1893 1280C1894 1288 1898 1297 1902 1300C1906 1303 1922 1335 1939 1372C1967 1435 1971 1440 2012 1450C2036 1456 2075 1470 2100 1480C2146 1499 2173 1499 2250 1480M1600 1456C1555 1413 1333 1237 1306 1223C1289 1214 1265 1199 1252 1189C1238 1178 1218 1173 1202 1175C1187 1178 1148 1182 1115 1184C1042 1190 959 1200 943 1205C934 1208 940 1228 963 1267C980 1299 1004 1343 1015 1365C1035 1404 1037 1405 1120 1422C1206 1439 1460 1466 1560 1469C1607 1470 1612 1468 1600 1456M1669 1368C1686 1251 1695 1080 1684 1080C1679 1080 1644 1091 1607 1105C1569 1118 1480 1137 1408 1146C1307 1160 1281 1167 1295 1175C1319 1189 1517 1345 1560 1384C1595 1417 1640 1449 1651 1449C1654 1450 1662 1413 1669 1368M4014 1232C3934 1159 3842 1080 3835 1080C3826 1080 3837 1117 3862 1167C3882 1208 3896 1217 3995 1257C4049 1279 4056 1271 4014 1232M640 1189C661 1183 659 1182 625 1181C577 1180 540 1189 540 1202C540 1211 589 1205 640 1189M465 1166C415 1144 360 1137 360 1153C360 1174 366 1177 433 1178C492 1180 494 1179 465 1166M3830 1177C3830 1175 3819 1145 3805 1110C3775 1034 3746 1000 3711 1000C3683 1000 3518 1081 3513 1097C3509 1107 3548 1119 3600 1125C3614 1126 3668 1139 3720 1153C3820 1180 3830 1182 3830 1177M278 1148C280 1136 269 1129 230 1121C156 1105 100 1107 100 1124C100 1144 114 1151 174 1160C246 1171 274 1168 278 1148M1138 1155C1147 1153 1164 1151 1175 1150C1195 1149 1195 1149 1176 1135C1166 1127 1154 1123 1150 1125C1147 1127 1115 1134 1079 1141C941 1165 934 1168 1028 1163C1080 1160 1129 1157 1138 1155M581 1079C624 1011 632 969 619 882C607 808 602 796 584 808C568 819 470 948 470 959C470 964 464 970 457 973C442 979 370 1082 370 1098C370 1103 399 1116 435 1125C471 1135 503 1147 506 1152C514 1165 545 1135 581 1079M716 1128C712 1115 705 1085 700 1060C695 1035 684 997 676 975C662 938 661 937 661 964C660 993 619 1083 594 1111C566 1142 577 1150 651 1150C720 1150 722 1149 716 1128M845 1113C839 1086 746 925 710 880C694 858 691 858 695 875C697 886 706 931 715 975C724 1019 738 1074 746 1098C761 1139 763 1140 807 1140C851 1140 852 1139 845 1113M1078 1113L1144 1097L1109 1067C890 880 803 817 732 796C711 789 711 790 721 817C727 832 754 880 781 923C809 966 843 1027 858 1058C901 1147 896 1143 958 1136C988 1132 1042 1122 1078 1113M1375 1120C1479 1108 1566 1092 1559 1086C1557 1084 1519 1087 1475 1091C1431 1095 1364 1101 1325 1105C1240 1113 1227 1117 1235 1131C1239 1137 1247 1139 1254 1137C1260 1134 1315 1127 1375 1120M324 1033C338 904 341 788 331 776C323 767 324 750 333 719C345 674 345 490 332 490C301 491 298 508 295 799C293 1029 295 1090 305 1090C313 1090 320 1069 324 1033M1357 1076C1422 1068 1501 1058 1533 1055C1616 1046 1609 1030 1515 1014C1431 1001 1292 958 1225 926C1098 864 974 817 880 795C792 775 789 776 835 807C857 821 931 881 1000 940C1170 1084 1179 1090 1210 1090C1226 1090 1291 1083 1357 1076M170 1050C127 1013 100 1011 100 1044C100 1070 114 1076 175 1078C205 1079 205 1079 170 1050M263 927C274 783 267 764 195 738C126 713 117 715 81 755C44 797 43 819 72 895C91 946 101 957 164 1000C203 1026 240 1047 245 1046C251 1044 259 991 263 927M510 853C529 827 549 802 554 799C572 785 551 760 522 760C453 760 435 770 421 813C403 867 370 1001 370 1018C370 1031 441 948 510 853M1610 993C1610 988 1538 914 1451 826L1293 668L1194 679C1140 685 1084 692 1070 695C1056 699 998 705 941 711C837 720 789 733 820 744C828 746 862 755 895 763C956 778 1144 852 1228 894C1285 922 1361 947 1415 956C1437 959 1459 965 1464 968C1472 972 1559 992 1603 999C1607 999 1610 997 1610 993M1545 836C1537 817 1518 780 1503 753C1487 727 1466 688 1455 668C1439 636 1430 630 1405 631C1389 632 1364 635 1350 640C1326 647 1330 652 1438 759C1500 820 1553 870 1555 870C1557 870 1553 855 1545 836M396 772C383 760 370 786 371 823L372 865L386 821C394 796 398 775 396 772M408 668C432 588 442 541 443 495C445 447 444 445 420 448C407 449 391 455 385 461C380 466 373 522 371 585C368 683 370 700 383 700C392 700 403 686 408 668M838 690C875 685 932 679 965 676C1034 671 1198 650 1220 643C1239 637 1209 625 1075 580C1020 562 966 544 955 540C927 529 827 503 745 485C707 477 646 463 610 455C575 447 544 443 541 445C534 452 571 542 602 594C618 621 636 653 640 666C653 698 722 707 838 690M260 610C260 534 259 530 241 542C225 552 217 548 184 517C137 473 129 471 135 508C137 523 142 561 145 592C151 650 159 662 194 667C204 669 220 675 229 680C258 697 260 691 260 610M587 665C590 638 494 441 487 460C480 480 440 668 440 681C440 687 468 690 513 688C576 685 585 683 587 665M1425 575C1425 560 1411 550 1370 533C1309 509 1300 513 1300 568C1300 601 1300 601 1363 598C1417 595 1425 593 1425 575M1209 563C1172 521 1168 518 1110 469C1052 421 1022 402 926 350C874 322 861 319 817 325C771 332 665 362 595 390C546 409 567 416 830 471C882 482 988 513 1065 540C1232 598 1242 599 1209 563M1278 522C1281 492 1278 489 1190 445C1140 420 1096 400 1093 400C1090 400 1113 424 1145 453C1177 481 1215 517 1229 533C1259 567 1274 563 1278 522M1390 481C1390 471 1380 450 1369 436C1352 415 1345 411 1339 422C1323 447 1329 480 1353 490C1386 503 1390 502 1390 481M310 456C332 439 369 423 417 409C459 397 459 397 442 371C433 357 413 328 397 307L367 269L343 309C330 332 303 373 285 402C266 431 250 460 250 466C250 480 287 473 310 456M665 336C725 317 809 291 850 279C936 254 928 244 820 241C784 240 736 237 714 234C673 228 670 230 606 292C543 353 531 370 547 370C551 370 604 355 665 336M553 302C584 270 610 241 610 237C610 224 445 229 426 243C409 256 410 259 440 308C457 337 477 360 484 360C490 360 521 334 553 302M692 162C713 143 730 124 730 119C730 114 704 119 673 131C641 142 596 158 573 166C512 188 520 201 592 199C647 197 658 193 692 162" id="ShapeObject_1256682927568" stroke="none" style="fill:#000000;fill-opacity:1" transform="matrix(0.10000000894069672,0,0,0.10000000894069672,0,97)" opacity="1"/>
      <path d="M111 911M111 911C102 894 104 881 125 841C155 782 163 775 184 796C195 806 200 830 200 866C200 916 198 920 176 920C163 920 145 923 137 926C127 929 117 923 111 911" id="ShapeObject_1256682927570" stroke="none" style="fill:#000000;fill-opacity:1" transform="matrix(0.10000000894069672,0,0,0.10000000894069672,0,97)" opacity="1"/>
    </g>
  </g>
</svg>