<svg version="1.1" width="425" height="625" viewBox="0 0 425 625" xmlns:xlink="http://www.w3.org/1999/xlink" xmlns="http://www.w3.org/2000/svg">
  <desc>Created with Raven (http://www.aviary.com)</desc>
  <defs/>
  <g id="Layer_1256682927558" opacity="1">
    <g id="Layer_1256682927559" opacity="1">
      <path d="M5223 6214M5223 6214C5220 6205 5225 6182 5235 6162C5277 6072 5360 5832 5360 5797C5360 5787 5354 5773 5348 5766C5341 5759 5304 5718 5265 5675C5227 5632 5188 5590 5180 5581C5172 5572 5145 5540 5120 5510C5019 5386 4892 5260 4869 5260C4847 5260 4842 5242 4840 5160C4837 4954 4830 4779 4825 4739C4819 4699 4808 4681 4741 4609C4699 4563 4635 4487 4599 4441C4564 4395 4527 4347 4517 4334C4500 4312 4499 4304 4510 4257C4517 4229 4531 4180 4541 4150C4551 4120 4561 4074 4564 4047C4566 4021 4576 3986 4584 3968C4593 3951 4600 3922 4600 3904C4600 3886 4611 3836 4625 3792C4652 3707 4671 3590 4659 3590C4655 3590 4614 3636 4569 3693C4523 3749 4480 3802 4473 3810C4465 3818 4434 3857 4404 3895C4270 4063 4226 4118 4184 4165C4086 4277 4040 4342 4035 4378C4028 4426 3990 4620 3983 4643C3980 4656 3985 4663 3999 4667C4024 4673 4037 4709 4019 4721C4012 4725 4003 4727 3999 4724C3989 4718 3935 4756 3890 4801C3845 4844 3777 4926 3725 5000C3669 5079 3539 5255 3488 5320C3369 5470 3305 5561 3278 5615C3261 5648 3241 5683 3233 5692C3221 5706 3220 5723 3230 5802C3236 5853 3247 5920 3255 5950C3263 5980 3272 6031 3276 6062C3284 6129 3272 6140 3213 6122C3185 6113 3173 6114 3157 6125C3142 6135 3132 6136 3117 6129C3107 6123 3057 6116 3006 6114C2902 6110 2874 6104 2843 6084C2822 6071 2821 6068 2836 6028C2844 6006 2848 5985 2846 5982C2843 5980 2818 5983 2789 5990C2709 6009 2701 5987 2741 5853C2768 5765 2787 5586 2771 5576C2757 5567 2769 5539 2796 5515C2824 5490 2900 5396 3010 5250C3057 5188 3102 5130 3110 5121C3123 5107 3159 5061 3268 4920C3295 4885 3409 4752 3443 4715C3504 4650 3509 4638 3496 4590C3489 4565 3474 4525 3463 4500C3425 4418 3401 4355 3389 4310C3383 4285 3370 4247 3360 4225C3350 4203 3330 4149 3316 4105C3268 3955 3249 3895 3240 3875C3235 3864 3224 3831 3215 3803C3189 3720 3179 3712 3060 3689C3002 3678 2933 3663 2905 3654C2878 3646 2785 3624 2700 3605C2615 3586 2509 3561 2465 3549C2421 3538 2351 3520 2310 3510C2170 3477 2155 3467 2020 3320C1951 3246 1839 3128 1770 3058L1644 2931L1345 2928C1069 2925 856 2936 807 2955C794 2960 790 2974 790 3009C789 3072 780 3199 770 3293C760 3388 771 3434 808 3457C823 3466 840 3479 845 3485C851 3491 882 3521 916 3552C982 3612 972 3610 1261 3625C1337 3629 1380 3652 1380 3688C1380 3704 1376 3720 1371 3726C1359 3739 1340 3833 1340 3883C1340 3935 1328 3954 1298 3955C1279 3955 1274 3962 1270 3989C1265 4024 1265 4024 1210 4021C1180 4020 1092 4011 1015 4001L875 3984L876 3925C876 3892 882 3830 889 3788C904 3693 900 3684 817 3629C783 3606 748 3581 740 3573C732 3566 703 3542 676 3521L627 3483L562 3527C468 3592 453 3607 466 3628C471 3637 505 3660 541 3678C576 3696 643 3741 690 3779C737 3817 792 3858 813 3870C839 3886 850 3899 850 3916C850 3929 848 3940 846 3940C828 3940 764 3901 715 3860C638 3796 537 3728 480 3703C455 3692 420 3669 402 3653C370 3623 370 3623 369 3409C369 3042 382 2849 409 2821C418 2811 430 2795 436 2784C442 2773 479 2754 521 2739C617 2706 630 2700 662 2678C676 2668 717 2646 752 2629C787 2612 838 2583 865 2566C893 2548 944 2516 980 2495C1060 2447 1069 2438 1075 2403C1093 2300 1097 2226 1098 2000C1099 1860 1102 1718 1105 1685C1117 1566 1126 903 1116 892C1113 890 1108 901 1105 916C1089 991 1034 1165 1022 1177C1003 1195 990 1184 990 1150C990 1135 963 1069 931 1004C879 900 852 841 796 715C783 686 783 686 771 708C764 720 755 772 749 823C744 874 736 949 730 990C717 1093 706 1330 714 1330C729 1330 801 1289 832 1262C883 1220 979 1175 993 1189C1008 1204 981 1231 921 1262C895 1276 830 1319 777 1358C674 1435 644 1473 609 1577C599 1609 586 1642 582 1650C577 1658 567 1686 559 1713C545 1761 520 1781 497 1762C471 1742 431 1739 420 1757C412 1770 407 1771 404 1763C398 1750 355 1755 335 1771C329 1775 313 1781 300 1784C286 1786 249 1794 218 1801C187 1807 155 1810 148 1807C133 1802 98 1700 74 1590C46 1460 46 1447 73 1402C101 1358 200 1166 200 1156C200 1152 208 1137 218 1122C297 1007 292 1021 295 878C299 683 305 652 344 636C361 628 413 595 460 562L545 503L545 354C545 272 542 179 537 147C531 99 532 88 546 83C566 76 633 140 702 233C754 303 775 317 764 276C760 257 764 248 784 235C816 214 929 174 1011 156C1114 132 1164 119 1180 111C1188 106 1238 95 1290 85C1342 75 1412 55 1445 40C1481 23 1525 12 1555 10C1583 9 1625 8 1650 7C1685 5 1695 9 1698 22C1700 33 1693 43 1678 49C1665 54 1644 70 1631 84C1617 98 1600 110 1592 110C1578 110 1517 153 1433 223C1407 245 1369 273 1348 286C1327 299 1310 313 1310 316C1310 323 1377 313 1529 284C1664 258 1721 254 1750 270C1760 276 1803 351 1845 438C1887 524 1929 610 1938 629C1950 651 1983 680 2042 719C2161 796 2256 850 2274 850C2293 850 2302 890 2290 928C2281 961 2287 1184 2299 1226C2302 1239 2342 1287 2387 1334C2433 1380 2470 1424 2470 1432C2470 1440 2459 1457 2446 1469C2414 1499 2396 1544 2404 1572C2407 1585 2431 1610 2456 1628C2512 1670 2686 1769 2805 1828C2855 1852 2916 1885 2941 1901C2966 1917 3027 1948 3076 1969C3180 2014 3334 2090 3441 2148C3482 2170 3540 2198 3569 2210C3599 2221 3646 2246 3674 2265C3702 2283 3752 2305 3785 2314C3879 2338 4008 2384 4090 2422C4131 2442 4176 2461 4190 2465C4216 2472 4392 2549 4399 2556C4401 2558 4406 2579 4411 2602C4415 2626 4446 2710 4480 2790C4515 2870 4550 2951 4558 2970C4572 3004 4620 3102 4655 3168C4667 3191 4677 3199 4689 3195C4699 3192 4722 3196 4741 3204C4760 3211 4804 3221 4840 3224C4876 3228 4932 3238 4965 3247C5053 3269 5060 3271 5115 3278C5156 3284 5166 3289 5168 3306C5170 3318 5164 3335 5155 3343C5133 3365 5121 3433 5109 3595C5104 3672 5096 3764 5091 3800C5086 3836 5083 3924 5084 3995C5085 4125 5085 4125 5123 4189C5144 4224 5173 4269 5189 4289C5204 4309 5226 4340 5236 4359C5267 4414 5275 4427 5289 4444C5310 4469 5296 4486 5243 4499C5167 4519 5072 4560 5066 4576C5059 4593 5105 4825 5124 4873C5131 4891 5143 4934 5149 4970C5169 5079 5192 5154 5212 5175C5223 5186 5252 5224 5278 5260C5326 5327 5454 5460 5525 5519C5576 5562 5655 5637 5700 5686C5720 5708 5770 5756 5813 5794C5891 5864 5904 5886 5873 5896C5839 5907 5775 5943 5738 5971C5718 5987 5699 6000 5696 6000C5694 6000 5668 6016 5638 6035C5589 6068 5497 6116 5410 6154C5391 6163 5350 6183 5320 6200C5258 6233 5232 6237 5223 6214M5381 6114C5485 6072 5572 6029 5620 5996C5683 5952 5682 5953 5714 5927C5743 5904 5743 5904 5681 5880C5580 5843 5507 5831 5477 5847C5463 5854 5441 5859 5429 5857C5402 5855 5391 5874 5343 6010C5314 6094 5303 6140 5313 6140C5315 6140 5345 6128 5381 6114M3112 6052C3120 6044 3133 5883 3134 5780C3135 5726 3140 5698 3152 5680C3164 5664 3167 5653 3160 5646C3144 5630 3040 5635 2998 5653C2959 5669 2961 5665 2940 5795C2934 5834 2922 5897 2914 5935C2893 6039 2894 6048 2933 6054C3009 6067 3097 6065 3112 6052M3217 6038C3214 6025 3206 5989 3199 5958C3192 5926 3183 5900 3178 5900C3169 5900 3167 6044 3177 6053C3180 6057 3192 6060 3203 6060C3218 6060 3221 6055 3217 6038M2848 5910C2873 5895 2880 5883 2881 5858C2881 5840 2884 5816 2886 5805C2889 5794 2894 5744 2897 5693C2903 5601 2903 5601 2876 5594C2861 5591 2844 5592 2839 5597C2834 5602 2825 5643 2820 5688C2815 5733 2802 5799 2790 5836C2779 5872 2770 5908 2770 5916C2770 5936 2810 5933 2848 5910M5700 5825C5700 5822 5654 5789 5598 5752C5541 5715 5464 5661 5426 5632C5355 5578 5340 5571 5340 5592C5340 5623 5394 5742 5414 5755C5425 5762 5488 5780 5553 5793C5618 5807 5674 5821 5677 5824C5685 5831 5700 5832 5700 5825M5684 5728C5667 5710 5636 5675 5614 5651C5593 5627 5550 5589 5520 5567C5490 5545 5417 5477 5357 5417C5298 5356 5248 5309 5246 5311C5241 5316 5275 5422 5293 5457C5312 5493 5468 5610 5654 5727C5718 5767 5721 5768 5684 5728M5282 5569C5267 5526 5253 5507 5209 5472C5069 5362 5064 5377 5191 5524C5248 5590 5295 5639 5297 5633C5299 5627 5292 5598 5282 5569M3238 5572C3250 5564 3260 5554 3260 5548C3260 5543 3279 5514 3303 5483C3326 5452 3358 5408 3374 5386C3389 5363 3415 5332 3430 5315C3445 5299 3475 5260 3495 5230C3516 5200 3536 5173 3539 5170C3542 5167 3560 5145 3578 5120C3639 5038 3764 4873 3814 4810C3847 4767 3859 4745 3852 4738C3846 4732 3803 4728 3753 4729C3631 4731 3601 4747 3498 4868C3385 4999 3301 5116 3195 5287C3145 5367 3033 5520 3009 5540C3006 5543 2998 5555 2992 5566C2981 5587 2981 5588 3098 5587C3184 5587 3221 5583 3238 5572M2970 5508C2984 5491 3007 5463 3021 5446C3035 5429 3062 5390 3082 5360C3140 5270 3188 5198 3230 5140C3251 5110 3269 5081 3269 5076C3270 5072 3282 5054 3296 5036C3496 4791 3544 4720 3510 4720C3489 4720 3182 5086 3078 5235C3055 5268 3016 5320 2991 5350C2935 5416 2897 5467 2881 5497C2871 5517 2873 5521 2897 5533C2930 5551 2939 5548 2970 5508M5220 5403C5219 5383 5180 5246 5173 5239C5161 5227 5005 5243 5006 5255C5006 5265 5028 5282 5146 5367C5204 5410 5220 5417 5220 5403M5155 5178C5159 5174 5154 5143 5145 5108C5121 5020 5109 4959 5108 4930C5108 4916 5104 4903 5100 4900C5095 4897 5079 4847 5064 4790C5049 4732 5032 4674 5025 4661C5013 4638 5012 4641 4996 4711C4971 4830 4951 4949 4944 5030C4941 5071 4932 5118 4924 5133C4899 5187 4910 5192 5036 5188C5098 5187 5152 5182 5155 5178M4916 4926C4931 4830 4931 4827 4912 4807C4878 4774 4870 4793 4874 4893C4876 4944 4879 5012 4880 5045C4882 5105 4882 5105 4891 5065C4896 5043 4907 4981 4916 4926M4959 4676C4978 4576 4976 4569 4921 4532C4893 4515 4869 4500 4866 4500C4855 4500 4860 4651 4871 4673C4888 4706 4933 4751 4941 4743C4944 4738 4952 4708 4959 4676M3932 4650C3935 4631 3948 4570 3959 4515C3981 4412 3986 4346 3972 4352C3968 4354 3914 4409 3851 4475C3686 4650 3670 4667 3670 4674C3670 4677 3709 4680 3756 4679C3803 4678 3844 4681 3848 4684C3851 4688 3870 4690 3890 4688C3921 4685 3926 4681 3932 4650M3710 4569C3710 4565 3747 4524 3793 4478C3838 4432 3897 4369 3923 4339L3972 4285L3949 4205C3937 4161 3923 4118 3919 4110C3898 4066 3875 3997 3864 3942C3863 3936 3852 3902 3841 3867C3830 3833 3813 3779 3804 3748C3795 3716 3784 3692 3780 3695C3776 3697 3767 3734 3761 3777C3754 3820 3742 3882 3735 3915C3728 3948 3716 4002 3709 4035C3703 4068 3691 4120 3684 4150C3677 4180 3666 4241 3661 4285C3655 4329 3642 4408 3631 4460C3609 4559 3606 4598 3616 4624C3621 4637 3629 4635 3666 4608C3690 4591 3710 4573 3710 4569M4806 4471C4791 4444 4697 4383 4660 4377C4652 4375 4639 4371 4633 4367C4626 4362 4620 4361 4620 4364C4620 4380 4738 4535 4773 4565L4815 4601L4818 4551C4820 4520 4815 4490 4806 4471M3554 4175C3561 3860 3572 3630 3584 3575C3597 3512 3609 3130 3598 3130C3594 3130 3573 3154 3551 3183C3529 3211 3471 3287 3421 3350C3371 3413 3318 3488 3304 3515C3289 3543 3267 3579 3255 3595C3218 3645 3219 3665 3261 3799C3408 4256 3521 4554 3541 4533C3544 4528 3551 4368 3554 4175M4965 4369C4953 4305 4938 4238 4932 4219C4879 4046 4849 3943 4835 3875C4826 3831 4809 3764 4797 3726C4775 3658 4775 3658 4771 3696C4765 3769 4815 4279 4837 4365C4855 4435 4861 4443 4926 4480C4960 4499 4977 4504 4981 4496C4985 4490 4978 4433 4965 4369M5118 4486C5133 4479 5162 4470 5182 4466C5203 4462 5222 4456 5224 4451C5231 4441 5192 4370 5160 4333C5130 4298 5113 4273 5101 4243C5089 4216 5073 4206 5065 4220C5056 4235 5041 4457 5047 4481C5053 4503 5080 4505 5118 4486M4784 4323C4781 4285 4777 4231 4776 4203C4776 4174 4772 4150 4769 4150C4765 4150 4759 4097 4756 4033C4745 3839 4732 3734 4714 3680C4707 3661 4673 3751 4650 3850C4640 3891 4625 3954 4617 3990C4609 4026 4594 4087 4585 4125C4549 4273 4547 4264 4639 4309C4684 4331 4733 4358 4748 4369C4763 4380 4779 4390 4783 4390C4788 4390 4788 4360 4784 4323M3645 4175C3655 4120 3668 4055 3675 4030C3692 3971 3724 3794 3745 3652C3760 3550 3760 3534 3747 3492C3738 3466 3723 3396 3712 3335C3693 3230 3674 3163 3666 3171C3664 3173 3659 3234 3657 3305C3651 3450 3644 3521 3631 3565C3615 3617 3602 4049 3610 4275C3612 4346 3618 4331 3645 4175M5016 4238C5019 4209 5023 4172 5025 4156C5028 4140 5025 4111 5018 4091C5004 4050 4913 3893 4898 3884C4886 3877 4897 3957 4915 4015C4922 4037 4942 4105 4960 4165C5002 4309 5000 4304 5006 4297C5010 4294 5014 4267 5016 4238M4101 4177C4177 4103 4240 4027 4240 4011C4240 4005 4244 4000 4249 4000C4254 4000 4277 3974 4301 3943C4325 3912 4356 3874 4370 3859C4443 3779 4496 3717 4500 3705C4503 3698 4536 3654 4574 3609C4644 3525 4670 3486 4670 3463C4670 3445 4580 3447 4460 3466C4408 3474 4318 3485 4260 3491C4202 3497 4106 3512 4046 3526C3986 3539 3928 3550 3917 3550C3906 3550 3881 3555 3863 3562C3835 3572 3830 3579 3830 3605C3830 3652 3871 3802 3941 4015C3947 4032 3965 4089 3982 4143C3999 4196 4019 4240 4026 4240C4032 4240 4067 4212 4101 4177M5040 3928C5040 3899 5045 3857 5049 3835C5054 3813 5061 3737 5065 3665C5069 3594 5073 3524 5075 3510C5091 3391 5092 3380 5077 3375C5065 3370 5007 3378 4835 3407C4798 3413 4780 3427 4780 3450C4780 3513 5002 3980 5032 3980C5036 3980 5040 3956 5040 3928M1233 3956C1237 3947 1231 3935 1220 3927C1201 3914 1057 3785 1019 3748C999 3729 966 3710 952 3710C937 3710 916 3799 916 3869C915 3934 915 3934 960 3942C1019 3953 1112 3964 1176 3968C1215 3970 1229 3967 1233 3956M1238 3798C1235 3725 1235 3725 1190 3719C1165 3715 1123 3709 1096 3705C1051 3697 1048 3698 1058 3716C1075 3748 1213 3870 1233 3870C1237 3870 1240 3837 1238 3798M1310 3773C1328 3696 1325 3672 1298 3683C1287 3687 1283 3712 1282 3781C1281 3886 1283 3885 1310 3773M3130 3642C3130 3633 3065 3569 3034 3549C3000 3527 2874 3413 2775 3315C2724 3266 2651 3195 2612 3158L2542 3090L2508 3138C2489 3164 2463 3203 2450 3225C2436 3247 2397 3305 2362 3354C2328 3403 2303 3447 2307 3451C2319 3461 2474 3503 2655 3545C2743 3565 2867 3594 2930 3610C3031 3635 3064 3642 3118 3649C3124 3649 3130 3646 3130 3642M3186 3548C3191 3524 3194 3498 3195 3490C3195 3482 3198 3471 3201 3465C3219 3435 3272 3174 3290 3030C3308 2884 3316 2896 3198 2904C3141 2908 3043 2913 2980 2916C2917 2918 2852 2922 2835 2925C2819 2927 2783 2932 2755 2935C2671 2944 2619 2963 2598 2992C2571 3031 2581 3053 2665 3136C2704 3175 2745 3218 2756 3231C2810 3297 3149 3590 3171 3590C3175 3590 3182 3571 3186 3548M519 3505C653 3415 643 3433 651 3269C656 3190 657 3124 655 3122C652 3119 560 3256 560 3265C560 3271 493 3418 476 3450C460 3480 439 3550 447 3550C450 3550 482 3530 519 3505M815 3530C805 3519 789 3508 779 3505C753 3496 720 3438 727 3412C730 3399 728 3390 721 3390C703 3390 696 3438 711 3457C727 3476 819 3550 827 3550C831 3550 825 3541 815 3530M3275 3473C3290 3448 3348 3370 3404 3301C3566 3101 3595 3059 3579 3048C3525 3012 3363 2963 3348 2978C3341 2985 3329 3040 3306 3175C3298 3219 3281 3300 3267 3355C3220 3543 3222 3565 3275 3473M535 3238C560 3185 601 3111 625 3074C650 3036 670 3001 670 2995C670 2988 660 2979 648 2973C635 2967 581 2941 527 2915C473 2889 427 2870 424 2873C409 2888 394 3178 399 3385L401 3515L445 3425C469 3376 509 3291 535 3238M3930 3475C4017 3463 4034 3460 4069 3449C4100 3439 4229 3421 4380 3406C4468 3397 4560 3378 4555 3370C4553 3366 4524 3352 4493 3340C4461 3327 4417 3309 4395 3300C4347 3279 4304 3265 4230 3246C4059 3202 3904 3153 3864 3132C3834 3116 3761 3090 3745 3090C3726 3090 3725 3143 3744 3224C3752 3258 3768 3332 3780 3390C3793 3448 3805 3498 3807 3502C3809 3506 3828 3503 3848 3496C3868 3488 3905 3479 3930 3475M2260 3426C2260 3418 2271 3403 2284 3393C2297 3383 2310 3364 2314 3352C2318 3340 2325 3330 2330 3330C2335 3330 2341 3322 2344 3312C2348 3302 2359 3284 2369 3273C2379 3262 2396 3238 2405 3220C2415 3201 2437 3166 2454 3141C2510 3061 2560 2973 2560 2956C2560 2936 2492 3012 2453 3074C2439 3097 2416 3127 2402 3142C2388 3157 2367 3185 2356 3204C2344 3223 2307 3280 2273 3330C2239 3381 2213 3427 2216 3431C2225 3446 2260 3441 2260 3426M2237 3310C2251 3285 2268 3260 2274 3255C2287 3242 2306 3213 2322 3180C2329 3166 2345 3145 2357 3133C2370 3121 2380 3108 2380 3105C2380 3101 2389 3085 2400 3070C2411 3054 2417 3039 2412 3037C2408 3034 2348 3024 2280 3016C2211 3007 2119 2993 2075 2985C2031 2977 1946 2967 1885 2962C1825 2957 1767 2950 1758 2946C1722 2930 1741 2966 1803 3030C1837 3066 1880 3113 1899 3135C1917 3157 1985 3228 2049 3293C2165 3411 2165 3411 2188 3383C2201 3368 2223 3335 2237 3310M734 3328C747 3205 752 3025 742 3035C728 3048 696 3324 704 3356C714 3396 727 3383 734 3328M4680 3323C4680 3313 4671 3290 4660 3272C4649 3254 4640 3233 4640 3226C4640 3218 4637 3210 4633 3208C4624 3205 4540 3038 4540 3025C4540 3020 4529 2994 4516 2966C4477 2881 4450 2821 4450 2816C4450 2804 4376 2653 4362 2638C4337 2609 4313 2617 4211 2684C3848 2925 3759 2987 3753 3006C3751 3012 3771 3027 3797 3040C3853 3066 4075 3150 4089 3150C4102 3150 4244 3194 4335 3226C4374 3240 4428 3258 4455 3266C4483 3274 4514 3285 4525 3291C4544 3300 4657 3337 4673 3339C4677 3340 4680 3332 4680 3323M4920 3324C4939 3321 4961 3315 4968 3311C4984 3302 4844 3269 4780 3267C4738 3265 4735 3267 4738 3289C4744 3343 4781 3350 4920 3324M2495 2945C2542 2890 2542 2890 2521 2847C2509 2823 2500 2798 2500 2790C2500 2783 2494 2769 2487 2761C2480 2752 2457 2700 2436 2645C2395 2538 2334 2420 2321 2420C2310 2420 2217 2489 2170 2531C2151 2549 2060 2635 1967 2723C1770 2912 1770 2911 1926 2916C1979 2919 2035 2923 2049 2926C2125 2943 2255 2962 2330 2966C2383 2970 2420 2977 2430 2986C2438 2994 2445 3000 2446 3000C2448 3000 2470 2975 2495 2945M3635 2950C3653 2914 3654 2914 3678 2941C3698 2961 3698 2961 3747 2908C3844 2805 3923 2714 3961 2665C3982 2638 4014 2598 4031 2577C4063 2539 4063 2539 4034 2546C4004 2553 3987 2558 3850 2608C3755 2643 3602 2690 3586 2690C3575 2690 3478 2786 3421 2854C3391 2890 3390 2893 3407 2904C3417 2911 3452 2924 3485 2934C3518 2944 3556 2958 3570 2966C3607 2986 3618 2983 3635 2950M703 2910C707 2894 717 2890 757 2889C818 2888 877 2883 915 2874C932 2871 1080 2866 1245 2864C1410 2862 1546 2861 1548 2860C1553 2860 1443 2751 1308 2622C1218 2536 1171 2498 1143 2490C1106 2479 1102 2480 1022 2529C977 2557 936 2580 932 2580C927 2580 903 2595 879 2613C822 2656 611 2772 538 2799C517 2807 500 2819 500 2826C500 2836 670 2928 691 2930C695 2930 700 2921 703 2910M2740 2885C2798 2882 3007 2871 3135 2865C3253 2859 3335 2844 3354 2824C3362 2816 3374 2810 3381 2810C3387 2810 3430 2772 3476 2725C3537 2662 3568 2638 3592 2634C3638 2626 3752 2593 3835 2564C3874 2550 3925 2533 3950 2526C4008 2510 4062 2481 4056 2471C4053 2467 4034 2458 4013 2451C3977 2439 3971 2441 3870 2489C3812 2516 3722 2551 3670 2565C3497 2613 3445 2638 3392 2695C3366 2723 3337 2756 3327 2769C3309 2792 3290 2789 3290 2764C3290 2751 3271 2750 3163 2755C3018 2762 2890 2792 2709 2864C2675 2878 2638 2822 2593 2691C2526 2499 2515 2471 2475 2395C2435 2319 2436 2334 2438 2035C2439 1944 2434 1813 2426 1735C2420 1678 2414 1661 2394 1643C2360 1612 2354 1614 2330 1659C2311 1696 2311 1707 2320 1832C2326 1905 2335 1999 2341 2041C2346 2083 2352 2178 2355 2251C2358 2338 2363 2384 2370 2382C2375 2381 2380 2385 2380 2390C2380 2401 2442 2550 2490 2655C2505 2688 2520 2726 2524 2738C2529 2751 2547 2793 2567 2832C2601 2902 2601 2902 2648 2895C2674 2891 2715 2887 2740 2885M1723 2833C1743 2801 1791 2697 1878 2500C1886 2481 1906 2437 1922 2403C1938 2369 1961 2312 1975 2277C1988 2241 2012 2183 2029 2149C2061 2081 2106 1965 2120 1915C2124 1899 2140 1852 2154 1811C2168 1770 2180 1723 2180 1707C2180 1681 2177 1678 2155 1684C2141 1688 2091 1714 2044 1743C1997 1771 1939 1806 1916 1820C1883 1839 1760 1939 1730 1970C1727 1973 1691 2001 1650 2032C1447 2184 1338 2269 1291 2313C1262 2339 1230 2366 1220 2373C1210 2380 1201 2397 1199 2410C1196 2431 1217 2456 1315 2550C1381 2613 1467 2694 1505 2732C1604 2827 1608 2830 1618 2830C1623 2830 1633 2836 1640 2844C1646 2852 1661 2861 1673 2863C1685 2865 1696 2868 1697 2869C1699 2869 1710 2853 1723 2833M3881 2852C3901 2837 3991 2781 4069 2735C4111 2710 4256 2614 4267 2603C4274 2597 4285 2589 4292 2587C4312 2578 4253 2533 4213 2525C4194 2522 4172 2516 4164 2513C4147 2507 4051 2604 3968 2715C3935 2759 3891 2812 3872 2833C3834 2872 3840 2883 3881 2852M1840 2784C1865 2764 1915 2718 1951 2682C2029 2602 2182 2462 2214 2440C2226 2432 2255 2410 2277 2391C2314 2359 2317 2354 2310 2321C2305 2301 2299 2227 2295 2155C2291 2084 2286 2022 2284 2018C2281 2013 2276 1970 2274 1922C2262 1710 2257 1689 2232 1735C2224 1752 2200 1812 2179 1870C2124 2026 2013 2300 1948 2440C1931 2476 1912 2519 1905 2535C1897 2552 1866 2621 1836 2689C1805 2757 1780 2815 1780 2816C1780 2827 1800 2816 1840 2784M2825 2780C3000 2729 3042 2721 3157 2715C3251 2711 3279 2712 3283 2722C3287 2731 3295 2728 3312 2710C3325 2696 3363 2661 3396 2632C3457 2580 3518 2553 3635 2530C3705 2516 3749 2500 3831 2458C3911 2418 3911 2418 3883 2401C3868 2392 3824 2378 3787 2371C3740 2362 3701 2346 3662 2320C3631 2299 3567 2265 3520 2244C3473 2224 3417 2195 3395 2180C3350 2149 3208 2080 3075 2024C3026 2003 2963 1972 2935 1955C2908 1938 2845 1902 2795 1875C2746 1849 2694 1820 2680 1811C2666 1801 2643 1789 2628 1782C2612 1776 2600 1766 2600 1760C2600 1754 2596 1751 2592 1754C2587 1757 2560 1748 2532 1735C2503 1722 2480 1714 2479 1718C2475 1759 2482 2264 2487 2290C2490 2309 2506 2352 2522 2385C2538 2418 2562 2474 2575 2510C2690 2832 2680 2813 2728 2804C2748 2800 2792 2789 2825 2780M1219 2318C1250 2294 1286 2265 1300 2253C1314 2240 1328 2230 1331 2230C1334 2230 1350 2219 1366 2205C1382 2191 1420 2163 1450 2143C1480 2122 1508 2100 1513 2093C1517 2087 1562 2051 1613 2014C1663 1977 1732 1923 1766 1893C1800 1864 1832 1840 1838 1840C1844 1840 1850 1836 1852 1831C1856 1820 1987 1730 1999 1730C2010 1730 2034 1701 2028 1695C2022 1689 1743 1755 1630 1790C1578 1806 1518 1822 1498 1825C1347 1846 1312 1883 1219 2118C1190 2191 1150 2323 1150 2347C1150 2367 1159 2363 1219 2318M1170 2098C1198 2020 1239 1930 1256 1910C1268 1896 1270 1890 1270 1871C1270 1867 1282 1850 1296 1834C1321 1808 1323 1800 1320 1730C1319 1689 1316 1639 1314 1620C1311 1601 1307 1565 1305 1540C1297 1470 1283 1391 1267 1320C1258 1284 1249 1210 1245 1155C1238 1048 1217 863 1200 765C1195 732 1190 702 1190 698C1190 693 1186 690 1181 690C1176 690 1173 727 1174 773C1176 908 1161 1363 1131 2060C1129 2095 1138 2160 1144 2160C1146 2160 1158 2132 1170 2098M1595 1731C1623 1725 1652 1717 1660 1713C1685 1703 1693 1701 1755 1686C1788 1679 1833 1668 1855 1662C1946 1637 2029 1620 2100 1614C2186 1606 2218 1597 2226 1575C2237 1548 2193 1496 2101 1425C2073 1403 2039 1375 2026 1364C2013 1352 1988 1335 1971 1325C1953 1316 1918 1289 1893 1264C1868 1240 1845 1220 1842 1220C1840 1220 1812 1198 1781 1172C1750 1146 1708 1113 1688 1100C1667 1086 1650 1072 1650 1068C1650 1063 1646 1060 1640 1060C1630 1060 1617 1050 1557 997C1502 950 1452 918 1441 924C1409 944 1381 1283 1376 1708C1376 1732 1381 1754 1388 1759C1400 1766 1499 1753 1595 1731M244 1748C266 1741 290 1729 297 1720C312 1702 353 1594 370 1530C377 1505 396 1450 412 1407C443 1325 443 1300 412 1300C373 1300 212 1395 139 1462L102 1495L121 1604C141 1717 159 1760 187 1760C195 1760 221 1755 244 1748M539 1648C554 1613 573 1567 580 1545C587 1523 601 1489 611 1468C630 1432 630 1432 581 1401C555 1384 528 1370 522 1370C516 1370 504 1396 495 1428C486 1459 473 1507 465 1534C456 1561 447 1606 444 1634C438 1682 440 1687 461 1697C502 1717 510 1712 539 1648M390 1690C395 1690 406 1655 416 1613C425 1570 437 1517 443 1495C449 1473 455 1448 456 1440C458 1432 462 1410 465 1392C473 1351 455 1357 446 1397C442 1413 429 1454 416 1490C395 1548 377 1604 355 1679C349 1699 351 1702 365 1697C374 1693 385 1690 390 1690M1349 1398C1350 1348 1353 1304 1355 1300C1357 1297 1361 1238 1365 1170C1369 1101 1376 1029 1381 1010C1399 941 1392 914 1319 773C1280 697 1244 631 1238 625C1228 615 1230 654 1250 805C1264 915 1279 1066 1286 1175C1290 1230 1297 1288 1302 1305C1306 1321 1315 1366 1320 1404C1329 1466 1336 1490 1344 1490C1346 1490 1348 1449 1349 1398M2373 1456C2388 1437 2400 1418 2400 1414C2400 1401 2326 1341 2317 1347C2312 1350 2311 1380 2315 1414C2326 1504 2331 1508 2373 1456M2225 1354C2176 1219 2152 1172 2129 1165C2118 1161 2048 1098 1972 1025C1897 952 1834 893 1832 894C1831 896 1847 924 1868 956C1889 989 1921 1038 1938 1065C1971 1116 2011 1167 2110 1288C2140 1325 2185 1382 2209 1414C2234 1447 2255 1469 2257 1464C2259 1458 2244 1409 2225 1354M188 1371C219 1350 271 1318 303 1300C334 1283 360 1266 360 1263C360 1256 339 1237 302 1211C248 1173 234 1183 174 1298C144 1354 120 1403 120 1405C120 1415 133 1409 188 1371M606 1345C568 1310 546 1300 556 1323C561 1336 619 1377 634 1379C639 1380 626 1364 606 1345M671 1323C671 1318 673 1302 675 1285C680 1252 700 977 700 945C700 928 697 930 680 955C669 971 658 998 654 1015C651 1031 642 1056 634 1070C621 1094 575 1228 575 1242C575 1246 592 1267 613 1290C650 1328 669 1339 671 1323M446 1239C449 1233 420 1197 380 1157C321 1100 305 1088 291 1097C264 1114 267 1138 297 1154C312 1162 345 1187 370 1209C417 1251 434 1258 446 1239M563 1168C576 1139 597 1081 610 1040C624 999 637 961 641 955C654 936 698 815 704 783C707 765 713 735 716 718C724 676 711 688 700 732C687 785 595 1042 577 1077C567 1095 560 1117 560 1127C560 1137 553 1154 545 1164C531 1183 524 1220 535 1220C537 1220 550 1196 563 1168M2254 1154C2253 1138 2251 1074 2250 1012L2248 900L2182 861C2099 813 2029 778 2025 782C2024 784 2042 826 2065 875C2139 1029 2170 1099 2170 1109C2170 1126 2232 1191 2244 1187C2250 1185 2254 1170 2254 1154M505 1150C526 1110 546 1061 573 979C587 936 603 894 609 884C618 865 629 835 674 690C696 622 697 614 682 603C673 596 659 590 651 590C642 589 620 581 601 571C567 553 567 553 521 578C456 614 374 675 356 702C347 714 340 745 340 769L340 814L379 771C437 707 452 715 466 820C472 867 475 909 473 913C464 928 405 908 384 882C370 865 358 859 346 863C330 869 329 880 335 962C342 1055 342 1055 404 1118C437 1152 471 1179 478 1178C485 1176 497 1164 505 1150M1856 1046C1823 988 1768 902 1678 767C1582 625 1475 492 1465 502C1458 509 1447 602 1436 741C1431 817 1431 817 1471 829C1567 858 1638 901 1758 1004C1825 1062 1883 1110 1886 1110C1889 1110 1876 1081 1856 1046M1705 1043C1650 994 1609 964 1585 957C1563 949 1618 1001 1690 1055C1747 1098 1757 1090 1705 1043M1036 1024C1043 1003 1060 945 1075 895C1089 846 1103 797 1106 788C1111 776 1103 769 1078 761C1014 742 961 720 928 700C902 684 830 671 830 683C830 695 871 793 884 811C893 824 900 841 900 849C900 874 1003 1071 1014 1067C1019 1065 1029 1046 1036 1024M2089 1018C2078 989 2039 908 2003 839C1940 719 1934 711 1881 680C1850 661 1798 630 1765 610C1703 572 1620 536 1620 546C1620 556 1661 611 1715 675C1817 796 2085 1070 2102 1070C2106 1070 2100 1046 2089 1018M1405 713C1410 670 1415 589 1415 534L1417 433L1356 425C1245 412 1216 413 1212 432C1208 450 1252 558 1281 600C1290 614 1317 662 1341 708C1365 753 1387 790 1391 790C1394 790 1401 755 1405 713M1114 719C1105 704 1010 660 986 660C955 660 979 676 1050 704C1086 717 1116 729 1118 729C1120 730 1118 725 1114 719M1134 587C1138 544 1141 505 1141 502C1146 467 1136 427 1118 406C1098 384 1082 379 1001 370C950 364 900 362 891 365C874 370 806 556 815 571C818 575 869 590 928 604C987 617 1055 638 1080 649C1104 660 1125 668 1126 667C1127 666 1131 630 1134 587M1880 602C1880 597 1869 570 1855 542C1841 513 1830 486 1830 481C1830 476 1814 449 1795 420C1776 391 1760 364 1760 359C1760 343 1734 349 1699 373C1680 385 1646 404 1623 414C1599 425 1580 437 1580 441C1580 452 1650 496 1704 520C1726 529 1770 554 1800 574C1853 609 1880 618 1880 602M815 450C824 420 834 388 837 380C841 370 839 368 832 375C817 389 762 548 769 555C776 562 791 526 815 450M762 439C775 396 775 392 759 381C749 375 726 347 707 318C669 260 594 172 588 180C586 183 587 252 590 335L595 485L660 511C725 537 725 537 737 511C743 497 755 464 762 439M1595 369C1600 364 1612 360 1621 360C1631 360 1652 349 1667 335C1695 311 1695 311 1660 310C1630 310 1476 339 1429 354C1421 356 1402 361 1385 365C1359 371 1357 373 1373 382C1383 387 1408 389 1428 386C1451 382 1474 385 1490 394C1511 406 1520 406 1550 394C1569 386 1589 375 1595 369M1209 308C1223 295 1242 280 1250 276C1300 253 1382 194 1425 150L1465 109L1420 113C1395 116 1344 125 1305 134C1267 142 1224 151 1210 154C1196 156 1160 167 1130 179C1100 190 1050 204 1020 210C963 221 860 265 860 279C860 284 913 295 978 304C1042 314 1106 325 1120 329C1158 341 1181 335 1209 308" id="ShapeObject_1256682927561" stroke="none" style="fill:#000000;fill-opacity:1" transform="matrix(0.07206800580024719,0,0,0.07206800580024719,1.45,173.95)" opacity="1"/>
      <path d="M196 1666M196 1666C154 1627 153 1618 180 1564C233 1459 252 1468 249 1596C248 1648 243 1693 239 1696C235 1698 216 1685 196 1666" id="ShapeObject_1256682927563" stroke="none" style="fill:#000000;fill-opacity:1" transform="matrix(0.052164070308208466,0,0,0.052164070308208466,2.7,207.15)" opacity="1"/>
    </g>
  </g>
</svg>