<svg version="1.1" width="422" height="514" viewBox="0 0 422 514" xmlns:xlink="http://www.w3.org/1999/xlink" xmlns="http://www.w3.org/2000/svg">
  <desc>Created with Raven (http://www.aviary.com)</desc>
  <defs/>
  <g id="Layer_1256837442410" opacity="1">
    <path d="M2440 5082M2440 5082C2440 5078 2385 5075 2318 5076C2250 5076 2190 5072 2183 5067C2175 5062 2151 5062 2120 5069C2033 5088 1978 5082 1999 5056C2024 5025 2039 4863 2019 4843C2011 4835 2014 4821 2029 4792C2041 4769 2050 4742 2050 4731C2050 4718 2062 4704 2083 4694C2100 4685 2147 4656 2185 4631C2224 4606 2271 4576 2291 4565C2332 4542 2434 4475 2458 4454C2486 4431 2562 4376 2580 4365C2590 4359 2621 4332 2649 4305C2678 4277 2705 4254 2710 4252C2719 4249 2686 4147 2670 4125C2666 4120 2659 4104 2655 4090C2651 4076 2612 3993 2569 3904C2525 3816 2490 3739 2490 3733C2490 3705 2452 3692 2345 3686C2202 3677 1994 3652 1950 3637C1931 3631 1877 3626 1830 3626C1736 3625 1748 3631 1587 3508C1546 3477 1497 3444 1478 3434C1443 3418 1443 3418 1279 3549C1046 3734 968 3801 974 3807C981 3814 1281 3814 1305 3807C1328 3799 1396 3700 1431 3623C1453 3574 1456 3571 1475 3584C1487 3592 1503 3599 1511 3601C1519 3603 1557 3638 1595 3678L1664 3752L1610 3798C1543 3856 1445 3954 1404 4005C1385 4030 1369 4041 1361 4036C1352 4030 1352 4025 1361 4014C1371 4002 1370 3996 1357 3982C1341 3967 1340 3969 1340 4008L1340 4050L1233 4050C1173 4050 1096 4055 1061 4060C1027 4066 977 4071 951 4071C926 4071 866 4076 818 4081C739 4089 706 4085 672 4064C670 4063 660 4022 649 3974C638 3925 627 3875 624 3864C620 3848 634 3822 682 3761C716 3716 763 3654 786 3622C808 3591 854 3528 888 3482C943 3407 948 3397 939 3372C933 3358 924 3340 918 3333C912 3326 910 3320 914 3320C917 3320 911 3303 900 3283C889 3262 880 3238 880 3230C880 3215 725 2901 712 2888C704 2880 463 2893 454 2902C451 2906 444 2961 439 3025C434 3089 426 3149 421 3158C414 3171 397 3175 356 3176C326 3176 295 3182 287 3189C275 3199 259 3190 196 3140C82 3048 84 3051 76 2903C71 2813 60 2740 38 2655C-7 2477 -6 2489 33 2431C93 2344 103 2307 92 2204C86 2155 83 2113 86 2111C88 2109 117 2117 151 2130C186 2142 215 2148 219 2143C281 2051 386 1920 405 1912C441 1895 866 1902 883 1919C900 1936 873 1955 801 1976C732 1996 668 2028 674 2039C677 2044 719 2050 767 2054C816 2058 886 2068 923 2076C961 2084 1003 2090 1017 2090C1037 2090 1067 2115 1146 2197C1257 2313 1252 2310 1420 2351C1532 2378 1600 2400 1600 2410C1600 2414 1609 2420 1620 2423C1661 2434 1638 2449 1573 2455C1476 2464 1412 2479 1406 2496C1399 2513 1407 2536 1434 2575C1486 2650 1473 2646 1652 2644C1893 2642 2035 2631 2129 2608C2175 2597 2260 2586 2319 2584C2377 2582 2488 2577 2565 2572C2642 2567 2709 2566 2713 2568C2717 2570 2714 2583 2705 2596C2685 2627 2692 2626 2727 2594C2754 2569 2754 2569 2798 2617C2823 2643 2854 2681 2868 2700C2883 2719 2918 2760 2948 2790C3001 2845 3001 2845 3023 2820C3055 2785 3123 2740 3212 2694C3255 2673 3290 2649 3290 2643C3290 2604 3355 2658 3445 2770C3475 2808 3500 2842 3500 2846C3500 2849 3539 2897 3586 2952L3673 3051L3667 3148C3664 3201 3656 3277 3650 3317C3640 3381 3641 3397 3660 3467C3689 3573 3732 3694 3743 3702C3749 3705 3754 3720 3756 3735C3758 3754 3754 3764 3741 3767C3724 3771 3661 3877 3601 4002C3575 4058 3578 4067 3652 4149C3679 4178 3715 4223 3732 4249C3749 4274 3773 4304 3784 4316C3796 4327 3823 4358 3845 4384C3867 4410 3895 4436 3908 4441C3935 4452 3932 4476 3904 4473C3802 4463 3698 4450 3691 4445C3686 4442 3679 4425 3675 4407C3665 4356 3609 4189 3588 4148C3555 4081 3548 4095 3524 4275C3508 4387 3487 4578 3471 4750C3459 4874 3429 5000 3412 5000C3398 5000 3360 4920 3360 4891C3360 4882 3356 4870 3351 4864C3347 4859 3332 4824 3319 4787C3306 4749 3288 4714 3278 4709C3254 4696 3255 4674 3280 4653C3291 4643 3300 4632 3300 4627C3300 4622 3325 4566 3356 4502C3406 4399 3413 4378 3411 4330C3409 4274 3374 4047 3363 4020C3354 3997 3351 3980 3345 3913C3343 3879 3336 3832 3331 3808C3326 3784 3319 3729 3315 3685C3312 3641 3307 3587 3305 3565C3302 3543 3298 3509 3296 3490C3294 3471 3287 3437 3282 3415C3276 3393 3268 3353 3265 3327C3258 3262 3237 3180 3204 3087C3189 3043 3186 3041 3174 3058C3167 3069 3154 3115 3145 3161C3088 3469 3080 3505 3066 3516C3057 3522 3029 3572 3004 3626C2957 3725 2957 3725 2973 3800C2981 3841 2995 3904 3005 3940C3098 4303 3096 4292 3070 4309C3056 4318 3025 4343 2999 4365C2973 4387 2924 4427 2889 4455C2854 4482 2816 4513 2805 4523C2794 4534 2765 4556 2740 4573C2630 4649 2506 4760 2483 4804C2472 4825 2469 4860 2471 4949C2473 5013 2471 5071 2467 5078C2458 5091 2440 5094 2440 5082M2145 5038C2193 5025 2191 5029 2194 4935C2195 4907 2198 4880 2202 4875C2211 4859 2221 4810 2215 4810C2206 4810 2067 4849 2064 4853C2059 4858 2041 4996 2040 5028C2040 5046 2045 5050 2070 5050C2086 5050 2120 5045 2145 5038M2373 5036C2381 5028 2393 4990 2400 4953C2406 4916 2414 4877 2417 4868C2420 4854 2415 4850 2395 4850C2366 4850 2273 4875 2251 4889C2237 4898 2221 4964 2220 5018C2220 5050 2220 5050 2289 5050C2336 5050 2363 5045 2373 5036M3435 4833C3442 4771 3442 4771 3394 4757C3367 4749 3343 4744 3342 4745C3338 4748 3389 4918 3398 4934C3407 4951 3429 4894 3435 4833M2364 4822C2375 4816 2315 4792 2284 4791C2265 4790 2240 4824 2240 4850C2240 4858 2344 4835 2364 4822M2151 4799C2170 4792 2189 4784 2194 4779C2203 4771 2121 4730 2095 4730C2081 4730 2057 4787 2066 4801C2073 4813 2110 4812 2151 4799M2503 4680C2535 4622 2583 4541 2609 4500C2660 4421 2703 4340 2698 4334C2692 4329 2516 4502 2464 4565C2437 4597 2391 4651 2362 4684C2333 4716 2311 4748 2313 4754C2317 4767 2395 4790 2425 4787C2439 4786 2462 4755 2503 4680M2304 4703C2364 4643 2388 4610 2371 4610C2365 4610 2323 4627 2277 4648C2232 4670 2182 4690 2167 4694C2152 4697 2142 4705 2145 4711C2152 4722 2219 4757 2236 4759C2243 4760 2273 4735 2304 4703M3430 4593C3419 4464 3415 4441 3406 4451C3398 4461 3322 4637 3317 4657C3313 4675 3320 4684 3346 4701C3380 4721 3431 4740 3439 4734C3441 4732 3437 4669 3430 4593M2588 4663C2608 4647 2631 4629 2639 4622C2647 4614 2669 4598 2689 4585C2709 4573 2752 4539 2784 4510C2817 4482 2868 4440 2899 4417C2963 4370 3020 4319 3020 4309C3020 4299 2998 4292 2916 4275C2799 4250 2798 4251 2751 4326C2729 4362 2710 4393 2710 4396C2710 4398 2686 4437 2657 4483C2599 4572 2540 4674 2540 4684C2540 4695 2551 4690 2588 4663M2312 4601C2336 4590 2374 4574 2398 4564C2426 4553 2460 4525 2493 4486C2522 4453 2538 4430 2530 4435C2498 4454 2275 4603 2266 4611C2251 4625 2266 4622 2312 4601M3479 4463C3508 4228 3507 4221 3465 4336C3442 4397 3440 4414 3445 4488C3449 4533 3455 4570 3459 4570C3463 4570 3472 4522 3479 4463M3818 4400C3792 4364 3777 4362 3756 4392C3732 4426 3736 4430 3790 4430C3841 4430 3841 4430 3818 4400M3739 4370C3761 4339 3761 4339 3713 4273C3687 4236 3662 4201 3658 4196C3639 4168 3642 4206 3664 4276C3677 4320 3691 4365 3695 4378C3703 4407 3712 4406 3739 4370M3484 4204C3534 4069 3531 4052 3458 4024C3426 4012 3400 4005 3399 4008C3396 4023 3402 4070 3415 4155C3423 4205 3431 4262 3432 4282C3433 4303 3437 4317 3440 4312C3444 4308 3464 4259 3484 4204M3050 4264C3050 4238 3025 4170 3015 4170C3003 4170 2960 4184 2896 4209C2880 4215 2870 4223 2874 4227C2877 4231 2915 4241 2958 4251C3049 4271 3050 4272 3050 4264M2900 4174C3030 4133 3021 4145 2999 4043C2972 3913 2938 3798 2930 3807C2927 3811 2900 3869 2872 3935C2770 4173 2753 4235 2797 4211C2807 4205 2853 4189 2900 4174M2764 4053C2791 3925 2799 3874 2805 3790C2807 3749 2814 3661 2820 3595C2837 3390 2842 3408 2754 3365C2713 3345 2677 3330 2674 3332C2672 3335 2675 3372 2680 3416C2689 3489 2701 3632 2716 3840C2725 3977 2727 4011 2729 4078C2729 4112 2733 4140 2738 4140C2742 4140 2754 4101 2764 4053M2696 3948C2692 3865 2687 3794 2685 3791C2684 3788 2679 3733 2676 3670C2673 3607 2668 3545 2666 3533C2663 3522 2658 3490 2655 3463C2643 3383 2635 3379 2606 3442C2592 3473 2580 3501 2580 3504C2580 3507 2564 3537 2544 3571C2507 3633 2507 3633 2519 3697C2526 3736 2556 3814 2596 3898C2632 3973 2668 4050 2676 4068C2684 4085 2693 4100 2697 4100C2700 4100 2700 4032 2696 3948M763 3965C808 3905 808 3905 778 3897C762 3893 729 3890 706 3892L664 3895L678 3974C694 4062 690 4063 763 3965M1061 4036C1069 4033 1127 4029 1190 4026C1253 4023 1307 4021 1309 4021C1315 4020 1303 3929 1295 3922C1291 3918 1248 3916 1200 3916C1118 3918 1109 3920 1073 3948C1052 3964 1017 3983 995 3990C916 4013 870 4033 870 4043C870 4053 1029 4047 1061 4036M816 4014C849 3999 909 3975 950 3959L1025 3931L975 3928C820 3920 826 3918 778 3984C753 4019 744 4040 754 4040C756 4040 784 4028 816 4014M2873 3870C2883 3845 2896 3816 2901 3805C2933 3734 2932 3731 2879 3528C2866 3477 2850 3480 2850 3533C2850 3556 2845 3622 2840 3680C2820 3878 2808 3995 2804 4010C2798 4030 2851 3925 2873 3870M3541 4013C3542 4008 3544 3869 3546 3703C3550 3403 3543 3339 3521 3458C3515 3489 3503 3538 3495 3565C3467 3663 3418 3954 3427 3969C3432 3976 3456 3991 3480 4000C3533 4021 3540 4022 3541 4013M1430 3935C1462 3901 1463 3901 1446 3875C1432 3853 1423 3849 1402 3855C1353 3867 1335 3917 1367 3952C1389 3976 1391 3975 1430 3935M3654 3850C3667 3825 3685 3791 3695 3774C3712 3746 3713 3738 3701 3699C3678 3625 3637 3520 3632 3524C3630 3527 3624 3588 3620 3662C3615 3735 3608 3827 3605 3865C3599 3931 3600 3934 3615 3915C3624 3904 3642 3875 3654 3850M1228 3889C1267 3891 1270 3889 1270 3865C1270 3840 1270 3840 1089 3843C923 3845 907 3847 894 3865C881 3882 882 3885 897 3892C907 3897 976 3897 1050 3894C1124 3890 1204 3888 1228 3889M1386 3797C1397 3762 1381 3768 1354 3809C1340 3832 1321 3850 1314 3850C1305 3850 1300 3861 1300 3878C1301 3905 1301 3904 1340 3860C1362 3835 1382 3807 1386 3797M1546 3813C1542 3809 1477 3831 1466 3841C1461 3846 1462 3856 1470 3865C1482 3879 1487 3877 1516 3849C1535 3831 1548 3815 1546 3813M875 3738C896 3665 921 3571 931 3530L948 3455L913 3495C845 3572 661 3822 657 3843C655 3854 708 3863 805 3868C836 3870 836 3870 875 3738M975 3755C1008 3727 1055 3689 1080 3670C1105 3651 1141 3622 1161 3605C1181 3589 1247 3535 1309 3485C1370 3436 1420 3393 1420 3389C1420 3379 1303 3207 1278 3180C1265 3166 1232 3124 1205 3085C1178 3047 1155 3013 1153 3011C1145 3000 1126 3036 1069 3175C1035 3258 1006 3339 1005 3355C1004 3372 981 3455 955 3540C896 3734 880 3790 880 3814C880 3835 879 3836 975 3755M3425 3458C3434 3371 3438 3304 3433 3295C3421 3274 3248 3089 3244 3093C3242 3095 3245 3112 3250 3131C3274 3214 3322 3472 3331 3569C3336 3627 3345 3704 3350 3740C3355 3776 3360 3810 3361 3815C3364 3843 3410 3586 3425 3458M1554 3780C1590 3768 1620 3756 1620 3752C1620 3741 1531 3655 1526 3661C1521 3666 1460 3792 1460 3797C1460 3805 1493 3799 1554 3780M3446 3640C3460 3582 3474 3522 3476 3505C3479 3489 3485 3459 3490 3440C3495 3421 3501 3371 3505 3330C3511 3255 3511 3255 3490 3295C3478 3318 3465 3370 3459 3420C3454 3467 3442 3550 3433 3605C3419 3696 3405 3829 3416 3770C3419 3756 3433 3698 3446 3640M3604 3439C3607 3425 3606 3403 3603 3391C3589 3335 3580 3406 3582 3575L3583 3755L3591 3610C3595 3530 3601 3453 3604 3439M1480 3638C1480 3633 1476 3630 1470 3630C1461 3630 1430 3681 1430 3697C1430 3707 1479 3648 1480 3638M2989 3592C3006 3554 3020 3519 3020 3514C3020 3504 2957 3464 2918 3448C2894 3438 2894 3472 2920 3574C2931 3617 2940 3654 2940 3656C2940 3658 2944 3660 2949 3660C2953 3660 2971 3629 2989 3592M2330 3624C2305 3609 2247 3580 2200 3558C2153 3536 2104 3510 2090 3500C2052 3474 1971 3430 1959 3430C1950 3430 1890 3551 1890 3571C1890 3589 1952 3610 2051 3624C2156 3639 2191 3643 2310 3648L2375 3651L2330 3624M2464 3625C2463 3602 2451 3499 2444 3452C2441 3434 2424 3375 2407 3322L2375 3225L2316 3222C2241 3218 2136 3234 2064 3261C2020 3278 2005 3289 1995 3314C1965 3388 1962 3382 2062 3443C2113 3474 2184 3512 2220 3529C2283 3559 2375 3609 2415 3637C2442 3655 2465 3649 2464 3625M1793 3563C1831 3470 1850 3421 1850 3415C1850 3403 1569 3417 1557 3429C1548 3438 1548 3443 1560 3450C1568 3455 1615 3490 1664 3529C1712 3568 1758 3600 1765 3600C1771 3600 1784 3583 1793 3563M1879 3519C1923 3422 1970 3304 1970 3290C1970 3264 1947 3289 1926 3336C1915 3363 1895 3402 1883 3421C1870 3441 1849 3487 1835 3523C1812 3585 1811 3590 1828 3590C1841 3590 1856 3569 1879 3519M2555 3492C2575 3449 2601 3396 2612 3373C2623 3350 2630 3325 2627 3318C2621 3302 2460 3230 2431 3230C2409 3230 2410 3233 2441 3338C2451 3373 2465 3432 2470 3468C2488 3586 2490 3592 2505 3580C2513 3573 2535 3534 2555 3492M3074 3394C3084 3352 3096 3290 3101 3256C3112 3174 3130 3069 3136 3048C3144 3020 3111 3026 3054 3061C2986 3104 2900 3179 2900 3195C2900 3233 3024 3470 3044 3470C3051 3470 3064 3438 3074 3394M2970 3425C2970 3410 2898 3280 2890 3280C2879 3280 2867 3339 2872 3366C2876 3389 2970 3445 2970 3425M1836 3385C1872 3380 1879 3374 1893 3342C1926 3264 1926 3263 1868 3234C1839 3219 1804 3204 1790 3200C1776 3195 1727 3178 1680 3161C1633 3144 1587 3130 1578 3130C1559 3130 1540 3168 1494 3298C1473 3357 1468 3383 1477 3388C1489 3396 1771 3393 1836 3385M2849 3278C2850 3250 2845 3230 2840 3230C2828 3230 2720 3297 2720 3305C2720 3307 2746 3323 2778 3339C2835 3368 2835 3368 2842 3347C2845 3335 2848 3304 2849 3278M1491 3235C1513 3176 1529 3126 1528 3125C1526 3124 1503 3115 1475 3105C1448 3095 1400 3075 1370 3060C1298 3025 1202 2994 1194 3003C1186 3011 1222 3064 1309 3176C1340 3215 1381 3273 1399 3304C1419 3336 1438 3356 1443 3351C1447 3347 1469 3294 1491 3235M966 3124C968 3020 972 2925 975 2913C978 2901 976 2880 970 2866C963 2846 954 2840 931 2840C883 2840 750 2872 750 2884C750 2889 774 2942 804 3000C834 3059 875 3149 896 3201C932 3293 949 3325 957 3316C959 3314 963 3227 966 3124M3639 3153C3641 3083 3628 3076 3597 3129C3576 3165 3576 3172 3597 3242L3615 3299L3626 3257C3632 3234 3638 3187 3639 3153M2728 3259C2810 3214 2819 3204 2784 3196C2768 3193 2724 3192 2685 3194C2647 3197 2589 3199 2558 3199C2526 3200 2500 3204 2500 3209C2500 3216 2644 3288 2663 3289C2667 3290 2697 3276 2728 3259M1074 3098C1094 3045 1110 2996 1110 2990C1110 2979 1021 2890 1010 2890C998 2890 990 2989 990 3140C990 3285 990 3285 1014 3240C1027 3215 1054 3151 1074 3098M3481 3238C3508 3205 3505 3196 3458 3170C3434 3157 3399 3135 3380 3120C3361 3106 3328 3084 3307 3072C3272 3052 3270 3051 3280 3070C3286 3080 3314 3115 3343 3147C3373 3179 3407 3217 3420 3233C3449 3266 3456 3266 3481 3238M2085 3224C2135 3207 2200 3195 2258 3191L2351 3185L2375 3114C2388 3074 2410 3023 2423 2999C2437 2975 2458 2926 2471 2890C2490 2837 2506 2814 2563 2761C2600 2726 2641 2683 2652 2667C2673 2638 2673 2638 2650 2650C2637 2657 2609 2679 2586 2700C2563 2721 2523 2751 2497 2766C2438 2801 2428 2818 2349 3023C2325 3085 2300 3135 2289 3140C2279 3146 2229 3153 2178 3156C2126 3159 2060 3170 2028 3181C1970 3201 1970 3201 1878 3157C1701 3074 1671 3061 1617 3045C1552 3026 1554 3032 1551 2815C1550 2739 1548 2674 1546 2673C1544 2671 1535 2672 1526 2676C1490 2690 1494 2770 1542 2976C1567 3088 1566 3086 1704 3135C1756 3153 1839 3186 1887 3208C1935 3230 1982 3248 1990 3249C1998 3249 2041 3238 2085 3224M2793 3160C2842 3160 2842 3160 2837 3118C2818 2966 2760 2646 2750 2636C2743 2629 2703 2662 2625 2742C2562 2806 2510 2864 2510 2870C2510 2876 2488 2929 2461 2988C2434 3047 2408 3113 2405 3134L2397 3173L2571 3167C2667 3163 2767 3160 2793 3160M2130 3129C2288 3115 2275 3125 2343 2959C2375 2880 2404 2807 2407 2797C2410 2787 2434 2767 2460 2752C2486 2737 2532 2703 2563 2676C2594 2650 2627 2621 2637 2613C2653 2600 2638 2599 2510 2605C2430 2609 2327 2613 2280 2615C2228 2616 2168 2625 2125 2638C2076 2653 2029 2659 1973 2659C1927 2659 1887 2661 1882 2664C1877 2667 1808 2671 1729 2674L1585 2678L1579 2756C1573 2839 1584 2988 1597 3001C1602 3005 1652 3026 1710 3048C1768 3070 1850 3104 1893 3123C1961 3153 1976 3157 2003 3148C2021 3142 2078 3134 2130 3129M3570 3116C3586 3091 3600 3069 3600 3066C3600 3056 3547 3033 3435 2995C3375 2975 3300 2947 3268 2934C3237 2921 3193 2906 3170 2901C3112 2888 3127 2902 3278 3008C3440 3120 3501 3158 3522 3159C3531 3160 3553 3140 3570 3116M278 3019L275 2888L220 2869C190 2859 151 2850 133 2850C100 2850 100 2850 100 2898C102 3015 113 3036 220 3123C278 3170 281 3165 278 3019M401 3105C405 3088 410 3036 413 2988C419 2900 419 2900 380 2900L340 2900L340 3014C340 3130 344 3141 379 3137C387 3136 397 3121 401 3105M2912 3128C2934 3107 3042 3034 3079 3016L3112 2998L3059 2947C3029 2918 2998 2895 2990 2895C2982 2895 2975 2887 2975 2878C2975 2860 2801 2655 2793 2664C2787 2669 2803 2766 2847 3003C2872 3141 2881 3157 2912 3128M1530 3071C1530 3061 1521 3008 1511 2954C1500 2899 1486 2822 1480 2783C1473 2743 1466 2710 1463 2710C1457 2710 1338 2803 1237 2887C1206 2913 1181 2939 1183 2945C1185 2950 1231 2973 1286 2995C1340 3018 1401 3043 1420 3052C1459 3069 1511 3088 1523 3089C1527 3090 1530 3081 1530 3071M3561 2973C3544 2952 3502 2897 3468 2850C3391 2743 3331 2680 3307 2680C3268 2680 3060 2806 3060 2829C3060 2833 3102 2849 3153 2864C3203 2879 3254 2895 3265 2901C3303 2919 3555 3008 3573 3009C3589 3010 3587 3004 3561 2973M1141 2933C1150 2923 1203 2879 1260 2835C1433 2701 1470 2659 1372 2709C1352 2719 1304 2737 1265 2749C1227 2761 1186 2775 1175 2780C1057 2831 1030 2844 1030 2852C1030 2861 1110 2948 1120 2949C1123 2950 1133 2942 1141 2933M445 2798C455 2769 473 2722 486 2693C516 2627 516 2621 485 2658C471 2675 460 2691 460 2695C460 2699 452 2714 441 2728C421 2757 380 2828 380 2835C380 2838 401 2845 422 2849C425 2849 436 2826 445 2798M615 2830C682 2830 684 2823 647 2739C600 2634 580 2599 570 2605C566 2608 554 2632 544 2658C534 2684 521 2712 515 2720C501 2738 490 2764 480 2809C472 2843 472 2843 523 2836C552 2833 593 2830 615 2830M388 2765C411 2729 430 2698 430 2694C430 2691 457 2651 490 2605C579 2481 571 2415 473 2476C434 2501 424 2514 404 2570C382 2629 330 2809 330 2824C330 2843 350 2822 388 2765M818 2804C863 2795 900 2782 900 2776C900 2751 847 2687 750 2596C709 2557 651 2500 622 2470C578 2425 569 2420 575 2440C578 2454 584 2488 589 2515C593 2543 612 2597 632 2635C651 2674 673 2721 680 2740C696 2781 720 2820 729 2820C732 2820 772 2813 818 2804M266 2748C263 2713 258 2645 254 2595C248 2519 243 2499 219 2464C191 2422 126 2360 111 2360C107 2360 87 2391 68 2428C35 2490 33 2498 44 2525C51 2542 64 2561 73 2569C88 2581 90 2578 90 2537C90 2498 94 2488 120 2470C149 2449 149 2449 159 2487C175 2550 175 2554 161 2588C146 2623 140 2626 122 2608C100 2586 109 2614 138 2656C183 2723 254 2810 264 2810C268 2810 270 2782 266 2748M1085 2779L1125 2761L1085 2767C1031 2775 1000 2787 1000 2800C1000 2813 1026 2807 1085 2779M194 2778C190 2772 158 2729 123 2682C70 2610 60 2601 60 2623C60 2638 66 2667 74 2687C82 2708 90 2734 92 2745C94 2758 108 2768 135 2776C187 2792 203 2793 194 2778M950 2744C950 2730 943 2689 935 2652C927 2615 919 2572 918 2556C915 2529 907 2524 770 2469C690 2437 621 2411 616 2413C611 2415 664 2471 733 2539C801 2606 875 2686 896 2716C918 2745 938 2770 943 2770C947 2770 950 2759 950 2744M1160 2727C1223 2713 1293 2694 1315 2685C1349 2670 1352 2667 1336 2658C1312 2645 1201 2613 1154 2607C1132 2604 1089 2590 1057 2576C1025 2562 988 2550 975 2550C944 2550 944 2563 967 2678C986 2775 965 2770 1160 2727M335 2617C350 2574 360 2537 357 2534C355 2531 337 2533 319 2538C286 2546 285 2548 282 2601C280 2631 282 2671 285 2690C293 2731 297 2725 335 2617M1334 2583C1296 2558 1243 2518 1215 2495C1188 2472 1143 2438 1115 2420C1088 2401 1054 2376 1040 2363C1026 2350 986 2323 950 2302C914 2281 860 2248 830 2229C789 2203 768 2195 747 2199C719 2205 719 2205 780 2273C813 2311 858 2365 879 2393C935 2468 982 2514 1026 2535C1068 2555 1339 2628 1379 2629C1397 2630 1385 2619 1334 2583M1398 2560C1384 2536 1370 2522 1362 2525C1354 2528 1341 2530 1332 2530C1322 2530 1337 2545 1364 2565C1391 2584 1415 2600 1417 2600C1419 2600 1410 2582 1398 2560M370 2490C370 2484 362 2476 353 2473C343 2469 320 2455 303 2442C285 2429 270 2422 270 2428C270 2436 355 2500 367 2500C369 2500 370 2495 370 2490M900 2469C872 2418 686 2197 660 2185C621 2167 538 2153 535 2164C502 2264 470 2372 470 2379C470 2384 479 2386 490 2383C505 2379 508 2372 503 2349C497 2317 505 2313 529 2334C538 2341 577 2360 615 2375C654 2390 703 2411 725 2421C766 2440 889 2487 903 2489C907 2489 906 2481 900 2469M1335 2472C1309 2449 1202 2372 1182 2361C1142 2340 1147 2356 1192 2393C1239 2431 1371 2504 1335 2472M414 2362C440 2281 470 2170 470 2151C470 2144 448 2140 415 2140L360 2140L360 2253C361 2379 368 2452 380 2445C385 2442 400 2405 414 2362M1524 2431C1573 2425 1573 2425 1539 2413C1480 2392 1308 2348 1304 2352C1302 2355 1319 2378 1342 2404C1384 2451 1385 2452 1430 2445C1455 2441 1497 2435 1524 2431M1136 2381C1091 2335 994 2271 927 2242C901 2231 899 2232 910 2245C917 2253 927 2260 932 2260C944 2260 1024 2314 1072 2354C1106 2383 1169 2427 1180 2429C1182 2430 1163 2408 1136 2381M300 2393C300 2366 251 2240 234 2221C228 2214 150 2292 150 2305C150 2311 180 2335 218 2357C287 2400 300 2405 300 2393M338 2269C335 2198 330 2136 326 2133C323 2130 307 2133 290 2140C266 2150 260 2158 260 2184C260 2213 328 2400 338 2400C341 2400 340 2341 338 2269M491 2229C503 2191 510 2156 507 2154C502 2149 460 2275 460 2294C460 2316 472 2290 491 2229M1140 2265C1115 2251 1066 2231 1030 2220C994 2208 937 2185 902 2168C867 2152 836 2140 833 2143C826 2150 890 2190 908 2190C915 2190 963 2210 1013 2234C1107 2279 1130 2287 1165 2288C1177 2289 1168 2280 1140 2265M164 2249C178 2238 195 2220 200 2210C209 2194 205 2188 181 2175C141 2155 106 2155 114 2176C117 2185 120 2209 120 2231C120 2276 127 2278 164 2249M1100 2202C1100 2179 1028 2127 983 2118C899 2101 820 2093 820 2102C820 2106 825 2110 830 2110C836 2110 869 2123 903 2139C937 2155 985 2174 1010 2181C1035 2188 1059 2197 1065 2202C1077 2212 1100 2212 1100 2202M604 2117C602 2110 591 2099 580 2092C563 2082 559 2082 553 2096C547 2113 565 2130 592 2130C602 2130 607 2125 604 2117M494 2094C499 2081 503 2080 515 2090C528 2100 530 2099 530 2080C530 2056 532 2056 438 2081C387 2094 390 2110 444 2110C475 2110 490 2105 494 2094M488 2032C511 2024 530 2014 530 2010C530 2001 454 1964 417 1955C396 1949 387 1955 364 1987C348 2008 333 2027 329 2030C319 2039 290 2084 290 2091C290 2097 334 2084 488 2032M698 1980C719 1970 749 1958 764 1954C779 1951 789 1946 787 1943C784 1941 711 1937 624 1934L465 1930L535 1970C611 2013 627 2014 698 1980" id="ShapeObject_1256837442412" stroke="none" style="fill:#000000;fill-opacity:1" transform="matrix(0.1,0,0,0.1,0,0)" opacity="1"/>
    <path d="M170 3015M170 3015C170 2959 189 2955 213 3005C236 3054 235 3060 200 3060C171 3060 170 3058 170 3015" id="ShapeObject_1256837442414" stroke="none" style="fill:#000000;fill-opacity:1" transform="matrix(0.1,0,0,0.1,0,0)" opacity="1"/>
  </g>
</svg>