<svg version="1.1" width="422" height="514" viewBox="0 0 422 514" xmlns:xlink="http://www.w3.org/1999/xlink" xmlns="http://www.w3.org/2000/svg">
  <desc>Created with Raven (http://www.aviary.com)</desc>
  <defs/>
  <g id="Layer_1256837442417" opacity="1">
    <path d="M3770 5122M3770 5122C3770 5112 3774 5100 3779 5095C3784 5089 3804 5036 3824 4976C3864 4859 3864 4864 3810 4810C3807 4807 3760 4753 3705 4690C3605 4574 3583 4552 3543 4522C3522 4506 3521 4495 3515 4341C3511 4251 3505 4168 3500 4156C3496 4145 3478 4122 3461 4105C3417 4063 3300 3912 3300 3897C3300 3882 3357 3643 3377 3576C3385 3549 3394 3504 3397 3476C3404 3419 3404 3419 3339 3500C3319 3525 3294 3555 3284 3566C3273 3578 3254 3602 3240 3620C3226 3639 3181 3694 3140 3744C2993 3921 2999 3911 2978 4028C2961 4123 2961 4135 2975 4142C2996 4155 2994 4170 2970 4170C2959 4170 2950 4173 2950 4178C2950 4182 2940 4190 2928 4195C2915 4201 2882 4234 2853 4270C2747 4400 2522 4709 2491 4765C2456 4829 2455 4852 2486 4985C2507 5076 2506 5082 2467 5079C2449 5077 2429 5079 2422 5084C2415 5088 2402 5089 2392 5086C2383 5084 2344 5078 2305 5075C2214 5066 2198 5058 2210 5024C2224 4988 2224 4988 2181 4995C2160 4998 2140 4997 2136 4992C2133 4987 2140 4945 2151 4899C2162 4853 2172 4790 2173 4759C2175 4709 2180 4698 2221 4649C2265 4598 2325 4520 2451 4355C2481 4315 2539 4245 2579 4200C2659 4109 2659 4108 2619 4024C2609 4002 2567 3886 2526 3768C2485 3649 2447 3543 2441 3533C2435 3520 2411 3509 2373 3501C2301 3485 2066 3430 1900 3388C1782 3359 1773 3355 1735 3315C1512 3076 1461 3025 1434 3014C1397 2998 1019 2997 933 3012L882 3021L874 3138C863 3309 863 3331 880 3340C888 3345 920 3371 950 3399C998 3444 1010 3450 1050 3451C1113 3452 1189 3459 1229 3466C1261 3471 1262 3472 1256 3508C1252 3528 1247 3563 1244 3585C1235 3656 1231 3668 1210 3673C1199 3676 1190 3687 1190 3697C1190 3714 1184 3715 1098 3707C1047 3703 992 3697 975 3695C959 3693 941 3691 937 3691C928 3690 935 3608 949 3548C957 3515 955 3509 926 3482C909 3466 874 3439 849 3422C824 3405 798 3385 791 3376C779 3362 771 3365 719 3402C686 3425 661 3448 663 3454C665 3460 695 3481 729 3500C764 3520 803 3546 817 3558C830 3570 859 3592 880 3607C914 3631 933 3660 914 3660C906 3660 866 3638 860 3631C845 3612 719 3525 685 3510C609 3477 610 3478 609 3249C609 2945 619 2906 707 2881C733 2873 780 2853 810 2835C840 2817 908 2778 961 2747C1014 2716 1060 2683 1064 2674C1075 2646 1080 2562 1085 2305C1088 2168 1092 1965 1095 1855C1098 1704 1097 1663 1088 1690C1035 1867 1025 1885 966 1917C950 1925 906 1954 870 1981C814 2021 798 2040 776 2088C762 2121 750 2150 750 2153C750 2156 741 2179 731 2204C711 2248 711 2249 680 2237C655 2228 647 2228 641 2239C636 2247 630 2248 627 2243C623 2237 600 2240 568 2251C539 2261 501 2269 484 2270C454 2270 452 2267 437 2213C428 2181 416 2128 409 2094C398 2038 398 2031 417 2004C428 1988 455 1938 478 1892C501 1846 528 1796 540 1780C557 1757 560 1736 560 1657C560 1563 570 1510 589 1510C594 1510 625 1492 658 1469C717 1428 717 1428 723 1362C727 1325 725 1264 720 1225C715 1187 713 1154 715 1151C725 1141 752 1164 800 1222C854 1286 875 1304 864 1276C853 1248 972 1206 1207 1154C1242 1147 1287 1133 1307 1124C1347 1107 1470 1094 1470 1107C1470 1116 1405 1170 1394 1170C1385 1170 1218 1301 1222 1305C1224 1307 1259 1302 1300 1294C1463 1262 1488 1261 1509 1284C1527 1305 1564 1373 1612 1477C1638 1534 1680 1567 1830 1646C1854 1659 1855 1665 1856 1742C1857 1908 1855 1900 1915 1960C1974 2019 1980 2038 1951 2064C1922 2091 1919 2118 1943 2141C1970 2166 2062 2220 2200 2292C2258 2322 2314 2352 2325 2358C2336 2364 2381 2385 2425 2405C2469 2425 2514 2446 2525 2453C2610 2502 2819 2601 2867 2615C2920 2630 2978 2653 3155 2728C3228 2759 3230 2760 3235 2793C3238 2807 3254 2849 3271 2887C3288 2924 3308 2972 3316 2993C3346 3076 3403 3179 3419 3179C3441 3179 3580 3206 3627 3219C3648 3225 3677 3230 3692 3230C3728 3230 3733 3241 3714 3286C3699 3322 3689 3413 3673 3662C3667 3772 3671 3784 3768 3930C3795 3971 3816 4008 3814 4011C3812 4015 3789 4023 3764 4029C3738 4036 3704 4048 3688 4056C3661 4070 3659 4075 3664 4108C3673 4161 3691 4238 3705 4290C3712 4315 3724 4361 3731 4394C3738 4426 3749 4457 3755 4464C3761 4470 3782 4498 3802 4525C3823 4553 3863 4598 3892 4625C4186 4902 4220 4940 4175 4940C4168 4940 4131 4961 4093 4986C4007 5045 3820 5140 3791 5140C3777 5140 3770 5134 3770 5122M3945 5040C4000 5013 4058 4979 4074 4966C4103 4942 4103 4942 4064 4924C4019 4905 3894 4898 3881 4914C3873 4925 3820 5071 3820 5083C3820 5098 3849 5088 3945 5040M2394 5032C2397 5027 2401 4976 2404 4918C2406 4860 2413 4803 2419 4792C2428 4775 2426 4771 2404 4766C2366 4756 2300 4777 2291 4803C2286 4815 2280 4852 2276 4885C2272 4918 2264 4960 2259 4978C2242 5031 2251 5040 2324 5040C2360 5040 2391 5036 2394 5032M2455 5003C2443 4937 2431 4930 2430 4988C2430 5029 2433 5040 2446 5040C2459 5040 2461 5033 2455 5003M2209 4949C2235 4940 2240 4933 2241 4907C2241 4880 2244 4855 2252 4791C2256 4759 2248 4740 2231 4740C2209 4740 2200 4759 2200 4803C2200 4821 2193 4857 2185 4884C2170 4932 2166 4960 2174 4960C2175 4960 2191 4955 2209 4949M4070 4886C4070 4884 4051 4870 4028 4854C4004 4838 3954 4803 3917 4776C3880 4750 3846 4730 3843 4733C3836 4741 3869 4827 3884 4839C3890 4843 3920 4853 3950 4860C4000 4872 4061 4887 4068 4889C4069 4890 4070 4888 4070 4886M4006 4767C3963 4728 3894 4662 3854 4622C3813 4582 3780 4553 3780 4558C3780 4563 3787 4587 3796 4612C3812 4660 3866 4708 4010 4804C4094 4859 4093 4847 4006 4767M3810 4741C3806 4725 3798 4705 3793 4697C3783 4678 3689 4607 3683 4613C3679 4617 3808 4770 3815 4770C3817 4770 3815 4757 3810 4741M2575 4587C2636 4508 2696 4428 2710 4409C2724 4391 2768 4334 2808 4282C2889 4177 2890 4165 2811 4175C2787 4178 2759 4180 2749 4180C2738 4180 2712 4196 2691 4215C2649 4254 2539 4389 2506 4444C2469 4505 2374 4644 2341 4684C2324 4705 2310 4726 2310 4729C2310 4732 2345 4734 2387 4733L2465 4732L2575 4587M2305 4672C2324 4651 2382 4569 2436 4490C2489 4410 2561 4309 2596 4265C2631 4221 2660 4182 2660 4178C2660 4146 2609 4200 2467 4379C2293 4598 2240 4668 2240 4677C2240 4686 2260 4710 2268 4710C2270 4710 2287 4693 2305 4672M3753 4568C3744 4539 3735 4512 3731 4508C3728 4504 3700 4504 3670 4508L3615 4515L3684 4568C3722 4596 3756 4620 3760 4620C3764 4620 3761 4596 3753 4568M3719 4464C3727 4457 3649 4145 3636 4133C3623 4120 3617 4146 3586 4350C3579 4397 3572 4440 3570 4445C3562 4477 3570 4480 3643 4474C3682 4471 3717 4466 3719 4464M3570 4264C3570 4247 3563 4227 3555 4220C3542 4209 3540 4221 3541 4316C3542 4425 3542 4425 3556 4360C3563 4324 3569 4281 3570 4264M3595 4120C3601 4067 3601 4064 3572 4048C3555 4038 3539 4030 3536 4030C3533 4030 3530 4053 3530 4081C3530 4117 3536 4141 3551 4162C3578 4199 3586 4190 3595 4120M2920 4126C2920 4114 2923 4100 2928 4096C2938 4085 2957 3952 2950 3940C2947 3935 2938 3938 2929 3948C2921 3957 2880 4003 2837 4049C2795 4095 2762 4135 2764 4139C2766 4142 2802 4146 2844 4147C2917 4148 2920 4148 2920 4126M2841 4005C2961 3881 2956 3895 2922 3793C2906 3745 2883 3671 2870 3630C2825 3481 2828 3482 2804 3605C2724 4010 2720 4032 2720 4080C2720 4123 2720 4123 2746 4099C2761 4086 2803 4044 2841 4005M3490 4000C3484 3989 3474 3980 3468 3980C3462 3980 3449 3973 3439 3964C3430 3956 3413 3948 3401 3947C3390 3946 3380 3941 3380 3936C3380 3931 3377 3929 3374 3933C3367 3940 3393 3976 3455 4047L3495 4093L3498 4057C3500 4037 3496 4012 3490 4000M2679 3851C2681 3654 2687 3524 2701 3405C2706 3361 2710 3281 2710 3227L2710 3128L2615 3249C2563 3316 2520 3374 2520 3379C2520 3384 2511 3399 2500 3412C2456 3469 2457 3473 2534 3706C2614 3946 2659 4058 2670 4039C2674 4033 2678 3948 2679 3851M3610 4012C3610 3981 3581 3857 3551 3760C3535 3708 3514 3631 3504 3590C3476 3468 3469 3467 3475 3585C3481 3704 3495 3831 3512 3923C3522 3974 3528 3985 3559 4005C3603 4034 3610 4035 3610 4012M3714 4013C3742 4003 3767 3994 3769 3993C3775 3989 3720 3900 3711 3900C3707 3900 3695 3883 3685 3863L3667 3825L3659 3865C3650 3914 3648 4030 3656 4030C3660 4030 3685 4022 3714 4013M3480 3903C3475 3875 3468 3805 3465 3748C3461 3692 3457 3634 3455 3620C3443 3526 3437 3490 3431 3490C3425 3490 3399 3573 3381 3650C3351 3778 3330 3872 3330 3875C3330 3876 3351 3887 3378 3898C3404 3910 3438 3928 3455 3939C3471 3950 3485 3958 3486 3957C3487 3956 3484 3932 3480 3903M2796 3511C2808 3425 2810 3389 2802 3366C2796 3349 2788 3310 2785 3281C2781 3251 2772 3210 2764 3191C2751 3155 2751 3155 2750 3200C2747 3301 2739 3387 2728 3419C2717 3454 2708 3868 2718 3885C2725 3897 2774 3665 2796 3511M3623 3741C3613 3721 3593 3685 3578 3661C3541 3601 3541 3628 3580 3761C3622 3902 3622 3903 3631 3836C3638 3789 3636 3770 3623 3741M3044 3808C3067 3784 3102 3745 3121 3720C3140 3696 3163 3666 3173 3655C3183 3644 3199 3626 3209 3615C3218 3604 3251 3564 3280 3525C3310 3487 3349 3438 3367 3417C3385 3397 3400 3370 3400 3359C3400 3339 3396 3338 3353 3343C3211 3358 2935 3401 2876 3417C2860 3421 2858 3429 2863 3469C2866 3495 2880 3549 2893 3590C2907 3631 2931 3707 2946 3758C2964 3817 2978 3850 2987 3850C2995 3850 3020 3831 3044 3808M1168 3671C1164 3657 999 3510 989 3510C978 3510 960 3577 960 3621C960 3657 961 3657 1013 3667C1082 3681 1173 3682 1168 3671M3653 3603C3660 3519 3672 3361 3674 3320C3675 3297 3672 3295 3635 3297C3613 3298 3569 3305 3536 3311C3478 3323 3478 3323 3484 3364C3494 3427 3618 3680 3639 3680C3643 3680 3650 3645 3653 3603M1224 3499C1211 3477 1200 3506 1201 3563L1202 3625L1216 3567C1224 3534 1227 3504 1224 3499M1172 3575C1174 3556 1174 3536 1171 3531C1167 3526 1138 3519 1105 3515L1045 3509L1097 3559C1125 3587 1153 3610 1158 3610C1163 3610 1170 3594 1172 3575M2400 3461C2400 3456 2390 3446 2378 3437C2340 3412 2241 3323 2127 3213C2068 3155 2018 3109 2016 3111C1988 3149 1870 3333 1870 3340C1870 3345 1878 3351 1888 3354C1902 3358 2275 3449 2335 3463C2370 3471 2400 3470 2400 3461M2435 3418C2437 3411 2441 3394 2444 3380C2446 3366 2455 3330 2463 3300C2486 3212 2520 2991 2511 2986C2502 2980 2212 2999 2146 3010C2084 3020 2050 3041 2050 3071C2050 3081 2089 3129 2136 3177C2223 3266 2408 3428 2423 3429C2427 3430 2433 3424 2435 3418M743 3352C785 3324 787 3317 793 3206C797 3126 797 3126 774 3155C749 3187 687 3310 664 3374C648 3417 640 3419 743 3352M872 3374C839 3348 839 3348 844 3206C848 3107 847 3075 840 3100C828 3143 819 3333 828 3346C837 3359 891 3400 899 3400C902 3400 890 3388 872 3374M2525 3318C2542 3297 2588 3237 2629 3185C2699 3094 2702 3089 2684 3075C2658 3056 2551 3030 2544 3041C2541 3046 2530 3094 2520 3147C2510 3201 2494 3274 2486 3310C2468 3387 2467 3402 2483 3376C2490 3366 2509 3340 2525 3318M2931 3360C2956 3356 2994 3347 3016 3342C3037 3336 3082 3328 3115 3325C3148 3321 3191 3316 3210 3314C3292 3305 3330 3297 3325 3290C3319 3280 3176 3224 3125 3211C3022 3186 2940 3161 2881 3136C2845 3122 2810 3110 2803 3110C2788 3110 2788 3115 2821 3279C2832 3330 2840 3374 2840 3377C2840 3380 2850 3379 2863 3375C2875 3371 2905 3365 2931 3360M691 3255C717 3196 753 3126 771 3099C796 3059 800 3047 790 3035C783 3027 773 3020 766 3020C760 3020 732 3008 702 2993C627 2953 630 2947 628 3190C626 3315 629 3374 636 3367C639 3364 664 3313 691 3255M1870 3284C1870 3281 1890 3250 1915 3216C1940 3181 1960 3150 1960 3147C1960 3144 1976 3118 1995 3089C2030 3035 2039 3013 2020 3025C2008 3032 1925 3144 1856 3247C1807 3320 1800 3365 1846 3315C1859 3301 1870 3287 1870 3284M1878 3170C1881 3162 1897 3138 1913 3118C1930 3097 1941 3078 1939 3076C1936 3073 1894 3066 1845 3060C1795 3054 1737 3045 1715 3040C1693 3035 1653 3030 1625 3030C1598 3030 1558 3026 1538 3021C1478 3007 1475 3003 1664 3204L1773 3321L1822 3253C1849 3216 1874 3178 1878 3170M3410 3259C3410 3254 3385 3196 3354 3132C3323 3068 3294 3006 3290 2995C3244 2887 3199 2800 3188 2800C3181 2800 3105 2846 3020 2903C2828 3029 2811 3042 2810 3056C2810 3069 2958 3128 3095 3169C3150 3186 3240 3215 3295 3234C3407 3274 3410 3274 3410 3259M3595 3252C3604 3246 3505 3221 3468 3220C3450 3220 3443 3250 3458 3264C3466 3273 3578 3263 3595 3252M1965 2850C1934 2776 1901 2705 1891 2692C1874 2668 1874 2668 1819 2711C1735 2777 1539 2973 1547 2981C1552 2986 1583 2992 1616 2994C1650 2997 1720 3006 1771 3015C1823 3023 1882 3030 1902 3030C1922 3030 1942 3035 1946 3041C1950 3048 1965 3040 1986 3018L2020 2985L1965 2850M2733 3018C2747 2998 2751 2997 2760 3010C2769 3022 2781 3014 2831 2960C2917 2867 3015 2746 2999 2752C2991 2755 2920 2779 2840 2805C2702 2851 2692 2856 2638 2909C2606 2939 2580 2970 2580 2976C2580 2983 2604 2996 2633 3005C2661 3015 2689 3026 2695 3031C2709 3045 2716 3042 2733 3018M822 2991C827 2977 925 2969 1158 2961L1372 2955L1300 2885C1260 2847 1212 2798 1193 2778C1174 2758 1143 2734 1124 2725C1090 2709 1090 2709 1018 2751C978 2774 938 2798 930 2805C922 2812 867 2843 807 2874C748 2905 699 2933 697 2937C695 2944 797 2999 812 3000C815 3000 820 2996 822 2991M2109 2981C2120 2974 2119 2968 2102 2950C2090 2937 2070 2895 2056 2856C2015 2736 1992 2680 1971 2644C1953 2613 1951 2593 1951 2456C1951 2267 1942 2179 1921 2163C1898 2145 1894 2147 1880 2180C1870 2204 1871 2241 1884 2374C1893 2465 1900 2564 1900 2594C1900 2625 1905 2650 1910 2650C1916 2650 1920 2655 1920 2661C1920 2680 2042 2960 2057 2975C2073 2992 2089 2994 2109 2981M2331 2965C2531 2957 2552 2950 2642 2858C2668 2831 2698 2810 2710 2810C2732 2810 2960 2736 2995 2718C3014 2707 3014 2706 2986 2695C2960 2684 2948 2687 2876 2721C2831 2741 2768 2765 2734 2774C2637 2799 2605 2816 2561 2866C2528 2904 2518 2910 2506 2901C2489 2887 2366 2888 2310 2902C2291 2907 2242 2923 2201 2937C2144 2957 2131 2965 2146 2970C2156 2974 2170 2976 2175 2974C2181 2973 2251 2969 2331 2965M1535 2844C1614 2668 1626 2641 1670 2535C1723 2409 1794 2201 1787 2194C1772 2178 1641 2258 1507 2365C1458 2404 1391 2457 1357 2483C1203 2603 1152 2646 1147 2662C1143 2674 1166 2703 1223 2757C1268 2800 1323 2853 1345 2875C1403 2933 1442 2960 1465 2957C1479 2956 1497 2926 1535 2844M2941 2923C3115 2817 3160 2786 3160 2773C3160 2767 3139 2754 3113 2744C3067 2726 3067 2726 3031 2767C2967 2838 2868 2960 2874 2960C2877 2960 2907 2943 2941 2923M1672 2808C1734 2750 1803 2687 1825 2670C1847 2653 1866 2637 1867 2636C1868 2635 1865 2583 1860 2520C1855 2457 1848 2369 1845 2325C1842 2281 1837 2236 1833 2226C1826 2200 1821 2210 1771 2346C1727 2466 1672 2599 1586 2790C1555 2859 1530 2918 1530 2923C1530 2938 1558 2915 1672 2808M2413 2866C2480 2861 2500 2862 2500 2872C2500 2879 2524 2861 2553 2832C2601 2784 2615 2777 2705 2751C2820 2718 2900 2685 2900 2671C2900 2657 2887 2651 2830 2640C2802 2635 2765 2620 2747 2606C2729 2593 2690 2572 2660 2559C2630 2546 2581 2521 2552 2504C2523 2486 2456 2453 2402 2430C2349 2407 2285 2375 2260 2360C2219 2336 2164 2305 2031 2234C2007 2221 1985 2212 1982 2215C1980 2217 1978 2303 1979 2406C1981 2581 1983 2595 2006 2649C2030 2702 2052 2760 2087 2860C2112 2932 2109 2931 2223 2901C2279 2885 2364 2870 2413 2866M1238 2546C1267 2523 1329 2476 1376 2440C1423 2404 1485 2355 1513 2330C1542 2305 1594 2267 1629 2245C1664 2224 1688 2204 1683 2203C1677 2201 1617 2213 1549 2231C1481 2248 1389 2271 1345 2282C1301 2292 1258 2306 1249 2313C1222 2333 1173 2430 1141 2528C1124 2579 1110 2626 1110 2632C1110 2642 1129 2629 1238 2546M1130 2458C1154 2390 1211 2280 1221 2280C1231 2280 1231 2263 1215 2105C1213 2083 1204 2029 1196 1985C1188 1941 1178 1871 1175 1830C1168 1738 1152 1617 1141 1570C1133 1539 1132 1542 1131 1600C1126 1863 1119 2098 1114 2170C1102 2360 1100 2490 1109 2490C1114 2490 1123 2475 1130 2458M1525 2192C1613 2170 1710 2149 1740 2145C1811 2137 1825 2129 1811 2102C1802 2086 1748 2036 1680 1983C1599 1919 1565 1893 1500 1843C1459 1812 1423 1783 1420 1780C1417 1776 1390 1754 1360 1731L1305 1688L1294 1727C1278 1782 1253 2221 1265 2240C1272 2251 1353 2236 1525 2192M528 2234C562 2227 566 2220 619 2062C653 1961 656 1940 639 1940C619 1940 512 2001 472 2036C432 2070 432 2070 445 2137C466 2247 466 2246 528 2234M713 2178C730 2141 770 2038 770 2030C770 2018 708 1988 701 1996C696 2001 683 2044 670 2092C652 2163 650 2182 660 2195C679 2218 696 2213 713 2178M624 2192C630 2181 670 1999 669 1985C668 1972 601 2170 600 2188C600 2202 616 2204 624 2192M1910 1995C1897 1981 1883 1970 1878 1970C1869 1970 1868 2015 1877 2048C1883 2072 1883 2072 1908 2046C1934 2021 1934 2021 1910 1995M1223 1601C1181 1518 1175 1510 1172 1536C1170 1551 1173 1589 1179 1620C1184 1650 1192 1719 1196 1772C1205 1901 1204 1893 1220 1985L1235 2065L1253 1880L1271 1695L1223 1601M1810 1969C1780 1887 1777 1883 1662 1775C1598 1715 1554 1679 1564 1695C1635 1807 1830 2063 1838 2056C1839 2054 1827 2015 1810 1969M574 1935L604 1917L574 1894C558 1881 538 1870 530 1870C521 1870 501 1895 485 1928C436 2024 436 2023 493 1986C522 1968 558 1945 574 1935M806 1934C817 1869 821 1706 812 1715C807 1721 788 1767 770 1818C737 1911 737 1911 760 1935C787 1964 802 1963 806 1934M904 1920C937 1898 974 1877 987 1874C1000 1870 1010 1860 1010 1850C1010 1840 986 1781 957 1718C927 1656 898 1592 891 1576C883 1557 876 1550 869 1557C852 1574 820 1960 836 1960C841 1960 872 1942 904 1920M654 1902C663 1887 572 1807 554 1814C532 1822 538 1832 590 1873C638 1911 646 1915 654 1902M743 1828C795 1700 820 1631 820 1614C820 1585 811 1603 780 1691C764 1737 742 1800 731 1830C708 1889 708 1890 714 1890C716 1890 729 1862 743 1828M1830 1777C1830 1700 1827 1683 1813 1674C1803 1668 1769 1648 1737 1630L1679 1597L1693 1631C1701 1650 1727 1706 1750 1755C1819 1902 1830 1905 1830 1777M711 1810C721 1785 741 1731 755 1690C770 1649 786 1606 790 1595C802 1566 820 1508 820 1500C820 1496 801 1485 777 1476C729 1458 716 1461 635 1518C601 1542 595 1552 592 1585C590 1625 590 1625 613 1598C652 1550 666 1562 672 1650C675 1690 673 1695 655 1692C644 1690 628 1682 619 1674C586 1644 578 1656 585 1723C591 1776 597 1790 628 1823C648 1844 671 1859 679 1858C687 1856 701 1835 711 1810M1569 1773C1519 1688 1394 1502 1361 1463C1342 1439 1323 1423 1319 1428C1315 1432 1309 1478 1305 1531L1298 1626L1346 1645C1409 1669 1452 1697 1520 1759C1550 1787 1579 1809 1583 1810C1588 1810 1582 1793 1569 1773M1046 1743C1055 1711 1069 1668 1076 1647C1084 1627 1090 1608 1090 1606C1090 1603 1069 1594 1043 1584C1016 1574 986 1560 975 1553C964 1546 945 1540 933 1540C913 1540 910 1544 916 1568C920 1583 928 1606 935 1620C942 1634 964 1680 985 1723C1006 1765 1024 1800 1026 1800C1028 1800 1037 1774 1046 1743M1475 1775C1430 1737 1400 1717 1395 1722C1389 1727 1482 1800 1495 1800C1501 1800 1492 1789 1475 1775M1715 1735C1681 1659 1629 1567 1610 1553C1574 1524 1420 1444 1420 1455C1420 1475 1713 1790 1732 1790C1736 1790 1728 1765 1715 1735M1284 1512C1288 1459 1289 1408 1285 1400C1282 1391 1257 1379 1230 1373C1179 1361 1150 1364 1150 1382C1150 1396 1264 1610 1271 1610C1275 1610 1281 1566 1284 1512M1067 1549C1046 1538 1021 1530 1012 1532C1002 1534 1013 1543 1040 1552C1102 1574 1113 1573 1067 1549M1100 1523C1100 1518 1103 1486 1106 1450C1110 1404 1108 1380 1098 1368C1084 1349 1024 1333 970 1334C936 1335 934 1337 917 1393C907 1425 900 1457 903 1463C906 1470 941 1484 981 1493C1022 1503 1062 1515 1070 1520C1088 1532 1100 1533 1100 1523M1550 1406C1510 1324 1498 1309 1486 1329C1483 1334 1459 1348 1434 1360C1408 1372 1391 1385 1396 1390C1401 1394 1430 1411 1460 1428C1490 1444 1531 1467 1550 1478C1569 1490 1586 1498 1588 1495C1590 1493 1573 1453 1550 1406M858 1397C868 1361 866 1355 835 1314C816 1289 797 1264 793 1257C788 1250 776 1237 765 1228C745 1211 745 1212 748 1311C751 1411 751 1411 793 1430C816 1440 838 1445 842 1441C845 1438 853 1418 858 1397M1388 1346C1403 1339 1428 1326 1444 1319C1473 1305 1473 1305 1450 1302C1419 1297 1261 1331 1253 1343C1249 1349 1260 1351 1282 1347C1301 1344 1323 1346 1331 1351C1350 1363 1358 1362 1388 1346M1150 1300C1150 1295 1168 1281 1189 1270C1211 1259 1249 1232 1275 1210C1315 1175 1318 1170 1298 1170C1285 1170 1257 1175 1235 1180C1213 1185 1180 1192 1161 1195C1143 1198 1116 1207 1101 1214C1087 1221 1058 1230 1038 1233C997 1239 930 1268 930 1280C930 1288 1047 1306 1113 1309C1133 1309 1150 1306 1150 1300" id="ShapeObject_1256837442419" stroke="none" style="fill:#000000;fill-opacity:1" transform="matrix(0.1,0,0,0.1,0,0)" opacity="1"/>
    <path d="M489 2174M489 2174C465 2149 465 2149 485 2113C518 2052 531 2059 529 2134C528 2170 524 2200 520 2200C517 2200 503 2188 489 2174" id="ShapeObject_1256837442421" stroke="none" style="fill:#000000;fill-opacity:1" transform="matrix(0.1,0,0,0.1,0,0)" opacity="1"/>
  </g>
</svg>