<svg version="1.1" width="464" height="480" viewBox="0 0 464 480" xmlns:xlink="http://www.w3.org/1999/xlink" xmlns="http://www.w3.org/2000/svg">
  <desc>Created with Raven (http://www.aviary.com)</desc>
  <defs/>
  <g id="Layer_1256850979388" opacity="1">
    <g id="Layer_1256850979389" opacity="1">
      <path d="M2085 4788M2085 4788C2069 4782 2053 4776 2051 4774C2049 4772 2062 4750 2079 4724C2096 4698 2110 4673 2110 4668C2110 4663 2118 4647 2128 4632C2139 4617 2171 4569 2200 4525C2229 4481 2290 4396 2335 4335C2380 4275 2423 4214 2430 4201C2437 4187 2451 4167 2462 4156C2487 4130 2560 4000 2560 3982C2560 3967 2265 3669 2213 3631C2188 3613 2180 3599 2174 3557C2165 3500 2166 3501 2157 3480C2154 3472 2144 3441 2135 3413C2126 3384 2111 3356 2102 3351C2087 3342 2087 3340 2102 3323C2111 3313 2124 3291 2130 3275C2144 3239 2180 3102 2180 3084C2180 3078 2139 3037 2089 2994C2039 2950 1967 2888 1931 2855C1866 2797 1747 2710 1732 2710C1728 2710 1712 2699 1697 2684C1682 2670 1665 2662 1659 2666C1653 2670 1650 2665 1651 2654C1655 2626 1620 2539 1552 2409C1492 2295 1492 2295 1439 2284C1409 2278 1369 2268 1350 2262C1230 2224 1007 2195 940 2209C902 2216 906 2206 875 2379L858 2472L906 2516C983 2586 1021 2600 1128 2600C1178 2600 1221 2604 1224 2608C1235 2626 1234 2810 1222 2822C1215 2829 1210 2845 1210 2858C1210 2877 1206 2881 1193 2875C1183 2871 1124 2867 1062 2865C938 2863 957 2870 825 2773C801 2755 777 2740 772 2740C768 2740 754 2727 742 2710C729 2694 713 2680 706 2680C674 2680 660 2644 655 2549C653 2497 648 2412 645 2360C640 2273 642 2258 667 2189C682 2147 705 2099 717 2084C729 2068 749 2039 762 2020C781 1992 794 1984 830 1979C855 1975 891 1969 910 1966C929 1963 979 1957 1020 1954C1129 1944 1130 1943 1130 1855C1130 1777 1108 1671 1083 1634C1068 1610 1073 1601 1182 1455C1203 1428 1220 1402 1220 1398C1220 1394 1245 1353 1275 1306C1305 1260 1330 1215 1330 1207C1330 1199 1302 1178 1268 1160C1233 1142 1177 1110 1142 1087L1080 1047L984 1094C868 1150 840 1153 840 1110C840 1090 834 1077 823 1073C813 1069 796 1058 786 1048C769 1033 768 1026 778 993C784 972 795 930 802 898C814 847 821 838 874 796C907 771 940 750 947 750C959 750 1024 718 1080 685C1090 679 1124 644 1156 607C1214 540 1214 540 1284 540C1391 540 1422 528 1477 465C1503 435 1528 410 1533 410C1537 410 1540 428 1540 450C1540 489 1541 490 1563 479C1575 472 1601 454 1620 438C1639 423 1658 410 1663 410C1668 410 1670 443 1668 482L1665 555L1719 561C1748 565 1792 576 1816 585C1841 594 1878 603 1898 604C1979 610 1972 598 1964 714L1957 819L2014 882C2045 917 2083 953 2098 962C2153 997 2244 1042 2327 1076C2437 1120 2480 1147 2480 1171C2480 1181 2477 1189 2473 1189C2468 1188 2425 1188 2376 1189C2287 1190 2287 1190 2306 1213C2359 1274 2370 1297 2360 1331C2354 1350 2350 1369 2350 1375C2350 1381 2388 1426 2435 1475C2481 1525 2520 1569 2520 1573C2520 1578 2507 1598 2491 1618C2475 1638 2448 1681 2432 1713C2400 1775 2400 1780 2435 1885C2474 2001 2478 2006 2595 2072C2688 2125 2769 2179 2797 2206C2831 2238 2934 2362 2967 2410C2984 2435 3014 2469 3034 2487C3053 2504 3079 2538 3091 2562C3103 2585 3141 2637 3176 2676C3211 2716 3240 2754 3240 2762C3240 2770 3233 2796 3225 2821C3210 2866 3191 3008 3198 3029C3200 3035 3206 3038 3211 3034C3216 3031 3242 3064 3269 3107C3347 3230 3384 3278 3403 3283C3412 3286 3420 3296 3420 3307C3420 3317 3438 3348 3459 3377L3498 3428L3469 3526C3453 3579 3440 3631 3440 3641C3440 3651 3465 3709 3495 3769C3525 3829 3550 3882 3550 3886C3550 3893 3536 3910 3453 4000C3420 4036 3358 4112 3316 4170C3274 4228 3224 4294 3205 4316C3146 4387 3144 4398 3181 4461C3229 4541 3300 4650 3304 4650C3306 4650 3330 4632 3356 4610C3401 4573 3429 4562 3442 4576C3449 4582 3365 4735 3333 4774C3321 4789 3304 4800 3295 4798C3283 4796 3285 4788 3308 4760C3351 4707 3383 4650 3370 4650C3347 4650 3250 4752 3250 4776C3250 4797 3245 4800 3209 4800C3167 4800 3122 4775 3050 4711C3031 4694 3007 4678 2998 4674C2973 4666 2966 4629 2979 4570C2985 4542 2990 4506 2990 4490C2990 4473 2995 4460 3001 4460C3006 4460 3009 4456 3006 4452C3003 4447 3006 4375 3012 4292C3023 4153 3026 4141 3044 4138C3057 4136 3077 4113 3098 4075C3117 4042 3141 4002 3151 3985C3196 3911 3250 3814 3250 3805C3250 3787 3051 3595 3042 3605C3038 3611 3008 3650 2976 3693C2939 3742 2914 3768 2908 3762C2902 3756 2902 3745 2909 3732C2915 3721 2927 3690 2936 3664C2945 3637 2961 3597 2971 3575C3008 3494 3098 3239 3107 3186C3114 3152 3120 3150 3002 3229C2956 3260 2911 3290 2902 3295C2893 3301 2845 3332 2796 3363L2707 3421L2714 3538C2718 3602 2727 3711 2734 3780C2746 3910 2748 3914 2818 4023C2839 4055 2849 4079 2843 4086C2839 4092 2799 4141 2755 4194C2617 4361 2539 4463 2514 4510C2464 4605 2447 4645 2445 4674C2444 4691 2436 4707 2429 4711C2421 4714 2385 4731 2348 4749C2310 4766 2280 4784 2280 4790C2280 4803 2124 4802 2085 4788M2205 4708C2201 4662 2196 4621 2193 4616C2190 4611 2179 4618 2168 4631C2150 4654 2100 4744 2100 4754C2100 4759 2185 4788 2204 4789C2209 4790 2209 4754 2205 4708M2270 4724C2270 4718 2281 4687 2295 4656C2327 4584 2326 4573 2290 4565C2219 4549 2210 4570 2232 4700C2243 4762 2246 4769 2257 4754C2264 4744 2270 4731 2270 4724M3196 4747C3205 4723 3067 4270 3051 4270C3046 4270 3040 4298 3036 4333C3029 4399 3016 4504 3005 4585C2998 4635 2998 4635 3051 4675C3113 4722 3172 4760 3183 4760C3187 4760 3193 4754 3196 4747M2388 4691C2399 4685 2419 4653 2432 4618C2455 4558 2455 4555 2438 4548C2417 4539 2379 4552 2364 4571C2354 4584 2310 4700 2310 4713C2310 4720 2360 4706 2388 4691M3270 4677C3270 4662 3190 4537 3184 4542C3181 4546 3211 4661 3225 4698C3231 4714 3270 4696 3270 4677M2358 4525C2365 4519 2307 4460 2295 4460C2281 4460 2240 4506 2240 4521C2240 4535 2341 4538 2358 4525M2490 4489C2543 4414 2634 4293 2662 4261C2707 4210 2763 4140 2773 4124C2792 4092 2749 4125 2728 4158C2716 4177 2665 4237 2616 4290C2513 4398 2430 4494 2430 4504C2430 4519 2477 4508 2490 4489M2391 4443C2397 4422 2422 4366 2445 4319C2468 4272 2490 4222 2493 4208C2497 4193 2503 4174 2507 4163C2513 4147 2512 4147 2497 4159C2480 4172 2391 4295 2337 4379C2309 4423 2309 4423 2336 4451C2351 4467 2367 4480 2371 4480C2375 4480 2384 4463 2391 4443M2702 4149C2717 4128 2730 4107 2730 4103C2730 4098 2698 4078 2659 4058L2588 4021L2575 4053C2568 4071 2545 4132 2525 4190C2504 4248 2475 4320 2460 4350C2404 4462 2415 4458 2546 4321C2616 4248 2686 4170 2702 4149M3189 4260C3260 4104 3268 4085 3266 4082C3264 4081 3241 4087 3215 4096C3156 4116 3091 4155 3083 4176C3077 4191 3094 4283 3111 4328C3124 4363 3154 4338 3189 4260M3285 4160C3313 4122 3319 4106 3312 4094C3303 4079 3300 4080 3287 4106C3266 4147 3240 4210 3245 4210C3247 4210 3265 4188 3285 4160M3282 4027C3292 4011 3355 3815 3365 3770C3372 3735 3372 3735 3313 3796C3261 3851 3145 4033 3133 4081C3128 4098 3136 4097 3201 4070C3241 4053 3278 4034 3282 4027M3359 4028C3376 3950 3390 3858 3390 3835C3389 3820 3386 3823 3377 3845C3345 3920 3318 4029 3324 4054C3334 4095 3348 4085 3359 4028M2760 4060C2760 4034 2726 3970 2709 3965C2680 3955 2610 3970 2610 3985C2610 3992 2640 4014 2678 4033C2750 4072 2760 4075 2760 4060M3486 3918C3512 3881 3512 3881 3480 3816C3453 3759 3430 3727 3430 3744C3430 3747 3424 3789 3416 3837C3408 3886 3398 3948 3395 3975L3388 4025L3424 3991C3444 3972 3472 3939 3486 3918M2648 3931C2661 3923 2651 3916 2485 3812C2458 3795 2434 3783 2431 3786C2428 3788 2459 3824 2500 3865C2560 3926 2580 3940 2605 3940C2621 3940 2641 3936 2648 3931M2704 3873C2701 3852 2694 3813 2689 3785C2640 3512 2631 3480 2608 3480C2598 3480 2486 3529 2333 3602C2309 3613 2290 3627 2290 3633C2290 3649 2372 3708 2479 3771C2526 3798 2594 3841 2629 3866C2664 3890 2696 3910 2700 3910C2705 3910 2706 3893 2704 3873M3332 3670C3368 3605 3371 3594 3359 3576C3352 3564 3329 3520 3308 3478C3287 3435 3268 3400 3265 3400C3263 3400 3263 3464 3265 3543C3267 3621 3269 3700 3269 3718C3270 3737 3275 3750 3281 3748C3287 3746 3310 3711 3332 3670M3236 3558C3233 3463 3226 3382 3221 3377C3215 3371 3200 3386 3184 3411C3169 3435 3146 3466 3134 3480C3121 3494 3104 3522 3095 3543C3079 3581 3079 3581 3156 3655C3199 3696 3236 3730 3238 3730C3241 3730 3240 3653 3236 3558M3395 3650C3389 3641 3383 3644 3374 3661C3354 3697 3357 3707 3381 3683C3394 3671 3399 3657 3395 3650M3064 3510C3067 3491 3076 3444 3084 3407C3092 3370 3095 3341 3092 3344C3085 3351 2980 3622 2980 3634C2980 3657 3058 3541 3064 3510M2337 3565C2378 3546 2415 3530 2421 3530C2444 3530 2572 3458 2563 3449C2558 3444 2505 3433 2445 3425C2384 3417 2321 3408 2304 3404C2273 3398 2273 3398 2251 3468C2225 3555 2223 3600 2247 3600C2256 3600 2296 3584 2337 3565M3420 3490C3453 3424 3451 3411 3398 3348C3377 3324 3370 3322 3328 3327C3301 3330 3280 3337 3280 3341C3280 3353 3379 3550 3385 3550C3388 3550 3403 3523 3420 3490M2229 3448C2243 3387 2244 3391 2213 3379C2166 3361 2160 3372 2177 3437C2201 3528 2209 3530 2229 3448M3170 3387C3170 3382 3180 3365 3191 3348C3210 3322 3212 3310 3206 3254C3202 3219 3196 3180 3191 3168C3184 3149 3180 3155 3162 3210C3144 3263 3109 3435 3110 3459C3111 3468 3170 3397 3170 3387M2637 3412C2644 3408 2658 3379 2669 3350C2679 3320 2704 3253 2724 3201C2745 3150 2759 3106 2757 3103C2748 3094 2532 3156 2461 3188C2442 3196 2415 3206 2401 3209C2388 3213 2375 3221 2372 3228C2368 3242 2415 3288 2494 3343C2610 3426 2613 3427 2637 3412M2500 3389C2500 3384 2487 3374 2470 3365C2454 3357 2411 3323 2376 3289C2341 3256 2310 3233 2307 3237C2297 3255 2279 3350 2284 3358C2297 3379 2500 3409 2500 3389M2730 3373C2744 3363 2792 3333 2836 3305C2975 3220 3120 3120 3120 3110C3120 3097 2802 3103 2791 3116C2778 3130 2691 3365 2690 3388C2690 3395 2709 3388 2730 3373M2263 3284C2279 3226 2279 3216 2267 3201C2259 3192 2245 3170 2235 3151C2225 3132 2215 3121 2209 3127C2204 3132 2192 3169 2181 3210C2170 3251 2158 3295 2155 3306C2149 3325 2154 3329 2187 3338C2208 3343 2230 3348 2235 3349C2241 3350 2254 3320 2263 3284M3322 3291C3348 3285 3348 3285 3292 3199C3260 3152 3231 3113 3225 3112C3220 3112 3216 3117 3218 3122C3220 3128 3225 3164 3230 3202C3242 3297 3252 3308 3322 3291M2387 3107C2541 2980 2903 2610 2873 2610C2866 2610 2644 2750 2520 2833C2373 2932 2230 3043 2230 3059C2230 3068 2241 3099 2255 3128C2280 3181 2280 3181 2311 3163C2327 3153 2362 3128 2387 3107M2470 3153C2495 3145 2524 3134 2535 3129C2555 3121 2701 3083 2751 3073C2772 3069 2780 3058 2795 3012C2806 2980 2814 2953 2815 2950C2819 2927 2848 2854 2871 2806C2887 2773 2900 2741 2900 2734C2900 2727 2911 2700 2924 2673C2973 2576 2965 2570 2893 2649C2784 2768 2503 3045 2395 3139L2345 3183L2385 3176C2407 3172 2445 3162 2470 3153M3076 3070C3160 3070 3160 3070 3160 3043C3160 3013 3127 2880 3116 2861C3103 2840 3060 2685 3059 2655C3058 2618 3037 2557 3024 2553C3014 2550 2976 2624 2890 2820C2842 2928 2805 3049 2817 3061C2831 3074 2873 3079 2934 3074C2966 3072 3031 3070 3076 3070M2482 2827C2528 2796 2606 2745 2638 2725C2648 2720 2683 2696 2718 2673C2753 2649 2783 2630 2786 2630C2794 2630 2968 2511 2975 2501C2978 2495 2964 2488 2943 2485C2922 2481 2855 2465 2794 2449C2733 2433 2660 2420 2632 2420C2584 2420 2580 2422 2559 2458C2546 2478 2513 2527 2484 2565C2439 2626 2262 2908 2232 2966C2226 2978 2223 2990 2226 2993C2231 2998 2271 2972 2482 2827M2072 2869C1928 2592 1907 2555 1900 2555C1888 2555 1770 2669 1770 2680C1770 2685 1805 2716 1848 2750C1890 2783 1970 2851 2025 2900C2079 2949 2126 2988 2128 2986C2130 2984 2104 2931 2072 2869M2170 2758L2170 2545L2107 2478C2073 2440 2040 2410 2034 2410C2028 2410 2000 2434 1972 2464L1920 2518L1982 2637C2015 2702 2061 2791 2084 2834C2106 2878 2131 2926 2139 2942C2147 2957 2157 2970 2162 2970C2166 2970 2170 2874 2170 2758M2359 2705C2389 2656 2440 2580 2472 2536C2504 2493 2530 2454 2530 2450C2530 2435 2210 2535 2198 2554C2190 2565 2189 2930 2197 2943C2202 2952 2279 2839 2359 2705M3196 2813C3212 2761 3212 2761 3153 2695C3113 2649 3094 2635 3092 2646C3086 2672 3122 2810 3149 2870C3173 2922 3174 2923 3177 2895C3179 2879 3187 2841 3196 2813M1094 2818C1086 2800 1010 2740 995 2740C983 2740 970 2796 978 2819C980 2825 1006 2830 1041 2830C1084 2830 1098 2827 1094 2818M952 2760C955 2699 955 2699 880 2640C798 2575 795 2575 785 2656C778 2705 778 2705 827 2741C910 2802 935 2819 942 2820C945 2820 950 2793 952 2760M1130 2749C1130 2697 1130 2697 1089 2703C1067 2706 1045 2711 1042 2715C1036 2721 1117 2800 1128 2800C1129 2800 1130 2777 1130 2749M1201 2676C1196 2640 1181 2663 1185 2700C1186 2714 1189 2736 1190 2750C1192 2771 1194 2769 1199 2740C1202 2721 1203 2692 1201 2676M1154 2660C1172 2643 1146 2630 1091 2630C1035 2630 1010 2641 1010 2667C1010 2678 1025 2679 1078 2674C1115 2670 1149 2664 1154 2660M765 2613C773 2573 761 2571 723 2605C695 2630 695 2630 719 2651C747 2674 753 2668 765 2613M983 2648C990 2622 969 2596 909 2554C877 2532 868 2530 855 2540C847 2547 840 2557 840 2562C840 2575 952 2667 971 2669C975 2670 980 2660 983 2648M1822 2583C2023 2375 2020 2379 2003 2353C1995 2340 1985 2330 1981 2330C1969 2330 1921 2375 1878 2427C1854 2455 1804 2513 1766 2554C1699 2628 1698 2631 1715 2650C1725 2661 1734 2670 1735 2670C1737 2670 1776 2631 1822 2583M1749 2541C1777 2509 1800 2477 1800 2471C1800 2457 1562 2316 1552 2325C1550 2327 1576 2384 1609 2452C1643 2521 1670 2582 1670 2588C1670 2615 1701 2596 1749 2541M734 2559C754 2547 771 2531 771 2522C772 2512 774 2496 775 2485C776 2474 780 2431 784 2390C787 2349 793 2294 796 2268C804 2209 795 2207 725 2253C679 2283 675 2289 672 2330C667 2396 681 2580 690 2580C695 2580 715 2571 734 2559M2369 2460C2420 2444 2470 2430 2479 2430C2489 2430 2519 2419 2546 2405C2607 2374 2651 2376 2800 2420C2858 2436 2918 2450 2934 2450C2962 2450 2963 2450 2945 2430C2935 2419 2917 2410 2906 2410C2894 2410 2876 2404 2865 2396C2839 2379 2740 2350 2704 2350C2688 2350 2657 2343 2633 2334C2594 2319 2588 2319 2556 2334C2537 2343 2519 2350 2514 2350C2510 2350 2478 2364 2443 2380C2374 2413 2241 2460 2217 2460C2204 2460 2122 2365 2084 2305C2054 2257 2040 2241 1958 2155L1881 2074L1940 1990C1973 1943 2000 1901 2000 1895C2000 1885 2048 1809 2070 1783C2076 1776 2090 1755 2101 1736C2118 1707 2118 1702 2105 1697C2095 1693 2082 1705 2063 1738C2049 1764 2007 1829 1971 1883C1935 1936 1893 2002 1877 2029C1850 2078 1850 2078 1882 2138C1900 2171 1964 2257 2024 2329C2157 2491 2159 2493 2181 2487C2192 2484 2200 2487 2200 2495C2200 2511 2237 2503 2369 2460M848 2423C855 2396 863 2346 865 2310C868 2274 873 2239 875 2233C877 2226 875 2220 871 2220C866 2220 855 2217 847 2214C835 2210 830 2223 822 2277C806 2378 800 2456 807 2464C823 2480 838 2466 848 2423M1898 2369L1960 2299L1912 2235C1881 2193 1860 2173 1850 2176C1842 2179 1815 2186 1790 2192C1662 2221 1536 2257 1533 2267C1531 2273 1546 2285 1567 2295C1588 2304 1632 2329 1665 2350C1749 2403 1813 2438 1826 2439C1832 2440 1865 2408 1898 2369M2288 2414C2320 2405 2372 2385 2405 2370C2438 2355 2496 2330 2533 2315C2600 2289 2603 2288 2644 2304C2667 2313 2697 2320 2710 2320C2741 2320 2818 2343 2858 2364C2932 2402 2913 2365 2802 2253C2739 2189 2617 2111 2464 2035C2360 1984 2282 1924 2246 1870C2193 1790 2144 1736 2132 1744C2126 1748 2096 1790 2066 1839C2037 1887 1992 1957 1967 1994L1921 2062L1988 2139C2049 2208 2143 2327 2195 2401C2219 2435 2216 2435 2288 2414M1398 2208C1339 2153 1205 2032 1172 2003C1147 1981 1147 1981 1081 2042C1045 2075 1004 2110 990 2119C919 2164 921 2168 1017 2175C1065 2178 1130 2186 1160 2191C1190 2197 1227 2204 1242 2206C1257 2209 1300 2219 1337 2229C1444 2258 1449 2256 1398 2208M804 2171C810 2162 752 2130 731 2130C721 2130 702 2168 685 2219C679 2240 680 2240 738 2211C771 2194 801 2176 804 2171M1477 2203C1474 2187 1467 2149 1462 2118C1446 2033 1392 1841 1370 1795C1347 1747 1332 1710 1311 1651C1302 1626 1290 1605 1284 1603C1279 1601 1263 1623 1250 1652C1238 1681 1219 1723 1210 1745C1167 1842 1154 1949 1182 1976C1234 2027 1467 2229 1474 2230C1478 2230 1480 2218 1477 2203M1650 2200C1658 2195 1694 2187 1730 2180C1801 2167 1850 2151 1850 2141C1850 2137 1843 2124 1834 2112C1819 2091 1820 2086 1836 2052C1845 2032 1859 2009 1867 2002C1904 1965 1910 1935 1896 1860C1888 1821 1880 1786 1877 1783C1866 1772 1846 1796 1740 1953C1679 2042 1614 2135 1595 2160C1576 2185 1560 2209 1560 2213C1560 2222 1626 2212 1650 2200M1554 2070C1563 2040 1575 2006 1580 1995C1614 1919 1720 1528 1720 1477C1720 1436 1705 1432 1627 1450C1587 1460 1524 1480 1485 1495C1447 1510 1391 1529 1363 1538C1330 1547 1310 1559 1310 1568C1310 1583 1371 1744 1390 1778C1407 1809 1439 1917 1471 2047C1488 2117 1505 2179 1508 2184C1513 2194 1529 2157 1554 2070M1742 1912C1786 1842 1829 1777 1837 1768C1848 1756 1850 1740 1845 1708C1832 1626 1790 1498 1773 1485C1751 1469 1749 1470 1740 1517C1720 1618 1663 1821 1614 1970C1584 2060 1560 2140 1560 2148C1560 2171 1660 2042 1742 1912M963 2099C1002 2072 1048 2033 1064 2013L1094 1977L1005 1983C882 1992 840 2005 840 2033C840 2062 872 2150 882 2150C887 2150 923 2127 963 2099M836 2122C833 2117 829 2103 826 2089C824 2076 818 2054 813 2042C804 2018 804 2018 776 2055C761 2075 750 2093 752 2095C773 2116 847 2140 836 2122M2435 1963C2431 1953 2415 1903 2398 1852C2365 1750 2364 1749 2271 1730C2246 1724 2215 1718 2203 1715C2190 1712 2180 1714 2180 1718C2180 1723 2207 1764 2240 1809C2281 1866 2319 1906 2362 1936C2431 1984 2446 1989 2435 1963M1960 1858C1960 1853 1968 1840 1978 1830C2001 1805 2082 1650 2073 1650C2056 1649 1910 1726 1906 1737C1903 1743 1905 1764 1911 1782C1916 1800 1920 1829 1920 1846C1920 1863 1923 1880 1927 1883C1934 1891 1960 1872 1960 1858M1223 1656C1239 1618 1250 1586 1248 1584C1239 1576 1119 1624 1123 1634C1126 1640 1133 1672 1139 1705C1160 1812 1161 1812 1223 1656M2434 1651C2454 1619 2470 1587 2470 1581C2470 1573 2449 1570 2403 1572C2343 1575 2335 1578 2332 1595C2330 1607 2343 1635 2360 1658C2377 1682 2388 1706 2384 1712C2380 1718 2381 1720 2388 1716C2394 1713 2415 1683 2434 1651M1964 1669C2006 1647 2038 1625 2035 1620C2032 1616 2000 1600 1963 1585C1925 1570 1880 1549 1862 1538C1844 1527 1828 1519 1826 1521C1824 1524 1861 1683 1869 1708C1872 1716 1897 1706 1964 1669M2350 1705C2350 1703 2338 1680 2323 1655C2299 1616 2291 1610 2271 1615C2236 1624 2188 1662 2199 1673C2215 1689 2350 1718 2350 1705M2271 1550C2256 1512 2173 1371 2144 1332C2119 1299 2111 1293 2108 1307C2105 1325 2137 1604 2145 1627C2148 1635 2171 1627 2213 1602C2260 1575 2276 1561 2271 1550M1184 1565C1190 1564 1210 1559 1228 1555C1248 1550 1265 1539 1269 1526C1281 1497 1303 1330 1297 1324C1294 1321 1267 1361 1236 1414C1205 1466 1176 1512 1170 1515C1164 1518 1153 1535 1144 1552C1129 1581 1129 1582 1151 1575C1163 1571 1178 1567 1184 1565M2070 1565C2070 1548 2014 1378 1980 1290C1957 1232 1930 1160 1920 1129C1909 1098 1887 1047 1871 1014C1855 982 1832 930 1819 900L1795 845L1788 895C1774 1001 1767 1365 1779 1387C1799 1426 2070 1591 2070 1565M1929 1536C1913 1519 1805 1452 1801 1455C1799 1458 1799 1461 1801 1463C1867 1509 1949 1556 1929 1536M2431 1521C2419 1499 2359 1440 2348 1440C2344 1440 2340 1462 2340 1488C2340 1537 2340 1537 2390 1538C2435 1539 2439 1537 2431 1521M2086 1359C2073 1232 2067 1207 2037 1145C2018 1107 1993 1066 1981 1056C1970 1045 1960 1033 1960 1028C1960 1016 1875 897 1855 880C1832 861 1836 876 1891 1005C1919 1071 1948 1141 1955 1160C1962 1179 1982 1229 1998 1270C2014 1311 2042 1388 2061 1440C2079 1492 2096 1528 2098 1519C2099 1511 2094 1439 2086 1359M2313 1468C2318 1405 2318 1405 2257 1348C2190 1287 2140 1253 2140 1269C2140 1274 2156 1299 2175 1324C2194 1350 2210 1372 2210 1375C2210 1386 2294 1530 2301 1530C2305 1530 2310 1502 2313 1468M1470 1469C1522 1449 1582 1429 1603 1425C1623 1421 1643 1414 1645 1409C1648 1405 1589 1360 1513 1310C1381 1224 1374 1221 1360 1239C1343 1259 1295 1494 1305 1510C1313 1524 1363 1512 1470 1469M1726 1394C1699 1369 1663 1342 1646 1333C1618 1319 1531 1264 1437 1202C1417 1188 1397 1179 1395 1182C1389 1188 1488 1263 1533 1286C1550 1296 1581 1316 1600 1331C1654 1373 1754 1439 1765 1439C1771 1439 1753 1419 1726 1394M1730 1343C1730 1338 1710 1273 1685 1196C1660 1120 1640 1050 1640 1041C1640 1011 1586 860 1576 863C1571 865 1541 914 1510 972C1479 1030 1443 1092 1431 1109C1419 1126 1411 1144 1415 1149C1418 1154 1480 1196 1553 1241C1625 1286 1692 1329 1700 1337C1716 1351 1730 1354 1730 1343M2330 1322C2330 1294 2313 1264 2273 1220C2260 1206 2250 1191 2250 1186C2250 1182 2226 1180 2198 1184C2169 1187 2139 1190 2133 1190C2107 1190 2122 1210 2173 1244C2201 1263 2243 1294 2265 1314C2314 1357 2330 1359 2330 1322M1750 1163C1751 1103 1755 1002 1758 937C1762 871 1763 814 1760 810C1757 805 1724 808 1687 816C1635 828 1620 836 1620 850C1620 899 1728 1282 1740 1275C1744 1272 1749 1222 1750 1163M1354 1161C1357 1156 1334 1140 1302 1125C1271 1109 1227 1088 1205 1077C1138 1045 1184 1080 1267 1126C1310 1150 1346 1169 1347 1169C1348 1170 1351 1166 1354 1161M2076 1003C2072 993 2060 991 2033 996C2012 1000 1994 1004 1992 1005C1990 1007 2007 1039 2029 1076C2052 1113 2071 1149 2072 1154C2073 1160 2076 1132 2077 1091C2079 1050 2079 1011 2076 1003M2197 1152C2218 1145 2217 1142 2165 1085L2110 1025L2110 1086C2110 1119 2113 1150 2117 1153C2125 1161 2167 1160 2197 1152M2400 1152C2400 1143 2386 1135 2310 1102C2285 1091 2248 1075 2227 1065C2206 1056 2187 1050 2185 1052C2177 1060 2253 1145 2273 1151C2311 1160 2400 1161 2400 1152M1446 1035C1457 1016 1454 1015 1356 1018C1246 1021 1210 1026 1210 1038C1210 1043 1249 1065 1296 1088L1383 1129L1409 1092C1423 1071 1440 1045 1446 1035M996 1059C1099 1009 1100 1008 1100 973C1100 940 1099 938 1073 945C1057 948 1003 974 953 1002C869 1048 860 1056 860 1082C860 1121 875 1119 996 1059M860 981C863 978 885 964 910 951C1112 845 1093 861 1086 796C1083 763 1078 735 1076 732C1073 730 1039 741 1000 756C918 789 830 860 830 893C830 910 834 908 848 880C860 855 873 844 893 842C908 840 920 843 920 848C920 864 857 920 839 920C823 920 810 947 810 983C810 997 815 1000 833 994C845 990 857 985 860 981M1154 963C1145 914 1139 904 1129 923C1117 944 1130 1000 1147 1000C1158 1000 1159 991 1154 963M1372 831C1427 793 1418 786 1353 816C1321 831 1273 851 1245 862C1175 890 1168 897 1176 939C1180 959 1185 978 1187 983C1189 987 1224 961 1263 924C1302 888 1351 846 1372 831M1415 984C1432 977 1448 944 1456 900C1459 886 1466 858 1471 836C1477 815 1480 796 1477 794C1473 790 1366 864 1342 887C1335 894 1321 905 1312 913C1303 920 1282 940 1266 958L1236 990L1317 990C1362 990 1406 987 1415 984M2023 939C2013 922 1989 897 1970 884C1951 871 1931 852 1925 843C1914 823 1780 694 1780 702C1780 710 1828 790 1853 825C1961 973 1958 970 2001 970C2041 970 2041 970 2023 939M1531 862C1560 817 1568 768 1551 741C1545 731 1541 731 1535 740C1527 752 1480 900 1480 913C1480 929 1503 906 1531 862M1255 790C1302 768 1340 746 1340 741C1340 735 1319 729 1293 726C1266 722 1223 716 1197 712C1171 707 1147 707 1144 712C1139 720 1149 809 1157 823C1163 833 1163 834 1255 790M1702 778C1734 771 1760 761 1760 754C1760 735 1712 682 1689 675C1663 667 1581 700 1578 720C1571 790 1593 800 1702 778M1938 713C1935 635 1935 635 1890 627C1865 622 1823 612 1796 604C1719 581 1715 600 1785 662C1817 691 1862 732 1884 752C1907 773 1929 790 1933 790C1937 790 1940 755 1938 713M1454 695C1474 687 1490 674 1490 667C1490 661 1470 633 1445 606C1403 560 1397 558 1362 564C1342 567 1302 570 1273 570C1223 570 1220 572 1185 617C1140 675 1144 678 1283 691C1338 696 1386 703 1389 705C1397 714 1417 710 1454 695M1518 594C1509 563 1505 560 1502 577C1499 598 1517 646 1526 638C1528 636 1524 616 1518 594M1601 625C1617 616 1628 605 1625 600C1622 595 1624 563 1630 529C1636 495 1639 466 1636 463C1629 456 1552 517 1540 539C1530 559 1547 640 1562 640C1567 640 1584 633 1601 625" id="ShapeObject_1256850979391" stroke="none" style="fill:#000000;fill-opacity:1" transform="matrix(0.1,0,0,0.1,0,0)" opacity="1"/>
      <path d="M1240 656M1240 656C1240 634 1306 590 1339 590C1378 590 1384 602 1365 640C1351 668 1346 670 1295 670C1255 670 1240 666 1240 656" id="ShapeObject_1256850979393" stroke="none" style="fill:#000000;fill-opacity:1" transform="matrix(0.1,0,0,0.1,0,0)" opacity="1"/>
    </g>
  </g>
</svg>