<svg version="1.1" width="425" height="425" viewBox="0 0 425 425" xmlns:xlink="http://www.w3.org/1999/xlink" xmlns="http://www.w3.org/2000/svg">
  <desc>Created with Raven (http://www.aviary.com)</desc>
  <defs/>
  <g id="Layer_1256682927572" opacity="1">
    <g id="Layer_1256682927573" opacity="1">
      <path d="M2172 3498M2172 3498C2166 3492 2168 3477 2177 3458C2197 3419 2207 3261 2191 3251C2183 3245 2186 3229 2205 3189C2218 3159 2230 3127 2230 3118C2230 3106 2252 3089 2292 3069C2326 3052 2359 3032 2367 3025C2374 3017 2406 2997 2437 2979C2534 2924 2771 2757 2778 2738C2780 2734 2787 2730 2793 2730C2800 2729 2833 2703 2867 2672C2938 2606 2937 2609 2887 2500C2874 2470 2859 2435 2855 2422C2851 2409 2817 2338 2780 2264C2742 2189 2706 2112 2699 2092C2693 2071 2683 2050 2679 2044C2674 2037 2606 2028 2522 2021C2364 2009 2207 1988 2095 1964C2046 1954 2011 1952 1979 1958C1921 1969 1907 1964 1809 1888C1677 1786 1607 1740 1582 1740C1577 1740 1506 1794 1424 1861C1342 1927 1259 1993 1240 2008C1221 2023 1176 2059 1141 2090C1077 2145 1077 2145 1106 2151C1122 2154 1203 2155 1285 2153C1435 2150 1435 2150 1472 2110C1492 2088 1527 2031 1550 1985C1573 1938 1595 1900 1599 1900C1602 1900 1614 1907 1624 1915C1635 1923 1652 1930 1662 1930C1672 1930 1680 1935 1680 1940C1680 1946 1712 1982 1750 2021C1789 2059 1820 2093 1820 2094C1820 2096 1803 2109 1783 2123C1739 2152 1580 2307 1533 2365C1509 2397 1499 2402 1489 2393C1479 2383 1479 2378 1490 2365C1500 2353 1500 2347 1489 2333C1477 2319 1474 2322 1470 2361L1465 2405L1309 2411C1223 2414 1148 2420 1142 2424C1136 2427 1103 2431 1068 2431C1033 2431 964 2436 913 2441C809 2451 750 2436 750 2400C750 2379 716 2236 705 2207C700 2194 705 2180 722 2162C736 2147 759 2117 773 2095C787 2073 811 2042 825 2025C840 2009 870 1968 893 1935C915 1903 960 1841 992 1798C1024 1756 1050 1717 1050 1711C1050 1706 1035 1666 1016 1623C997 1580 970 1515 956 1479C926 1400 812 1178 796 1168C791 1164 782 1164 778 1166C773 1169 724 1173 668 1176C516 1182 525 1174 516 1316C513 1360 509 1403 506 1411C504 1419 499 1437 496 1452C490 1478 487 1479 436 1479C407 1478 373 1483 362 1489C331 1506 328 1504 255 1444C136 1347 134 1343 126 1183C120 1079 111 1015 88 925C45 758 44 743 68 711C79 696 102 655 120 620C151 559 152 553 145 476C142 431 136 385 133 373C126 343 150 343 220 372C256 387 275 390 277 383C279 377 292 359 306 343C319 328 354 281 382 239C466 118 446 125 720 128C849 129 963 133 973 136C1014 149 984 175 895 205C723 263 722 279 889 291C949 296 1028 306 1065 315C1102 323 1136 328 1141 324C1146 321 1163 332 1178 347C1349 527 1378 554 1405 561C1422 566 1496 585 1570 605C1696 639 1790 679 1790 700C1790 704 1755 711 1713 714C1601 723 1546 741 1542 768C1539 789 1597 891 1621 905C1637 916 1825 918 1965 909C2037 904 2129 899 2170 897C2211 895 2283 884 2330 872C2393 856 2446 851 2533 851C2598 851 2654 848 2659 846C2663 843 2726 838 2798 834C2914 828 2930 829 2930 843C2930 852 2926 862 2920 865C2915 868 2910 876 2910 882C2910 889 2923 882 2938 867C2965 841 2990 832 2990 848C2990 852 3007 873 3028 895C3048 917 3095 971 3132 1016C3229 1133 3221 1130 3282 1076C3311 1050 3381 1006 3437 977C3494 948 3540 920 3540 913C3540 885 3562 893 3615 942C3646 971 3700 1035 3735 1085C3771 1134 3834 1215 3876 1263L3953 1352L3935 1536C3918 1711 3918 1724 3934 1783C3966 1899 4003 2005 4018 2030C4043 2068 4044 2101 4022 2106C4012 2109 3998 2121 3990 2133C3962 2179 3850 2398 3850 2408C3850 2414 3883 2459 3923 2507C3963 2555 4007 2611 4020 2630C4033 2649 4055 2677 4069 2691C4083 2705 4113 2738 4135 2764C4157 2791 4185 2816 4197 2821C4210 2826 4220 2837 4220 2846C4220 2859 4212 2861 4173 2856C4146 2853 4094 2848 4055 2844C3966 2836 3954 2829 3946 2783C3936 2725 3880 2561 3852 2505C3829 2460 3826 2457 3819 2477C3815 2490 3806 2539 3800 2587C3794 2636 3785 2704 3780 2740C3774 2776 3765 2857 3759 2920C3754 2983 3747 3042 3745 3050C3742 3058 3738 3099 3735 3140C3731 3181 3720 3258 3709 3312C3699 3365 3690 3411 3690 3414C3690 3417 3683 3420 3675 3420C3661 3420 3629 3362 3615 3310C3597 3242 3544 3123 3526 3108C3505 3091 3508 3079 3540 3030C3545 3022 3577 2957 3610 2887C3668 2765 3671 2756 3667 2697C3660 2608 3642 2485 3623 2410C3614 2374 3605 2325 3603 2300C3601 2275 3595 2226 3589 2190C3574 2105 3572 2088 3565 2005C3556 1891 3539 1757 3529 1725C3524 1709 3518 1675 3515 1650C3512 1625 3508 1592 3505 1575C3497 1529 3436 1340 3429 1340C3417 1340 3400 1393 3384 1478C3334 1753 3318 1826 3304 1836C3296 1842 3267 1896 3239 1955C3179 2082 3176 2035 3267 2404C3315 2598 3330 2675 3322 2678C3315 2680 3287 2701 3259 2723C3231 2746 3198 2772 3186 2780C3161 2797 3101 2845 3032 2903C2990 2939 2916 2997 2850 3045C2788 3091 2711 3168 2690 3204C2670 3240 2669 3255 2672 3366C2674 3461 2672 3492 2661 3502C2652 3510 2646 3511 2644 3505C2641 3498 2593 3495 2507 3496C2432 3498 2370 3494 2363 3489C2355 3482 2332 3482 2293 3489C2194 3506 2181 3507 2172 3498M2327 3454C2374 3447 2376 3440 2384 3315C2387 3282 2391 3247 2395 3238C2404 3215 2394 3215 2307 3236C2254 3249 2239 3257 2235 3274C2225 3324 2212 3455 2217 3462C2219 3467 2236 3469 2253 3466C2271 3463 2304 3458 2327 3454M2551 3463C2579 3459 2582 3448 2609 3298C2617 3255 2615 3250 2599 3250C2573 3250 2447 3291 2433 3304C2423 3313 2400 3418 2400 3458C2400 3470 2489 3473 2551 3463M3695 3234C3702 3174 3702 3174 3654 3158C3608 3143 3605 3143 3602 3160C3599 3176 3642 3320 3657 3344C3667 3360 3688 3300 3695 3234M2504 3246C2532 3239 2555 3229 2557 3224C2561 3211 2476 3188 2455 3196C2447 3199 2440 3205 2440 3209C2440 3212 2437 3225 2434 3238C2427 3264 2434 3265 2504 3246M2337 3198C2388 3183 2385 3172 2324 3145C2293 3131 2266 3120 2265 3120C2256 3120 2239 3193 2244 3206C2250 3221 2268 3220 2337 3198M2642 3183C2651 3173 2677 3129 2701 3085C2724 3041 2765 2971 2791 2930C2818 2889 2858 2819 2880 2776L2922 2697L2837 2774C2791 2816 2721 2888 2684 2932C2646 2977 2589 3043 2557 3078C2525 3114 2501 3148 2503 3154C2505 3160 2531 3172 2561 3181C2630 3203 2624 3203 2642 3183M2470 3127C2489 3109 2523 3072 2544 3045C2583 2998 2583 2997 2557 3004C2543 3007 2493 3028 2448 3049C2402 3070 2357 3089 2347 3091C2320 3097 2324 3113 2356 3128C2372 3135 2392 3145 2400 3150C2424 3164 2433 3161 2470 3127M3696 3052C3692 3004 3687 2955 3685 2944C3683 2934 3681 2904 3681 2878C3680 2851 3676 2830 3672 2830C3659 2830 3570 3034 3570 3061C3570 3077 3579 3090 3598 3099C3623 3111 3690 3139 3699 3140C3701 3140 3699 3100 3696 3052M2778 3070C2790 3059 2802 3050 2806 3050C2810 3050 2824 3040 2838 3028C2851 3015 2897 2978 2940 2945C3085 2835 3260 2690 3260 2681C3260 2670 3091 2630 3045 2630C3015 2630 3008 2636 2971 2695C2948 2730 2930 2762 2930 2764C2930 2766 2893 2828 2847 2902C2761 3040 2735 3090 2748 3090C2753 3090 2766 3081 2778 3070M2503 2991C2526 2980 2565 2965 2590 2956C2621 2944 2651 2922 2684 2884C2710 2854 2731 2827 2729 2826C2725 2822 2507 2962 2465 2994C2438 3015 2452 3014 2503 2991M3745 2820C3754 2759 3763 2625 3758 2630C3755 2633 3740 2671 3725 2714C3701 2783 3698 2802 3704 2859C3718 2989 3720 2993 3731 2915C3736 2882 3742 2839 3745 2820M4100 2775C4066 2740 4066 2740 4043 2762C4005 2798 4013 2810 4077 2810L4134 2810L4100 2775M4014 2745C4041 2710 4041 2710 4011 2668C3995 2644 3968 2609 3950 2590L3919 2555L3925 2595C3929 2617 3941 2662 3952 2695C3963 2728 3973 2761 3975 2768C3981 2786 3985 2784 4014 2745M3743 2580C3763 2528 3782 2468 3786 2447C3792 2410 3792 2410 3736 2385C3705 2371 3672 2360 3663 2360C3646 2360 3646 2370 3674 2526C3682 2570 3690 2626 3691 2648C3693 2671 3697 2687 3701 2683C3704 2678 3723 2632 3743 2580M3284 2613C3270 2549 3258 2529 3236 2535C3199 2546 3105 2583 3096 2591C3092 2595 3121 2605 3161 2614C3202 2622 3244 2631 3255 2633C3266 2636 3278 2638 3283 2639C3287 2639 3288 2628 3284 2613M3126 2540C3191 2518 3246 2500 3248 2500C3256 2500 3190 2207 3172 2160C3162 2135 3162 2135 3145 2175C3091 2303 3067 2358 3055 2385C3008 2488 2981 2580 2997 2580C3002 2580 3060 2562 3126 2540M2981 2414C3016 2251 3030 2131 3046 1846C3049 1796 3053 1753 3055 1749C3064 1735 3032 1709 2965 1676C2927 1657 2892 1645 2889 1648C2883 1654 2891 1741 2905 1825C2912 1867 2950 2433 2950 2499C2950 2541 2959 2517 2981 2414M2911 2342C2910 2284 2907 2233 2905 2230C2903 2227 2899 2170 2895 2105C2892 2039 2887 1956 2883 1920C2879 1884 2876 1848 2875 1840C2872 1806 2858 1724 2854 1710C2851 1702 2818 1757 2779 1835C2710 1974 2710 1974 2721 2034C2727 2070 2760 2152 2802 2239C2840 2319 2879 2402 2887 2423C2896 2444 2905 2458 2908 2455C2911 2452 2913 2401 2911 2342M832 2353C850 2326 872 2296 882 2286C914 2251 905 2240 845 2238C815 2237 782 2236 773 2236C753 2235 753 2247 771 2343C778 2374 786 2400 791 2400C795 2400 814 2379 832 2353M868 2390C898 2373 983 2338 1059 2310L1133 2283L1034 2275C935 2268 935 2268 894 2313C871 2339 850 2368 847 2380C841 2403 843 2404 868 2390M1305 2384C1371 2381 1429 2374 1434 2369C1440 2364 1440 2342 1434 2313L1425 2265L1321 2267C1238 2268 1215 2272 1208 2284C1196 2305 1153 2326 1062 2356C945 2394 948 2403 1075 2396C1136 2392 1239 2387 1305 2384M3059 2307C3069 2279 3092 2225 3109 2188C3154 2090 3156 2061 3125 1935C3097 1820 3081 1778 3080 1815C3080 1826 3076 1876 3071 1925C3066 1975 3059 2053 3055 2100C3052 2147 3043 2226 3036 2277C3030 2327 3027 2367 3031 2364C3035 2362 3048 2336 3059 2307M3812 2188C3816 1967 3808 1697 3798 1725C3795 1736 3789 1761 3785 1780C3781 1799 3766 1869 3750 1935C3735 2001 3712 2112 3699 2183C3679 2294 3678 2312 3691 2325C3705 2339 3774 2368 3797 2369C3806 2370 3810 2322 3812 2188M1583 2223C1558 2190 1523 2190 1498 2223C1475 2252 1476 2272 1501 2305C1523 2332 1523 2332 1564 2291C1604 2250 1604 2250 1583 2223M3939 2172C3991 2079 3996 2062 3982 2045C3978 2039 3961 1993 3945 1943C3915 1851 3901 1829 3899 1873C3896 1961 3888 2077 3880 2145C3867 2245 3867 2287 3879 2275C3884 2269 3911 2223 3939 2172M1293 2234C1365 2230 1393 2224 1397 2214C1400 2206 1400 2197 1397 2193C1394 2190 1310 2188 1212 2188C1032 2188 990 2195 990 2225C990 2249 1036 2250 1293 2234M1474 2201C1488 2179 1504 2159 1510 2155C1515 2152 1520 2141 1520 2132C1519 2120 1509 2126 1486 2153C1468 2173 1448 2190 1441 2190C1435 2190 1430 2201 1430 2215C1430 2251 1446 2246 1474 2201M1662 2193C1701 2155 1697 2149 1645 2167C1620 2175 1600 2183 1600 2185C1600 2199 1614 2220 1623 2220C1629 2220 1647 2208 1662 2193M945 2188C957 2140 971 2091 1004 1975C1038 1857 1055 1780 1047 1780C1036 1780 741 2176 740 2192C740 2201 786 2206 872 2208C933 2210 939 2208 945 2188M1073 2101C1148 2039 1266 1944 1320 1902C1455 1798 1550 1716 1550 1705C1550 1688 1463 1557 1393 1466C1361 1426 1320 1371 1301 1344C1271 1301 1266 1298 1255 1313C1234 1342 1111 1654 1112 1675C1112 1686 1086 1785 1053 1895C1020 2005 990 2112 986 2133C977 2179 977 2179 1073 2101M3650 2020C3667 1927 3700 1667 3700 1625C3700 1611 3501 1386 3494 1392C3493 1394 3495 1413 3501 1435C3534 1571 3582 1843 3590 1945C3602 2078 3622 2191 3627 2150C3629 2136 3639 2078 3650 2020M1703 2118C1740 2106 1770 2094 1770 2090C1770 2087 1748 2062 1721 2036L1671 1987L1636 2060C1616 2100 1600 2135 1600 2137C1600 2146 1641 2138 1703 2118M3714 1935C3749 1791 3769 1684 3773 1618C3775 1586 3775 1560 3774 1560C3772 1560 3762 1580 3751 1604C3739 1632 3723 1714 3710 1817C3698 1909 3685 2003 3680 2025C3675 2047 3671 2081 3671 2100C3672 2130 3673 2128 3681 2085C3686 2058 3701 1990 3714 1935M3874 1767C3879 1715 3873 1687 3859 1696C3854 1699 3851 1785 3852 1888C3853 2075 3853 2075 3861 1945C3865 1874 3871 1793 3874 1767M1604 1994C1615 1978 1619 1965 1613 1959C1607 1953 1597 1963 1587 1985C1568 2026 1577 2031 1604 1994M3218 1927C3236 1887 3250 1848 3250 1838C3250 1823 3184 1779 3139 1765C3120 1759 3119 1761 3125 1792C3143 1885 3173 2000 3179 2000C3182 1999 3200 1967 3218 1927M2496 1940C2459 1918 2426 1900 2424 1900C2413 1900 2317 1851 2255 1814C2115 1731 2127 1732 2093 1803C2043 1906 2043 1907 2087 1925C2140 1947 2327 1972 2495 1978L2565 1981L2496 1940M2666 1943C2662 1922 2658 1887 2655 1865C2644 1760 2631 1703 2590 1585C2572 1535 2572 1535 2476 1532C2374 1529 2289 1545 2213 1581C2179 1598 2169 1609 2156 1647C2145 1679 2143 1697 2150 1705C2156 1712 2197 1739 2243 1766C2349 1829 2358 1833 2405 1852C2427 1861 2488 1893 2540 1924C2656 1992 2674 1995 2666 1943M1968 1853C2021 1714 2032 1729 1878 1731C1740 1732 1690 1737 1690 1749C1690 1765 1906 1930 1927 1930C1933 1930 1952 1895 1968 1853M2012 1903C2036 1873 2139 1628 2140 1598C2140 1582 2112 1591 2107 1608C2092 1654 2072 1699 2048 1740C2007 1809 1967 1920 1984 1920C1991 1920 2004 1912 2012 1903M2760 1813C2841 1645 2843 1642 2837 1628C2832 1614 2688 1548 2638 1536C2602 1528 2603 1532 2640 1656C2656 1710 2670 1764 2670 1774C2670 1813 2692 1920 2700 1920C2704 1920 2731 1872 2760 1813M3331 1600C3343 1537 3354 1472 3356 1455C3359 1439 3365 1403 3371 1376C3376 1349 3378 1325 3376 1323C3367 1314 3283 1358 3225 1403C3127 1477 3120 1486 3129 1517C3141 1559 3229 1730 3258 1769L3283 1803L3297 1759C3304 1735 3319 1663 3331 1600M3189 1708C3151 1633 3119 1587 3110 1596C3106 1601 3100 1624 3096 1646C3089 1692 3097 1702 3159 1731C3211 1756 3213 1755 3189 1708M2041 1692C2045 1688 2057 1659 2068 1628L2089 1571L2043 1545C1991 1516 1781 1440 1735 1433C1706 1429 1704 1431 1679 1492C1632 1604 1608 1679 1613 1694C1618 1707 1650 1708 1827 1704C1941 1701 2038 1695 2041 1692M1598 1625C1639 1524 1670 1441 1670 1432C1670 1426 1646 1414 1618 1405C1589 1395 1556 1382 1545 1376C1513 1356 1344 1290 1326 1290C1317 1290 1310 1294 1310 1300C1310 1305 1352 1365 1403 1432C1454 1500 1513 1583 1534 1618C1555 1653 1573 1680 1575 1678C1576 1676 1587 1653 1598 1625M3064 1658C3071 1631 3072 1530 3065 1530C3055 1530 2944 1606 2941 1614C2939 1622 3033 1678 3051 1680C3055 1680 3060 1670 3064 1658M1073 1408C1076 1294 1081 1197 1084 1192C1087 1186 1085 1168 1079 1151C1068 1120 1068 1120 1006 1126C973 1130 935 1137 922 1141C909 1146 888 1150 875 1150C862 1150 849 1154 846 1159C843 1164 867 1221 899 1286C932 1352 970 1434 985 1470C1036 1595 1054 1630 1061 1623C1065 1618 1071 1522 1073 1408M3910 1453C3910 1384 3898 1377 3867 1429C3845 1466 3846 1482 3867 1552L3885 1609L3897 1562C3904 1536 3910 1487 3910 1453M2930 1575C2952 1561 2973 1550 2978 1550C2983 1550 2997 1539 3010 1525C3034 1499 3034 1499 2892 1501C2813 1501 2737 1505 2722 1510C2697 1517 2700 1519 2770 1552C2892 1609 2880 1607 2930 1575M1150 1495C1150 1489 1168 1440 1190 1386C1219 1314 1227 1284 1220 1271C1209 1249 1133 1180 1121 1180C1109 1180 1100 1274 1100 1415C1098 1603 1096 1591 1125 1545C1138 1523 1150 1500 1150 1495M3737 1553C3772 1508 3772 1503 3732 1479C3712 1467 3658 1432 3612 1402C3566 1372 3527 1350 3524 1353C3516 1360 3704 1570 3719 1570C3721 1570 3729 1562 3737 1553M2251 1531C2326 1506 2419 1492 2515 1490C2543 1490 2546 1486 2564 1428C2575 1393 2598 1338 2615 1305C2632 1272 2656 1216 2669 1180C2689 1127 2708 1100 2775 1030C2819 983 2863 936 2871 926C2884 908 2883 908 2865 917C2854 923 2819 951 2787 979C2755 1007 2714 1037 2696 1044C2662 1058 2620 1107 2620 1132C2620 1140 2616 1150 2611 1155C2606 1161 2578 1225 2549 1298C2521 1371 2490 1435 2481 1439C2465 1448 2378 1459 2290 1464C2265 1465 2222 1475 2193 1485C2135 1506 2151 1510 2010 1442C1881 1381 1712 1315 1703 1324C1701 1326 1704 1339 1709 1354C1721 1383 1735 1390 1900 1451C1963 1474 2047 1507 2085 1526C2124 1544 2158 1559 2161 1559C2164 1560 2204 1547 2251 1531M3062 1461C3066 1460 3067 1448 3065 1433C3000 1042 2972 900 2961 900C2958 900 2902 953 2838 1018C2744 1113 2717 1146 2697 1195C2683 1228 2656 1291 2637 1335C2570 1485 2552 1473 2821 1466C2950 1464 3058 1461 3062 1461M3833 1421C3853 1395 3870 1368 3870 1363C3870 1350 3797 1318 3689 1284C3643 1270 3569 1243 3525 1225C3443 1191 3357 1170 3375 1188C3401 1213 3705 1422 3747 1444C3774 1458 3795 1469 3795 1470C3796 1470 3813 1448 3833 1421M2186 1446C2213 1438 2273 1429 2320 1426C2415 1420 2480 1404 2480 1389C2480 1383 2487 1364 2494 1347C2513 1307 2588 1125 2602 1085C2615 1051 2631 1036 2676 1016C2693 1009 2729 983 2756 959C2783 935 2819 905 2835 893C2865 871 2865 871 2785 871C2592 871 2355 889 2310 906C2285 915 2231 925 2190 927C1913 940 1734 955 1728 964C1718 979 1719 1172 1729 1234C1738 1288 1754 1305 1811 1320C1832 1326 1861 1337 1877 1345C1892 1353 1908 1360 1912 1360C1916 1360 1956 1377 2002 1398C2048 1419 2096 1441 2110 1447C2124 1454 2135 1459 2136 1459C2136 1460 2159 1454 2186 1446M345 1312L345 1175L280 1153C244 1141 201 1131 183 1131C151 1130 151 1130 157 1218C160 1266 169 1314 176 1325C195 1354 312 1449 330 1449C343 1450 345 1428 345 1312M475 1398C479 1374 482 1317 483 1270C485 1185 485 1185 452 1184C434 1183 417 1187 414 1192C402 1211 410 1424 423 1432C453 1451 469 1440 475 1398M3203 1380C3251 1347 3303 1314 3319 1305C3349 1290 3349 1290 3295 1236C3265 1206 3232 1180 3223 1178C3213 1176 3205 1168 3205 1159C3205 1144 3172 1103 3055 973C3034 948 3014 932 3012 938C3007 954 3079 1381 3095 1428C3102 1447 3111 1443 3203 1380M1667 1313C1653 1263 1636 1168 1614 1025C1611 1003 1607 984 1607 983C1605 982 1530 1038 1425 1120C1332 1193 1297 1227 1304 1239C1308 1245 1316 1250 1322 1250C1327 1250 1346 1256 1363 1264C1575 1358 1662 1391 1674 1380C1679 1375 1676 1347 1667 1313M1698 1130C1698 975 1696 950 1682 950C1661 950 1641 980 1640 1012C1640 1038 1690 1310 1695 1310C1696 1310 1697 1229 1698 1130M3818 1248C3794 1219 3752 1164 3725 1127C3664 1040 3582 950 3564 950C3520 950 3283 1096 3300 1113C3303 1116 3352 1134 3410 1153C3468 1173 3592 1215 3685 1248C3779 1280 3857 1306 3859 1304C3861 1302 3843 1277 3818 1248M1375 1126C1543 994 1560 980 1560 969C1560 964 1543 967 1523 976C1502 985 1458 1002 1425 1012C1325 1045 1160 1113 1148 1127C1139 1138 1148 1151 1186 1189C1227 1230 1237 1236 1250 1225C1258 1218 1315 1173 1375 1126M698 1143C683 1141 656 1141 638 1143C620 1145 632 1147 665 1147C698 1147 713 1145 698 1143M525 1064C537 1032 557 983 569 956C611 862 584 892 491 1042C469 1079 450 1112 450 1114C450 1120 482 1128 494 1126C499 1125 513 1097 525 1064M763 1100C768 1096 746 1039 715 974C658 855 658 855 642 890C633 909 612 957 594 995C576 1034 558 1078 554 1093C548 1121 548 1121 651 1115C708 1111 759 1104 763 1100M431 1088C441 1075 449 1061 450 1056C450 1051 456 1039 464 1031C472 1022 490 993 505 965C520 938 540 906 550 895C616 818 644 748 622 713C612 698 544 728 513 761C493 783 459 880 416 1032C392 1116 396 1129 431 1088M902 1085C1018 1060 1012 1065 987 1022C959 974 937 949 871 886C841 858 778 797 732 750C670 687 649 672 654 690C658 704 665 740 670 770C675 800 699 866 723 915C747 965 771 1016 775 1030C785 1062 810 1100 820 1100C825 1100 862 1093 902 1085M332 1033C326 1012 320 950 320 895C319 819 314 785 299 754C276 706 173 603 160 616C156 621 136 654 117 690C85 750 83 758 94 785C101 802 114 821 123 829C138 841 140 839 140 804C140 776 147 758 167 738C182 723 197 710 201 710C205 710 214 735 220 765C229 808 229 828 219 855C206 890 180 903 180 874C180 866 176 862 170 865C157 873 211 960 274 1033C329 1097 351 1098 332 1033M1151 1076C1170 1069 1194 1060 1204 1056C1214 1053 1220 1047 1217 1044C1207 1033 1110 1063 1110 1077C1110 1093 1110 1093 1151 1076M254 1058C249 1051 230 1024 211 998C191 973 162 932 146 909C129 886 115 871 113 877C110 886 146 1039 152 1046C154 1047 172 1050 193 1053C214 1056 234 1061 237 1064C248 1075 261 1070 254 1058M1057 1018C1054 1000 1046 951 1040 910C1020 778 1038 796 850 722C809 705 758 685 738 676C714 666 700 664 700 671C700 677 758 738 829 807C900 875 977 958 1001 991C1049 1057 1065 1065 1057 1018M1261 1007C1372 982 1455 956 1474 939C1483 931 1389 899 1299 881C1268 874 1211 858 1174 843C1136 829 1094 815 1081 812C1057 807 1057 807 1063 871C1066 906 1075 959 1081 988C1096 1050 1075 1048 1261 1007M400 897C417 848 429 806 426 803C417 794 352 810 348 823C346 829 345 851 346 870C347 889 349 927 349 955C350 1018 360 1007 400 897M1536 901C1533 897 1505 875 1473 854C1441 833 1384 790 1345 759C1307 729 1248 685 1215 663C1182 641 1146 613 1136 601C1125 590 1113 580 1108 580C1103 580 1049 548 988 509C898 452 870 440 843 442C809 445 809 445 874 520C910 561 970 633 1007 680C1093 788 1131 807 1362 865C1457 889 1536 909 1538 909C1540 910 1539 906 1536 901M1529 821C1511 785 1505 781 1482 786C1467 790 1454 794 1452 795C1450 796 1471 813 1497 833C1523 852 1546 867 1548 865C1550 864 1541 844 1529 821M196 773C191 761 186 760 179 767C171 775 172 785 181 801C193 822 195 823 198 807C200 797 199 782 196 773M445 751C448 746 440 738 428 734C415 730 390 716 372 702C354 688 337 680 334 683C328 688 419 759 432 760C436 760 441 756 445 751M994 714C983 699 968 677 959 664C940 635 776 447 755 430C732 411 619 390 615 404C613 410 600 449 587 490C560 570 544 640 553 640C556 640 565 637 574 634C586 629 587 624 579 608C563 579 583 561 607 582C625 597 715 640 730 640C734 640 764 652 796 667C860 697 1003 748 1009 743C1011 742 1004 729 994 714M1435 705C1310 617 1279 597 1274 602C1266 611 1346 675 1408 708C1484 750 1496 748 1435 705M525 490C533 454 542 415 546 403C552 381 550 380 491 380C449 380 430 384 429 393C429 399 429 434 430 470C433 621 437 687 445 700C455 715 504 587 525 490M1643 694C1734 683 1721 675 1545 629C1501 618 1457 606 1448 603C1419 594 1427 612 1478 663C1519 705 1529 711 1555 706C1572 703 1611 697 1643 694M593 678C602 670 606 660 602 653C597 645 588 649 571 666C546 692 562 701 593 678M1264 648C1222 600 1181 569 1102 524C1005 470 982 470 1071 525C1105 546 1146 575 1164 590C1197 620 1270 670 1278 670C1281 670 1275 660 1264 648M360 613C340 554 297 459 290 462C287 464 265 486 242 511L201 557L233 581C273 611 363 660 368 655C370 653 366 634 360 613M405 515C403 441 399 376 395 371C392 364 376 367 354 378C320 394 318 397 323 435C325 457 337 496 349 522C360 548 370 571 370 573C370 582 400 650 404 650C406 650 406 589 405 515M575 442C579 411 577 413 560 460C549 490 541 522 541 530C541 555 569 483 575 442M1296 531C1288 519 1125 450 1104 450C1095 450 1056 434 1019 415C945 377 920 371 939 393C945 401 980 419 1017 434C1055 449 1112 475 1145 491C1219 529 1309 552 1296 531M244 469C258 452 268 434 265 429C257 418 181 395 174 403C171 406 171 433 175 464C181 513 184 518 200 510C210 505 230 486 244 469M1184 409C1148 373 1134 367 1049 349C923 323 897 328 975 364C1049 399 1213 459 1220 454C1222 451 1206 431 1184 409M700 365C700 363 688 350 673 336C653 317 644 314 638 323C625 343 629 358 648 363C672 370 700 371 700 365M568 329C583 308 584 308 597 325C609 342 610 342 610 317C610 292 607 290 583 296C467 324 440 344 511 349C544 350 556 346 568 329M450 302C480 292 531 275 563 265C622 246 622 246 599 229C586 220 552 204 522 193C468 175 468 175 438 210C406 248 360 316 360 326C360 333 369 331 450 302M807 202C847 187 880 172 880 169C880 160 587 151 571 160C551 171 688 241 715 233C726 231 768 216 807 202" id="ShapeObject_1256682927575" stroke="none" style="fill:#000000;fill-opacity:1" transform="matrix(0.1,0,0,0.1,0,72)" opacity="1"/>
      <path d="M248 1353M248 1353C216 1345 210 1268 241 1262C250 1260 263 1273 273 1295C301 1354 296 1366 248 1353" id="ShapeObject_1256682927577" stroke="none" style="fill:#000000;fill-opacity:1" transform="matrix(0.1,0,0,0.1,0,72)" opacity="1"/>
    </g>
  </g>
</svg>