<svg version="1.1" width="400" height="400" viewBox="0 0 400 400" xmlns:xlink="http://www.w3.org/1999/xlink" xmlns="http://www.w3.org/2000/svg">
  <desc>Created with Raven (http://www.aviary.com)</desc>
  <defs/>
  <g id="Layer_1256639073314" opacity="1">
    <g id="Layer_1256639073315" opacity="1">
      <path d="M2685 3993M2685 3993C2619 3985 2520 3968 2520 3965C2520 3952 2571 3778 2583 3750C2591 3731 2595 3709 2593 3702C2590 3695 2595 3681 2603 3672C2613 3660 2619 3618 2623 3520C2626 3446 2632 3376 2636 3365C2640 3354 2605 3381 2558 3425C2474 3505 2473 3505 2460 3574C2452 3619 2449 3694 2452 3786C2456 3928 2456 3928 2421 3938C2401 3944 2340 3950 2285 3951L2185 3954L2188 3895C2190 3840 2221 3697 2256 3582C2266 3549 2270 3514 2266 3490C2261 3457 2263 3450 2288 3434C2351 3393 2474 3263 2697 3000C2718 2974 2718 2974 2684 2894C2644 2802 2591 2697 2526 2585C2501 2541 2480 2500 2480 2494C2480 2489 2452 2472 2418 2458C2383 2444 2317 2416 2270 2397C2096 2324 1903 2262 1827 2256C1812 2254 1794 2248 1788 2242C1781 2235 1767 2230 1755 2230C1743 2230 1729 2225 1723 2219C1717 2213 1679 2200 1638 2190C1598 2180 1538 2162 1505 2150C1419 2118 1402 2127 1351 2234C1328 2281 1310 2322 1310 2326C1310 2329 1287 2384 1258 2449C1230 2513 1203 2583 1199 2605C1195 2627 1186 2668 1180 2695C1144 2862 1121 3012 1129 3028C1134 3037 1146 3067 1156 3095C1166 3122 1179 3151 1186 3157C1196 3168 1193 3187 1170 3258C1155 3306 1126 3401 1107 3470C1087 3539 1064 3615 1055 3640C1041 3679 1040 3697 1049 3771C1065 3892 1066 3888 1018 3900C996 3907 966 3919 953 3927C930 3942 918 3942 797 3924C760 3918 758 3917 764 3886C767 3869 774 3830 779 3800C784 3769 800 3720 814 3690C836 3645 842 3614 850 3496C856 3418 865 3314 870 3264C875 3213 882 2928 886 2629L892 2085L821 1938C782 1857 750 1786 750 1780C750 1775 746 1770 741 1770C731 1770 721 1794 685 1910C658 1995 568 2230 550 2262C544 2272 540 2287 540 2296C540 2306 567 2290 618 2248C690 2188 745 2147 826 2092C857 2072 861 2071 867 2086C870 2095 867 2106 859 2111C798 2147 689 2231 584 2323L494 2402L482 2701C471 2975 471 3003 486 3033C507 3074 550 3130 560 3130C578 3130 720 3286 720 3306C720 3318 710 3340 698 3356C663 3403 566 3500 555 3500C539 3499 454 3364 404 3259C357 3163 307 3077 281 3050C270 3038 268 3010 274 2890C281 2764 284 2658 291 2356C293 2290 294 2286 334 2246C385 2195 460 2097 460 2082C460 2077 463 2070 467 2068C480 2063 538 1985 571 1928C588 1899 613 1862 627 1845C640 1829 667 1790 687 1760C727 1698 726 1733 696 1430C673 1193 659 1085 652 1078C642 1068 453 1020 424 1020C395 1020 391 1029 355 1165C340 1220 327 1271 324 1279C321 1289 309 1291 279 1286C249 1281 224 1286 174 1306C138 1320 107 1330 105 1328C104 1327 88 1291 70 1250C48 1199 37 1159 37 1125C37 1075 64 951 95 855C117 789 116 766 86 670C72 626 60 581 60 571C60 562 89 524 125 488L190 423L180 339C174 293 167 247 164 237C155 208 183 207 252 235C316 261 316 261 365 239C396 225 449 183 511 123L607 30L820 34L1033 39L1057 82C1071 106 1095 150 1112 180C1128 210 1169 280 1201 336C1259 436 1261 437 1328 468C1365 485 1414 502 1438 506C1486 514 1480 498 1540 750C1558 824 1583 914 1595 950C1648 1103 1673 1166 1683 1179C1692 1189 1716 1191 1790 1187C1842 1184 1928 1185 1980 1190C2032 1195 2136 1202 2210 1205C2453 1216 2682 1252 2802 1299C2817 1305 2836 1307 2844 1304C2854 1300 2903 1331 2930 1360C2933 1363 2958 1385 2987 1408L3039 1451L3142 1396C3328 1298 3359 1283 3365 1288C3368 1291 3368 1331 3364 1377C3359 1444 3360 1460 3371 1460C3379 1460 3399 1479 3415 1502C3432 1525 3467 1568 3494 1597L3542 1649L3521 1712L3499 1775L3562 1835C3597 1868 3643 1910 3665 1927C3701 1956 3703 1961 3689 1973C3676 1982 3671 2010 3666 2090C3659 2218 3647 2586 3648 2617C3650 2643 3645 2646 3566 2675L3505 2697L3502 2809C3499 2920 3499 2920 3552 2978C3684 3122 3722 3158 3740 3153C3755 3149 3760 3155 3764 3182C3806 3461 3853 3719 3870 3757C3893 3809 3897 3870 3877 3870C3870 3870 3856 3844 3846 3813C3836 3781 3806 3712 3780 3660C3754 3608 3718 3534 3701 3495C3667 3420 3657 3412 3536 3370C3508 3361 3483 3347 3479 3339C3467 3316 3432 3182 3410 3073C3388 2965 3363 2884 3336 2832C3318 2797 3315 2754 3330 2745C3342 2737 3362 2690 3395 2595C3408 2557 3430 2492 3445 2452C3459 2411 3469 2376 3467 2374C3465 2371 3435 2390 3401 2415C3338 2462 3320 2469 3320 2448C3320 2441 3331 2382 3345 2317C3359 2253 3370 2186 3370 2168C3370 2140 3342 2082 3227 1873C3220 1861 3211 1850 3205 1849C3196 1847 3132 1945 3103 2005C3095 2022 3074 2062 3056 2095C2956 2282 2962 2266 2955 2390C2952 2453 2947 2537 2945 2575C2924 2876 2921 2970 2931 2994C2941 3015 2939 3025 2919 3057C2906 3078 2896 3099 2898 3103C2899 3108 2887 3189 2871 3283C2853 3383 2839 3503 2837 3570C2834 3671 2831 3690 2812 3716C2790 3745 2790 3750 2799 3849C2804 3905 2814 3958 2820 3965C2827 3973 2829 3984 2825 3990C2819 3999 2750 4001 2685 3993M2728 3898C2752 3771 2744 3720 2702 3735C2694 3738 2675 3740 2659 3740C2632 3740 2626 3746 2605 3793C2592 3821 2580 3863 2578 3884C2575 3923 2576 3924 2620 3941C2645 3950 2677 3958 2691 3959C2714 3960 2717 3955 2728 3898M2371 3893C2377 3878 2384 3828 2387 3781C2393 3698 2393 3698 2369 3705C2356 3709 2324 3723 2298 3736C2256 3757 2249 3766 2235 3812C2227 3840 2220 3876 2220 3892C2220 3920 2220 3920 2290 3920C2358 3920 2361 3919 2371 3893M946 3815C978 3700 979 3704 913 3697C865 3692 853 3694 842 3707C826 3729 812 3783 808 3840C805 3882 806 3885 835 3891C852 3895 878 3897 894 3897C922 3895 925 3891 946 3815M1020 3818C1020 3794 1015 3768 1010 3760C1005 3752 1000 3750 1000 3755C1000 3761 993 3786 985 3813C971 3860 971 3860 995 3860C1018 3860 1020 3856 1020 3818M2331 3679C2358 3667 2380 3653 2380 3648C2380 3643 2356 3640 2328 3642C2279 3645 2275 3647 2272 3673C2268 3706 2268 3706 2331 3679M980 3643C980 3633 968 3558 954 3475C940 3393 926 3306 923 3282C914 3213 902 3224 895 3307C892 3350 884 3421 879 3465C866 3577 867 3647 883 3653C889 3656 914 3659 938 3659C972 3660 980 3657 980 3643M2774 3650C2797 3642 2800 3635 2800 3589C2800 3543 2798 3539 2784 3551C2767 3565 2710 3645 2710 3654C2710 3663 2746 3661 2774 3650M2715 3578C2740 3544 2760 3507 2760 3495C2760 3472 2700 3368 2684 3363C2669 3358 2663 3397 2654 3533C2649 3609 2650 3640 2659 3640C2665 3640 2690 3612 2715 3578M3770 3415C3753 3317 3737 3234 3734 3231C3726 3222 3640 3269 3640 3283C3640 3290 3660 3336 3684 3386C3708 3435 3743 3509 3761 3550C3780 3591 3796 3617 3798 3609C3799 3601 3787 3514 3770 3415M2424 3583C2427 3573 2430 3543 2432 3515C2434 3465 2434 3465 2382 3465C2354 3466 2325 3471 2319 3477C2313 3483 2305 3513 2301 3544L2293 3600L2356 3600C2407 3600 2420 3597 2424 3583M1019 3494C1043 3307 1069 3123 1076 3096C1083 3068 1082 3067 1054 3073C996 3084 930 3119 930 3137C931 3160 982 3483 996 3553C999 3569 1004 3580 1006 3578C1008 3576 1014 3538 1019 3494M1084 3435C1097 3391 1111 3344 1114 3330C1117 3316 1126 3287 1134 3265C1154 3212 1153 3173 1131 3125L1113 3085L1101 3125C1085 3180 1041 3558 1054 3525C1057 3520 1070 3479 1084 3435M2809 3447C2819 3421 2860 3184 2860 3154C2860 3131 2701 3287 2700 3311C2700 3319 2712 3342 2726 3361C2740 3380 2760 3412 2771 3433C2794 3476 2798 3478 2809 3447M606 3374C632 3331 632 3331 597 3270L563 3209L522 3263C475 3325 475 3342 523 3403C557 3447 565 3444 606 3374M2495 3395C2687 3061 2687 3057 2493 3282C2440 3344 2393 3397 2388 3398C2384 3400 2380 3406 2380 3410C2380 3418 2399 3422 2460 3428C2468 3429 2484 3414 2495 3395M2683 3259C2749 3207 2880 3062 2880 3040C2880 3011 2868 3009 2804 3026C2730 3045 2712 3062 2657 3168C2632 3216 2595 3287 2575 3325L2538 3395L2589 3343C2618 3315 2660 3277 2683 3259M3620 3326C3607 3285 3600 3283 3564 3307C3538 3324 3538 3324 3582 3346C3605 3358 3627 3367 3628 3365C3630 3363 3627 3345 3620 3326M3577 3253C3583 3238 3534 3114 3518 3104C3512 3100 3511 3120 3515 3156C3527 3274 3529 3278 3551 3273C3562 3270 3574 3261 3577 3253M540 3179C540 3167 480 3090 470 3090C459 3090 457 3146 467 3215L473 3264L506 3224C525 3203 540 3182 540 3179M433 3143C430 3083 424 3031 420 3027C416 3023 394 3026 372 3035L331 3052L380 3151C408 3205 432 3250 434 3250C436 3250 436 3202 433 3143M3485 3153C3471 2936 3473 2949 3431 2906L3392 2867L3411 2946C3421 2990 3436 3059 3445 3100C3485 3281 3495 3295 3485 3153M3671 3214C3701 3199 3701 3199 3664 3157C3586 3070 3537 3020 3533 3024C3523 3033 3613 3230 3627 3230C3635 3230 3655 3223 3671 3214M1009 3044C1027 3036 1051 3030 1061 3030C1071 3030 1082 3025 1085 3020C1090 3011 1160 2631 1160 2610C1160 2601 1124 2664 1065 2775C1034 2836 1004 2890 1000 2895C992 2905 930 3056 930 3066C930 3072 960 3064 1009 3044M385 2995C438 2979 438 2979 444 2907C454 2785 460 2410 452 2410C434 2410 346 2441 334 2451C324 2459 320 2486 320 2539C320 2581 315 2697 308 2797C299 2945 299 2981 309 2994C325 3013 320 3013 385 2995M930 2988C930 2977 1003 2830 1053 2740C1088 2676 1135 2582 1142 2560C1145 2552 1111 2473 1068 2385C1024 2297 977 2201 962 2172C946 2138 933 2123 927 2129C913 2143 906 3014 919 3005C925 3002 930 2994 930 2988M2863 2974C2876 2970 2880 2958 2880 2914C2880 2842 2867 2843 2812 2919C2761 2990 2770 3000 2863 2974M2731 2747C2718 2579 2707 2558 2621 2531C2584 2519 2549 2510 2542 2510C2523 2510 2534 2540 2590 2640C2617 2687 2660 2774 2687 2835C2732 2938 2735 2942 2738 2907C2740 2887 2737 2815 2731 2747M2814 2853C2843 2817 2843 2817 2821 2776C2809 2753 2791 2724 2780 2710C2760 2685 2760 2685 2760 2741C2760 2808 2770 2890 2779 2890C2782 2890 2798 2874 2814 2853M3470 2811C3470 2772 3465 2738 3460 2735C3447 2727 3375 2761 3375 2776C3375 2789 3450 2880 3462 2880C3466 2880 3470 2849 3470 2811M2904 2748C2908 2713 2915 2596 2920 2487C2926 2378 2934 2270 2939 2247C2945 2211 2943 2199 2921 2164C2871 2084 2735 1884 2698 1837L2660 1788L2660 1832C2660 1855 2672 1974 2685 2095C2699 2216 2715 2357 2720 2408C2726 2459 2735 2522 2742 2548C2754 2596 2874 2810 2890 2810C2894 2810 2901 2782 2904 2748M3443 2688C3462 2673 3478 2546 3461 2536C3454 2531 3400 2670 3400 2694C3400 2704 3425 2701 3443 2688M3575 2630C3599 2621 3600 2619 3587 2588C3557 2518 3515 2440 3508 2440C3504 2440 3500 2488 3500 2546C3500 2664 3496 2660 3575 2630M1225 2446C1243 2407 1272 2341 1289 2300C1307 2259 1334 2200 1350 2170C1373 2124 1380 2091 1394 1960C1403 1875 1410 1792 1410 1776C1410 1748 1409 1748 1388 1764C1375 1773 1345 1793 1321 1808C1251 1851 960 2070 960 2080C960 2112 1171 2531 1183 2523C1188 2520 1206 2486 1225 2446M2695 2453C2692 2421 2685 2357 2680 2310C2674 2263 2665 2178 2659 2120C2644 1970 2634 1913 2627 1930C2600 1996 2521 2444 2534 2457C2542 2465 2670 2508 2688 2509C2697 2510 2699 2495 2695 2453M3622 2335C3624 2258 3624 2179 3621 2160C3615 2125 3615 2125 3594 2182C3574 2237 3573 2244 3586 2337C3602 2447 3609 2484 3614 2479C3616 2477 3620 2412 3622 2335M2433 2318C2377 2192 2377 2192 2336 2187C2284 2180 2053 2192 1990 2205C1976 2208 1950 2213 1933 2216C1888 2225 1892 2236 1942 2244C1965 2248 1998 2257 2014 2265C2031 2273 2104 2299 2176 2324C2248 2348 2331 2380 2361 2395C2414 2422 2483 2449 2487 2445C2489 2444 2464 2387 2433 2318M3552 2340C3542 2315 3542 2315 3530 2341C3520 2363 3521 2373 3537 2401L3555 2435L3558 2400C3560 2380 3557 2353 3552 2340M403 2381C414 2370 354 2346 335 2354C327 2357 320 2370 320 2384C320 2407 322 2408 358 2398C378 2393 399 2385 403 2381M3432 2299C3429 2251 3404 2196 3397 2220C3387 2251 3370 2342 3370 2362C3370 2382 3370 2382 3403 2361C3432 2342 3435 2336 3432 2299M2524 2288C2572 2067 2614 1830 2606 1823C2603 1820 2586 1848 2568 1886C2551 1924 2508 2003 2473 2061C2438 2119 2410 2175 2410 2185C2410 2207 2487 2370 2498 2370C2502 2370 2514 2333 2524 2288M532 2227C563 2155 596 2075 605 2050C634 1970 669 1856 666 1853C662 1849 626 1899 465 2138C435 2183 394 2238 374 2260L338 2300L401 2330C436 2346 467 2360 470 2360C473 2360 501 2300 532 2227M3530 2234C3530 2196 3487 1978 3472 1940C3459 1908 3456 1917 3432 2042C3414 2138 3414 2138 3442 2201C3458 2236 3478 2273 3487 2283C3503 2300 3505 2300 3517 2284C3524 2274 3530 2252 3530 2234M1826 1994C1845 1890 1865 1791 1869 1773C1876 1750 1875 1740 1865 1736C1849 1730 1840 1755 1812 1890C1769 2093 1756 2176 1765 2191C1780 2215 1792 2176 1826 1994M1936 2180C2004 2157 2146 2140 2159 2153C2163 2157 2189 2160 2216 2158L2265 2155L2195 2109C2094 2043 1880 1929 1870 1935C1865 1938 1858 1962 1854 1988C1851 2014 1842 2062 1834 2095C1813 2187 1815 2200 1848 2200C1863 2200 1903 2191 1936 2180M1740 2128C1760 2037 1777 1920 1770 1920C1762 1920 1667 1980 1660 1990C1657 1994 1620 2021 1577 2050C1534 2079 1502 2106 1507 2110C1525 2125 1620 2160 1647 2161C1662 2161 1684 2165 1695 2170C1727 2184 1728 2183 1740 2128M2350 2143C2350 2131 2326 2067 2273 1935C2225 1816 2225 1816 2165 1802C2132 1795 2073 1780 2033 1770C1914 1737 1899 1744 1884 1838C1879 1873 1881 1878 1912 1901C1930 1915 1990 1952 2045 1982C2100 2013 2186 2063 2235 2094C2320 2147 2350 2159 2350 2143M2979 1779C2984 1655 2990 1549 2991 1544C2999 1497 2981 1501 2918 1558C2889 1584 2823 1632 2772 1664C2705 1706 2680 1727 2683 1739C2687 1753 2817 1954 2917 2100L2955 2155L2962 2080C2966 2039 2974 1903 2979 1779M3620 2010C3637 1954 3637 1954 3568 1891C3530 1856 3496 1830 3493 1834C3486 1840 3536 2085 3553 2130C3562 2154 3563 2154 3583 2110C3594 2085 3611 2040 3620 2010M2447 2058C2472 2018 2502 1965 2513 1940C2523 1915 2548 1862 2567 1821C2620 1707 2620 1709 2547 1598L2482 1501L2401 1610C2356 1670 2307 1743 2293 1772C2267 1825 2267 1825 2295 1905C2336 2024 2382 2130 2391 2130C2396 2130 2421 2097 2447 2058M3024 2078C3038 2049 3065 1998 3084 1965C3166 1821 3162 1832 3149 1792C3142 1772 3112 1708 3081 1650C3025 1545 3025 1545 3017 1585C3013 1607 3007 1686 3005 1760C3003 1834 2997 1940 2992 1994C2984 2079 2985 2130 2995 2130C2996 2130 3009 2106 3024 2078M3399 2038C3406 2010 3417 1939 3425 1881C3440 1775 3440 1775 3413 1755C3397 1744 3342 1701 3290 1660C3200 1588 3097 1530 3084 1543C3081 1546 3115 1613 3161 1692C3280 1898 3296 1926 3341 2013C3364 2055 3384 2090 3385 2090C3387 2090 3393 2067 3399 2038M1490 2061C1532 2041 1756 1885 1766 1869C1781 1844 1641 1670 1606 1670C1599 1670 1582 1698 1568 1733C1553 1767 1517 1855 1486 1927C1455 2000 1430 2064 1430 2070C1430 2085 1446 2082 1490 2061M940 2018C945 2005 975 1914 1006 1815C1038 1716 1071 1617 1081 1595C1090 1573 1101 1545 1105 1532C1112 1509 1112 1509 1073 1530C1015 1561 858 1661 816 1694C782 1720 778 1726 783 1757C790 1800 906 2040 920 2040C926 2040 935 2030 940 2018M1112 1913C1178 1864 1246 1817 1263 1806C1289 1791 1355 1742 1393 1709C1398 1705 1347 1658 1280 1605C1189 1531 1156 1510 1147 1519C1134 1532 1106 1606 1041 1800C987 1963 977 2000 986 2000C989 2000 1046 1961 1112 1913M1472 1883C1520 1777 1572 1640 1564 1640C1556 1640 1475 1697 1457 1714C1448 1723 1441 1763 1436 1830C1433 1887 1427 1944 1423 1959C1413 2003 1431 1974 1472 1883M1803 1793C1805 1772 1809 1749 1811 1741C1815 1726 1761 1707 1728 1712C1710 1715 1712 1720 1746 1773C1767 1804 1787 1830 1791 1830C1794 1830 1800 1813 1803 1793M2258 1759C2283 1713 2423 1523 2475 1464C2508 1426 2529 1410 2557 1405C2601 1397 2673 1369 2666 1363C2664 1360 2638 1365 2608 1373C2579 1381 2535 1391 2510 1394C2453 1402 2434 1418 2375 1505C2348 1544 2313 1589 2297 1605C2280 1622 2259 1654 2248 1677C2227 1725 2205 1733 2145 1712C1983 1657 1840 1628 1748 1632C1656 1637 1679 1665 1790 1685C1840 1694 1943 1717 2030 1740C2121 1763 2222 1788 2233 1789C2237 1790 2249 1776 2258 1759M3480 1717C3480 1716 3484 1701 3489 1684C3497 1654 3495 1649 3448 1604C3401 1558 3398 1557 3404 1583C3415 1629 3458 1720 3469 1720C3475 1720 3480 1719 3480 1717M3378 1613C3361 1564 3347 1524 3346 1523C3342 1518 3126 1500 3122 1504C3120 1507 3138 1519 3162 1531C3185 1543 3249 1586 3304 1626C3358 1667 3404 1700 3406 1700C3408 1700 3395 1661 3378 1613M2214 1662C2222 1647 2253 1606 2284 1572C2315 1537 2352 1491 2365 1470C2413 1395 2450 1360 2484 1360C2515 1360 2669 1324 2678 1315C2687 1306 2673 1299 2619 1283C2555 1265 2441 1254 2195 1241C2095 1236 1987 1228 1953 1225C1919 1221 1848 1221 1794 1225C1698 1232 1698 1232 1704 1269C1707 1289 1712 1361 1716 1430C1724 1607 1719 1595 1787 1598C1819 1599 1872 1605 1905 1611C1966 1622 2160 1676 2168 1685C2181 1698 2201 1688 2214 1662M2699 1658C2846 1569 2925 1507 2914 1489C2911 1484 2856 1480 2792 1480C2727 1480 2648 1473 2615 1466C2545 1449 2515 1458 2525 1493C2535 1524 2640 1680 2653 1680C2658 1680 2679 1670 2699 1658M1491 1640C1518 1621 1528 1609 1519 1606C1373 1557 1311 1540 1291 1542C1268 1545 1273 1551 1345 1607C1389 1642 1431 1670 1438 1670C1445 1670 1469 1657 1491 1640M975 1554C1014 1530 1060 1503 1078 1493C1106 1478 1110 1472 1105 1449C1101 1434 1093 1379 1085 1328C1072 1238 1054 1172 1045 1182C1029 1198 800 1640 800 1654C800 1660 853 1629 975 1554M850 1485C890 1408 947 1299 976 1243C1037 1126 1044 1138 900 1121C744 1103 690 1099 690 1107C690 1111 697 1174 705 1245C713 1317 724 1433 730 1504C736 1576 744 1638 747 1643C756 1658 775 1629 850 1485M1646 1593C1643 1566 1637 1500 1634 1445C1623 1288 1622 1286 1572 1365C1533 1425 1530 1435 1539 1462C1550 1494 1639 1640 1647 1640C1650 1640 1650 1619 1646 1593M1686 1453C1679 1292 1670 1227 1656 1248C1649 1260 1653 1327 1676 1548C1687 1652 1693 1597 1686 1453M1550 1565C1550 1546 1503 1471 1488 1467C1476 1464 1472 1456 1476 1446C1484 1426 1451 1425 1395 1445C1373 1453 1345 1460 1334 1460C1303 1460 1252 1488 1271 1494C1279 1496 1332 1513 1390 1530C1448 1547 1500 1563 1505 1565C1521 1570 1550 1571 1550 1565M3324 1458C3327 1445 3330 1416 3330 1393C3330 1331 3328 1331 3150 1438C3121 1456 3126 1458 3211 1469C3314 1482 3317 1482 3324 1458M1259 1444C1279 1435 1313 1425 1335 1420C1463 1392 1469 1389 1511 1342C1556 1291 1614 1210 1608 1206C1593 1195 1415 1173 1270 1165C1223 1163 1163 1158 1136 1154C1087 1147 1087 1147 1093 1181C1096 1200 1105 1258 1113 1310C1140 1477 1136 1467 1183 1463C1206 1460 1240 1452 1259 1444M2914 1399C2852 1335 2850 1335 2753 1374C2640 1420 2632 1430 2700 1431C2730 1432 2798 1435 2850 1439C2902 1442 2947 1444 2949 1442C2952 1441 2936 1421 2914 1399M153 1278C162 1271 179 1231 190 1190C202 1149 218 1091 226 1062C247 986 243 975 202 998C153 1024 72 1092 65 1113C58 1131 70 1175 101 1248C121 1293 127 1297 153 1278M229 1196C236 1169 239 1146 237 1143C231 1138 200 1228 200 1249C200 1277 217 1246 229 1196M311 1208C317 1184 328 1147 336 1125C343 1103 352 1066 356 1044C362 1005 361 1002 334 997C318 994 304 993 302 995C300 997 286 1051 271 1116C246 1223 244 1236 259 1242C291 1255 299 1249 311 1208M1599 1115C1536 1046 1244 760 1238 762C1227 766 1100 1031 1100 1051C1100 1070 1118 1075 1295 1103C1379 1116 1609 1126 1599 1115M1001 1003C984 971 930 860 880 755C830 651 784 556 778 545C771 534 743 483 715 431C687 379 659 335 652 332C637 327 635 403 650 430C664 455 677 611 686 836L692 1017L761 1029C798 1035 853 1040 882 1041C911 1042 946 1046 960 1050C974 1054 995 1058 1008 1059C1031 1060 1031 1060 1001 1003M156 953C118 931 102 937 91 978C73 1040 78 1043 129 1003C176 966 177 965 156 953M1070 1030C1070 1024 1078 1002 1089 982C1184 794 1210 741 1210 732C1210 717 987 510 910 454C825 392 700 310 689 310C684 310 705 356 736 413C788 510 891 716 967 880C1012 976 1049 1040 1061 1040C1066 1040 1070 1035 1070 1030M1539 993C1527 972 1471 870 1415 765C1256 470 1263 480 1201 458C1171 448 1144 442 1142 445C1139 448 1154 503 1175 567C1214 684 1214 684 1377 849C1467 940 1540 1018 1540 1022C1540 1027 1545 1030 1551 1030C1557 1030 1552 1013 1539 993M656 846C644 563 633 527 610 691C598 783 600 779 491 892C467 918 449 942 453 946C462 955 644 997 653 992C658 990 659 924 656 846M1535 850C1516 781 1494 691 1485 650C1476 608 1466 570 1462 564C1458 558 1420 542 1378 527C1289 498 1290 495 1355 605C1426 724 1446 762 1495 860C1542 954 1560 983 1566 977C1568 976 1554 918 1535 850M379 833C379 735 379 735 364 780C357 805 350 832 350 840C350 848 344 867 336 882C321 911 331 930 362 930C378 930 380 920 379 833M512 815L549 774L483 691C447 646 416 611 414 612C407 619 399 870 405 890C411 910 412 910 443 884C461 869 492 838 512 815M310 742C351 547 352 555 283 535C198 510 145 512 115 540C88 566 88 572 121 677C140 734 145 782 138 839C135 860 141 864 200 879C236 888 268 893 272 890C276 887 293 820 310 742M574 703C577 687 581 659 582 640C585 605 585 605 520 588C485 578 452 574 448 578C441 585 549 730 562 730C565 730 571 718 574 703M1135 528L1101 425L1000 377C903 333 789 295 769 302C764 304 813 345 877 393C942 441 1031 514 1075 555C1119 596 1158 629 1161 630C1165 630 1153 584 1135 528M604 498C614 434 620 303 614 297C610 294 600 296 590 303C567 319 429 483 434 488C439 493 569 528 587 529C594 530 601 515 604 498M330 494C330 486 269 462 238 458C194 453 205 474 252 487C301 500 330 503 330 494M400 453C400 448 407 405 415 357C424 309 428 264 424 258C412 239 402 272 391 360C378 463 378 460 390 460C396 460 400 457 400 453M326 417C323 405 316 372 310 344C301 300 294 291 264 277C210 251 196 254 204 291C207 308 210 335 210 349C210 387 229 408 275 425C329 444 333 444 326 417M375 343C382 278 378 270 350 295C336 307 335 319 341 358C345 384 349 412 350 420C352 454 368 404 375 343M556 283C554 281 532 276 507 271C468 264 460 265 456 279C450 298 430 411 430 419C431 422 460 394 495 355C530 317 557 284 556 283M1208 398C1200 385 1165 326 1130 267C1096 208 1066 161 1064 163C1058 168 1111 373 1120 383C1128 392 1198 419 1214 420C1218 420 1216 410 1208 398M1046 221C1016 108 1011 95 987 87C957 77 944 84 802 179C728 229 721 236 736 247C746 254 761 260 769 260C794 260 928 305 1005 338C1051 358 1076 365 1077 357C1079 350 1065 289 1046 221M608 176C606 135 601 98 597 94C593 90 563 115 531 151C463 225 465 237 543 243C572 245 599 247 604 248C608 249 610 217 608 176M778 157C834 119 880 84 880 80C880 67 710 56 671 66C635 75 635 75 637 143C637 180 641 218 644 226C651 244 643 248 778 157" id="ShapeObject_1256639073317" stroke="none" style="fill:#000000;fill-opacity:1" transform="matrix(0.1,0,0,0.1,0,0)" opacity="1"/>
      <path d="M102 1201M102 1201C91 1157 107 1120 137 1120C150 1120 151 1128 146 1172C135 1253 119 1264 102 1201" id="ShapeObject_1256639073319" stroke="none" style="fill:#000000;fill-opacity:1" transform="matrix(0.1,0,0,0.1,0,0)" opacity="1"/>
      <path d="M206 725M206 725C202 714 193 711 176 716C155 721 150 718 144 696C140 680 143 664 151 654C164 638 220 606 225 612C226 614 230 643 233 678C237 725 235 740 225 740C218 740 210 733 206 725" id="ShapeObject_1256639073321" stroke="none" style="fill:#000000;fill-opacity:1" transform="matrix(0.1,0,0,0.1,0,0)" opacity="1"/>
    </g>
  </g>
</svg>