<svg version="1.1" width="464" height="480" viewBox="0 0 464 480" xmlns:xlink="http://www.w3.org/1999/xlink" xmlns="http://www.w3.org/2000/svg">
  <desc>Created with Raven (http://www.aviary.com)</desc>
  <defs/>
  <g id="Layer_1256850979395" opacity="1">
    <g id="Layer_1256850979396" opacity="1">
      <path d="M2886 4633M2886 4633C2877 4607 2870 4573 2870 4556C2870 4539 2863 4503 2855 4475C2846 4448 2837 4412 2834 4395C2831 4379 2821 4327 2810 4280C2800 4233 2789 4174 2786 4147C2783 4121 2773 4089 2765 4076C2751 4055 2753 4020 2769 4020C2773 4020 2784 4005 2795 3988C2805 3970 2816 3953 2819 3950C2822 3947 2837 3929 2851 3910C2866 3891 2890 3862 2905 3845C2920 3829 2944 3797 2958 3775C2993 3723 3092 3592 3122 3560C3182 3494 3179 3502 3165 3420C3145 3311 3133 3262 3112 3199C3101 3169 3089 3126 3086 3104C3082 3083 3071 3054 3060 3040C3042 3016 3042 3015 3062 2976C3080 2941 3125 2682 3115 2672C3113 2670 3094 2681 3073 2696C3052 2712 3031 2728 3025 2732C3020 2736 2958 2787 2888 2846C2765 2948 2759 2952 2697 2960C2663 2965 2608 2970 2577 2971C2545 2972 2517 2976 2515 2980C2506 2994 2617 3127 2806 3330C2889 3419 2913 3456 2906 3483C2901 3505 2870 3553 2698 3812C2566 4012 2561 4023 2558 4117C2557 4160 2560 4205 2564 4218C2571 4237 2569 4240 2546 4240C2497 4240 2425 4262 2409 4283C2395 4301 2384 4302 2306 4298C2189 4292 2184 4287 2198 4183C2204 4139 2207 4094 2203 4082C2200 4070 2202 4060 2207 4060C2212 4060 2221 4050 2227 4038C2233 4025 2268 3981 2306 3940C2441 3795 2458 3774 2527 3670C2605 3553 2650 3483 2650 3476C2650 3474 2613 3453 2568 3430C2458 3373 2365 3313 2271 3236C2199 3178 2132 3130 2085 3104C2056 3088 2041 3014 2034 2855C2031 2778 2027 2705 2024 2692C2021 2676 2030 2656 2055 2626C2094 2578 2097 2570 2075 2570C2068 2570 2057 2564 2053 2556C2049 2549 2020 2528 1990 2510C1960 2491 1916 2461 1893 2443C1870 2424 1827 2398 1798 2384C1769 2371 1732 2351 1715 2341C1699 2330 1678 2321 1669 2321C1636 2319 1593 2258 1506 2088C1413 1906 1358 1820 1334 1820C1326 1820 1320 1816 1320 1811C1320 1805 1308 1805 1291 1810C1271 1815 1256 1814 1243 1805C1230 1796 1177 1792 1063 1791C901 1790 901 1790 895 1822C884 1889 870 2026 870 2066C870 2114 882 2122 988 2140C1093 2158 1198 2209 1263 2274C1325 2336 1324 2334 1309 2400C1302 2432 1302 2450 1311 2466C1324 2490 1308 2524 1247 2603C1218 2640 1218 2640 1192 2621C1177 2610 1137 2575 1103 2543C1068 2509 1021 2477 993 2466C941 2446 731 2343 715 2330C710 2326 683 2315 656 2308L606 2293L603 2034L601 1775L642 1710C665 1674 701 1618 722 1584L761 1524L848 1528C896 1530 986 1540 1049 1550C1191 1574 1192 1573 1179 1469C1167 1362 1142 1180 1135 1145C1129 1118 1136 1107 1197 1044C1234 1005 1279 957 1297 937L1328 900L1282 862C1207 800 1107 724 1083 712C1065 702 1053 703 1018 719C944 752 840 790 826 790C818 790 809 778 805 762C802 747 783 722 764 706C736 684 730 673 735 656C744 629 746 617 755 544C762 483 762 483 849 433C896 405 957 372 984 361C1011 349 1040 331 1047 320C1055 309 1068 300 1076 300C1084 300 1108 285 1128 266C1148 247 1182 216 1202 198C1223 179 1240 158 1240 151C1240 141 1261 140 1334 145L1427 152L1490 79C1556 2 1580 -14 1580 17C1580 27 1584 41 1589 49C1597 61 1602 61 1624 47C1659 24 1680 25 1680 52C1680 73 1680 73 1704 51C1734 23 1742 27 1770 86C1791 133 1791 133 1857 127C1893 123 1928 116 1935 110C1943 103 1962 105 1996 114C2023 122 2071 131 2103 135C2171 143 2178 160 2125 191C2106 203 2090 217 2090 224C2090 231 2129 275 2176 322C2281 427 2285 449 2190 419C2157 409 2121 396 2110 390C2100 385 2080 380 2066 380C2040 380 2040 380 2040 469C2040 538 2044 560 2056 571C2099 606 2237 789 2243 818C2251 857 2244 858 2170 829C2140 817 2100 805 2082 803C2049 798 2049 798 2065 836C2074 858 2093 904 2106 939C2119 975 2134 1008 2139 1014C2144 1020 2167 1077 2190 1140C2214 1203 2237 1259 2241 1265C2246 1270 2250 1285 2250 1298C2250 1317 2246 1321 2233 1315C2210 1306 2149 1291 2133 1290C2126 1290 2120 1294 2120 1300C2120 1311 2212 1403 2290 1470C2319 1495 2347 1520 2354 1525C2371 1540 2473 1623 2488 1635C2495 1640 2520 1662 2543 1684C2609 1745 2663 1787 2685 1794C2720 1805 3015 2065 3037 2104C3044 2115 3049 2139 3050 2157C3050 2175 3058 2227 3069 2272C3079 2318 3091 2379 3094 2408C3103 2482 3138 2569 3171 2602C3186 2617 3216 2663 3239 2704C3261 2745 3304 2807 3333 2842C3389 2908 3454 2992 3507 3067C3539 3113 3539 3113 3514 3159C3501 3184 3474 3247 3455 3297C3417 3398 3412 3457 3430 3600C3436 3641 3438 3681 3435 3690C3432 3698 3403 3720 3371 3739C3338 3757 3291 3791 3266 3814C3223 3852 3219 3861 3195 3958C3181 4014 3170 4076 3170 4095C3170 4126 3174 4130 3227 4155C3258 4169 3304 4185 3329 4191C3466 4222 3537 4269 3453 4271C3432 4272 3412 4272 3408 4271C3391 4269 3291 4293 3223 4316C3184 4329 3145 4340 3138 4340C3130 4340 3113 4320 3101 4295L3078 4250L3038 4284C3016 4303 2983 4336 2964 4358C2931 4397 2930 4400 2930 4487C2930 4590 2920 4680 2910 4680C2905 4680 2895 4659 2886 4633M2908 4488C2910 4429 2909 4426 2894 4445C2884 4458 2881 4476 2884 4494C2887 4510 2890 4531 2890 4542C2890 4552 2894 4559 2898 4556C2902 4554 2907 4523 2908 4488M2914 4208C2919 4089 2917 4040 2910 4040C2904 4040 2876 4050 2849 4061C2799 4083 2799 4083 2805 4129C2809 4154 2820 4213 2830 4260C2840 4307 2851 4363 2855 4384C2861 4423 2861 4423 2885 4399C2907 4376 2908 4365 2914 4208M3024 4169C2960 4077 2955 4071 2948 4070C2943 4070 2940 4132 2940 4207L2940 4345L3001 4284L3062 4223L3024 4169M3235 4275C3274 4262 3315 4250 3328 4250C3364 4250 3353 4236 3302 4218C3276 4209 3235 4194 3211 4185C3187 4176 3165 4172 3162 4175C3152 4184 3147 4300 3156 4300C3161 4300 3197 4289 3235 4275M2384 4271C2391 4261 2420 4112 2420 4090C2420 4082 2380 4116 2330 4165C2281 4214 2240 4258 2240 4262C2240 4268 2274 4273 2352 4278C2367 4279 2381 4276 2384 4271M3125 4178C3125 4140 3122 4136 3072 4108C3043 4091 3017 4080 3014 4083C3011 4086 3020 4105 3034 4127C3049 4148 3073 4184 3088 4207C3118 4255 3126 4248 3125 4178M2313 4151C2361 4102 2400 4057 2400 4050C2400 4037 2350 4043 2276 4064C2235 4076 2235 4076 2225 4158C2219 4203 2217 4240 2220 4240C2224 4240 2265 4200 2313 4151M2519 4215C2524 4213 2528 4175 2529 4131C2531 4059 2529 4050 2510 4040C2475 4021 2463 4034 2446 4112C2415 4247 2412 4234 2465 4227C2491 4223 2515 4218 2519 4215M3144 4083C3146 4073 3161 4013 3175 3950C3202 3835 3286 3504 3315 3401C3329 3349 3328 3317 3313 3356C3309 3366 3281 3416 3250 3465C3219 3515 3163 3614 3125 3685C3088 3757 3046 3833 3033 3855C3021 3877 2998 3919 2984 3949C2958 4001 2958 4002 2976 4020C2987 4029 3015 4045 3039 4054C3063 4063 3093 4078 3104 4086C3131 4104 3138 4104 3144 4083M2866 4023C2916 4006 2921 4000 2962 3930C2986 3890 3020 3831 3037 3800C3084 3721 3141 3598 3135 3592C3128 3585 3102 3616 3001 3750C2953 3813 2890 3895 2862 3933C2773 4049 2774 4053 2866 4023M2352 4018C2384 4011 2410 4003 2410 4000C2410 3997 2390 3987 2366 3978C2322 3962 2322 3962 2289 3996C2251 4035 2257 4038 2352 4018M2546 4002C2552 3998 2565 3980 2575 3961C2584 3942 2616 3892 2644 3851C2712 3752 2720 3734 2673 3790C2652 3815 2605 3867 2568 3907C2530 3947 2500 3983 2500 3988C2500 4008 2525 4016 2546 4002M2481 3920C2485 3917 2493 3895 2500 3870C2506 3845 2517 3812 2524 3795C2531 3779 2543 3747 2550 3725C2557 3703 2565 3679 2568 3671C2579 3641 2552 3672 2507 3738C2481 3776 2446 3823 2429 3841C2411 3860 2386 3890 2372 3908C2348 3940 2348 3940 2383 3955C2403 3963 2424 3970 2430 3970C2435 3970 2440 3976 2441 3983C2441 3989 2449 3979 2458 3960C2467 3941 2478 3923 2481 3920M2613 3821C2659 3762 2692 3721 2752 3651C2827 3564 2885 3482 2877 3474C2874 3470 2835 3467 2792 3468C2679 3468 2658 3491 2591 3685C2574 3735 2549 3806 2535 3844C2521 3882 2510 3915 2510 3918C2510 3927 2586 3855 2613 3821M3385 3694C3406 3682 3406 3684 3401 3533C3401 3504 3396 3480 3390 3480C3385 3480 3380 3484 3380 3490C3380 3495 3360 3546 3336 3603C3311 3661 3288 3720 3284 3735C3277 3763 3277 3763 3321 3734C3345 3718 3374 3700 3385 3694M3346 3514C3388 3415 3391 3401 3385 3352C3381 3323 3376 3300 3374 3303C3364 3312 3270 3643 3271 3665C3271 3681 3296 3631 3346 3514M3267 3387C3290 3347 3323 3286 3340 3251C3372 3187 3372 3187 3355 3126C3346 3092 3332 3051 3325 3035C3318 3018 3309 2990 3306 2973C3292 2910 3272 2927 3232 3034C3212 3086 3210 3110 3210 3276C3211 3377 3214 3460 3218 3460C3222 3459 3244 3427 3267 3387M2798 3431C2821 3425 2821 3424 2782 3388C2760 3368 2714 3339 2679 3325C2644 3311 2579 3281 2535 3260C2491 3238 2433 3213 2405 3204C2378 3195 2337 3180 2315 3170C2265 3148 2208 3129 2203 3133C2202 3135 2215 3148 2233 3162C2250 3176 2285 3204 2310 3224C2459 3343 2646 3440 2725 3439C2753 3438 2786 3435 2798 3431M3190 3249C3190 3129 3190 3129 3158 3099C3119 3064 3110 3063 3110 3092C3110 3113 3181 3370 3187 3370C3189 3370 3190 3316 3190 3249M2728 3294C2715 3278 2694 3254 2680 3240C2639 3197 2557 3099 2516 3043C2494 3015 2468 2989 2457 2986C2433 2980 2186 3070 2187 3084C2188 3089 2224 3107 2267 3122C2437 3185 2500 3210 2610 3260C2673 3289 2729 3316 2734 3321C2755 3340 2750 3320 2728 3294M3460 3221C3471 3186 3480 3156 3478 3155C3476 3153 3461 3158 3444 3165C3418 3176 3412 3184 3407 3224C3403 3249 3403 3284 3407 3301C3413 3333 3413 3333 3426 3309C3433 3295 3448 3256 3460 3221M3478 3116C3490 3105 3489 3098 3476 3073C3451 3024 3308 2902 3322 2941C3325 2949 3340 2994 3355 3042C3372 3096 3389 3131 3399 3134C3422 3140 3463 3131 3478 3116M2126 3057C2152 3047 2250 2942 2250 2924C2250 2907 2083 2731 2057 2721C2050 2719 2049 2759 2053 2846C2058 2968 2075 3071 2089 3069C2092 3069 2109 3063 2126 3057M3176 3052C3173 3047 3168 2965 3164 2869C3156 2642 3151 2635 3120 2805C3109 2864 3096 2929 3090 2949C3080 2984 3081 2986 3122 3022C3162 3057 3188 3072 3176 3052M2271 3018C2314 3006 2318 2996 2293 2968C2277 2950 2275 2951 2243 2982C2192 3031 2199 3040 2271 3018M3260 2886C3260 2860 3223 2741 3205 2710C3191 2685 3191 2686 3189 2730C3186 2787 3191 2964 3195 2987C3197 2997 3199 3010 3200 3015C3202 3031 3260 2907 3260 2886M2369 2912C2398 2868 2475 2720 2462 2735C2351 2858 2299 2923 2304 2935C2314 2961 2344 2950 2369 2912M2707 2933C2724 2926 2720 2904 2690 2823C2679 2794 2661 2744 2649 2713C2637 2681 2623 2643 2618 2628C2612 2612 2604 2600 2600 2600C2587 2600 2457 2805 2388 2934C2378 2952 2383 2952 2535 2946C2621 2942 2698 2936 2707 2933M2869 2831C2920 2789 2988 2736 3019 2712C3170 2596 3160 2582 2928 2579C2673 2577 2640 2578 2640 2595C2640 2603 2665 2679 2696 2764C2733 2866 2756 2917 2764 2913C2770 2910 2817 2872 2869 2831M2330 2844C2355 2814 2389 2773 2406 2755C2458 2698 2512 2629 2509 2625C2496 2613 2116 2659 2089 2676C2075 2684 2078 2690 2145 2766C2216 2848 2269 2900 2278 2900C2282 2899 2305 2874 2330 2844M2215 2621C2237 2616 2300 2609 2355 2606C2472 2598 2548 2584 2573 2566C2590 2553 2590 2550 2569 2495C2558 2464 2542 2436 2536 2434C2529 2431 2492 2444 2454 2463C2189 2593 2131 2624 2136 2631C2138 2635 2148 2637 2158 2635C2167 2632 2193 2626 2215 2621M1229 2542C1243 2486 1236 2462 1192 2410L1162 2375L1136 2433C1122 2465 1110 2496 1110 2503C1110 2515 1196 2590 1209 2590C1213 2590 1222 2568 1229 2542M2249 2536C2296 2512 2385 2469 2445 2441C2588 2375 2749 2292 2779 2268C2792 2258 2807 2250 2812 2250C2817 2250 2855 2228 2898 2200C2940 2173 2970 2150 2965 2150C2950 2150 2649 2227 2555 2255C2511 2268 2464 2281 2450 2283C2436 2286 2406 2291 2383 2295C2357 2299 2336 2310 2327 2323C2319 2335 2304 2354 2293 2365C2264 2396 2150 2559 2150 2570C2150 2585 2157 2583 2249 2536M2116 2388C2111 2235 2101 2064 2095 2030C2093 2022 2089 1989 2085 1958C2080 1924 2073 1900 2065 1900C2049 1900 1920 2029 1920 2045C1920 2053 1925 2071 1931 2087C1937 2102 1955 2165 1971 2225C2005 2352 2065 2513 2087 2535C2118 2566 2121 2551 2116 2388M2979 2545C2976 2543 2918 2524 2850 2505C2782 2485 2717 2464 2706 2458C2679 2444 2587 2420 2581 2425C2572 2435 2615 2539 2629 2543C2651 2549 2984 2551 2979 2545M3100 2545C3100 2542 3094 2511 3086 2477C3072 2417 3065 2380 3039 2235C3032 2197 3025 2163 3024 2162C3022 2158 2867 2247 2788 2297C2767 2309 2747 2320 2744 2320C2740 2320 2708 2336 2672 2356L2607 2393L2671 2417C2706 2431 2794 2459 2865 2479C2937 2500 3011 2524 3030 2533C3066 2549 3100 2554 3100 2545M2226 2419C2264 2370 2306 2314 2320 2295C2340 2268 2351 2262 2375 2264C2410 2267 2501 2247 2580 2220C2610 2210 2685 2190 2745 2175C2903 2137 2954 2120 2942 2108C2928 2094 2861 2081 2750 2071C2664 2064 2648 2065 2580 2087C2539 2100 2474 2120 2435 2132C2397 2143 2355 2157 2342 2161C2280 2185 2253 2171 2215 2096C2204 2074 2176 2036 2152 2011C2115 1971 2110 1968 2115 1990C2123 2033 2139 2280 2141 2390C2142 2486 2145 2510 2154 2510C2156 2510 2189 2469 2226 2419M1991 2374C1970 2309 1944 2223 1934 2183C1924 2143 1908 2101 1898 2088C1881 2065 1881 2065 1800 2145C1730 2214 1690 2264 1690 2284C1690 2292 1768 2342 1815 2363C1837 2373 1869 2392 1888 2406C1939 2446 2023 2500 2027 2496C2029 2494 2013 2439 1991 2374M1099 2452C1111 2430 1140 2347 1137 2344C1132 2339 1028 2300 1020 2300C1012 2300 1008 2315 994 2392C988 2429 989 2430 1031 2449C1086 2474 1087 2474 1099 2452M1289 2367C1290 2347 1279 2327 1255 2303C1214 2262 1202 2267 1198 2322C1196 2354 1201 2364 1235 2394C1279 2431 1288 2426 1289 2367M964 2398C975 2363 978 2320 971 2320C957 2320 918 2388 925 2400C934 2414 960 2413 964 2398M914 2341C928 2319 944 2299 950 2295C968 2284 961 2270 933 2259C900 2246 774 2210 762 2210C753 2210 720 2274 720 2290C720 2299 865 2378 882 2380C886 2380 901 2362 914 2341M1178 2263C1176 2242 1167 2234 1133 2222C1092 2209 1089 2210 1061 2232C1044 2245 1031 2258 1031 2261C1030 2265 1060 2279 1098 2293C1172 2320 1184 2316 1178 2263M703 2245C723 2204 719 2203 672 2232C640 2252 639 2254 656 2267C681 2286 684 2284 703 2245M1660 2258C1660 2251 1745 2161 1850 2059C1954 1957 2040 1870 2040 1867C2040 1830 1941 1910 1668 2167C1611 2220 1610 2221 1626 2245C1644 2272 1660 2278 1660 2258M1018 2220C1057 2196 1053 2183 1002 2175C982 2171 932 2162 891 2154C826 2141 815 2141 802 2154C782 2174 794 2188 838 2196C858 2200 893 2211 915 2221C967 2244 979 2244 1018 2220M689 2184C728 2159 728 2158 715 2126C707 2108 690 2047 676 1991C636 1829 631 1834 630 2033C630 2147 634 2210 640 2210C646 2210 668 2198 689 2184M1653 2148C1676 2124 1717 2085 1743 2061L1791 2017L1711 1979C1667 1959 1617 1939 1598 1935C1580 1931 1540 1917 1510 1903C1480 1890 1451 1881 1444 1882C1432 1885 1589 2190 1602 2190C1607 2190 1629 2171 1653 2148M814 2115C844 2092 846 2088 849 2013C850 1971 853 1933 855 1930C857 1927 861 1895 865 1858C870 1795 869 1790 852 1790C837 1790 829 1803 816 1848C802 1900 760 2111 760 2132C760 2147 781 2140 814 2115M2421 2105C2484 2086 2541 2070 2548 2070C2555 2070 2580 2061 2603 2050C2636 2034 2656 2031 2710 2035C2804 2044 2837 2048 2908 2064C2942 2071 2970 2074 2970 2069C2970 2053 2895 2010 2868 2010C2853 2010 2816 2003 2785 1995C2689 1970 2482 2009 2342 2079C2310 2095 2309 2094 2290 2070C2279 2056 2270 2041 2270 2035C2269 2030 2242 1991 2210 1950C2177 1909 2132 1848 2109 1815C2085 1782 2040 1729 2008 1697C1946 1637 1943 1626 1974 1575C1993 1545 2072 1311 2068 1299C2064 1288 2045 1324 2016 1392C2008 1410 1988 1457 1972 1495C1956 1534 1937 1586 1930 1613C1918 1658 1919 1662 1945 1703C1984 1762 2073 1859 2087 1860C2094 1860 2108 1879 2118 1903C2128 1926 2154 1965 2174 1989C2194 2013 2220 2052 2230 2076C2249 2117 2272 2139 2296 2140C2302 2140 2359 2124 2421 2105M755 2013C764 1970 780 1900 789 1858L807 1781L733 1785C692 1787 655 1791 652 1794C649 1798 659 1837 673 1883C688 1928 700 1969 700 1973C700 1986 731 2090 735 2090C736 2090 745 2055 755 2013M2415 2020C2594 1963 2743 1945 2819 1971C2837 1977 2854 1979 2858 1975C2869 1965 2768 1875 2676 1814C2632 1785 2570 1737 2540 1709C2510 1681 2451 1630 2410 1596C2369 1563 2330 1531 2324 1525C2318 1520 2280 1486 2240 1450C2199 1414 2153 1373 2136 1358C2119 1343 2103 1334 2099 1338C2096 1342 2083 1372 2071 1405C2058 1438 2035 1496 2019 1534C1984 1617 1983 1635 2013 1655C2025 1663 2060 1702 2090 1742C2120 1782 2178 1857 2218 1908C2258 1960 2297 2015 2306 2032C2317 2052 2325 2059 2333 2052C2340 2047 2377 2033 2415 2020M1826 1938C1822 1914 1813 1875 1805 1850C1798 1825 1786 1786 1779 1762C1760 1697 1754 1695 1643 1720C1589 1732 1510 1750 1467 1759C1425 1769 1387 1780 1384 1783C1365 1802 1496 1876 1580 1895C1599 1899 1635 1911 1660 1922C1726 1952 1803 1979 1819 1980C1829 1980 1831 1970 1826 1938M1953 1872L1991 1833L1952 1808C1913 1782 1815 1730 1805 1730C1798 1730 1807 1770 1837 1868C1862 1950 1862 1950 1888 1931C1903 1920 1932 1894 1953 1872M1272 1758C1288 1743 1376 1676 1444 1629L1492 1595L1385 1592C1326 1591 1276 1591 1274 1593C1266 1601 1231 1754 1236 1762C1243 1774 1257 1772 1272 1758M1334 1761C1337 1756 1361 1749 1387 1745C1414 1742 1460 1733 1490 1726C1617 1695 1779 1661 1829 1653C1900 1642 1910 1620 1843 1620C1817 1620 1773 1613 1746 1605C1687 1587 1563 1586 1535 1603C1463 1646 1441 1660 1378 1707C1292 1771 1293 1770 1313 1770C1322 1770 1331 1766 1334 1761M819 1744C821 1742 812 1706 798 1663C783 1612 769 1585 760 1585C747 1585 650 1731 650 1750C650 1756 811 1751 819 1744M1205 1743C1208 1733 1217 1697 1224 1663C1237 1602 1237 1602 1206 1615C1189 1623 1144 1641 1105 1656C1067 1671 1013 1693 985 1705C958 1717 927 1730 918 1733C908 1737 900 1744 900 1750C900 1756 953 1760 1049 1760C1182 1760 1199 1758 1205 1743M1934 1748C1897 1683 1867 1666 1832 1688C1823 1694 1837 1706 1877 1728C1944 1764 1944 1764 1934 1748M875 1721C878 1716 897 1706 918 1700C938 1694 973 1680 995 1670C1017 1660 1055 1643 1080 1633C1105 1622 1141 1606 1160 1597C1188 1583 1190 1581 1169 1584C1155 1587 1096 1581 1037 1571C921 1551 804 1544 797 1557C795 1561 805 1602 819 1648C842 1723 859 1746 875 1721M1947 1494C1975 1441 1995 1361 1984 1350C1973 1340 1842 1404 1772 1455C1745 1474 1720 1490 1717 1490C1713 1490 1690 1503 1664 1520C1610 1554 1608 1552 1745 1574C1903 1600 1903 1600 1915 1565C1921 1549 1935 1516 1947 1494M1275 1495C1346 1314 1373 1242 1377 1214C1382 1183 1382 1183 1324 1172C1291 1166 1244 1158 1218 1155C1163 1148 1165 1143 1180 1255C1185 1294 1194 1368 1200 1420C1206 1472 1213 1525 1216 1538C1224 1577 1250 1559 1275 1495M1540 1545C1540 1526 1507 1443 1465 1355C1447 1317 1429 1275 1425 1263C1415 1228 1403 1235 1385 1288C1376 1314 1362 1349 1354 1365C1331 1415 1290 1530 1290 1545C1290 1557 1311 1560 1415 1560C1518 1560 1540 1557 1540 1545M1621 1514C1640 1506 1678 1485 1707 1467C1735 1449 1793 1414 1835 1388C1876 1362 1919 1338 1930 1335C1941 1331 1950 1326 1950 1322C1950 1309 1805 1271 1675 1250C1512 1224 1501 1222 1467 1214C1440 1208 1439 1210 1445 1231C1449 1244 1475 1303 1501 1362C1528 1421 1550 1475 1550 1481C1550 1497 1570 1530 1579 1530C1584 1530 1603 1523 1621 1514M2175 1166C2135 1061 2102 982 2065 905C2052 876 2051 879 2050 965C2049 1015 2047 1075 2044 1100C2042 1125 2043 1165 2048 1190C2055 1234 2057 1235 2115 1256C2225 1296 2224 1297 2175 1166M1824 1219C1802 1202 1772 1181 1755 1173C1739 1164 1699 1138 1667 1114C1636 1090 1604 1070 1597 1070C1579 1070 1501 1122 1471 1154C1448 1179 1448 1179 1486 1188C1508 1194 1554 1201 1590 1204C1656 1211 1750 1227 1805 1241C1860 1254 1863 1250 1824 1219M1961 1208C1940 1161 1926 1129 1885 1030C1870 994 1835 920 1807 865C1780 810 1746 736 1733 701C1690 586 1684 586 1675 702C1665 833 1668 978 1681 1001C1701 1039 1952 1250 1977 1250C1978 1250 1971 1231 1961 1208M1991 1023C1975 942 1958 853 1954 825C1950 798 1946 771 1944 765C1943 760 1932 719 1920 675C1909 631 1893 568 1885 535C1861 427 1849 390 1839 390C1822 390 1700 511 1700 528C1700 560 1784 767 1849 897C1887 973 1933 1071 1950 1115C1967 1159 1989 1208 1998 1223C2015 1252 2015 1252 2018 1212C2020 1190 2008 1105 1991 1023M1431 1083C1443 1045 1457 1010 1462 1003C1469 994 1456 981 1415 955C1384 935 1355 920 1351 922C1329 931 1178 1102 1186 1110C1194 1117 1340 1145 1392 1149C1404 1150 1414 1132 1431 1083M1508 1093C1534 1072 1557 1054 1560 1052C1567 1047 1517 1010 1502 1010C1489 1010 1467 1052 1455 1103C1451 1118 1451 1130 1455 1130C1459 1130 1483 1113 1508 1093M1720 1095C1720 1079 1664 1040 1641 1040C1622 1040 1645 1067 1685 1092C1721 1114 1720 1114 1720 1095M2029 905C2023 810 2017 784 1970 659C1941 582 1915 522 1912 524C1910 527 1919 575 1933 632C1947 689 1966 771 1974 815C2026 1073 2041 1097 2029 905M1610 1021C1610 1016 1591 998 1568 981C1538 959 1523 953 1516 961C1508 968 1509 974 1520 980C1528 985 1549 998 1565 1009C1599 1031 1610 1034 1610 1021M1649 844C1650 769 1652 705 1654 702C1656 698 1655 675 1651 650C1645 605 1645 605 1593 745C1564 822 1540 893 1538 904C1536 917 1550 933 1584 956C1610 975 1636 988 1640 985C1645 982 1649 919 1649 844M1490 936C1490 924 1414 871 1395 870C1390 869 1384 876 1382 884C1380 894 1397 911 1426 929C1472 959 1490 961 1490 936M1534 823C1548 780 1571 714 1584 675L1609 605L1567 654C1544 680 1501 729 1473 762C1444 795 1420 828 1420 836C1420 845 1493 899 1507 900C1508 900 1520 865 1534 823M1358 857C1370 843 1365 839 1281 792C1256 778 1220 756 1201 744C1164 719 1142 720 1177 745C1189 753 1228 785 1265 815C1338 875 1342 876 1358 857M1400 812C1400 807 1420 782 1444 754C1468 727 1487 704 1485 702C1483 700 1298 698 1222 700C1199 700 1199 700 1227 723C1256 748 1380 820 1393 820C1397 820 1400 816 1400 812M2210 802C2210 797 2201 783 2191 771C2181 759 2150 721 2124 686C2097 650 2067 617 2057 611C2040 600 2039 604 2042 675C2045 751 2045 751 2110 780C2177 809 2210 816 2210 802M899 739C950 722 979 711 1030 685C1072 664 1075 660 1081 614C1084 587 1086 564 1086 563C1084 561 904 641 857 666C841 673 822 680 814 680C796 680 796 694 815 710C823 717 830 729 830 736C830 753 852 754 899 739M1974 511C1948 477 1925 452 1922 455C1919 458 1924 477 1933 497C1942 518 1958 560 1968 590C1979 620 1994 659 2002 675C2014 704 2015 703 2018 638C2021 572 2020 571 1974 511M1420 650C1433 626 1471 430 1463 430C1454 430 1402 466 1355 505C1328 528 1275 569 1239 596C1203 623 1173 649 1172 655C1171 661 1203 666 1247 667C1289 669 1325 671 1326 673C1328 674 1347 674 1370 672C1395 669 1414 661 1420 650M1573 603C1621 551 1596 553 1535 605C1490 643 1482 655 1491 666C1501 678 1506 677 1523 658C1534 645 1557 620 1573 603M844 610C865 598 905 580 933 569C1024 534 1100 495 1100 485C1100 469 1065 381 1054 370C1041 357 931 402 865 446C838 465 810 480 804 480C794 480 770 578 770 618C770 636 801 632 844 610M1515 590C1580 542 1586 534 1570 507C1557 482 1501 435 1495 442C1492 445 1485 471 1479 501C1473 531 1465 572 1460 593C1456 613 1455 630 1457 630C1459 630 1485 612 1515 590M1245 561C1305 516 1374 454 1355 462C1350 465 1305 480 1257 495C1166 524 1157 532 1145 588C1138 620 1139 622 1161 615C1174 611 1212 587 1245 561M2020 446C2020 372 2020 372 1983 365C1962 362 1934 356 1922 353C1903 349 1899 351 1902 364C1905 378 2010 520 2017 520C2019 520 2020 487 2020 446M1689 473C1698 482 1710 474 1743 441C1785 398 1785 398 1750 405C1731 409 1682 415 1641 419L1567 425L1605 452C1633 471 1648 476 1660 470C1671 464 1681 465 1689 473M1226 445C1257 431 1293 420 1306 420C1354 420 1328 402 1258 385C1218 376 1173 362 1157 354C1142 346 1126 341 1121 345C1105 354 1142 470 1161 470C1166 470 1195 459 1226 445M1434 375C1465 362 1471 355 1468 333C1466 314 1452 297 1425 279C1387 253 1385 253 1373 270C1365 281 1347 298 1331 309C1307 327 1297 328 1271 319C1254 313 1240 305 1240 301C1240 297 1255 279 1273 262C1303 233 1310 230 1335 240C1350 246 1364 249 1366 247C1373 241 1286 180 1271 180C1262 180 1226 208 1190 241C1109 319 1109 319 1315 369C1359 379 1396 389 1396 389C1397 390 1414 383 1434 375M1705 379C1833 359 1828 361 1800 339C1751 302 1739 304 1575 374C1545 387 1545 387 1590 389C1615 389 1667 385 1705 379M2196 383C2192 378 2161 345 2127 308C2051 224 2038 222 2042 293C2045 345 2045 345 2110 367C2179 389 2208 395 2196 383M1544 351C1547 346 1571 337 1596 331C1622 324 1656 312 1672 304C1696 291 1699 286 1689 274C1666 246 1625 223 1588 216C1552 209 1551 210 1541 247C1522 321 1517 360 1528 360C1534 360 1541 356 1544 351M2020 303C2020 236 2006 230 1960 275C1913 321 1921 335 1998 339C2017 340 2020 335 2020 303M1949 248C2010 186 2010 186 1983 169C1968 159 1952 153 1948 156C1940 161 1870 294 1870 305C1870 321 1894 303 1949 248M1814 273C1794 190 1784 175 1754 178C1717 181 1680 200 1680 215C1680 230 1779 299 1803 299C1817 300 1819 295 1814 273M1890 212C1901 188 1910 165 1910 161C1910 158 1890 156 1865 158C1815 162 1811 172 1831 243C1840 275 1844 279 1856 269C1864 263 1879 237 1890 212M1470 238C1470 201 1457 192 1400 185C1345 178 1345 178 1370 200C1401 227 1453 260 1463 260C1467 260 1470 250 1470 238M1630 158C1650 125 1657 70 1642 70C1628 70 1508 146 1506 156C1506 161 1528 170 1555 176C1583 183 1606 189 1608 189C1609 190 1619 175 1630 158M2098 173C2100 164 2090 160 2065 160C2032 160 2029 162 2040 175C2055 193 2091 191 2098 173M1695 160C1698 155 1709 150 1718 150C1755 150 1763 135 1745 101C1731 74 1726 71 1714 81C1697 95 1670 143 1670 160C1670 173 1687 173 1695 160M1543 96C1561 82 1567 50 1551 50C1545 50 1534 60 1526 72C1500 109 1508 122 1543 96" id="ShapeObject_1256850979398" stroke="none" style="fill:#000000;fill-opacity:1" transform="matrix(0.1,0,0,0.1,0,0)" opacity="1"/>
      <path d="M830 540M830 540C830 519 886 460 905 460C925 460 924 499 904 528C888 551 830 560 830 540" id="ShapeObject_1256850979400" stroke="none" style="fill:#000000;fill-opacity:1" transform="matrix(0.1,0,0,0.1,0,0)" opacity="1"/>
    </g>
  </g>
</svg>