<svg version="1.1" width="464" height="480" viewBox="0 0 464 480" xmlns:xlink="http://www.w3.org/1999/xlink" xmlns="http://www.w3.org/2000/svg">
  <desc>Created with Raven (http://www.aviary.com)</desc>
  <defs/>
  <g id="Layer_1256850979385" opacity="1"/>
  <g id="Layer_1256851721364" opacity="1">
    <g id="Layer_1256851721365" opacity="1">
      <path d="M2457 4787M2457 4787C2452 4774 2445 4772 2428 4779C2404 4788 2207 4785 2192 4776C2187 4773 2146 4776 2102 4782C2057 4789 2017 4791 2014 4787C2010 4783 2012 4770 2018 4757C2039 4714 2051 4583 2036 4548C2032 4539 2037 4515 2049 4491C2061 4469 2070 4442 2070 4432C2070 4419 2086 4406 2121 4390C2149 4376 2183 4356 2197 4344C2211 4332 2241 4313 2265 4301C2288 4289 2325 4266 2346 4249C2368 4232 2399 4211 2415 4203C2443 4188 2548 4111 2578 4083C2585 4076 2594 4070 2598 4070C2602 4070 2634 4043 2668 4011L2732 3953L2705 3889C2690 3854 2670 3805 2660 3780C2638 3721 2588 3618 2550 3552C2534 3523 2520 3493 2520 3486C2520 3471 2492 3412 2482 3406C2478 3404 2428 3399 2370 3396C2238 3388 2046 3364 1957 3344C1913 3335 1868 3331 1832 3336C1777 3342 1772 3340 1715 3301C1682 3279 1644 3251 1630 3238C1590 3201 1538 3164 1495 3142C1455 3122 1455 3122 1415 3157C1393 3176 1353 3209 1325 3230C1276 3268 1204 3326 1048 3452C972 3514 971 3515 998 3521C1014 3524 1093 3525 1175 3523C1323 3520 1323 3520 1351 3488C1367 3470 1398 3416 1422 3369C1465 3284 1465 3284 1500 3299C1520 3308 1567 3348 1606 3387L1677 3460L1616 3511C1543 3574 1445 3672 1409 3719C1393 3741 1379 3751 1371 3746C1362 3740 1362 3735 1371 3724C1381 3712 1380 3706 1367 3692C1351 3677 1350 3679 1350 3718L1350 3760L1237 3760C1175 3760 1099 3764 1069 3769C1039 3774 962 3781 897 3784C832 3787 774 3792 768 3796C751 3807 680 3778 679 3761C679 3752 677 3738 675 3730C673 3722 666 3695 660 3670C655 3645 645 3608 639 3588C628 3554 629 3548 654 3518C679 3488 701 3459 768 3374C781 3358 803 3326 818 3304C833 3281 871 3228 903 3185C961 3109 961 3109 944 3062C934 3036 920 3006 913 2995C906 2984 900 2969 900 2961C900 2945 883 2906 816 2772C740 2618 728 2595 718 2589C713 2586 689 2586 666 2591C642 2595 599 2598 569 2596C539 2595 503 2598 488 2603C457 2613 454 2624 446 2760C439 2877 439 2877 372 2883C341 2885 306 2890 295 2894C258 2907 107 2776 96 2723C93 2708 88 2643 85 2580C81 2495 70 2429 43 2327C7 2188 7 2188 29 2162C41 2147 65 2107 82 2072C111 2012 112 2005 105 1928C102 1884 96 1841 93 1834C86 1814 110 1817 166 1840C222 1865 213 1872 327 1719C370 1661 408 1620 422 1617C466 1605 879 1615 892 1628C908 1644 879 1665 820 1680C795 1686 750 1702 720 1716C652 1747 662 1755 780 1765C827 1768 896 1778 933 1786C971 1794 1014 1800 1029 1800C1050 1800 1076 1821 1154 1904C1263 2020 1264 2020 1469 2069C1554 2089 1630 2121 1649 2144C1658 2155 1644 2158 1578 2164C1477 2172 1421 2186 1414 2205C1408 2221 1461 2320 1486 2341C1506 2357 1890 2357 1933 2341C1952 2334 1960 2334 1960 2341C1960 2347 1966 2348 1972 2344C1979 2339 1999 2337 2017 2339C2035 2340 2087 2332 2132 2319C2181 2306 2252 2296 2305 2295C2355 2293 2438 2289 2490 2286C2690 2272 2720 2271 2725 2281C2731 2290 2645 2380 2630 2380C2627 2380 2604 2398 2579 2420C2555 2443 2521 2467 2504 2474C2473 2488 2430 2538 2430 2560C2430 2567 2424 2584 2416 2598C2400 2629 2361 2723 2336 2792C2326 2820 2311 2842 2299 2845C2288 2849 2229 2858 2167 2865C2106 2873 2038 2885 2017 2891C1985 2902 1974 2901 1947 2888C1915 2873 1859 2847 1746 2795C1714 2780 1662 2760 1631 2751C1575 2733 1575 2733 1569 2674C1565 2641 1562 2562 1561 2498C1560 2388 1559 2380 1540 2380C1499 2380 1505 2497 1557 2714C1576 2793 1583 2799 1690 2834C1770 2860 1847 2891 1947 2935C2008 2962 2008 2962 2083 2936C2177 2903 2188 2902 2286 2901L2366 2900L2385 2838C2395 2803 2418 2745 2436 2709C2454 2673 2476 2620 2485 2592C2500 2548 2522 2520 2632 2410C2750 2291 2780 2266 2780 2288C2780 2292 2797 2313 2818 2335C2838 2357 2875 2400 2900 2430C2925 2460 2959 2501 2977 2520C3010 2555 3010 2555 3032 2530C3065 2493 3134 2448 3223 2404C3265 2383 3300 2364 3300 2361C3300 2358 3304 2348 3309 2341C3322 2320 3393 2389 3483 2510C3559 2612 3646 2718 3670 2736C3688 2751 3688 2809 3670 2983C3659 3088 3659 3120 3669 3163C3690 3246 3742 3394 3755 3410C3779 3438 3777 3470 3751 3483C3734 3491 3704 3539 3658 3625C3621 3697 3590 3758 3590 3762C3590 3765 3620 3803 3656 3846C3692 3889 3734 3941 3748 3963C3763 3985 3786 4015 3800 4029C3814 4043 3844 4077 3867 4103C3889 4129 3915 4150 3923 4150C3939 4150 3954 4177 3942 4183C3938 4185 3901 4183 3860 4178C3819 4173 3767 4166 3744 4164C3699 4159 3705 4172 3644 3952C3628 3895 3589 3818 3573 3813C3564 3810 3552 3876 3535 4020C3521 4138 3508 4247 3499 4330C3472 4585 3447 4710 3425 4710C3418 4710 3402 4682 3390 4648C3378 4613 3362 4569 3355 4550C3347 4531 3335 4498 3328 4476C3321 4455 3305 4429 3292 4419C3273 4404 3271 4398 3280 4381C3286 4369 3295 4360 3300 4360C3306 4360 3310 4356 3310 4350C3310 4345 3337 4284 3370 4215C3427 4098 3430 4087 3426 4033C3419 3941 3400 3819 3385 3765C3377 3737 3368 3685 3365 3650C3355 3547 3354 3537 3345 3500C3341 3481 3336 3452 3334 3435C3315 3203 3307 3139 3296 3122C3293 3117 3286 3076 3281 3030C3271 2951 3265 2926 3233 2835C3225 2813 3219 2791 3219 2785C3218 2780 3213 2766 3208 2756C3198 2737 3197 2738 3184 2762C3177 2776 3164 2825 3155 2871C3098 3179 3090 3215 3076 3226C3057 3239 2970 3422 2970 3447C2970 3464 3022 3681 3077 3899C3104 4003 3104 4003 3079 4019C3066 4028 3037 4051 3015 4071C2993 4090 2959 4117 2940 4131C2921 4144 2898 4162 2890 4170C2868 4191 2818 4230 2635 4369C2554 4430 2492 4503 2484 4545C2481 4565 2480 4624 2482 4676C2486 4740 2483 4775 2475 4786C2464 4802 2463 4802 2457 4787M2177 4747C2201 4745 2209 4715 2215 4617C2216 4594 2220 4563 2224 4548C2234 4514 2229 4514 2140 4539C2075 4557 2075 4557 2068 4611C2065 4641 2059 4687 2055 4714L2049 4763L2102 4756C2131 4752 2165 4748 2177 4747M2386 4752C2397 4746 2430 4604 2430 4567C2430 4544 2408 4546 2325 4575C2287 4589 2254 4600 2253 4600C2249 4600 2230 4705 2230 4730C2230 4760 2230 4760 2303 4760C2342 4760 2380 4756 2386 4752M3446 4573C3462 4500 3462 4496 3444 4483C3425 4469 3359 4448 3353 4454C3346 4461 3411 4650 3420 4650C3425 4650 3436 4616 3446 4573M2364 4538C2393 4526 2393 4526 2359 4515C2277 4486 2281 4486 2265 4524C2257 4543 2250 4561 2250 4564C2250 4570 2329 4552 2364 4538M2190 4497C2225 4482 2225 4482 2195 4471C2179 4464 2152 4452 2136 4444C2120 4436 2104 4430 2100 4430C2090 4430 2073 4493 2078 4509C2083 4525 2138 4520 2190 4497M2462 4483C2471 4473 2499 4425 2525 4375C2577 4277 2619 4208 2630 4200C2634 4197 2659 4155 2685 4105L2734 4015L2632 4108C2577 4160 2530 4205 2528 4210C2525 4218 2474 4278 2372 4393C2343 4426 2321 4458 2323 4464C2326 4474 2397 4497 2431 4499C2440 4500 2454 4492 2462 4483M2291 4443C2312 4427 2332 4408 2335 4400C2338 4392 2353 4371 2370 4353C2386 4335 2400 4319 2400 4316C2400 4309 2330 4334 2279 4361C2255 4373 2218 4388 2197 4395C2176 4401 2158 4410 2157 4416C2156 4423 2229 4466 2248 4469C2250 4470 2269 4458 2291 4443M3456 4403C3453 4376 3447 4315 3443 4265C3440 4216 3434 4169 3431 4162C3427 4155 3407 4187 3382 4242C3311 4400 3312 4385 3378 4419C3458 4461 3464 4460 3456 4403M2616 4359C2666 4326 2797 4225 2819 4203C2833 4190 2878 4153 2919 4122C3016 4049 3045 4019 3028 4009C3004 3996 2880 3970 2840 3970C2804 3970 2800 3973 2761 4036C2739 4072 2720 4103 2720 4106C2720 4109 2700 4141 2676 4178C2617 4269 2540 4402 2540 4414C2540 4419 2552 4412 2568 4399C2583 4385 2605 4367 2616 4359M2260 4340C2263 4337 2309 4317 2363 4295C2433 4267 2467 4247 2484 4226C2497 4209 2520 4182 2534 4166C2549 4151 2560 4136 2558 4135C2555 4132 2276 4313 2235 4345C2215 4360 2215 4360 2235 4353C2246 4349 2257 4344 2260 4340M3500 4130C3520 3972 3522 3944 3510 3963C3467 4030 3452 4139 3467 4260L3474 4315L3482 4260C3486 4230 3494 4171 3500 4130M3839 4113C3826 4098 3811 4082 3805 4078C3794 4069 3748 4119 3756 4132C3759 4136 3784 4140 3812 4140C3863 4140 3863 4140 3839 4113M3753 4077C3778 4044 3778 4044 3734 3985C3676 3907 3659 3887 3655 3892C3652 3895 3660 3924 3703 4073C3709 4093 3717 4110 3721 4110C3725 4110 3739 4095 3753 4077M3494 3929C3514 3876 3531 3816 3533 3795C3535 3757 3535 3757 3476 3734C3443 3721 3414 3712 3412 3715C3409 3718 3415 3773 3425 3837C3435 3902 3445 3972 3447 3993C3450 4014 3454 4030 3455 4028C3457 4026 3475 3982 3494 3929M3060 3964C3060 3955 3055 3930 3049 3910L3037 3872L2959 3899C2916 3914 2878 3929 2874 3932C2869 3937 3016 3977 3048 3979C3054 3980 3060 3973 3060 3964M3028 3845C3030 3843 3017 3773 2995 3670C2977 3589 2953 3511 2947 3513C2927 3519 2776 3894 2784 3916C2787 3925 2821 3917 2907 3888C2972 3866 3026 3847 3028 3845M2800 3640C2805 3610 2814 3526 2820 3453C2825 3381 2832 3304 2834 3283C2837 3262 2840 3216 2842 3180C2845 3115 2845 3115 2790 3082C2735 3050 2693 3033 2685 3042C2682 3045 2686 3100 2694 3166C2702 3231 2712 3330 2716 3385C2720 3440 2724 3499 2725 3515C2727 3532 2731 3610 2735 3690C2738 3770 2744 3844 2747 3855C2753 3874 2776 3780 2800 3640M2708 3598C2703 3589 2697 3521 2694 3448C2691 3375 2684 3284 2678 3245C2673 3207 2666 3158 2663 3138C2660 3117 2654 3100 2650 3100C2643 3100 2590 3200 2590 3214C2590 3217 2574 3246 2554 3280C2522 3334 2520 3345 2526 3388C2535 3449 2556 3505 2638 3674L2705 3814L2710 3714C2713 3660 2712 3607 2708 3598M767 3687C827 3606 826 3604 729 3599C687 3597 675 3599 677 3611C683 3664 703 3760 709 3759C712 3759 739 3726 767 3687M834 3722C862 3708 921 3684 965 3669C1009 3653 1043 3640 1040 3640C1037 3639 995 3637 946 3634C897 3632 855 3628 852 3626C846 3619 784 3692 766 3727C747 3765 747 3765 834 3722M1051 3750C1081 3744 1147 3739 1198 3739C1250 3739 1298 3736 1306 3733C1321 3727 1324 3701 1314 3651C1307 3620 1307 3620 1207 3625C1130 3628 1104 3633 1098 3645C1086 3665 1043 3687 967 3710C933 3721 896 3736 885 3744C867 3758 870 3759 931 3760C968 3760 1021 3755 1051 3750M2877 3600C2951 3432 2951 3455 2889 3228C2876 3178 2860 3189 2860 3248C2860 3316 2833 3591 2814 3715C2810 3741 2812 3739 2831 3700C2843 3675 2864 3630 2877 3600M3560 3540C3561 3444 3560 3298 3560 3215L3558 3065L3539 3145C3529 3189 3511 3263 3500 3310C3461 3475 3428 3672 3437 3681C3453 3697 3544 3729 3552 3722C3556 3718 3559 3636 3560 3540M1441 3648C1475 3610 1477 3599 1451 3576C1401 3531 1331 3612 1377 3662C1399 3687 1407 3685 1441 3648M3686 3529L3730 3450L3692 3335C3672 3272 3652 3220 3648 3220C3643 3220 3640 3253 3639 3293C3639 3332 3637 3374 3636 3385C3634 3396 3630 3439 3626 3480C3622 3521 3617 3578 3614 3605C3608 3654 3609 3655 3625 3632C3635 3619 3662 3573 3686 3529M1238 3600C1276 3601 1280 3599 1280 3576C1280 3551 1280 3551 1108 3551C972 3551 931 3554 913 3565C900 3574 890 3585 890 3589C890 3606 924 3609 1060 3604C1134 3602 1214 3600 1238 3600M1355 3568C1372 3545 1390 3518 1397 3506C1419 3469 1399 3474 1363 3515C1344 3537 1324 3554 1319 3553C1314 3551 1310 3564 1310 3580C1310 3620 1319 3617 1355 3568M1530 3560C1575 3516 1569 3509 1506 3535C1474 3549 1471 3553 1480 3570C1494 3596 1494 3596 1530 3560M855 3558C872 3492 882 3457 904 3380C930 3289 960 3173 960 3162C960 3148 696 3492 671 3538C655 3568 656 3569 703 3572C843 3582 848 3582 855 3558M967 3482C1005 3450 1058 3406 1086 3384C1223 3279 1430 3107 1430 3099C1430 3085 1343 2954 1290 2888C1265 2857 1226 2804 1202 2770C1178 2735 1155 2712 1150 2716C1145 2721 1118 2784 1090 2855C1062 2927 1032 3000 1024 3018C1017 3036 1010 3061 1010 3073C1010 3085 991 3156 969 3230C898 3460 879 3540 895 3540C897 3540 930 3514 967 3482M3409 3390C3415 3360 3429 3263 3440 3176C3462 3004 3464 3019 3415 2965C3284 2820 3256 2790 3253 2793C3252 2795 3257 2819 3265 2846C3300 2966 3339 3194 3360 3406C3372 3535 3382 3562 3392 3495C3396 3468 3404 3420 3409 3390M3446 3432C3453 3390 3463 3337 3469 3315C3491 3234 3519 3083 3525 3015L3531 2945L3507 2990C3489 3024 3478 3070 3466 3175C3456 3252 3442 3347 3434 3385C3419 3458 3415 3528 3427 3517C3430 3513 3439 3475 3446 3432M1596 3480L1643 3459L1594 3415C1567 3390 1542 3370 1539 3370C1534 3370 1497 3443 1471 3504C1465 3518 1542 3503 1596 3480M3605 3398C3606 3358 3611 3277 3615 3219C3622 3113 3617 3065 3599 3075C3594 3079 3590 3169 3590 3282C3590 3393 3593 3481 3596 3477C3600 3474 3604 3438 3605 3398M1490 3343C1490 3316 1471 3332 1451 3375C1439 3400 1430 3423 1430 3427C1430 3439 1489 3355 1490 3343M3030 3224C3030 3208 2943 3150 2919 3150C2905 3150 2904 3157 2911 3195C2922 3253 2950 3362 2958 3374C2964 3384 3030 3247 3030 3224M2380 3356C2380 3352 2338 3329 2185 3250C2136 3224 2065 3187 2029 3167L1963 3130L1932 3203C1914 3242 1900 3278 1900 3282C1900 3314 2095 3349 2313 3358C2350 3359 2380 3358 2380 3356M2475 3298C2461 3157 2448 3097 2403 2973C2387 2930 2387 2930 2291 2930C2195 2930 2110 2949 2041 2984C2006 3002 1971 3088 1992 3102C2120 3182 2190 3222 2228 3236C2254 3246 2281 3258 2289 3264C2317 3286 2455 3359 2468 3360C2478 3360 2480 3346 2475 3298M1804 3278C1838 3199 1860 3140 1860 3128C1860 3118 1834 3115 1743 3117C1678 3118 1607 3123 1585 3128C1545 3136 1545 3136 1655 3223C1715 3271 1770 3310 1777 3310C1784 3310 1797 3295 1804 3278M2572 3191C2599 3133 2626 3077 2631 3068C2653 3027 2642 3014 2558 2977C2478 2942 2420 2923 2420 2932C2420 2935 2431 2974 2445 3021C2459 3067 2478 3151 2486 3207C2496 3270 2506 3307 2512 3303C2518 3300 2545 3249 2572 3191M1907 3195C1972 3051 1991 2992 1977 2983C1971 2980 1964 2983 1962 2991C1959 2999 1937 3043 1912 3090C1888 3137 1857 3203 1844 3238C1820 3301 1820 3301 1841 3298C1858 3296 1873 3271 1907 3195M3085 3108C3095 3068 3106 3010 3111 2980C3115 2950 3126 2883 3134 2831C3143 2779 3148 2735 3145 2732C3130 2717 2910 2874 2910 2900C2910 2941 3035 3180 3056 3180C3063 3180 3076 3147 3085 3108M2950 3060C2928 3016 2906 2980 2901 2980C2892 2980 2880 3028 2880 3066C2880 3084 2891 3095 2928 3114C2954 3128 2978 3139 2983 3140C2987 3140 2972 3104 2950 3060M1703 3096C1800 3094 1883 3089 1888 3086C1898 3080 1930 2996 1930 2976C1930 2970 1915 2957 1897 2946C1854 2922 1592 2828 1578 2832C1572 2834 1559 2858 1548 2885C1517 2965 1480 3074 1480 3087C1480 3098 1509 3110 1522 3103C1525 3101 1607 3098 1703 3096M2859 2987C2860 2955 2857 2930 2852 2932C2827 2943 2731 3006 2730 3012C2730 3016 2756 3033 2788 3049C2855 3083 2858 3080 2859 2987M1473 3023C1507 2942 1540 2851 1540 2838C1540 2831 1512 2815 1477 2804C1443 2792 1370 2764 1316 2741C1261 2718 1210 2701 1202 2702C1186 2705 1228 2771 1321 2887C1352 2927 1393 2984 1411 3014C1429 3044 1447 3067 1450 3065C1454 3063 1464 3044 1473 3023M979 2794C979 2717 982 2646 986 2637C989 2628 989 2604 986 2585C980 2553 976 2550 944 2550C884 2550 768 2573 763 2586C761 2592 784 2649 816 2711C847 2774 883 2854 897 2888C910 2923 930 2970 942 2993L964 3035L971 2985C975 2958 978 2872 979 2794M3644 2964C3647 2938 3650 2887 3650 2851C3650 2785 3650 2785 3625 2815C3611 2832 3597 2855 3594 2868C3588 2890 3619 3010 3631 3010C3635 3010 3640 2989 3644 2964M1079 2823C1105 2754 1119 2703 1115 2691C1112 2680 1088 2652 1062 2629L1015 2588L1008 2631C1005 2655 1001 2747 1001 2835C1000 2993 1000 2995 1018 2965C1028 2949 1055 2885 1079 2823M2744 2968C2793 2941 2820 2920 2820 2908C2820 2898 2576 2899 2526 2909C2496 2916 2496 2916 2532 2933C2669 2998 2683 3000 2744 2968M3499 2944C3511 2929 3520 2914 3520 2909C3520 2904 3501 2891 3478 2879C3454 2867 3417 2845 3395 2829C3323 2776 3280 2750 3280 2760C3280 2777 3456 2970 3471 2970C3475 2970 3488 2958 3499 2944M2857 2866C2858 2865 2848 2799 2834 2719C2819 2640 2806 2562 2803 2545C2791 2459 2767 2339 2760 2335C2750 2329 2537 2545 2526 2573C2521 2585 2495 2642 2469 2700C2443 2758 2418 2822 2415 2843L2408 2880L2631 2874C2754 2870 2856 2867 2857 2866M3576 2833C3593 2812 3610 2790 3613 2783C3623 2766 3580 2745 3420 2689C3346 2664 3260 2634 3230 2623C3200 2612 3162 2599 3146 2596L3117 2589L3146 2613C3162 2626 3200 2653 3230 2673C3260 2693 3314 2730 3350 2756C3429 2814 3521 2870 3536 2870C3542 2870 3560 2853 3576 2833M291 2733C291 2665 291 2606 290 2602C290 2593 200 2565 143 2556C110 2551 110 2551 111 2598C111 2624 115 2667 119 2694C128 2745 134 2753 231 2833C287 2879 292 2871 291 2733M2164 2835C2229 2827 2287 2817 2293 2811C2301 2803 2382 2612 2421 2509C2426 2495 2449 2473 2471 2461C2493 2448 2544 2411 2585 2377C2663 2312 2664 2300 2596 2306C2579 2307 2491 2311 2400 2315C2292 2319 2209 2328 2159 2341C2117 2351 2038 2362 1984 2365C1929 2368 1856 2373 1820 2375C1784 2377 1718 2380 1673 2380L1590 2381L1588 2453C1587 2493 1585 2541 1585 2560C1584 2579 1588 2622 1594 2654C1604 2707 1608 2714 1635 2723C1688 2739 1793 2782 1854 2811C1887 2827 1921 2840 1931 2840C1941 2840 1952 2845 1956 2851C1960 2858 1978 2860 2004 2856C2026 2852 2099 2843 2164 2835M410 2826C415 2813 420 2758 422 2703C425 2605 425 2605 388 2603L350 2602L350 2720C350 2824 352 2839 368 2843C398 2851 400 2850 410 2826M2984 2794C3018 2769 3064 2740 3087 2728L3128 2707L3075 2654C3045 2625 3013 2600 3003 2598C2993 2596 2985 2588 2985 2579C2985 2570 2957 2532 2924 2494C2890 2456 2848 2409 2831 2390C2805 2361 2801 2358 2800 2375C2800 2396 2849 2682 2871 2788C2886 2862 2890 2862 2984 2794M1545 2777C1540 2761 1504 2572 1490 2483L1478 2412L1352 2510C1282 2564 1215 2619 1202 2633C1178 2658 1178 2658 1217 2670C1238 2677 1273 2691 1295 2701C1512 2798 1556 2811 1545 2777M3538 2627C3498 2575 3446 2508 3422 2477C3399 2446 3367 2412 3351 2401C3323 2381 3323 2381 3239 2421C3148 2466 3064 2528 3077 2541C3081 2545 3123 2560 3170 2574C3217 2587 3301 2617 3358 2639C3415 2662 3469 2680 3478 2680C3487 2680 3520 2691 3550 2703C3580 2716 3606 2725 3608 2724C3610 2723 3578 2680 3538 2627M1142 2651C1144 2645 1195 2602 1255 2555C1415 2430 1441 2408 1436 2403C1434 2400 1392 2413 1343 2430C1295 2448 1230 2471 1200 2482C1118 2511 1040 2549 1040 2559C1040 2569 1121 2658 1132 2659C1135 2660 1140 2656 1142 2651M679 2564C688 2556 564 2562 545 2570C532 2576 552 2577 600 2573C641 2570 677 2566 679 2564M473 2465C486 2432 505 2387 515 2365C532 2325 532 2325 510 2345C498 2356 479 2382 469 2402C459 2422 437 2459 420 2483C384 2537 383 2548 413 2552C437 2556 436 2556 473 2465M668 2534C687 2530 689 2525 683 2502C671 2453 588 2298 579 2307C574 2312 562 2339 552 2367C542 2395 529 2424 524 2432C512 2447 480 2526 480 2540C480 2549 616 2545 668 2534M387 2492C404 2466 431 2422 446 2395C461 2368 479 2339 487 2332C521 2298 560 2229 560 2203C560 2151 547 2144 499 2171C476 2184 449 2206 439 2220C422 2243 340 2499 340 2528C340 2551 356 2540 387 2492M276 2443C272 2400 269 2336 268 2300C267 2252 261 2224 243 2192C217 2146 143 2070 124 2070C117 2070 95 2099 75 2135L39 2201L67 2248L95 2295L98 2248C101 2209 106 2197 130 2180C159 2159 159 2159 169 2197C184 2254 184 2262 170 2298C156 2335 152 2337 134 2313C123 2298 121 2298 120 2310C120 2333 256 2520 273 2520C278 2520 279 2486 276 2443M882 2500C919 2489 919 2489 897 2452C885 2432 858 2397 838 2375C817 2353 800 2332 800 2328C800 2323 794 2320 788 2320C781 2320 729 2272 673 2213C616 2155 570 2109 570 2112C570 2115 577 2137 585 2160C593 2183 600 2215 600 2231C600 2246 619 2298 643 2347C666 2395 693 2455 704 2479C723 2523 723 2523 784 2517C817 2513 862 2506 882 2500M1070 2500C1084 2496 1111 2485 1130 2476C1156 2465 1159 2461 1144 2460C1125 2460 1024 2487 1007 2497C993 2505 1012 2521 1029 2515C1038 2511 1056 2504 1070 2500M210 2491C210 2486 203 2477 194 2469C186 2462 159 2427 136 2391C113 2355 87 2319 78 2312C64 2301 63 2304 70 2338C74 2359 81 2383 85 2390C90 2398 96 2420 100 2439C105 2471 110 2475 150 2486C208 2501 210 2502 210 2491M970 2473C970 2468 961 2425 950 2376C939 2326 930 2275 930 2260C930 2240 921 2231 881 2212C854 2200 826 2190 819 2190C811 2190 776 2176 740 2159C660 2121 617 2107 622 2121C624 2127 688 2196 765 2274C842 2353 915 2431 928 2448C950 2478 970 2490 970 2473M1148 2441C1241 2422 1355 2388 1368 2375C1371 2373 1367 2368 1359 2365C1320 2350 1200 2318 1166 2313C1145 2310 1096 2295 1057 2279C958 2238 956 2238 963 2308C966 2339 975 2389 982 2418C993 2468 996 2471 1019 2467C1033 2464 1091 2453 1148 2441M344 2335C381 2235 381 2234 321 2246C290 2252 290 2253 290 2315C290 2349 293 2393 297 2411C304 2448 301 2454 344 2335M1415 2340C1412 2334 1381 2311 1347 2288C1313 2265 1271 2235 1254 2221C1237 2207 1210 2186 1195 2175C1179 2164 1162 2150 1156 2144C1150 2138 1135 2128 1123 2122C1111 2115 1080 2092 1055 2070C1030 2048 1005 2030 999 2030C994 2030 968 2014 941 1995C915 1976 890 1960 886 1960C883 1960 862 1948 840 1934C800 1907 730 1891 730 1909C730 1914 747 1935 768 1956C790 1978 836 2033 872 2080C953 2186 986 2220 1036 2244C1064 2257 1311 2325 1418 2349C1420 2350 1418 2345 1415 2340M1408 2265C1386 2220 1376 2212 1365 2230C1362 2235 1353 2237 1345 2233C1314 2222 1332 2246 1377 2278C1403 2295 1425 2310 1427 2310C1428 2310 1420 2290 1408 2265M155 2231C148 2199 130 2197 130 2229C130 2246 150 2273 158 2266C160 2263 159 2248 155 2231M325 2212C319 2208 302 2194 286 2180C257 2155 257 2155 276 2188C287 2207 302 2220 314 2220C325 2220 330 2217 325 2212M1300 2211C1300 2206 1283 2192 1263 2181L1225 2159L1258 2190C1292 2222 1300 2226 1300 2211M390 2200C390 2194 382 2187 373 2183C363 2180 342 2167 325 2155C289 2129 200 2080 200 2086C200 2088 217 2101 238 2115C258 2129 297 2156 324 2175C374 2211 390 2217 390 2200M920 2192C920 2180 844 2082 757 1982C692 1908 667 1887 636 1879C548 1855 550 1854 514 1965C474 2085 473 2100 500 2093C527 2086 525 2094 493 2125C465 2150 465 2150 499 2140C544 2128 544 2127 526 2091C499 2040 506 2016 539 2043C557 2059 828 2170 918 2199C919 2200 920 2197 920 2192M1359 2186C1300 2132 1160 2042 1160 2058C1160 2073 1203 2108 1275 2149C1333 2183 1377 2202 1359 2186M419 2098C432 2063 450 1997 461 1951C472 1905 483 1864 485 1859C493 1848 376 1843 368 1855C364 1860 362 1871 365 1879C368 1886 370 1933 370 1984C371 2087 379 2160 390 2160C394 2160 407 2132 419 2098M1152 2092C1105 2047 1049 2007 990 1976C940 1950 900 1931 900 1934C900 1936 937 1963 983 1993C1028 2023 1079 2059 1095 2074C1112 2088 1128 2100 1131 2100C1134 2100 1154 2114 1175 2130C1238 2180 1228 2164 1152 2092M1535 2141L1585 2135L1540 2118C1491 2100 1307 2050 1303 2054C1302 2055 1322 2080 1348 2109C1395 2162 1395 2162 1440 2155C1465 2151 1508 2145 1535 2141M465 2052C470 2018 469 2018 451 2065C428 2125 424 2156 445 2117C453 2102 462 2072 465 2052M290 2024C245 1913 246 1913 194 1967C151 2014 151 2014 173 2029C227 2069 315 2118 318 2111C320 2106 307 2067 290 2024M348 1975C346 1901 341 1838 338 1835C335 1832 317 1837 297 1845C263 1859 261 1863 266 1893C272 1927 341 2110 348 2110C351 2110 351 2049 348 1975M1248 2054C1234 2039 1216 2030 1209 2032C1200 2035 1208 2045 1230 2058C1276 2087 1280 2086 1248 2054M500 1944C522 1871 525 1851 511 1866C502 1875 470 1979 470 1999C470 2025 481 2005 500 1944M1135 1964C1097 1946 1040 1923 1010 1914C980 1905 939 1889 920 1878C901 1867 872 1854 855 1849C825 1841 825 1841 853 1865C868 1879 893 1893 908 1896C923 1900 973 1921 1020 1943C1067 1965 1119 1986 1135 1991C1201 2007 1201 1996 1135 1964M186 1944C205 1925 220 1905 220 1901C220 1892 131 1855 126 1861C118 1870 134 1980 143 1980C148 1980 168 1964 186 1944M1083 1878C1046 1841 1031 1834 958 1818C869 1800 810 1795 825 1808C849 1828 1076 1916 1110 1919C1118 1919 1106 1901 1083 1878M605 1810C575 1779 560 1779 560 1810C560 1823 570 1832 593 1838C636 1850 639 1845 605 1810M504 1805C507 1797 514 1790 521 1790C527 1790 530 1797 526 1805C523 1813 525 1820 530 1820C536 1820 540 1814 540 1806C540 1798 543 1784 547 1775C552 1761 549 1759 530 1765C518 1769 502 1773 496 1774C447 1784 400 1803 405 1810C415 1827 497 1822 504 1805M493 1744C552 1725 552 1725 525 1704C498 1683 436 1660 409 1660C394 1661 300 1780 300 1797C300 1803 330 1797 368 1785C405 1772 461 1754 493 1744M685 1700C691 1696 723 1682 758 1670C792 1657 820 1646 820 1644C820 1642 764 1640 695 1641C626 1641 565 1638 559 1635C554 1631 532 1631 513 1635C477 1642 477 1642 546 1680C614 1718 654 1724 685 1700" id="ShapeObject_1256851721367" stroke="none" style="fill:#000000;fill-opacity:1" transform="matrix(0.1,0,0,0.1,0,0)" opacity="1"/>
      <path d="M198 2763M198 2763C185 2760 180 2748 180 2719C180 2669 201 2667 224 2714C250 2768 246 2776 198 2763" id="ShapeObject_1256851721369" stroke="none" style="fill:#000000;fill-opacity:1" transform="matrix(0.1,0,0,0.1,0,0)" opacity="1"/>
    </g>
  </g>
</svg>