<svg version="1.1" width="422" height="514" viewBox="0 0 422 514" xmlns:xlink="http://www.w3.org/1999/xlink" xmlns="http://www.w3.org/2000/svg">
  <desc>Created with Raven (http://www.aviary.com)</desc>
  <defs/>
  <g id="Layer_1256837442424" opacity="1">
    <path d="M3220 5059M3220 5059C3184 5031 3127 4988 3093 4962C3059 4936 3028 4904 3024 4891C3020 4878 3022 4845 3028 4816C3043 4747 3067 4520 3069 4433C3070 4398 3073 4391 3092 4388C3107 4386 3125 4366 3148 4325C3167 4292 3194 4245 3208 4221C3221 4196 3246 4154 3261 4128C3306 4052 3302 4043 3198 3947C3147 3900 3101 3861 3097 3860C3093 3860 3062 3896 3028 3940C2990 3991 2963 4017 2958 4012C2952 4006 2952 3995 2959 3982C2965 3971 2977 3940 2986 3914C2995 3887 3010 3847 3020 3825C3038 3784 3075 3683 3105 3595C3114 3568 3126 3536 3131 3525C3143 3495 3162 3419 3157 3414C3155 3412 3112 3438 3060 3473C3009 3507 2961 3540 2952 3545C2943 3551 2896 3581 2847 3614L2757 3672L2763 3799C2767 3868 2775 3977 2782 4040C2793 4142 2798 4161 2827 4207C2845 4236 2860 4262 2860 4265C2860 4269 2869 4285 2880 4301C2903 4332 2913 4318 2742 4519C2603 4683 2506 4839 2492 4921C2486 4958 2481 4965 2450 4974C2392 4992 2332 5029 2325 5050C2317 5076 2279 5076 2182 5051C2097 5029 2091 5025 2108 5002C2114 4993 2131 4964 2144 4939C2171 4890 2264 4750 2346 4637C2491 4436 2563 4330 2587 4282L2613 4228L2524 4137C2386 3995 2339 3949 2281 3900C2232 3858 2227 3850 2214 3785C2194 3689 2170 3617 2152 3604C2139 3595 2140 3589 2158 3564C2177 3538 2197 3480 2219 3385C2233 3324 2237 3329 2055 3178C2022 3150 1975 3109 1950 3086C1901 3041 1726 2920 1710 2920C1705 2920 1700 2908 1700 2893C1700 2862 1561 2571 1539 2554C1518 2539 1225 2470 1145 2462C1107 2458 1048 2457 1015 2460C947 2466 957 2447 924 2632C907 2728 907 2728 944 2760C1044 2848 1055 2853 1169 2856C1226 2858 1274 2861 1276 2863C1278 2864 1280 2913 1281 2970C1282 3040 1279 3075 1271 3078C1265 3080 1260 3093 1260 3107C1260 3133 1259 3133 1199 3126C1165 3123 1105 3120 1066 3120C1006 3120 991 3117 970 3097C956 3084 914 3052 875 3026C837 3000 802 2972 797 2965C793 2957 772 2941 750 2929C716 2910 710 2901 709 2871C708 2851 706 2819 705 2800C688 2560 689 2521 717 2442C732 2400 758 2346 775 2323C791 2300 813 2270 822 2257C835 2238 852 2231 897 2225C929 2221 964 2216 975 2214C986 2212 1031 2207 1075 2204C1119 2200 1161 2193 1168 2187C1198 2163 1171 1950 1130 1884C1117 1862 1124 1849 1232 1705C1253 1678 1270 1652 1270 1648C1270 1644 1295 1602 1326 1555C1357 1508 1379 1463 1376 1455C1373 1447 1343 1427 1308 1409C1273 1392 1224 1362 1197 1344C1171 1325 1141 1310 1130 1310C1119 1310 1073 1328 1029 1351C984 1373 935 1393 919 1395C894 1398 890 1395 890 1375C890 1343 880 1319 869 1326C864 1329 857 1324 854 1316C851 1307 841 1300 833 1300C822 1300 819 1293 823 1278C826 1265 837 1217 846 1172C860 1106 868 1086 884 1080C896 1076 916 1061 929 1046C948 1026 1002 998 1030 995C1054 993 1156 920 1190 882C1213 856 1241 825 1252 813C1262 801 1277 793 1285 796C1293 799 1337 797 1383 791C1462 782 1471 778 1505 743C1526 722 1549 695 1557 683C1577 653 1590 663 1590 706C1590 725 1593 740 1598 740C1602 740 1629 722 1658 700C1719 653 1727 659 1711 741C1706 771 1705 798 1709 803C1713 807 1741 813 1771 817C1801 820 1836 828 1850 835C1874 847 1938 858 1988 859C2010 860 2011 862 2009 970C2008 1080 2008 1080 2065 1142C2097 1177 2128 1207 2134 1210C2140 1213 2164 1227 2187 1242C2211 1258 2276 1289 2332 1312C2458 1364 2524 1401 2528 1423C2531 1438 2520 1440 2436 1440C2348 1440 2322 1448 2350 1465C2356 1469 2372 1489 2386 1511C2406 1544 2410 1559 2405 1598C2399 1644 2400 1646 2451 1700C2480 1730 2519 1771 2538 1791L2572 1828L2535 1875C2515 1902 2488 1945 2474 1972C2449 2021 2449 2021 2470 2098C2501 2207 2528 2259 2572 2284C2592 2295 2634 2320 2667 2339C2699 2357 2749 2388 2778 2408C2833 2444 2968 2589 3021 2669C3038 2694 3064 2725 3080 2737C3095 2749 3126 2790 3148 2827C3170 2864 3212 2919 3241 2948C3292 2999 3294 3001 3283 3033C3268 3075 3252 3160 3245 3233C3240 3280 3241 3290 3254 3290C3270 3290 3272 3292 3362 3429C3395 3480 3431 3525 3442 3528C3452 3530 3460 3535 3461 3539C3465 3577 3500 3636 3527 3653C3546 3664 3544 3680 3509 3795L3479 3898L3540 4020C3601 4142 3601 4142 3578 4164C3516 4223 3337 4440 3313 4485C3307 4496 3279 4534 3251 4569C3223 4604 3200 4639 3200 4647C3200 4665 3337 4900 3347 4900C3350 4900 3375 4882 3402 4860C3449 4823 3490 4808 3490 4829C3490 4837 3435 4942 3412 4977C3374 5037 3312 5109 3300 5109C3292 5109 3256 5086 3220 5059M3374 4982C3401 4942 3421 4908 3418 4905C3411 4898 3336 4959 3310 4992C3288 5021 3290 5065 3313 5057C3320 5055 3347 5021 3374 4982M2260 5013C2259 4997 2254 4956 2247 4920C2235 4855 2235 4855 2214 4885C2203 4902 2182 4936 2167 4961L2141 5008L2193 5023C2262 5043 2260 5044 2260 5013M2315 4977C2319 4960 2326 4941 2330 4935C2336 4927 2370 4833 2370 4824C2370 4817 2316 4811 2295 4816C2266 4823 2263 4852 2281 4957C2293 5024 2304 5031 2315 4977M3244 5001C3254 4985 3133 4579 3102 4523C3096 4513 3091 4527 3086 4571C3074 4678 3062 4782 3055 4836C3048 4886 3048 4886 3130 4948C3210 5009 3233 5019 3244 5001M2460 4921C2471 4900 2500 4818 2500 4808C2500 4792 2433 4800 2417 4818C2402 4834 2360 4940 2360 4961C2360 4975 2450 4938 2460 4921M3279 4857C3256 4820 3235 4792 3233 4794C3229 4798 3266 4935 3276 4951C3280 4958 3289 4956 3302 4943C3321 4923 3321 4923 3279 4857M2399 4774C2405 4768 2349 4710 2337 4710C2325 4710 2291 4752 2290 4767C2290 4786 2381 4792 2399 4774M2577 4685C2592 4663 2630 4614 2660 4577C2690 4539 2728 4492 2743 4472C2759 4452 2782 4424 2796 4409C2822 4382 2826 4370 2810 4370C2805 4370 2788 4389 2774 4413C2759 4436 2710 4493 2664 4540C2619 4587 2556 4654 2525 4690C2470 4752 2469 4755 2491 4761C2517 4767 2527 4759 2577 4685M2441 4683C2452 4656 2479 4599 2500 4555C2540 4473 2561 4402 2542 4414C2530 4421 2402 4600 2374 4648C2355 4682 2355 4682 2383 4706C2398 4719 2413 4730 2416 4730C2419 4730 2430 4709 2441 4683M2753 4398C2787 4351 2783 4345 2704 4306C2642 4276 2625 4277 2617 4312C2605 4364 2550 4511 2511 4592C2488 4640 2470 4685 2470 4692C2470 4707 2710 4457 2753 4398M3245 4490C3260 4454 3281 4405 3292 4382C3303 4358 3309 4336 3307 4334C3302 4328 3216 4362 3171 4387C3152 4397 3134 4414 3130 4425C3123 4444 3148 4562 3165 4589C3177 4609 3212 4565 3245 4490M3358 4343C3343 4329 3333 4346 3292 4450C3289 4458 3306 4441 3329 4411C3367 4365 3370 4356 3358 4343M3196 4341C3201 4336 3228 4325 3257 4316C3285 4306 3313 4293 3319 4286C3332 4270 3387 4119 3400 4064C3405 4042 3412 4015 3416 4004C3420 3994 3397 4010 3367 4040C3318 4087 3210 4255 3178 4333C3170 4351 3180 4356 3196 4341M3408 4263C3414 4231 3422 4187 3425 4165C3429 4143 3434 4114 3437 4100C3450 4044 3421 4099 3390 4189C3365 4266 3361 4288 3369 4308C3385 4341 3396 4329 3408 4263M2810 4316C2810 4302 2784 4242 2772 4228C2749 4201 2660 4208 2660 4236C2660 4244 2690 4265 2728 4284C2792 4317 2810 4324 2810 4316M3480 4227C3566 4133 3563 4144 3523 4061C3504 4021 3484 3992 3480 3997C3472 4005 3430 4270 3436 4270C3438 4270 3458 4250 3480 4227M2693 4182C2707 4176 2698 4166 2648 4134C2613 4111 2558 4078 2525 4059L2465 4026L2495 4060C2594 4174 2641 4202 2693 4182M2716 3921C2697 3826 2677 3743 2671 3737C2659 3725 2650 3729 2470 3810C2407 3839 2349 3868 2342 3874C2326 3890 2384 3936 2540 4030C2598 4065 2668 4109 2695 4128L2745 4162L2748 4129C2749 4110 2735 4017 2716 3921M3374 3931C3411 3860 3417 3831 3401 3815C3395 3809 3373 3768 3351 3723C3328 3677 3309 3640 3307 3640C3303 3640 3310 3922 3316 3968C3319 3991 3325 4008 3330 4005C3334 4002 3354 3969 3374 3931M3283 3858C3282 3796 3278 3716 3275 3680C3268 3615 3268 3615 3249 3640C3192 3713 3156 3767 3143 3798C3128 3833 3128 3833 3196 3901C3234 3939 3269 3970 3275 3970C3281 3970 3284 3929 3283 3858M3111 3766C3134 3657 3141 3617 3138 3608C3135 3599 3055 3797 3033 3870C3030 3878 3045 3865 3067 3841C3088 3816 3108 3783 3111 3766M2352 3830C2370 3820 2414 3800 2450 3786C2486 3773 2540 3749 2569 3735C2638 3701 2629 3695 2483 3675C2424 3666 2363 3657 2349 3654C2324 3648 2321 3652 2302 3712C2291 3746 2280 3786 2277 3798C2265 3852 2295 3864 2352 3830M3461 3625C3424 3577 3420 3574 3384 3578C3316 3584 3316 3582 3376 3702L3432 3814L3466 3746L3500 3677L3461 3625M2268 3720C2288 3653 2284 3633 2249 3625C2232 3621 2216 3621 2213 3624C2207 3630 2242 3760 2250 3760C2253 3760 2261 3742 2268 3720M3220 3631C3260 3563 3260 3563 3249 3484C3238 3401 3233 3388 3226 3411C3197 3502 3188 3538 3175 3610C3167 3657 3160 3699 3160 3703C3160 3721 3182 3695 3220 3631M2686 3662C2692 3658 2709 3624 2723 3585C2737 3547 2762 3480 2780 3437C2797 3393 2810 3357 2808 3355C2802 3349 2585 3409 2521 3434C2485 3449 2450 3460 2443 3460C2420 3460 2417 3490 2436 3512C2447 3523 2487 3554 2527 3581C2566 3608 2602 3635 2605 3641C2619 3662 2667 3675 2686 3662M2550 3643C2550 3638 2530 3622 2505 3606C2480 3591 2440 3558 2415 3534C2391 3510 2367 3490 2362 3490C2357 3490 2346 3517 2337 3549C2323 3609 2323 3609 2354 3620C2371 3626 2410 3633 2440 3637C2470 3640 2497 3644 2499 3646C2507 3653 2550 3650 2550 3643M2781 3622C2794 3612 2839 3584 2880 3560C2921 3535 2974 3502 2996 3485C3019 3469 3065 3438 3099 3417C3199 3356 3182 3347 2977 3358L2838 3365L2813 3425C2790 3481 2740 3625 2740 3635C2740 3645 2758 3639 2781 3622M2309 3537C2324 3482 2323 3480 2298 3433C2283 3407 2267 3384 2261 3382C2256 3380 2246 3398 2240 3422C2234 3446 2222 3485 2214 3510C2206 3535 2200 3560 2200 3567C2200 3578 2265 3600 2285 3596C2291 3595 2301 3568 2309 3537M3386 3537C3392 3531 3284 3364 3268 3354C3260 3349 3259 3357 3264 3380C3267 3399 3273 3439 3277 3469C3285 3541 3294 3553 3342 3547C3363 3545 3383 3540 3386 3537M2565 3391C2620 3374 2683 3354 2705 3348C2834 3314 2821 3325 2861 3209C2881 3152 2909 3080 2923 3050C2938 3020 2950 2990 2950 2984C2950 2977 2964 2942 2981 2906C2998 2869 3010 2837 3007 2834C3005 2831 2974 2861 2939 2901C2844 3008 2526 3323 2431 3402C2414 3417 2400 3431 2400 3433C2400 3440 2452 3427 2565 3391M2398 3388C2429 3365 2498 3306 2550 3255C2602 3205 2683 3128 2729 3085C2803 3013 2938 2860 2925 2860C2920 2860 2868 2893 2735 2978C2556 3093 2487 3139 2383 3217L2271 3301L2291 3353C2310 3402 2327 3430 2337 3430C2339 3430 2367 3411 2398 3388M3208 3307C3212 3288 3182 3167 3141 3036C3124 2981 3110 2925 3110 2911C3110 2882 3081 2800 3070 2800C3064 2800 3027 2875 2940 3067C2902 3152 2860 3278 2860 3307C2860 3326 2886 3328 3050 3325C3177 3322 3206 3319 3208 3307M2114 3114C2077 3043 2027 2947 2003 2900C1978 2853 1955 2812 1951 2808C1942 2798 1807 2928 1815 2939C1818 2944 1853 2973 1893 3003C1932 3033 1983 3075 2005 3096C2028 3118 2070 3155 2100 3180C2130 3205 2159 3230 2164 3236C2189 3263 2177 3235 2114 3114M2324 3225C2386 3183 2424 3155 2438 3142C2445 3136 2461 3125 2472 3119C2483 3113 2500 3101 2511 3092C2521 3083 2549 3065 2574 3051C2598 3036 2642 3009 2672 2989C2701 2969 2754 2934 2790 2912C2917 2831 3020 2759 3020 2751C3020 2746 2999 2739 2974 2735C2949 2732 2881 2715 2824 2699C2703 2665 2646 2662 2625 2688C2611 2705 2585 2742 2498 2867C2429 2968 2270 3227 2270 3239C2270 3256 2284 3252 2324 3225M2212 2998L2209 2787L2145 2721L2081 2655L2035 2700C2009 2725 1985 2752 1980 2761C1974 2772 1988 2809 2027 2886C2057 2946 2091 3013 2103 3035C2148 3125 2204 3220 2209 3214C2212 3212 2213 3114 2212 2998M2369 3017C2417 2939 2485 2837 2519 2791C2553 2745 2579 2705 2576 2703C2571 2697 2464 2725 2382 2754C2345 2767 2302 2781 2285 2785C2269 2788 2252 2797 2248 2803C2244 2810 2240 2902 2240 3009C2240 3240 2232 3240 2369 3017M3230 3132C3230 3117 3237 3084 3244 3059C3258 3013 3258 3013 3199 2949L3139 2885L3144 2935C3150 2984 3155 3002 3193 3112C3213 3171 3230 3180 3230 3132M1134 3082C1152 3080 1152 3078 1129 3054C1104 3027 1041 2985 1035 2991C1031 2995 1027 3046 1029 3072C1030 3089 1037 3089 1134 3082M1002 3014C1003 2983 1003 2955 1000 2950C986 2929 855 2841 848 2848C843 2853 839 2881 837 2910C835 2964 835 2964 909 3017C949 3046 986 3070 990 3070C995 3070 1000 3045 1002 3014M1180 3000C1180 2945 1170 2939 1113 2961C1085 2971 1085 2971 1127 3011C1150 3032 1172 3050 1175 3050C1178 3050 1180 3028 1180 3000M1250 2963C1249 2912 1247 2899 1239 2912C1230 2928 1236 3030 1246 3030C1248 3030 1250 3000 1250 2963M1159 2921C1184 2918 1205 2909 1208 2902C1211 2892 1195 2890 1138 2892C1070 2895 1065 2897 1062 2919C1059 2941 1061 2942 1087 2935C1102 2930 1135 2924 1159 2921M809 2883C824 2829 823 2828 789 2845C751 2865 742 2887 766 2905C794 2926 798 2924 809 2883M1036 2898C1043 2875 1012 2842 944 2801C913 2783 890 2788 890 2812C890 2827 1000 2917 1022 2919C1026 2920 1032 2910 1036 2898M1872 2833C1919 2784 1983 2718 2014 2685C2071 2626 2071 2626 2046 2601C2021 2577 2021 2577 1988 2611C1931 2671 1755 2871 1752 2881C1748 2891 1768 2920 1779 2920C1783 2920 1825 2881 1872 2833M1838 2742C1846 2730 1851 2718 1849 2716C1833 2702 1640 2591 1623 2586C1595 2577 1595 2582 1619 2629C1630 2649 1660 2709 1685 2763L1730 2861L1777 2813C1802 2787 1829 2755 1838 2742M813 2790C818 2786 826 2736 830 2679C835 2622 842 2551 846 2521C853 2468 852 2468 829 2475C816 2479 786 2496 763 2512C720 2541 720 2541 720 2608C720 2645 723 2712 727 2757L733 2840L769 2818C789 2806 809 2794 813 2790M2365 2730C2393 2720 2457 2700 2509 2685C2560 2671 2612 2653 2624 2645C2648 2629 2729 2637 2815 2665C2843 2674 2896 2687 2933 2694C2995 2707 3001 2706 2998 2692C2996 2683 2986 2674 2975 2672C2964 2670 2932 2657 2903 2644C2874 2631 2820 2616 2783 2610C2746 2603 2697 2592 2675 2584C2638 2571 2632 2571 2595 2590C2574 2601 2550 2610 2543 2610C2537 2610 2516 2619 2498 2630C2451 2657 2272 2720 2256 2714C2249 2711 2201 2652 2149 2583C2097 2513 2027 2427 1993 2391L1930 2326L1988 2241C2019 2194 2048 2148 2052 2138C2056 2128 2082 2087 2110 2046C2163 1967 2169 1950 2145 1950C2137 1950 2117 1976 2100 2008C2083 2039 2038 2110 1999 2165C1961 2220 1922 2280 1913 2298C1897 2331 1898 2333 1926 2386C1958 2446 2131 2667 2185 2718C2205 2736 2225 2748 2230 2745C2236 2742 2240 2744 2240 2750C2240 2764 2298 2755 2365 2730M904 2628C930 2472 930 2470 904 2470C880 2470 874 2483 866 2568C863 2596 858 2643 855 2670C850 2715 851 2720 869 2720C885 2720 890 2707 904 2628M1977 2583C2002 2551 2002 2551 1954 2486C1907 2422 1907 2422 1871 2435C1851 2442 1813 2450 1786 2454C1759 2458 1728 2465 1716 2470C1705 2474 1669 2486 1637 2495C1581 2512 1570 2526 1601 2541C1609 2545 1642 2564 1675 2583C1708 2602 1762 2633 1795 2650C1828 2668 1860 2687 1865 2692C1875 2701 1920 2657 1977 2583M2487 2606C2516 2592 2544 2580 2550 2580C2556 2580 2580 2571 2604 2560C2639 2543 2652 2541 2676 2550C2692 2556 2743 2570 2789 2581C2836 2592 2893 2609 2917 2620C2946 2633 2958 2635 2953 2626C2942 2608 2851 2502 2820 2473C2793 2447 2622 2342 2513 2285C2412 2232 2328 2177 2316 2155C2304 2135 2245 2052 2211 2010C2193 1987 2190 1986 2175 2001C2161 2015 2069 2156 1994 2278L1968 2320L2026 2383C2059 2417 2105 2472 2130 2505C2155 2538 2197 2593 2223 2627L2272 2688L2353 2661C2398 2645 2458 2621 2487 2606M1480 2495C1480 2491 1418 2432 1336 2359C1308 2335 1266 2296 1241 2273L1195 2231L1145 2279C1118 2305 1069 2347 1038 2372C981 2418 981 2418 1012 2424C1029 2427 1070 2430 1104 2430C1137 2431 1183 2435 1205 2440C1268 2454 1343 2470 1372 2475C1386 2478 1409 2484 1422 2489C1447 2499 1480 2503 1480 2495M798 2457C826 2442 850 2425 850 2419C850 2411 792 2380 775 2380C770 2380 748 2429 735 2470C731 2482 732 2491 736 2489C741 2487 769 2472 798 2457M1522 2428C1516 2399 1505 2350 1498 2320C1491 2290 1485 2258 1485 2250C1484 2242 1478 2222 1472 2207C1465 2192 1461 2176 1462 2172C1463 2168 1458 2152 1452 2137C1445 2121 1440 2104 1440 2099C1440 2094 1436 2082 1431 2072C1414 2040 1382 1964 1350 1883C1343 1865 1334 1850 1331 1850C1324 1850 1304 1891 1265 1985C1237 2052 1219 2120 1216 2167C1213 2211 1213 2211 1368 2351C1454 2427 1526 2488 1528 2485C1531 2482 1528 2456 1522 2428M1701 2451C1742 2440 1801 2427 1832 2420C1864 2414 1892 2405 1895 2401C1897 2396 1891 2381 1880 2367C1860 2341 1860 2341 1891 2288C1908 2259 1925 2233 1929 2230C1947 2215 1960 2178 1951 2162C1946 2153 1942 2142 1942 2137C1943 2098 1926 2040 1915 2040C1902 2040 1861 2095 1763 2245C1738 2284 1693 2347 1664 2386C1634 2425 1610 2459 1610 2463C1610 2473 1619 2472 1701 2451M1648 2185C1703 2011 1750 1833 1765 1737C1769 1711 1767 1698 1758 1695C1742 1689 1610 1715 1583 1729C1545 1748 1398 1800 1380 1800C1370 1800 1359 1803 1356 1808C1354 1812 1372 1865 1396 1925C1466 2096 1469 2106 1511 2265C1532 2348 1553 2422 1556 2430C1563 2449 1571 2429 1648 2185M1698 2302C1718 2273 1751 2225 1770 2195C1913 1973 1900 2001 1885 1935C1846 1764 1833 1730 1806 1730C1800 1730 1780 1793 1761 1873C1743 1951 1701 2098 1669 2199C1637 2300 1610 2390 1610 2399C1610 2417 1638 2387 1698 2302M970 2383C984 2374 997 2363 1000 2360C1003 2357 1021 2343 1040 2330C1073 2308 1140 2242 1140 2232C1140 2224 968 2240 928 2252C884 2265 881 2280 906 2353C923 2404 933 2409 970 2383M880 2368C880 2342 859 2280 851 2280C846 2280 833 2294 822 2312C801 2344 801 2344 828 2362C860 2383 880 2385 880 2368M2480 2220C2480 2215 2471 2187 2460 2158C2449 2129 2440 2097 2440 2088C2440 2078 2433 2055 2423 2036C2408 2004 2400 1999 2339 1985C2262 1968 2230 1966 2230 1979C2230 1983 2244 2005 2261 2026C2278 2048 2303 2081 2316 2101C2328 2121 2367 2158 2402 2183C2468 2231 2480 2236 2480 2220M2014 2101C2054 2044 2125 1912 2119 1905C2112 1899 1975 1967 1961 1983C1953 1994 1953 2016 1962 2074C1968 2116 1975 2150 1976 2150C1977 2150 1994 2128 2014 2101M1239 1988C1309 1828 1309 1830 1233 1853C1172 1871 1168 1877 1185 1940C1193 1970 1200 2005 1200 2018C1200 2054 1215 2043 1239 1988M2482 1902C2500 1871 2516 1842 2518 1839C2522 1829 2417 1818 2397 1826C2373 1835 2376 1871 2405 1910C2419 1929 2430 1950 2430 1958C2430 1980 2446 1963 2482 1902M2020 1918L2094 1877L2050 1857C2025 1846 1975 1823 1938 1805C1900 1787 1870 1775 1870 1778C1870 1782 1880 1824 1892 1873C1908 1934 1919 1960 1930 1960C1938 1960 1979 1941 2020 1918M2386 1938C2377 1925 2366 1905 2361 1893C2355 1882 2346 1869 2340 1865C2328 1858 2240 1906 2240 1920C2240 1932 2324 1954 2384 1959C2401 1960 2401 1959 2386 1938M2297 1836C2310 1830 2320 1821 2320 1817C2320 1788 2175 1551 2157 1550C2152 1550 2151 1567 2154 1588C2157 1608 2165 1675 2171 1735C2178 1796 2187 1856 2192 1868C2200 1892 2200 1892 2238 1869C2258 1857 2285 1842 2297 1836M1288 1806C1295 1805 1305 1799 1311 1793C1322 1782 1353 1607 1348 1581C1346 1572 1327 1595 1301 1640C1277 1681 1240 1739 1218 1769C1197 1799 1180 1827 1180 1831C1180 1835 1201 1831 1228 1823C1254 1815 1281 1807 1288 1806M2105 1780C2095 1721 1971 1389 1908 1251C1892 1216 1872 1170 1863 1148C1843 1098 1834 1112 1831 1197C1830 1234 1827 1267 1824 1271C1822 1275 1820 1358 1819 1455C1819 1578 1823 1637 1831 1646C1860 1681 2076 1819 2103 1820C2108 1820 2109 1802 2105 1780M1970 1786C1970 1778 1859 1707 1854 1712C1852 1715 1876 1733 1907 1753C1967 1791 1970 1793 1970 1786M2145 1758C2143 1740 2136 1670 2130 1602C2121 1493 2116 1472 2085 1410C2050 1340 1923 1153 1895 1130C1882 1119 1882 1122 1894 1156C1902 1178 1923 1227 1940 1265C1958 1304 1983 1364 1996 1400C2008 1436 2034 1503 2053 1550C2072 1597 2100 1670 2115 1713C2130 1755 2144 1790 2146 1790C2148 1790 2148 1775 2145 1758M2359 1699C2360 1653 2359 1651 2284 1586C2177 1492 2166 1495 2234 1599C2258 1635 2292 1694 2311 1729C2341 1787 2345 1791 2351 1769C2355 1756 2358 1724 2359 1699M2480 1780C2480 1775 2461 1752 2438 1730C2391 1685 2382 1690 2381 1758C2380 1790 2380 1790 2430 1790C2458 1790 2480 1786 2480 1780M1464 1746C1556 1706 1610 1686 1654 1676L1703 1665L1649 1624C1619 1601 1580 1575 1562 1566C1543 1556 1508 1533 1483 1514C1408 1457 1402 1462 1370 1633C1343 1780 1342 1774 1392 1766C1415 1762 1448 1753 1464 1746M1776 1646C1755 1628 1708 1595 1672 1573C1635 1551 1568 1509 1523 1481C1477 1453 1440 1433 1440 1437C1440 1445 1509 1494 1574 1534C1591 1545 1629 1572 1659 1594C1721 1641 1803 1690 1809 1684C1812 1682 1797 1665 1776 1646M1741 1479C1719 1411 1692 1319 1680 1275C1669 1231 1658 1191 1656 1185C1655 1180 1650 1163 1645 1148C1641 1132 1632 1120 1626 1120C1619 1120 1592 1162 1565 1213C1538 1263 1504 1324 1488 1347C1473 1370 1460 1392 1460 1397C1460 1406 1468 1411 1630 1515C1688 1552 1744 1588 1755 1595C1766 1602 1776 1607 1778 1605C1779 1604 1763 1547 1741 1479M2365 1537C2355 1519 2341 1500 2336 1494C2330 1488 2318 1473 2310 1461C2298 1443 2285 1440 2233 1440C2199 1440 2168 1444 2165 1450C2162 1455 2179 1471 2202 1486C2226 1501 2272 1536 2304 1563C2362 1611 2364 1612 2374 1591C2381 1574 2379 1561 2365 1537M1805 1188C1814 1042 1820 1050 1720 1074C1666 1086 1665 1087 1668 1120C1670 1138 1678 1169 1685 1189C1692 1209 1701 1245 1705 1270C1708 1295 1722 1348 1735 1387C1748 1427 1765 1479 1772 1502C1784 1544 1785 1543 1791 1430C1795 1367 1801 1258 1805 1188M1410 1413C1410 1403 1269 1337 1263 1344C1258 1349 1379 1417 1398 1419C1404 1419 1410 1417 1410 1413M2260 1400C2260 1385 2176 1291 2165 1294C2154 1297 2146 1374 2154 1396C2160 1412 2260 1416 2260 1400M2444 1395C2434 1387 2416 1380 2406 1380C2395 1380 2379 1374 2371 1366C2356 1352 2254 1310 2236 1310C2226 1310 2275 1379 2298 1398C2308 1405 2344 1410 2389 1410C2457 1410 2462 1409 2444 1395M2123 1328C2121 1255 2121 1255 2084 1257C2064 1259 2045 1262 2043 1264C2038 1269 2112 1399 2120 1400C2123 1400 2125 1367 2123 1328M1461 1345C1515 1256 1517 1263 1432 1271C1390 1275 1353 1277 1349 1274C1337 1267 1260 1282 1260 1291C1260 1303 1411 1380 1429 1377C1437 1376 1451 1362 1461 1345M1050 1312C1134 1271 1145 1262 1148 1236C1154 1187 1138 1186 1049 1233C928 1296 910 1309 910 1336C910 1372 940 1366 1050 1312M1204 1223C1197 1179 1185 1163 1175 1180C1163 1199 1179 1260 1196 1260C1208 1260 1210 1252 1204 1223M950 1214C1151 1104 1135 1118 1132 1048C1130 1014 1128 984 1126 983C1125 982 1088 996 1045 1015C958 1052 880 1115 881 1146C881 1160 886 1156 897 1133C915 1097 946 1082 964 1100C972 1108 966 1120 937 1146C915 1166 892 1179 884 1176C876 1173 870 1174 870 1179C870 1184 867 1202 864 1219C855 1260 869 1259 950 1214M1499 1177C1525 1090 1533 1050 1523 1050C1510 1050 1420 1116 1350 1178L1286 1235L1340 1240C1370 1243 1414 1243 1437 1242C1480 1238 1480 1238 1499 1177M1290 1197C1315 1173 1362 1132 1395 1105C1428 1079 1457 1055 1460 1052C1469 1043 1416 1062 1365 1086C1338 1098 1293 1118 1266 1129C1220 1149 1218 1151 1224 1181C1227 1198 1230 1219 1230 1226C1230 1249 1242 1242 1290 1197M2073 1224C2090 1206 2010 1113 1989 1126C1984 1129 1980 1125 1980 1117C1980 1100 1965 1083 1881 1005L1817 945L1845 995C1861 1023 1883 1057 1894 1072C1906 1086 1937 1128 1963 1164C2002 1218 2016 1230 2039 1230C2054 1230 2069 1227 2073 1224M1575 1125C1609 1073 1618 1029 1601 1002C1588 981 1575 1005 1551 1091C1520 1202 1523 1207 1575 1125M1171 1039C1164 995 1162 992 1161 1020C1160 1056 1170 1104 1176 1097C1179 1095 1176 1069 1171 1039M1312 1040C1360 1016 1398 994 1396 992C1393 990 1363 984 1328 980C1293 975 1248 968 1226 964C1187 957 1187 957 1195 1016C1199 1048 1204 1078 1207 1083C1212 1092 1204 1095 1312 1040M1732 1039C1815 1023 1813 1024 1796 991C1761 925 1722 913 1655 950C1619 970 1613 993 1634 1025C1653 1053 1659 1054 1732 1039M1985 972C1992 890 1998 897 1898 874C1787 848 1766 846 1776 862C1785 877 1973 1050 1977 1047C1978 1046 1981 1012 1985 972M1502 953C1523 944 1540 931 1540 926C1540 920 1521 893 1498 866C1456 817 1456 817 1369 823C1322 827 1276 832 1269 835C1250 843 1198 917 1207 923C1216 929 1306 946 1395 959C1428 963 1457 968 1459 969C1461 969 1481 962 1502 953M1566 849C1554 811 1552 809 1551 833C1550 860 1567 906 1576 898C1578 895 1574 874 1566 849M1645 883C1671 871 1679 862 1675 848C1671 839 1674 805 1679 774C1685 742 1689 715 1687 713C1681 708 1621 756 1600 783C1582 806 1581 814 1591 854C1597 879 1604 900 1606 900C1608 900 1625 892 1645 883" id="ShapeObject_1256837442426" stroke="none" style="fill:#000000;fill-opacity:1" transform="matrix(0.1,0,0,0.1,0,0)" opacity="1"/>
    <path d="M1294 916M1294 916C1287 899 1333 853 1367 844C1378 841 1398 843 1410 850C1431 861 1431 862 1412 893C1396 921 1388 925 1347 928C1312 930 1298 927 1294 916" id="ShapeObject_1256837442428" stroke="none" style="fill:#000000;fill-opacity:1" transform="matrix(0.1,0,0,0.1,0,0)" opacity="1"/>
  </g>
</svg>