<svg version="1.1" width="400" height="400" viewBox="0 0 400 400" xmlns:xlink="http://www.w3.org/1999/xlink" xmlns="http://www.w3.org/2000/svg">
  <desc>Created with Raven (http://www.aviary.com)</desc>
  <defs/>
  <g id="Layer_1256639073323" opacity="1">
    <g id="Layer_1256639073324" opacity="1">
      <path d="M918 3961M918 3961C851 3951 847 3944 865 3875C873 3842 880 3808 880 3799C880 3790 892 3756 907 3724C927 3680 936 3641 941 3570C945 3518 953 3419 959 3350C965 3281 972 3189 974 3145C981 3018 986 2122 979 2115C975 2112 949 2125 919 2145C890 2164 863 2180 859 2180C851 2180 735 2258 673 2305C609 2354 593 2382 586 2465C583 2504 576 2580 570 2635C565 2690 559 2805 558 2891C555 3046 555 3046 598 3095C621 3122 657 3152 678 3162C795 3219 835 3246 832 3265C830 3276 828 3302 827 3323C825 3356 816 3370 757 3427C677 3504 689 3508 582 3370C545 3323 513 3283 510 3280C506 3277 482 3248 455 3215C429 3182 404 3153 401 3150C375 3129 341 3057 345 3033C356 2963 362 2815 365 2577C368 2380 371 2315 382 2303C389 2294 406 2268 420 2244C434 2220 497 2123 561 2028C710 1806 770 1708 781 1666C790 1635 785 1539 761 1216C754 1122 750 1104 732 1089C712 1073 654 1060 520 1040C490 1036 453 1029 438 1025C415 1019 409 1023 396 1048C388 1064 372 1133 360 1201C335 1350 321 1372 264 1351C244 1344 202 1338 171 1339C140 1339 110 1336 104 1332C99 1328 84 1296 71 1260C22 1118 22 1136 69 995C109 873 111 862 105 786C101 741 94 685 89 661C76 602 86 561 116 550C138 541 190 472 190 451C190 446 194 440 200 438C205 436 199 395 185 340C171 286 165 241 170 236C175 231 204 243 239 264C291 296 302 299 319 288C331 281 340 270 340 264C340 258 352 248 366 241C404 224 582 90 603 63C624 37 648 35 749 51C800 60 834 60 884 51C930 43 956 43 969 50C980 55 1044 61 1112 62C1180 64 1238 69 1242 74C1253 89 1239 110 1218 110C1208 110 1169 131 1132 156C1033 225 1038 218 1055 249C1063 263 1079 298 1090 325C1108 369 1119 380 1168 407C1199 424 1252 447 1285 459C1318 470 1362 486 1382 494C1403 503 1425 509 1432 508C1438 506 1454 530 1466 560C1478 590 1493 626 1498 640C1504 654 1520 702 1535 747C1561 829 1561 829 1647 862C1727 893 1764 920 1726 920C1716 920 1704 942 1690 989C1664 1078 1664 1098 1693 1104C1772 1121 1814 1124 1880 1118C2093 1098 2148 1097 2247 1114C2360 1133 2393 1134 2535 1125C2605 1120 2669 1123 2748 1134C2858 1149 2863 1151 2922 1197C3000 1258 3125 1386 3191 1473C3220 1510 3249 1540 3257 1540C3265 1540 3305 1510 3346 1473C3448 1380 3454 1382 3460 1500L3465 1595L3538 1604C3586 1609 3613 1617 3617 1626C3620 1634 3609 1680 3592 1728C3575 1776 3551 1851 3539 1895C3518 1975 3518 1975 3540 2055C3552 2099 3573 2162 3586 2195C3612 2261 3619 2313 3598 2292C3584 2278 3452 2276 3431 2289C3415 2299 3422 2348 3456 2468C3490 2585 3492 2580 3415 2573C3350 2567 3350 2567 3350 2603C3350 2655 3379 2842 3390 2862C3407 2892 3401 2897 3345 2902C3280 2907 3273 2912 3287 2942C3300 2970 3477 3190 3499 3207C3513 3217 3515 3257 3518 3492C3520 3778 3515 3873 3498 3868C3492 3866 3478 3826 3466 3780C3453 3733 3436 3678 3427 3658C3411 3620 3411 3620 3326 3620C3279 3620 3239 3616 3236 3612C3234 3608 3229 3530 3225 3440C3222 3349 3215 3237 3209 3190C3201 3116 3182 2935 3178 2890C3178 2882 3180 2868 3183 2860C3186 2852 3191 2798 3194 2740C3200 2597 3228 2289 3240 2215C3246 2182 3253 2092 3256 2015L3261 1875L3217 1990C3117 2249 3116 2256 3091 2800C3085 2916 3073 3040 3061 3105C3050 3166 3036 3294 3030 3390C3024 3486 3016 3590 3011 3620C3002 3679 3003 3787 3015 3887L3022 3950L2877 3949C2711 3949 2717 3954 2758 3855C2832 3673 2831 3682 2837 3464C2840 3352 2841 3260 2837 3260C2834 3260 2793 3326 2745 3406C2642 3579 2633 3620 2669 3727C2681 3761 2690 3814 2690 3845C2690 3893 2686 3905 2664 3925C2633 3954 2628 3954 2498 3938C2386 3924 2389 3928 2416 3825C2439 3734 2462 3609 2461 3575C2461 3556 2470 3535 2489 3515C2504 3499 2528 3467 2541 3445C2554 3423 2586 3376 2613 3340C2668 3267 2738 3142 2771 3059C2783 3030 2800 3000 2808 2993C2820 2983 2820 2974 2805 2928C2795 2899 2771 2844 2752 2805C2733 2767 2699 2686 2677 2625C2639 2519 2629 2493 2599 2423C2585 2389 2563 2375 2503 2364C2482 2360 2449 2349 2430 2340C2411 2330 2366 2319 2330 2315C2230 2305 2143 2291 2118 2280C2073 2262 1945 2239 1900 2241C1872 2243 1845 2237 1830 2228C1804 2211 1785 2205 1650 2166C1506 2124 1512 2122 1461 2233C1437 2283 1405 2352 1390 2385C1339 2494 1309 2571 1300 2618C1268 2772 1247 2884 1238 2952C1228 3022 1229 3033 1250 3092C1262 3126 1279 3163 1287 3172C1300 3187 1298 3200 1271 3287C1253 3341 1224 3439 1206 3505C1187 3571 1164 3645 1155 3670C1140 3709 1140 3727 1150 3812C1157 3865 1159 3913 1156 3918C1153 3923 1133 3930 1112 3934C1090 3937 1067 3947 1060 3955C1047 3971 1003 3973 918 3961M1029 3898C1051 3826 1073 3739 1069 3736C1067 3734 1037 3730 1004 3726C942 3719 942 3719 927 3758C918 3780 908 3824 904 3858C898 3918 898 3918 926 3923C1006 3935 1018 3932 1029 3898M2990 3890C2990 3859 2970 3766 2961 3757C2952 3748 2916 3885 2923 3904C2931 3924 2990 3912 2990 3890M2612 3795C2608 3637 2607 3636 2550 3612C2502 3592 2502 3592 2492 3633C2474 3704 2440 3864 2440 3876C2440 3891 2521 3909 2575 3907L2615 3905L2612 3795M2869 3891C2887 3873 2924 3741 2914 3731C2912 3729 2893 3731 2872 3736C2839 3744 2833 3751 2813 3800C2801 3830 2788 3867 2785 3883C2778 3909 2780 3910 2814 3910C2836 3910 2857 3903 2869 3891M1119 3851C1119 3831 1115 3806 1111 3796C1103 3774 1100 3779 1080 3857C1071 3894 1074 3900 1101 3893C1115 3889 1120 3879 1119 3851M2658 3825C2654 3773 2646 3751 2635 3761C2633 3764 2634 3791 2637 3823C2645 3897 2664 3899 2658 3825M1080 3672C1080 3662 1076 3629 1070 3599C1065 3569 1051 3489 1040 3420C1015 3267 1009 3237 1004 3242C997 3250 970 3536 970 3607C970 3686 970 3685 1048 3689C1073 3690 1080 3686 1080 3672M2959 3673C2962 3671 2954 3624 2942 3567C2930 3511 2913 3420 2904 3365C2878 3201 2874 3211 2866 3477L2860 3690L2908 3683C2934 3680 2957 3675 2959 3673M3490 3663C3490 3640 3473 3614 3464 3622C3455 3632 3468 3680 3480 3680C3486 3680 3490 3672 3490 3663M1119 3520C1125 3473 1136 3381 1145 3315C1153 3249 1164 3173 1170 3147C1175 3121 1180 3096 1180 3093C1180 3083 1117 3097 1067 3119C1030 3135 1020 3144 1024 3157C1027 3167 1034 3209 1040 3250C1050 3318 1064 3403 1092 3558C1097 3588 1103 3610 1105 3608C1107 3606 1113 3567 1119 3520M2630 3525C2670 3388 2690 3314 2690 3306C2690 3295 2571 3452 2542 3503C2530 3524 2520 3543 2520 3545C2520 3553 2595 3589 2604 3587C2609 3585 2620 3557 2630 3525M3395 3578C3397 3576 3391 3553 3383 3525C3375 3498 3368 3468 3367 3460C3365 3451 3361 3440 3357 3433C3353 3427 3325 3348 3295 3259L3241 3095L3246 3230C3249 3304 3253 3379 3255 3395C3257 3412 3259 3460 3259 3502C3260 3579 3260 3579 3298 3582C3335 3586 3391 3583 3395 3578M3000 3388C3005 3296 3013 3214 3016 3206C3020 3197 3017 3190 3010 3190C3003 3190 2978 3172 2953 3150C2901 3104 2887 3100 2895 3133C2898 3145 2916 3246 2934 3357C2966 3546 2981 3608 2987 3570C2988 3562 2994 3480 3000 3388M3486 3523C3484 3496 3481 3468 3480 3460C3479 3438 3459 3475 3449 3519C3440 3560 3444 3570 3471 3570C3489 3570 3491 3565 3486 3523M1233 3292C1259 3209 1259 3209 1238 3159C1220 3116 1215 3111 1207 3126C1198 3142 1170 3345 1154 3500C1149 3554 1149 3554 1179 3465C1195 3416 1219 3338 1233 3292M3459 3383C3489 3267 3487 3251 3438 3189C3415 3159 3393 3133 3390 3130C3387 3127 3358 3092 3325 3051C3293 3011 3264 2982 3263 2987C3260 2996 3266 3026 3300 3161C3316 3222 3369 3372 3397 3433C3428 3499 3430 3498 3459 3383M732 3403C753 3383 770 3360 770 3352C770 3338 670 3212 659 3211C649 3210 590 3305 590 3321C590 3335 676 3440 688 3440C691 3440 711 3423 732 3403M2746 3342C2766 3305 2798 3252 2817 3223C2853 3167 2859 3120 2839 3060C2827 3027 2827 3027 2808 3076C2744 3239 2685 3424 2701 3415C2706 3412 2726 3379 2746 3342M790 3276C790 3262 761 3245 752 3255C746 3261 770 3290 781 3290C786 3290 790 3284 790 3276M609 3220C631 3181 631 3181 596 3143L561 3105L560 3167C560 3229 566 3260 579 3260C583 3260 596 3242 609 3220M529 3155C524 3048 515 3036 448 3056C421 3064 400 3076 400 3082C400 3097 511 3240 522 3240C528 3240 531 3205 529 3155M3030 3118C3030 3095 2992 3070 2956 3070C2926 3070 2926 3070 2970 3115C3014 3160 3029 3160 3030 3118M1129 3055C1159 3047 1185 3038 1187 3036C1192 3031 1222 2864 1255 2650L1261 2615L1239 2650C1227 2669 1199 2721 1177 2765C1155 2809 1126 2862 1113 2882C1093 2916 1030 3061 1030 3076C1030 3080 1040 3079 1053 3076C1065 3072 1099 3063 1129 3055M445 3020C462 3016 487 3007 503 3000C529 2987 530 2984 531 2901C534 2763 536 2714 550 2542C557 2453 561 2378 559 2375C551 2367 422 2350 408 2355C398 2359 395 2408 393 2588C392 2713 386 2854 379 2902C366 3002 372 3046 398 3035C407 3031 429 3024 445 3020M1072 2905C1113 2824 1187 2683 1200 2665C1203 2660 1216 2632 1228 2603C1250 2552 1250 2552 1166 2383C1120 2291 1072 2194 1059 2168C1047 2141 1033 2120 1029 2120C1017 2120 1013 2213 1012 2630C1011 2933 1014 3029 1022 3010C1028 2996 1051 2949 1072 2905M2950 3009C2950 2999 2795 2694 2763 2641C2727 2583 2697 2540 2694 2543C2686 2550 2723 2655 2758 2729C2778 2771 2812 2850 2835 2905C2867 2986 2880 3005 2900 3011C2938 3022 2950 3021 2950 3009M2989 2930C2983 2889 2969 2812 2958 2760C2892 2451 2866 2323 2848 2220C2837 2157 2825 2101 2821 2097C2810 2086 2630 2329 2630 2355C2630 2362 2666 2427 2711 2501C2755 2575 2823 2696 2862 2770C2937 2913 2992 3011 2996 3007C2998 3006 2994 2971 2989 2930M3060 2880C3067 2811 3073 2724 3074 2685C3076 2647 3080 2525 3084 2415L3092 2215L2985 2162C2926 2133 2875 2111 2873 2114C2866 2120 2888 2259 2917 2395C2931 2461 2948 2547 2956 2585C2963 2624 2978 2693 2988 2740C2999 2787 3011 2852 3015 2885C3021 2943 3039 3015 3045 3008C3047 3006 3054 2949 3060 2880M3332 2858C3347 2846 3347 2835 3335 2741C3327 2684 3319 2635 3316 2633C3310 2627 3261 2785 3253 2835C3247 2869 3248 2870 3282 2870C3301 2870 3323 2864 3332 2858M3254 2705C3264 2672 3282 2619 3292 2586C3311 2530 3312 2524 3295 2416C3277 2295 3272 2274 3264 2283C3258 2288 3242 2465 3224 2700C3217 2796 3226 2797 3254 2705M1325 2453C1346 2410 1377 2341 1395 2300C1413 2259 1437 2205 1448 2182C1464 2148 1467 2134 1458 2120C1448 2104 1428 2103 1258 2103C1145 2103 1070 2107 1070 2113C1070 2129 1273 2530 1281 2530C1285 2530 1305 2495 1325 2453M3440 2521C3440 2517 3436 2500 3430 2484C3425 2468 3416 2435 3410 2411C3404 2388 3396 2370 3394 2373C3385 2381 3369 2511 3376 2521C3383 2532 3440 2533 3440 2521M3362 2333C3367 2299 3365 2291 3350 2287C3312 2277 3307 2293 3320 2371C3333 2445 3333 2445 3345 2410C3352 2391 3359 2356 3362 2333M566 2318C584 2312 601 2299 603 2291C606 2282 624 2230 643 2175C699 2014 764 1800 758 1795C756 1793 740 1815 721 1843C703 1872 673 1918 655 1945C636 1973 604 2022 584 2055C563 2088 526 2142 502 2175C478 2208 449 2252 439 2272C418 2314 417 2314 495 2323C512 2325 527 2328 529 2329C532 2329 548 2325 566 2318M2520 2313C2520 2301 2420 2198 2373 2162C2331 2129 2331 2129 2273 2144C2210 2161 2081 2206 2072 2215C2063 2224 2075 2230 2146 2249C2184 2260 2258 2272 2310 2275C2371 2280 2418 2289 2440 2301C2476 2320 2520 2326 2520 2313M2677 2218C2769 2093 2784 2070 2768 2070C2761 2070 2715 2075 2667 2080C2618 2086 2548 2093 2512 2095C2359 2106 2362 2098 2470 2210C2529 2270 2573 2309 2586 2309C2602 2310 2626 2286 2677 2218M726 2183C824 2071 928 1964 978 1923C1000 1905 1020 1879 1022 1865C1027 1842 1021 1836 968 1807C935 1789 894 1767 877 1757C815 1723 814 1726 740 1960C703 2078 665 2195 656 2219C630 2290 631 2290 726 2183M3366 2238C3379 2217 3426 1643 3416 1633C3413 1630 3389 1625 3362 1622L3313 1618L3309 1686C3303 1793 3306 2214 3313 2233C3320 2253 3355 2256 3366 2238M3530 2240L3568 2240L3539 2148C3498 2016 3501 2021 3485 2051C3470 2079 3430 2216 3430 2239C3430 2249 3438 2251 3461 2246C3478 2243 3509 2240 3530 2240M1967 2135C1986 2035 2018 1879 2026 1853C2031 1833 2029 1830 2006 1830C1982 1830 1978 1837 1941 1958C1919 2028 1899 2103 1895 2125C1892 2147 1887 2173 1884 2182C1879 2199 1899 2209 1935 2207C1951 2205 1957 2193 1967 2135M878 2124C919 2101 958 2074 965 2063C984 2035 995 1970 980 1970C969 1970 865 2071 785 2161C749 2201 748 2203 775 2186C792 2175 838 2147 878 2124M2087 2169C2110 2159 2162 2141 2202 2130C2242 2118 2278 2105 2282 2102C2285 2098 2240 2043 2180 1980C2108 1904 2068 1868 2061 1875C2049 1887 2014 2026 2005 2095C2002 2123 1996 2158 1993 2173C1989 2199 1990 2200 2017 2194C2032 2190 2064 2179 2087 2169M1859 2153C1865 2132 1870 2108 1870 2100C1870 2092 1884 2040 1900 1985C1949 1821 1939 1807 1831 1886C1796 1912 1740 1948 1706 1968C1614 2022 1551 2071 1557 2086C1559 2093 1601 2111 1648 2125C1696 2140 1758 2160 1785 2170C1813 2180 1838 2188 1842 2189C1846 2189 1854 2173 1859 2153M3115 2145C3132 2145 3172 2041 3231 1851C3257 1767 3269 1680 3255 1680C3246 1680 3092 1808 3032 1865C3002 1892 2973 1918 2966 1922C2959 1926 2931 1955 2905 1985C2848 2053 2845 2048 2984 2120C3060 2160 3085 2168 3091 2158C3096 2151 3106 2145 3115 2145M3455 2046C3483 1968 3483 1968 3464 1893L3446 1819L3434 1887C3419 1979 3408 2159 3419 2140C3424 2132 3440 2090 3455 2046M2355 2070C2358 2065 2400 2060 2448 2060C2529 2060 2758 2035 2768 2025C2779 2015 2600 1607 2578 1594C2566 1586 2549 1609 2500 1703C2459 1780 2459 1780 2404 1780C2374 1780 2317 1786 2277 1794C2237 1802 2179 1811 2147 1815C2115 1819 2090 1826 2092 1831C2098 1849 2234 1995 2284 2038C2337 2082 2345 2086 2355 2070M1407 2056C1412 2051 1366 2022 1295 1985C1262 1968 1199 1934 1156 1910C1077 1867 1077 1867 1054 1896C1041 1912 1025 1949 1019 1979C1009 2028 1010 2034 1026 2044C1058 2062 1390 2073 1407 2056M1491 1968C1491 1922 1493 1872 1495 1855C1497 1839 1502 1751 1506 1660C1513 1499 1513 1495 1494 1510C1466 1533 1411 1582 1381 1611C1353 1639 1187 1782 1143 1817C1118 1836 1117 1840 1130 1854C1138 1862 1198 1895 1262 1928C1326 1961 1398 2002 1422 2019C1487 2064 1490 2062 1491 1968M1594 1990C1618 1974 1657 1950 1681 1937C1828 1859 1833 1844 1748 1741C1714 1699 1682 1661 1678 1655C1674 1650 1647 1616 1618 1581C1565 1517 1565 1517 1559 1550C1555 1568 1549 1657 1546 1749C1542 1840 1537 1939 1534 1968C1528 2030 1534 2032 1594 1990M2886 1958C2946 1894 3019 1828 3167 1704C3212 1666 3249 1628 3249 1619C3250 1590 3188 1582 2890 1570C2766 1565 2652 1558 2636 1554C2610 1548 2608 1549 2615 1571C2624 1598 2756 1901 2791 1973C2804 1999 2817 2020 2820 2020C2824 2020 2853 1992 2886 1958M3549 1768C3582 1666 3586 1645 3571 1654C3566 1658 3560 1656 3558 1650C3557 1645 3535 1640 3511 1638C3471 1635 3466 1637 3459 1662C3452 1688 3481 1867 3496 1892C3505 1906 3506 1902 3549 1768M1123 1798C1196 1748 1508 1464 1499 1456C1492 1450 1276 1470 1239 1480C1194 1492 1164 1527 1149 1584C1143 1606 1126 1656 1110 1695C1060 1824 1062 1841 1123 1798M2040 1790C2098 1784 2183 1772 2230 1765C2277 1757 2343 1748 2378 1744C2439 1738 2441 1737 2462 1696C2473 1674 2507 1618 2536 1573C2583 1502 2599 1487 2661 1451C2700 1428 2733 1410 2736 1410C2738 1410 2759 1396 2782 1380C2806 1363 2841 1339 2860 1326C2879 1313 2906 1291 2918 1277C2941 1253 2941 1251 2923 1242C2908 1234 2882 1247 2785 1311C2719 1354 2649 1401 2629 1416C2609 1430 2582 1447 2569 1453C2543 1466 2465 1604 2455 1656C2448 1687 2448 1687 2376 1688C2303 1690 2272 1695 2116 1730C2066 1741 2004 1750 1976 1750C1949 1750 1912 1755 1894 1762C1863 1773 1859 1772 1838 1744C1825 1728 1799 1700 1779 1682C1751 1656 1740 1638 1735 1603C1729 1562 1727 1559 1713 1573C1689 1596 1702 1625 1781 1723C1852 1812 1852 1812 1893 1807C1916 1804 1982 1797 2040 1790M1068 1734C1104 1641 1152 1499 1148 1495C1146 1493 1112 1511 1071 1536C1031 1560 994 1580 989 1580C985 1580 968 1592 953 1606C938 1620 908 1641 888 1651C867 1662 850 1674 850 1678C850 1701 1010 1804 1035 1796C1040 1795 1055 1767 1068 1734M2165 1680C2253 1664 2346 1648 2371 1645C2418 1639 2418 1639 2470 1535C2499 1477 2529 1430 2536 1430C2544 1430 2550 1426 2550 1422C2550 1418 2565 1406 2583 1395C2647 1358 2845 1226 2852 1216C2864 1199 2855 1185 2834 1183C2824 1183 2784 1177 2745 1171C2610 1151 2564 1149 2474 1161C2395 1171 2368 1170 2279 1154C2156 1133 2006 1131 1931 1149C1895 1158 1850 1161 1795 1156C1706 1150 1699 1153 1705 1201C1721 1311 1754 1524 1761 1565C1769 1606 1780 1625 1820 1666C1870 1718 1870 1718 1938 1713C1975 1711 2077 1696 2165 1680M919 1587C999 1535 1107 1469 1133 1458C1164 1444 1165 1441 1146 1352C1138 1315 1124 1250 1115 1207C1106 1165 1095 1132 1090 1135C1085 1138 1072 1168 1060 1203C1049 1237 1022 1297 1002 1337C887 1561 864 1610 874 1610C880 1610 900 1600 919 1587M896 1475C915 1437 946 1378 965 1345C996 1290 1057 1123 1049 1115C1047 1113 987 1108 916 1104L787 1097L794 1221C799 1320 808 1459 819 1595C821 1611 858 1552 896 1475M3430 1525C3430 1487 3426 1460 3420 1460C3406 1460 3310 1550 3310 1562C3310 1575 3350 1589 3393 1589C3430 1590 3430 1590 3430 1525M1675 1553C1671 1543 1666 1501 1664 1460C1662 1419 1654 1358 1647 1325L1633 1265L1607 1323C1555 1438 1555 1443 1611 1510C1659 1568 1690 1588 1675 1553M3204 1538C3169 1478 2995 1290 2974 1290C2967 1290 2930 1314 2891 1343C2831 1387 2735 1455 2673 1496C2644 1516 2720 1530 2860 1531C2929 1532 3014 1536 3050 1540C3162 1552 3212 1552 3204 1538M1705 1397C1696 1342 1687 1289 1685 1281C1684 1272 1679 1246 1675 1223C1671 1199 1664 1180 1659 1180C1647 1180 1647 1183 1670 1290C1681 1341 1690 1394 1690 1406C1690 1419 1695 1453 1702 1482C1721 1568 1723 1507 1705 1397M1326 1347C1386 1307 1463 1257 1498 1236C1532 1216 1560 1195 1560 1190C1560 1168 1513 1159 1186 1124C1138 1119 1138 1119 1143 1152C1146 1170 1153 1217 1159 1255C1176 1366 1191 1420 1204 1420C1211 1420 1265 1387 1326 1347M1501 1411C1535 1410 1539 1406 1558 1363C1581 1309 1611 1210 1605 1210C1599 1210 1428 1321 1335 1386L1285 1421L1375 1416C1425 1413 1481 1411 1501 1411M324 1228C332 1177 342 1115 345 1090C348 1065 357 1032 365 1017C378 991 378 990 351 990C324 990 321 994 301 1068C266 1200 254 1286 269 1304C297 1337 308 1321 324 1228M193 1290C198 1286 205 1254 210 1219C214 1184 225 1124 234 1086C243 1048 248 1015 245 1012C236 1002 80 1148 80 1167C80 1191 100 1190 122 1165C157 1124 170 1132 170 1196C170 1242 167 1251 155 1246C104 1226 106 1225 114 1260C117 1279 126 1298 133 1302C145 1310 179 1303 193 1290M1370 1090C1356 1086 1325 1082 1300 1082C1255 1083 1255 1083 1295 1090C1317 1094 1349 1097 1365 1098C1394 1098 1394 1098 1370 1090M150 1026C178 1000 198 974 193 970C189 966 171 959 153 955C125 949 119 952 107 977C88 1014 76 1083 88 1079C94 1077 121 1053 150 1026M1580 1071C1580 1050 1241 730 1219 730C1215 730 1209 738 1205 748C1188 789 1130 986 1130 1001C1130 1018 1180 1029 1264 1031C1287 1031 1355 1042 1415 1055C1537 1080 1580 1085 1580 1071M1070 999C1070 993 1052 958 1030 920C1008 882 990 848 990 843C989 839 979 822 966 807C945 781 943 780 928 797C899 830 790 991 790 1000C790 1006 847 1010 930 1010C1023 1010 1070 1006 1070 999M1654 956C1669 908 1669 908 1633 894C1614 886 1595 880 1591 882C1587 884 1595 913 1608 948C1621 983 1634 1009 1636 1007C1638 1005 1646 982 1654 956M724 975C723 970 719 918 716 860C712 802 704 710 698 655L686 555L673 615C667 648 661 698 660 725C659 782 651 794 552 879C518 909 490 939 490 946C490 960 512 965 620 979C698 990 725 988 724 975M1561 912C1545 871 1531 849 1514 841C1484 828 1470 827 1470 839C1470 852 1571 982 1577 976C1580 973 1573 944 1561 912M1139 843C1162 773 1178 714 1175 712C1170 707 1039 737 1002 751C979 760 979 760 998 793C1008 810 1035 858 1056 898C1077 937 1095 970 1097 970C1098 970 1117 913 1139 843M787 938C815 906 920 754 920 744C920 730 723 403 709 394C697 387 697 401 719 595C730 689 741 809 745 863C749 916 755 960 759 960C763 960 776 950 787 938M478 896C498 877 535 844 560 822L604 782L510 689C415 595 415 595 411 635C408 677 429 930 437 930C439 930 458 915 478 896M399 883C399 862 395 825 391 800L384 755L367 804C338 887 344 911 393 919C397 919 400 903 399 883M290 849C290 827 301 759 315 698C329 637 340 580 340 570C340 557 324 548 283 537C214 517 186 523 149 564C121 595 121 595 127 700C130 758 137 811 143 817C148 824 150 839 147 850C143 865 148 871 163 875C175 877 194 881 205 883C216 886 240 888 258 889C289 890 290 889 290 849M1400 815C1381 796 1361 780 1356 780C1345 781 1418 850 1429 850C1432 850 1419 834 1400 815M1496 718C1452 587 1433 553 1397 540C1307 506 1175 462 1172 465C1162 475 1292 650 1359 714C1406 761 1511 816 1518 799C1520 795 1510 759 1496 718M360 701C366 667 369 636 366 633C360 627 343 691 335 750C326 817 346 778 360 701M634 670C638 632 638 596 635 590C627 577 470 577 470 590C470 605 601 740 615 740C623 740 630 716 634 670M1065 693C1098 686 1128 676 1133 671C1141 663 1114 640 972 532C924 496 851 438 810 403C769 369 731 340 727 340C722 340 728 357 741 378C762 414 779 442 891 622C943 708 960 723 990 713C998 710 1032 701 1065 693M1284 688C1265 655 1196 578 1193 587C1186 607 1221 670 1248 684C1282 703 1293 704 1284 688M1131 525C1114 477 1095 430 1089 419C1069 381 872 299 770 285C736 281 719 282 725 287C759 319 910 438 995 500C1050 540 1097 576 1100 580C1110 592 1154 619 1158 615C1160 613 1148 572 1131 525M649 423C650 299 647 293 604 338C540 406 478 490 492 491C539 495 574 501 578 505C581 508 598 510 615 510C647 510 647 510 649 423M365 453C368 443 374 406 377 371C383 311 382 307 364 314C317 332 289 332 250 311C202 286 200 292 228 385C244 438 250 446 281 457C330 474 357 473 365 453M468 451C477 441 499 416 515 395C557 341 607 290 617 290C626 290 626 219 616 165C612 146 606 130 603 130C596 130 486 210 445 244C415 270 415 270 503 263C579 258 590 259 590 273C590 291 568 298 500 302C456 305 456 305 444 370C424 475 429 493 468 451M418 340C419 317 418 317 410 335C405 346 402 369 402 385C402 414 402 414 410 390C414 376 418 354 418 340M1024 264C997 219 996 218 956 224C897 234 837 251 843 256C846 259 892 278 946 299C1058 341 1067 337 1024 264M713 210C727 199 745 190 754 190C763 190 770 186 770 182C770 178 782 169 798 162C841 142 920 100 920 97C920 95 883 94 838 94C792 95 731 92 703 88C672 84 648 86 644 91C641 96 642 130 645 165C653 238 666 246 713 210M933 200C982 187 991 171 967 139C955 124 947 126 870 164C824 187 785 210 783 216C779 228 854 220 933 200M1103 137C1134 120 1138 114 1124 107C1104 96 1014 92 1005 102C1001 106 1003 123 1010 140C1024 174 1036 174 1103 137" id="ShapeObject_1256639073326" stroke="none" style="fill:#000000;fill-opacity:1" transform="matrix(0.1,0,0,0.1,0,0)" opacity="1"/>
      <path d="M217 739M217 739C208 733 191 731 181 735C170 738 159 737 156 732C148 719 209 620 226 620C243 620 247 629 254 698C259 753 253 760 217 739" id="ShapeObject_1256639073328" stroke="none" style="fill:#000000;fill-opacity:1" transform="matrix(0.1,0,0,0.1,0,0)" opacity="1"/>
    </g>
  </g>
</svg>