<svg version="1.1" width="410" height="400" viewBox="0 0 410 400" xmlns:xlink="http://www.w3.org/1999/xlink" xmlns="http://www.w3.org/2000/svg">
  <desc>Created with Raven (http://www.aviary.com)</desc>
  <defs/>
  <g id="Layer_1260291794636" opacity="1">
    <g id="Layer_1260291794637" opacity="1">
      <path d="M1125 3828M1125 3828C1129 3782 1138 3716 1146 3680C1159 3622 1159 3584 1146 3340C1131 3069 1127 3028 1090 2780C1080 2711 1068 2626 1065 2590C1061 2554 1052 2487 1044 2440C1037 2393 1028 2335 1026 2310C1011 2152 1006 2118 994 2113C987 2111 967 2116 949 2126C931 2135 887 2153 851 2165C764 2195 617 2265 602 2283C595 2291 578 2351 565 2416C552 2482 529 2589 514 2655C473 2841 472 2829 528 2874C555 2895 590 2918 607 2924C662 2944 802 3025 811 3041C825 3069 736 3280 709 3280C685 3280 544 3153 366 2972C316 2920 274 2875 272 2870C268 2859 294 2721 320 2610C331 2563 352 2464 365 2390C379 2316 394 2239 400 2220C405 2201 410 2172 410 2155C410 2129 417 2121 463 2096C547 2048 850 1803 850 1781C850 1776 844 1767 836 1760C827 1753 821 1730 822 1700C822 1674 817 1612 811 1563C805 1515 793 1403 784 1315C758 1055 768 1080 675 1053C631 1040 573 1028 546 1027C497 1025 496 1026 487 1060C422 1294 427 1285 384 1282C346 1280 321 1286 252 1317C234 1325 216 1329 211 1326C194 1315 136 1155 137 1120C137 1085 175 928 204 835C220 786 219 783 188 672L156 558L186 529C300 416 291 434 280 340C274 293 267 247 264 237C255 208 284 207 353 234C417 260 417 260 465 239C496 225 550 183 611 123L708 29L916 34C1031 37 1128 40 1131 40C1134 40 1147 59 1160 83C1173 106 1223 195 1272 281C1360 437 1360 437 1428 468C1465 485 1514 502 1537 506C1587 514 1580 499 1639 740C1674 880 1699 958 1772 1153C1785 1188 1812 1194 1914 1187C1958 1183 2033 1184 2080 1189C2127 1194 2233 1201 2315 1205C2398 1208 2472 1213 2480 1215C2488 1218 2551 1224 2620 1229C2689 1235 2765 1246 2790 1254C2815 1262 2854 1274 2878 1280C2901 1286 2920 1295 2920 1301C2920 1314 2848 1345 2760 1369C2694 1387 2691 1388 2735 1383C2763 1380 2814 1366 2850 1352C2889 1337 2933 1327 2960 1328C3002 1329 3009 1333 3058 1390C3088 1423 3117 1450 3124 1450C3138 1450 3425 1306 3446 1289C3467 1272 3473 1301 3466 1380C3461 1432 3462 1450 3472 1457C3480 1461 3503 1488 3525 1515C3546 1543 3582 1584 3604 1607C3644 1650 3644 1650 3627 1697C3618 1724 3610 1754 3610 1766C3610 1789 3703 1882 3763 1919C3802 1943 3810 1965 3786 1984C3774 1993 3770 2044 3763 2230C3759 2359 3755 2504 3755 2552C3755 2639 3755 2639 3715 2655C3598 2703 3605 2692 3605 2816L3605 2927L3713 3042C3795 3130 3825 3157 3840 3153C3854 3149 3860 3154 3864 3171C3866 3184 3887 3312 3909 3455C3940 3645 3958 3730 3976 3771C3992 3807 3999 3836 3995 3849C3984 3885 3966 3872 3946 3812C3936 3781 3897 3690 3858 3610C3820 3530 3784 3456 3779 3445C3769 3425 3725 3401 3635 3369C3588 3353 3584 3348 3568 3299C3558 3270 3539 3194 3525 3131C3491 2976 3471 2905 3443 2846C3416 2788 3414 2763 3436 2739C3445 2729 3469 2671 3491 2608C3513 2546 3540 2469 3552 2437C3563 2405 3570 2376 3567 2374C3564 2371 3537 2389 3506 2414C3453 2457 3420 2472 3420 2451C3420 2446 3432 2388 3446 2323C3460 2258 3472 2191 3472 2173C3472 2152 3447 2095 3401 2008C3335 1886 3260 1767 3253 1773C3252 1775 3259 1800 3270 1828C3296 1895 3295 1906 3266 1944C3242 1977 3198 2091 3153 2240C3134 2303 3125 2362 3119 2470C3114 2550 3106 2698 3100 2800C3094 2902 3088 3010 3085 3040C3064 3291 3060 3403 3068 3480C3077 3556 3075 3569 3058 3606C3038 3647 3038 3650 3054 3746C3064 3801 3075 3849 3081 3855C3086 3860 3090 3872 3090 3882C3090 3900 3080 3901 2945 3899C2865 3899 2797 3894 2794 3889C2787 3876 2807 3748 2826 3688C2835 3662 2839 3632 2835 3621C2832 3610 2834 3599 2840 3595C2846 3591 2850 3528 2850 3427C2850 3326 2856 3236 2865 3188C2880 3106 2891 2955 2883 2933C2880 2926 2867 2942 2851 2971C2834 3005 2802 3042 2760 3077C2724 3107 2684 3140 2670 3152C2656 3164 2602 3203 2550 3239C2418 3329 2347 3388 2336 3415C2329 3432 2337 3463 2369 3545C2392 3604 2419 3664 2428 3678C2443 3702 2443 3703 2411 3730C2392 3744 2372 3757 2366 3758C2360 3758 2324 3771 2285 3785C2175 3827 2174 3827 2162 3788C2138 3713 2114 3465 2128 3446C2140 3430 2170 3319 2170 3289C2170 3268 2184 3254 2243 3217C2282 3192 2392 3099 2487 3011L2658 2851L2639 2788C2628 2753 2614 2712 2609 2695C2604 2679 2583 2620 2561 2566C2522 2467 2522 2467 2458 2435C2424 2417 2370 2393 2340 2382C2310 2371 2247 2347 2200 2330C2153 2312 2068 2287 2010 2273C1952 2259 1897 2244 1888 2239C1878 2234 1862 2230 1853 2230C1843 2230 1827 2223 1816 2215C1806 2207 1777 2198 1751 2194C1726 2190 1660 2170 1606 2149C1551 2127 1503 2110 1500 2110C1492 2110 1479 2152 1415 2380C1387 2482 1379 2535 1370 2665C1353 2929 1355 2957 1392 3026C1409 3058 1430 3090 1438 3096C1453 3107 1452 3130 1429 3260C1424 3290 1413 3367 1405 3430C1397 3493 1385 3568 1378 3597C1366 3649 1367 3655 1416 3823C1420 3836 1411 3845 1378 3859C1354 3869 1329 3885 1321 3894C1310 3907 1288 3910 1214 3910L1120 3910L1125 3828M1277 3868C1281 3861 1289 3814 1295 3763L1306 3672L1251 3676C1220 3678 1192 3679 1188 3680C1175 3680 1160 3746 1160 3806C1160 3869 1160 3869 1193 3873C1256 3881 1269 3880 1277 3868M2982 3856C2986 3850 2990 3802 2990 3749C2990 3648 2985 3637 2943 3645C2871 3660 2873 3658 2857 3712C2849 3741 2839 3782 2835 3802C2829 3839 2829 3839 2877 3853C2935 3870 2973 3871 2982 3856M1354 3824C1373 3817 1375 3783 1359 3743C1349 3717 1347 3716 1340 3735C1331 3756 1327 3830 1334 3830C1336 3830 1345 3827 1354 3824M2272 3754C2351 3724 2350 3728 2319 3599C2296 3498 2297 3499 2223 3568C2182 3605 2180 3610 2180 3662C2180 3723 2189 3780 2199 3780C2202 3780 2235 3768 2272 3754M1302 3621C1305 3618 1286 3545 1259 3460C1232 3375 1203 3281 1194 3252C1185 3222 1176 3201 1173 3204C1164 3213 1190 3613 1201 3626C1211 3638 1288 3634 1302 3621M3870 3414C3854 3316 3838 3234 3835 3232C3829 3226 3751 3260 3744 3272C3741 3277 3766 3340 3800 3413C3835 3486 3870 3560 3878 3579C3887 3598 3895 3609 3897 3603C3899 3597 3887 3512 3870 3414M2999 3559C3028 3549 3030 3545 3030 3499C3030 3472 3026 3450 3021 3450C3013 3450 2975 3502 2951 3548C2937 3574 2948 3577 2999 3559M2239 3496C2278 3456 2266 3449 2206 3474C2166 3491 2159 3500 2167 3528C2173 3554 2190 3547 2239 3496M2916 3533C2955 3482 2991 3409 2985 3390C2975 3359 2900 3269 2890 3275C2873 3286 2881 3550 2898 3550C2901 3550 2909 3542 2916 3533M1315 3032C1309 3026 1203 3080 1189 3096C1181 3106 1184 3127 1198 3172C1209 3207 1240 3303 1267 3385L1315 3535L1318 3286C1319 3149 1318 3035 1315 3032M1380 3363C1386 3314 1396 3256 1401 3233C1406 3210 1410 3177 1410 3159C1410 3125 1372 3048 1358 3056C1347 3063 1348 3450 1359 3450C1364 3450 1373 3411 1380 3363M2245 3421C2300 3404 2306 3400 2314 3366C2326 3320 2314 3307 2258 3306C2221 3305 2214 3309 2202 3334C2188 3361 2173 3440 2181 3440C2183 3440 2212 3431 2245 3421M3040 3240C3045 3177 3050 3102 3050 3075C3050 3024 3050 3024 2989 3011C2955 3004 2927 3000 2926 3002C2924 3004 2916 3050 2907 3104C2889 3215 2880 3189 2979 3323C2998 3349 3017 3367 3022 3362C3026 3358 3034 3303 3040 3240M3730 3349C3730 3340 3713 3302 3705 3292C3700 3287 3650 3313 3650 3321C3650 3331 3700 3359 3718 3360C3724 3360 3730 3355 3730 3349M2400 3254C2414 3234 2440 3197 2458 3171C2511 3096 2580 2990 2580 2984C2580 2976 2514 3030 2454 3087C2427 3113 2376 3161 2342 3192L2281 3248L2313 3268C2359 3297 2372 3294 2400 3254M3678 3243C3681 3223 3626 3100 3615 3100C3610 3100 3615 3167 3626 3238C3630 3265 3635 3271 3653 3268C3667 3266 3676 3257 3678 3243M2499 3222C2524 3200 2565 3171 2590 3156C2646 3123 2776 3014 2802 2980C2838 2931 2805 2909 2710 2920C2665 2925 2665 2925 2584 3045C2474 3206 2440 3260 2447 3260C2450 3260 2473 3243 2499 3222M3582 3095C3573 2948 3573 2948 3535 2912C3500 2877 3498 2877 3504 2900C3507 2914 3517 2961 3526 3005C3546 3109 3582 3251 3587 3246C3589 3244 3587 3176 3582 3095M3770 3215C3787 3206 3800 3196 3800 3192C3800 3188 3764 3149 3720 3105C3676 3061 3640 3032 3640 3040C3640 3068 3715 3230 3728 3230C3735 3230 3754 3223 3770 3215M707 3188C735 3106 734 3098 685 3050C658 3023 637 3010 631 3015C622 3026 590 3117 590 3133C590 3145 672 3220 685 3220C691 3220 701 3205 707 3188M489 2976C473 2927 454 2880 448 2873C435 2857 349 2859 343 2875C340 2885 509 3074 515 3068C517 3066 505 3025 489 2976M600 2983C600 2972 523 2910 509 2910C498 2910 514 2969 540 3025L562 3075L581 3035C591 3013 600 2990 600 2983M1241 3016C1267 3004 1297 2990 1309 2987C1328 2982 1330 2975 1330 2903C1330 2860 1333 2767 1336 2695C1342 2546 1340 2546 1279 2706C1199 2918 1165 3040 1186 3040C1191 3040 1216 3029 1241 3016M1215 2805C1334 2484 1328 2514 1287 2455C1270 2430 1211 2344 1157 2265C1103 2185 1055 2118 1050 2115C1036 2107 1038 2155 1055 2295C1080 2503 1132 2875 1147 2960C1153 2995 1153 2995 1167 2945C1175 2918 1197 2855 1215 2805M2990 2977C2990 2968 2920 2817 2907 2798C2891 2775 2891 2776 2891 2822C2890 2874 2914 2948 2938 2968C2951 2978 2990 2985 2990 2977M3090 2640C3095 2516 3100 2386 3100 2349C3100 2284 3100 2284 3054 2261C3028 2249 3003 2243 2999 2247C2994 2252 2983 2292 2974 2337C2958 2417 2958 2417 2998 2626C3020 2741 3041 2859 3045 2889C3061 3032 3076 2952 3090 2640M3015 2883C3008 2814 2954 2531 2947 2523C2942 2519 2910 2680 2908 2715C2907 2737 3004 2950 3015 2950C3019 2950 3019 2920 3015 2883M2840 2859C2840 2848 2834 2826 2826 2812C2818 2797 2799 2756 2783 2720C2756 2658 2755 2656 2749 2685C2745 2702 2742 2747 2741 2786C2740 2850 2742 2858 2763 2868C2775 2874 2797 2879 2813 2879C2834 2880 2840 2875 2840 2859M3570 2805C3570 2760 3566 2730 3560 2730C3533 2730 3480 2761 3480 2776C3480 2792 3548 2877 3563 2879C3567 2880 3570 2846 3570 2805M2713 2768C2730 2561 2720 2527 2636 2487C2548 2445 2546 2447 2581 2543C2598 2588 2626 2670 2644 2726C2694 2881 2704 2887 2713 2768M422 2830C448 2830 455 2806 506 2555C531 2434 554 2324 557 2311C563 2287 563 2287 500 2293C466 2296 431 2304 424 2312C416 2319 401 2373 391 2430C380 2488 362 2571 350 2615C338 2659 325 2711 320 2730C315 2749 310 2782 310 2804C310 2843 310 2843 356 2836C382 2833 411 2830 422 2830M2901 2599C2931 2423 2963 2262 2975 2225C2979 2211 2949 2142 2878 2000C2821 1888 2770 1794 2764 1793C2751 1789 2739 2449 2751 2527C2757 2568 2822 2744 2845 2780C2860 2805 2872 2767 2901 2599M3550 2680C3566 2664 3570 2647 3570 2600C3570 2567 3566 2540 3560 2540C3555 2540 3550 2541 3550 2543C3550 2544 3539 2577 3525 2615C3512 2654 3500 2688 3500 2693C3500 2707 3530 2700 3550 2680M3682 2629C3699 2620 3698 2617 3680 2572C3646 2488 3619 2439 3610 2445C3604 2449 3600 2496 3600 2551C3600 2652 3600 2652 3633 2645C3650 2641 3673 2634 3682 2629M1405 2304C1424 2233 1451 2139 1465 2095C1487 2023 1510 1860 1510 1778C1510 1748 1510 1748 1488 1764C1475 1773 1428 1805 1382 1835C1315 1880 1116 2027 1076 2061C1065 2071 1112 2149 1243 2339C1360 2508 1348 2510 1405 2304M2720 2146C2720 2015 2719 1906 2717 1904C2712 1899 2605 2223 2584 2308C2561 2401 2565 2410 2640 2447L2705 2479L2712 2432C2715 2406 2719 2278 2720 2146M3728 2270C3729 2146 3720 2121 3697 2181C3677 2233 3676 2260 3691 2349C3709 2463 3713 2472 3721 2415C3725 2388 3728 2322 3728 2270M3665 2398C3655 2335 3650 2319 3639 2325C3625 2334 3628 2377 3645 2410C3666 2452 3673 2447 3665 2398M2519 2402C2526 2388 2521 2358 2499 2288C2471 2195 2469 2192 2437 2187C2396 2181 2143 2197 2071 2210C2041 2215 2015 2220 2013 2220C2011 2220 2010 2225 2010 2230C2010 2236 2018 2240 2029 2240C2039 2240 2090 2255 2141 2274C2193 2292 2277 2322 2329 2340C2380 2358 2441 2383 2464 2396C2513 2424 2507 2424 2519 2402M3536 2307C3537 2288 3529 2258 3520 2240C3503 2207 3503 2207 3492 2251C3487 2275 3479 2315 3475 2339C3468 2383 3468 2383 3501 2362C3528 2345 3535 2334 3536 2307M2611 2134C2676 1939 2704 1837 2698 1818C2695 1811 2677 1835 2656 1870C2635 1906 2590 1971 2556 2015C2481 2113 2477 2121 2491 2173C2507 2235 2541 2322 2547 2317C2549 2314 2578 2232 2611 2134M3625 2270C3639 2243 3638 2231 3614 2118C3577 1939 3570 1913 3560 1930C3556 1938 3544 1987 3534 2037C3520 2111 3519 2137 3528 2167C3539 2204 3594 2300 3605 2300C3607 2300 3616 2287 3625 2270M495 2251C513 2244 512 2241 480 2222C444 2200 430 2205 430 2243C430 2261 459 2265 495 2251M660 2128C873 1863 931 1760 803 1872C697 1965 546 2086 503 2113C479 2128 460 2144 460 2149C460 2163 553 2240 565 2237C570 2235 613 2186 660 2128M3104 2233C3108 2228 3117 2225 3122 2225C3133 2225 3175 2114 3210 1990C3229 1925 3229 1925 3202 1959C3187 1977 3143 2040 3103 2099C3032 2204 3031 2205 3052 2223C3074 2241 3092 2245 3104 2233M721 2179C810 2141 913 2102 957 2089C990 2079 990 2079 976 2047C951 1986 896 1880 890 1880C887 1881 873 1897 859 1918C844 1938 792 2007 743 2070C649 2191 636 2210 643 2210C646 2210 681 2196 721 2179M2036 2180C2102 2158 2248 2139 2256 2152C2259 2156 2284 2160 2313 2160C2364 2160 2364 2160 2345 2141C2315 2112 1989 1928 1976 1933C1970 1936 1954 1993 1942 2060C1912 2214 1917 2220 2036 2180M1903 2118C1955 1868 1976 1740 1964 1740C1949 1740 1934 1779 1920 1850C1881 2057 1861 2174 1866 2181C1879 2202 1889 2185 1903 2118M1839 2148C1854 2100 1873 1968 1868 1941C1865 1919 1858 1923 1748 2001C1684 2047 1623 2090 1613 2096C1598 2106 1602 2110 1645 2129C1673 2141 1719 2156 1749 2160C1778 2165 1805 2172 1808 2175C1820 2186 1829 2178 1839 2148M2450 2137C2450 2131 2445 2109 2440 2090C2434 2071 2418 2006 2404 1945C2390 1885 2375 1832 2371 1827C2367 1823 2319 1811 2264 1800C2210 1790 2143 1774 2115 1766C2039 1742 2014 1745 2002 1778C1996 1793 1988 1821 1985 1841C1979 1873 1982 1879 2012 1901C2030 1915 2081 1946 2125 1970C2169 1994 2246 2038 2295 2068C2435 2154 2450 2161 2450 2137M3028 1982C3046 1890 3060 1794 3060 1770C3060 1745 3069 1692 3080 1651C3100 1576 3105 1540 3094 1540C3083 1540 3045 1563 3016 1587C3000 1601 2943 1633 2889 1660C2835 1687 2789 1714 2786 1719C2782 1724 2808 1786 2843 1857C2878 1927 2924 2022 2945 2068C2966 2113 2986 2150 2989 2150C2993 2150 3010 2075 3028 1982M3713 2036L3740 1956L3672 1894C3635 1859 3602 1831 3598 1830C3586 1830 3588 1860 3604 1920C3612 1950 3626 2011 3635 2055C3645 2099 3655 2139 3657 2143C3665 2157 3686 2118 3713 2036M3089 2060C3106 2035 3131 1999 3145 1980C3229 1860 3225 1871 3208 1810C3193 1760 3163 1672 3138 1610C3129 1587 3127 1589 3109 1645C3099 1678 3088 1736 3084 1775C3081 1813 3067 1900 3054 1966C3041 2033 3030 2100 3030 2116C3031 2149 3024 2155 3089 2060M1601 2057C1625 2044 1676 2011 1714 1984C1752 1957 1798 1924 1818 1910C1877 1868 1877 1862 1826 1788C1780 1723 1728 1670 1709 1670C1699 1670 1690 1690 1619 1850C1579 1941 1530 2065 1530 2075C1530 2086 1560 2078 1601 2057M3513 1965C3546 1778 3546 1778 3508 1751C3490 1737 3435 1694 3385 1655C3308 1595 3235 1550 3213 1550C3191 1550 3242 1654 3418 1962C3430 1982 3449 2018 3461 2041C3487 2093 3492 2086 3513 1965M2538 2000C2567 1961 2622 1875 2661 1808L2730 1687L2679 1581L2628 1475L2553 1555C2512 1599 2458 1663 2433 1698L2388 1761L2425 1916C2447 2007 2467 2070 2474 2070C2480 2070 2509 2038 2538 2000M1076 1912C1137 1718 1160 1648 1186 1582C1200 1547 1209 1516 1207 1514C1205 1511 1181 1524 1154 1542C1127 1560 1092 1581 1078 1589C1063 1597 1013 1629 968 1660C866 1730 866 1732 940 1892C993 2007 1016 2043 1031 2035C1035 2032 1055 1977 1076 1912M1345 1820C1400 1782 1458 1741 1474 1727C1503 1704 1503 1704 1430 1644C1390 1612 1337 1568 1313 1548C1264 1506 1247 1507 1230 1553C1224 1571 1210 1605 1200 1630C1171 1699 1090 1958 1090 1981C1090 1998 1102 1992 1168 1945C1210 1914 1290 1858 1345 1820M1595 1835C1630 1755 1671 1648 1667 1644C1661 1637 1569 1702 1556 1722C1547 1737 1540 1788 1536 1860C1529 1975 1529 1975 1549 1935C1560 1913 1581 1868 1595 1835M1912 1728C1908 1725 1883 1718 1855 1714C1806 1707 1806 1707 1824 1736C1834 1752 1854 1780 1868 1799L1893 1833L1906 1784C1913 1757 1915 1732 1912 1728M2360 1771C2360 1737 2348 1720 2325 1720C2298 1720 2141 1684 2102 1669C2015 1635 1800 1622 1800 1650C1800 1665 1815 1670 1937 1695C2002 1709 2089 1729 2130 1740C2190 1755 2290 1777 2353 1789C2357 1789 2360 1781 2360 1771M3589 1688C3600 1657 3599 1654 3550 1605L3500 1555L3516 1610C3535 1675 3557 1720 3569 1720C3574 1720 3583 1706 3589 1688M2404 1683C2443 1633 2595 1465 2636 1427C2676 1390 2669 1379 2617 1399C2592 1409 2530 1468 2530 1482C2530 1493 2464 1582 2438 1606C2413 1629 2365 1710 2375 1710C2379 1710 2392 1698 2404 1683M2361 1653C2374 1632 2403 1595 2426 1570C2448 1545 2484 1500 2505 1470C2564 1384 2590 1360 2624 1360C2659 1359 2808 1326 2817 1316C2827 1306 2815 1300 2759 1284C2645 1251 1839 1208 1814 1233C1810 1236 1813 1319 1820 1417L1833 1595L1897 1598C1966 1601 2021 1612 2200 1658C2263 1675 2320 1689 2327 1689C2333 1690 2349 1673 2361 1653M3485 1628C3450 1516 3456 1522 3382 1515C3345 1512 3298 1507 3278 1505C3231 1499 3229 1511 3273 1532C3290 1540 3330 1567 3360 1592C3429 1647 3493 1691 3498 1685C3500 1683 3494 1657 3485 1628M1593 1643C1632 1613 1639 1600 1615 1600C1607 1600 1559 1586 1508 1569C1458 1553 1405 1540 1392 1542C1370 1545 1375 1552 1446 1608C1489 1642 1532 1670 1541 1670C1550 1670 1573 1658 1593 1643M2888 1614C3008 1552 3043 1525 3021 1511C3013 1506 2971 1497 2926 1491C2881 1484 2813 1470 2773 1458C2663 1426 2650 1440 2698 1545C2740 1636 2760 1670 2771 1670C2776 1670 2829 1645 2888 1614M883 1613C896 1592 957 1478 1018 1358C1123 1154 1128 1142 1107 1137C1077 1129 940 1112 858 1105L790 1099L796 1147C799 1174 805 1229 810 1270C815 1311 822 1388 825 1440C831 1531 849 1650 856 1650C858 1650 870 1633 883 1613M1069 1560C1208 1477 1211 1474 1205 1445C1202 1429 1195 1382 1190 1342C1178 1249 1160 1188 1146 1193C1134 1197 1130 1204 993 1468C937 1576 903 1651 912 1648C920 1647 990 1607 1069 1560M1740 1489C1734 1410 1727 1336 1723 1326C1718 1308 1716 1308 1699 1331C1688 1344 1669 1374 1655 1397C1630 1438 1630 1441 1646 1472C1679 1536 1743 1641 1747 1636C1749 1634 1746 1568 1740 1489M1787 1438C1782 1299 1771 1234 1756 1258C1753 1264 1754 1309 1759 1357C1765 1405 1772 1475 1775 1513C1786 1629 1793 1586 1787 1438M1650 1565C1650 1548 1604 1470 1593 1470C1586 1470 1580 1460 1580 1449C1580 1426 1571 1426 1475 1450C1403 1468 1362 1487 1380 1493C1557 1554 1650 1578 1650 1565M3424 1464C3435 1436 3431 1350 3419 1350C3404 1350 3240 1443 3240 1452C3240 1456 3266 1461 3298 1465C3329 1469 3360 1473 3365 1475C3390 1484 3418 1479 3424 1464M1360 1443C1379 1435 1413 1425 1435 1420C1538 1398 1567 1387 1593 1362C1626 1331 1710 1222 1710 1211C1710 1196 1574 1178 1375 1166C1337 1163 1279 1158 1248 1154C1192 1147 1190 1148 1190 1171C1190 1184 1197 1217 1205 1244C1213 1271 1220 1308 1220 1326C1220 1382 1242 1459 1259 1463C1280 1468 1316 1461 1360 1443M3035 1423C3015 1396 2991 1372 2981 1369C2958 1360 2789 1415 2811 1424C2827 1431 3021 1467 3053 1469C3067 1470 3064 1461 3035 1423M258 1274C270 1266 280 1249 280 1237C280 1225 291 1180 305 1137C319 1095 333 1041 336 1018L343 977L301 1001C278 1014 236 1045 209 1070L158 1115L178 1175C222 1303 220 1301 258 1274M328 1203C342 1140 336 1137 316 1196C297 1252 297 1250 309 1250C314 1250 323 1229 328 1203M422 1180C432 1144 446 1093 454 1065C469 1010 467 1006 429 996C403 990 402 991 376 1100C346 1226 345 1236 363 1243C393 1256 405 1243 422 1180M1648 1063C1526 936 1348 760 1341 760C1334 761 1213 1010 1204 1044C1197 1072 1193 1071 1365 1095C1425 1104 1476 1113 1479 1116C1481 1118 1533 1120 1593 1120L1703 1120L1648 1063M1101 1003C1085 971 1043 884 1008 810C972 736 929 646 912 610C858 498 766 337 753 332C737 327 735 403 751 431C766 460 778 595 786 815C789 919 795 1008 799 1011C808 1020 932 1040 986 1041C1013 1042 1049 1046 1065 1050C1132 1067 1133 1065 1101 1003M1238 892C1278 811 1311 740 1310 733C1310 710 1073 500 950 412C829 326 790 303 790 318C790 322 817 375 850 435C883 496 920 568 932 595C974 691 1151 1040 1158 1039C1162 1039 1198 973 1238 892M232 1003C250 988 267 974 270 972C278 966 237 940 218 940C207 940 198 950 194 968C191 983 186 1003 183 1013C177 1037 193 1034 232 1003M1639 993C1627 972 1571 870 1515 765C1360 473 1367 484 1303 460C1272 449 1245 442 1242 444C1239 447 1254 502 1275 565C1313 681 1313 681 1484 855C1578 951 1656 1030 1658 1030C1660 1030 1652 1013 1639 993M755 828C751 738 745 647 741 625C734 585 734 585 722 640C716 670 708 714 705 738C699 773 685 794 624 859C570 917 553 941 562 947C580 958 699 987 734 989C763 990 763 990 755 828M1654 909C1645 879 1621 788 1600 705L1563 555L1499 533C1428 509 1410 506 1410 518C1410 523 1436 569 1467 621C1498 673 1549 766 1580 827C1659 983 1684 1011 1654 909M479 838C479 787 477 750 475 755C461 790 432 916 436 922C439 926 450 930 461 930C478 930 480 923 479 838M603 826L649 772L590 697C558 656 526 619 521 615C513 611 510 657 510 760C510 910 510 910 533 895C545 887 577 856 603 826M410 751C427 678 440 604 440 586C440 554 438 552 382 536C300 513 251 515 223 542C195 568 194 590 220 666C239 721 245 781 238 839C235 860 241 864 300 879C336 888 368 893 373 890C377 887 394 824 410 751M679 653C680 621 675 608 660 600C636 587 550 575 550 584C550 588 576 623 607 662C669 740 678 739 679 653M1267 618C1265 611 1250 565 1234 516C1205 427 1205 427 1105 379C1012 335 884 293 873 304C871 306 919 346 982 393C1044 440 1131 512 1175 554C1252 626 1277 644 1267 618M704 503C715 452 720 301 710 295C699 288 538 470 543 485C546 493 652 524 692 529C695 530 701 518 704 503M416 485C393 468 340 456 313 462C293 467 380 498 415 499C435 499 435 499 416 485M519 347C526 304 529 266 526 262C511 247 501 282 495 370C489 478 500 467 519 347M427 418C424 405 418 377 414 355C411 333 404 308 399 299C391 284 314 253 305 261C298 269 318 392 328 402C337 411 407 439 424 440C428 440 430 430 427 418M1243 286C1206 223 1173 175 1171 181C1168 191 1180 245 1206 337C1220 384 1225 390 1263 403C1286 411 1306 413 1308 409C1310 404 1281 349 1243 286M474 373C483 313 481 278 468 282C445 290 437 317 444 363C453 420 465 424 474 373M570 391C570 388 588 365 610 340C632 316 650 293 650 289C650 279 622 270 590 270C566 270 561 275 551 314C535 378 536 411 555 404C563 400 570 395 570 391M1147 220C1116 107 1111 95 1087 89C1066 83 1047 90 1002 118C969 139 918 171 887 190C856 209 830 230 830 237C830 243 845 251 863 255C926 268 1016 298 1095 333C1151 358 1176 365 1178 356C1179 349 1166 288 1147 220M709 183C708 83 703 81 631 154C574 212 569 219 586 229C597 235 629 240 658 240C710 240 710 240 709 183M903 141C953 106 977 83 971 77C965 71 913 67 855 66C771 65 747 68 740 80C731 93 735 195 746 228C751 244 779 228 903 141" id="ShapeObject_1260291794639" stroke="none" style="fill:#000000;fill-opacity:1" transform="matrix(0.1,0,0,0.1,0,0)" opacity="1"/>
      <path d="M202 1201M202 1201C192 1158 207 1120 236 1120C253 1120 255 1175 240 1214C226 1251 214 1246 202 1201" id="ShapeObject_1260291794641" stroke="none" style="fill:#000000;fill-opacity:1" transform="matrix(0.1,0,0,0.1,0,0)" opacity="1"/>
      <path d="M307 728M307 728C305 721 290 715 274 715C251 715 244 710 242 692C240 679 244 662 251 654C264 638 320 606 325 612C326 614 330 643 333 678C338 727 337 740 326 740C318 740 310 734 307 728" id="ShapeObject_1260291794643" stroke="none" style="fill:#000000;fill-opacity:1" transform="matrix(0.1,0,0,0.1,0,0)" opacity="1"/>
    </g>
  </g>
</svg>