<svg version="1.1" width="464" height="480" viewBox="0 0 464 480" xmlns:xlink="http://www.w3.org/1999/xlink" xmlns="http://www.w3.org/2000/svg">
  <desc>Created with Raven (http://www.aviary.com)</desc>
  <defs/>
  <g id="Layer_1256850979402" opacity="1">
    <g id="Layer_1256850979403" opacity="1">
      <path d="M4490 3889M4490 3889C4476 3883 4418 3870 4360 3859C4141 3820 4094 3811 4001 3790C3866 3760 3855 3756 3857 3739C3858 3732 3864 3703 3870 3677C3877 3643 3877 3622 3869 3608C3856 3583 3798 3532 3756 3507C3739 3496 3712 3476 3695 3460C3656 3425 3470 3311 3491 3336C3500 3346 3534 3389 3567 3430C3601 3471 3640 3516 3654 3529C3668 3543 3680 3558 3680 3564C3680 3576 3616 3510 3500 3377C3453 3324 3402 3275 3386 3268C3370 3262 3347 3247 3334 3235C3321 3223 3292 3208 3268 3201C3244 3193 3191 3177 3150 3164C3109 3151 3055 3137 3030 3134C2997 3129 2965 3111 2910 3070C2869 3039 2810 2995 2780 2972C2710 2920 2612 2831 2625 2831C2631 2831 2661 2854 2692 2883C2724 2912 2782 2958 2822 2985C2862 3012 2904 3041 2915 3050C2926 3060 2948 3076 2965 3086C2995 3105 2995 3105 2975 3079C2964 3064 2921 3010 2879 2959C2837 2907 2790 2846 2775 2823C2760 2799 2743 2780 2739 2780C2734 2780 2730 2774 2730 2768C2729 2737 2667 2688 2607 2670C2573 2659 2527 2644 2505 2636C2483 2628 2457 2621 2447 2620C2432 2620 2431 2623 2441 2641C2447 2653 2470 2682 2491 2705C2551 2770 2537 2771 2471 2706C2435 2671 2410 2652 2406 2659C2393 2680 2380 2670 2380 2638C2380 2579 2381 2579 2153 2575C2037 2573 1922 2569 1899 2566C1839 2558 1784 2571 1788 2593C1790 2605 1784 2610 1766 2610C1752 2610 1739 2606 1735 2601C1732 2596 1716 2589 1699 2585C1678 2580 1670 2573 1672 2561C1676 2540 1569 2448 1465 2382C1423 2356 1366 2320 1338 2303C1295 2275 1276 2270 1225 2269C1192 2269 1147 2267 1125 2265C1103 2262 1019 2258 937 2256C799 2252 789 2253 776 2272C765 2288 683 2464 640 2565C583 2698 583 2685 644 2780C705 2876 705 2876 769 2890C802 2897 836 2900 845 2897C863 2889 890 2898 890 2912C890 2917 875 2944 857 2973C819 3033 808 3058 818 3064C822 3066 844 3071 868 3075L912 3082L905 2991C899 2922 900 2900 910 2900C916 2900 945 2920 973 2944C1002 2968 1035 2993 1048 2999C1060 3005 1070 3016 1070 3023C1070 3040 971 3113 946 3115C935 3116 923 3126 919 3138C909 3164 902 3165 878 3144C857 3124 739 3101 657 3101C599 3100 574 3089 512 3036C488 3015 482 2987 503 2996C510 2998 525 2991 535 2980C554 2959 554 2958 535 2923C524 2904 500 2871 482 2851C463 2831 439 2798 429 2777C406 2734 391 2725 354 2734C329 2741 329 2741 356 2788C371 2814 405 2866 432 2903C459 2941 478 2975 475 2978C465 2988 409 2921 360 2838C337 2798 311 2759 303 2752C286 2734 286 2710 304 2710C314 2710 324 2686 335 2634C345 2593 350 2557 347 2554C342 2548 393 2372 409 2342C414 2332 421 2312 424 2299C426 2286 433 2255 439 2230C444 2204 447 2175 444 2165C438 2140 459 2131 605 2096C766 2057 971 1988 966 1974C964 1968 959 1941 955 1914C952 1887 942 1823 933 1772C921 1701 920 1673 929 1657C944 1627 1003 1449 998 1446C997 1445 944 1427 881 1407C767 1370 767 1370 746 1394C735 1407 696 1452 660 1493C624 1535 591 1569 585 1569C580 1570 566 1557 555 1540C544 1524 523 1505 507 1499C492 1493 478 1478 475 1466C459 1386 450 1337 450 1322C450 1312 475 1267 506 1220C537 1174 566 1126 571 1113C583 1080 593 1084 613 1134C632 1181 655 1207 663 1193C670 1182 644 1128 619 1101C605 1087 601 1073 605 1059C612 1039 613 1039 631 1066C650 1095 650 1095 650 1063C650 1046 647 1024 643 1014C637 998 636 998 628 1016C622 1029 622 1026 626 1005C629 989 634 966 636 955C638 944 644 906 651 870C658 834 663 791 663 773C663 755 667 743 672 746C676 749 680 746 680 739C680 733 688 730 700 733C711 736 753 733 795 727C870 717 870 717 936 628C972 579 1007 541 1013 543C1020 545 1028 561 1032 578C1037 596 1044 625 1048 642C1057 680 1083 690 1109 666C1118 657 1146 640 1170 627C1214 604 1214 604 1358 686C1502 769 1502 769 1588 764C1636 761 1680 762 1686 767C1695 773 1692 800 1677 867C1656 960 1656 960 1678 980C1690 992 1700 1004 1700 1009C1700 1013 1715 1032 1733 1051C1751 1070 1771 1092 1776 1101C1781 1109 1805 1129 1829 1146C1859 1166 1885 1196 1911 1243C1933 1281 1950 1315 1950 1319C1950 1323 1924 1326 1892 1326C1848 1325 1835 1328 1835 1340C1835 1348 1881 1385 1938 1422C1995 1460 2038 1495 2035 1501C2031 1506 2021 1509 2012 1506C1940 1487 1922 1489 1901 1519C1882 1545 1881 1552 1892 1577C1923 1647 1952 1678 2023 1715C2095 1753 2095 1753 2240 1746C2320 1743 2400 1738 2418 1735C2445 1732 2457 1737 2493 1771C2540 1815 2640 1880 2662 1880C2670 1880 2680 1884 2686 1888C2691 1893 2723 1907 2758 1919C2807 1936 2834 1940 2878 1936C2984 1925 3025 1917 3075 1900C3153 1872 3228 1867 3245 1888C3271 1919 3422 2084 3488 2153C3523 2190 3559 2220 3567 2220C3576 2220 3675 2265 3787 2320C3940 2395 3991 2424 3987 2435C3983 2443 4001 2491 4024 2542C4048 2593 4081 2675 4096 2724C4125 2812 4125 2813 4200 2873C4241 2906 4296 2947 4322 2964C4348 2981 4370 2999 4370 3003C4370 3012 4301 3001 4285 2990C4273 2982 4188 2960 4166 2960C4157 2960 4150 2967 4150 2976C4150 2994 4222 3141 4250 3180C4283 3226 4319 3315 4309 3324C4299 3335 4300 3337 4268 3282C4254 3258 4200 3193 4148 3137C4096 3081 4032 3010 4005 2980C3979 2950 3949 2917 3939 2907C3929 2896 3897 2882 3868 2875C3839 2867 3768 2847 3710 2830C3627 2805 3601 2801 3586 2810C3571 2819 3564 2817 3546 2801C3534 2789 3519 2780 3513 2780C3507 2780 3495 2763 3487 2743C3471 2704 3457 2683 3346 2540C3310 2493 3265 2435 3248 2410C3230 2385 3166 2307 3105 2235C3044 2164 2979 2086 2960 2063C2942 2039 2923 2020 2918 2020C2906 2020 2917 2105 2945 2225C2958 2280 2971 2345 2975 2369C2980 2397 2996 2432 3019 2461C3039 2488 3070 2531 3088 2557C3106 2583 3154 2653 3195 2712C3236 2771 3270 2823 3270 2829C3270 2834 3288 2861 3310 2889C3341 2928 3370 2950 3431 2980C3562 3047 3734 3169 3757 3215C3771 3241 3812 3299 3895 3406C3910 3426 3937 3443 3969 3454C4036 3476 4257 3531 4267 3528C4271 3527 4298 3530 4325 3535C4353 3539 4393 3544 4415 3545C4498 3549 4606 3563 4624 3572C4638 3580 4641 3589 4636 3613C4632 3631 4626 3663 4622 3685C4615 3724 4613 3725 4579 3722C4543 3720 4543 3720 4537 3765C4530 3813 4537 3867 4551 3876C4565 3884 4551 3900 4532 3899C4523 3899 4504 3894 4490 3889M4510 3864C4510 3861 4503 3828 4494 3791C4479 3723 4479 3723 4433 3716C4407 3713 4383 3713 4379 3717C4375 3722 4383 3753 4397 3787C4418 3840 4427 3851 4454 3859C4492 3870 4510 3872 4510 3864M4390 3835C4390 3825 4360 3770 4355 3770C4352 3770 4350 3786 4350 3805C4350 3833 4354 3840 4370 3840C4381 3840 4390 3838 4390 3835M4326 3774C4331 3731 4329 3716 4319 3709C4299 3697 4290 3698 4293 3713C4294 3722 4257 3726 4141 3728C4055 3730 3977 3736 3966 3742C3947 3752 3948 3754 3980 3765C3999 3772 4065 3787 4125 3798C4186 3810 4244 3821 4255 3823C4314 3836 4318 3833 4326 3774M3953 3718C3965 3712 4006 3707 4045 3709C4121 3711 4254 3701 4246 3693C4244 3690 4175 3675 4093 3658C4012 3642 3935 3626 3923 3623C3904 3619 3900 3624 3893 3661C3886 3696 3887 3707 3900 3717C3919 3733 3926 3733 3953 3718M4575 3663C4564 3597 4552 3583 4502 3576C4477 3573 4454 3572 4452 3575C4442 3585 4522 3689 4543 3693C4555 3695 4569 3698 4573 3699C4577 3699 4578 3683 4575 3663M4392 3677C4396 3670 4400 3648 4400 3627L4400 3589L4288 3596C4226 3599 4155 3603 4130 3605C4105 3606 4067 3608 4046 3609C3996 3610 4006 3620 4067 3631C4094 3636 4164 3650 4223 3662C4352 3689 4383 3692 4392 3677M4480 3685C4480 3674 4436 3620 4428 3620C4418 3620 4417 3674 4427 3683C4435 3691 4480 3692 4480 3685M4616 3594C4613 3586 4604 3580 4595 3580C4577 3580 4577 3581 4591 3617C4600 3642 4602 3643 4612 3627C4617 3617 4619 3602 4616 3594M4265 3575C4282 3574 4311 3571 4330 3570C4365 3568 4365 3568 4335 3559C4319 3554 4265 3543 4215 3536C4166 3528 4084 3511 4035 3497C3936 3470 3928 3472 3917 3528C3905 3590 3905 3590 4078 3584C4165 3581 4249 3577 4265 3575M3895 3481C3882 3459 3590 3339 3590 3355C3590 3357 3609 3371 3633 3387C3656 3402 3700 3434 3730 3458C3760 3481 3808 3518 3835 3539L3885 3577L3892 3532C3896 3507 3897 3484 3895 3481M3848 3393C3836 3372 3810 3335 3790 3310C3770 3285 3746 3251 3737 3233C3721 3203 3652 3143 3584 3099C3557 3082 3551 3082 3540 3094C3530 3107 3546 3127 3632 3214C3713 3298 3855 3427 3867 3430C3868 3430 3860 3413 3848 3393M3673 3288C3609 3226 3545 3164 3532 3152C3504 3125 3493 3128 3430 3180C3395 3208 3395 3208 3419 3234C3445 3262 3534 3308 3625 3340C3658 3352 3705 3370 3730 3381C3755 3391 3778 3399 3783 3400C3787 3400 3738 3349 3673 3288M3336 3094C3332 2986 3325 2966 3287 2954C3275 2951 3225 2929 3175 2905C3002 2822 2745 2703 2728 2697C2718 2693 2710 2694 2710 2698C2710 2709 2838 2877 2905 2955C2938 2994 2981 3046 2999 3073C3018 3099 3041 3120 3049 3120C3058 3120 3103 3133 3150 3150C3197 3166 3244 3180 3255 3180C3266 3180 3286 3187 3300 3194C3314 3202 3328 3206 3332 3204C3336 3201 3337 3152 3336 3094M3469 3107C3471 3102 3451 3076 3424 3048C3384 3006 3375 3001 3367 3015C3361 3027 3362 3141 3369 3188C3370 3194 3466 3115 3469 3107M4153 3050C4095 2940 4095 2939 4046 2925C4019 2917 3995 2912 3992 2915C3985 2922 4188 3158 4203 3159C4207 3160 4184 3110 4153 3050M993 3055C1013 3041 1030 3026 1030 3022C1029 3015 945 2950 935 2950C928 2950 929 3029 936 3058C944 3086 947 3086 993 3055M3517 3064C3520 3054 3460 3017 3452 3025C3449 3028 3457 3041 3470 3055C3493 3080 3511 3083 3517 3064M602 3035C600 3024 591 3007 581 2997C566 2982 562 2981 545 2994C525 3008 525 3009 550 3035C578 3064 607 3064 602 3035M817 2989L850 2935L803 2922C778 2915 747 2911 735 2914C705 2922 644 3008 659 3023C669 3033 753 3050 775 3045C780 3044 799 3019 817 2989M668 2941C689 2904 689 2904 668 2859C610 2739 593 2768 616 2947C622 2997 637 2996 668 2941M4260 2951C4260 2946 4252 2939 4243 2936C4233 2933 4189 2903 4145 2871C4101 2838 4040 2798 4010 2783C3980 2768 3899 2720 3831 2678C3763 2635 3706 2600 3704 2600C3696 2600 3701 2700 3711 2753C3724 2818 3713 2812 3938 2870C4000 2886 4056 2902 4061 2906C4066 2909 4112 2922 4163 2935C4213 2948 4256 2959 4258 2959C4259 2960 4260 2956 4260 2951M587 2867C583 2821 577 2769 574 2751C568 2722 564 2719 541 2725C527 2728 503 2734 487 2737C472 2740 457 2746 454 2751C447 2763 467 2798 504 2840C521 2859 544 2892 555 2913C566 2933 579 2950 584 2950C589 2950 590 2915 587 2867M3304 2928C3299 2921 3283 2896 3268 2874C3253 2851 3240 2829 3240 2826C3240 2815 3144 2674 3056 2558C2990 2469 2972 2450 2951 2450C2932 2451 2895 2479 2815 2555L2706 2659L2820 2713C2883 2743 2973 2785 3020 2808C3125 2858 3304 2940 3308 2940C3310 2940 3308 2934 3304 2928M3686 2758C3682 2734 3677 2697 3675 2676C3672 2654 3668 2635 3666 2632C3661 2628 3600 2746 3600 2759C3600 2767 3663 2797 3684 2799C3688 2800 3689 2781 3686 2758M4067 2730C4052 2695 4035 2687 3840 2625C3773 2603 3768 2603 3790 2620C3823 2645 4017 2762 4050 2776C4081 2790 4086 2777 4067 2730M3600 2683C3668 2554 3668 2560 3597 2493C3503 2405 3370 2297 3370 2309C3370 2315 3397 2402 3431 2502C3488 2674 3531 2765 3553 2757C3558 2756 3579 2722 3600 2683M511 2708C556 2695 559 2687 528 2666C501 2647 470 2645 470 2663C470 2669 467 2685 464 2698C457 2723 459 2724 511 2708M428 2701C439 2694 500 2517 500 2491C500 2481 507 2450 515 2424C523 2397 536 2346 545 2310C560 2245 560 2245 529 2217C512 2201 493 2191 487 2193C475 2197 437 2298 393 2443L367 2531L408 2573C449 2614 461 2640 440 2640C435 2640 430 2635 430 2629C430 2615 400 2591 383 2590C374 2590 340 2679 340 2703C340 2711 415 2709 428 2701M605 2598C619 2563 638 2519 647 2500C655 2481 668 2452 676 2435C683 2419 701 2378 714 2345L738 2285L672 2259C635 2245 602 2236 599 2239C592 2245 557 2361 514 2519C494 2595 491 2615 502 2621C509 2625 524 2636 535 2644C567 2669 576 2663 605 2598M4040 2646C4040 2638 4019 2591 3994 2540C3941 2435 3963 2440 3793 2493C3736 2510 3690 2527 3690 2530C3690 2542 3995 2659 4028 2660C4034 2660 4040 2654 4040 2646M2630 2642C2630 2637 2614 2615 2595 2593C2576 2570 2560 2549 2560 2546C2560 2543 2540 2519 2516 2493C2492 2467 2461 2432 2447 2415L2422 2385L2417 2420C2414 2439 2412 2484 2413 2519L2415 2583L2505 2615C2599 2649 2630 2656 2630 2642M2818 2517C2870 2467 2887 2444 2878 2439C2854 2426 2745 2399 2696 2394L2647 2389L2654 2462C2658 2502 2665 2559 2671 2588C2682 2640 2682 2640 2713 2614C2731 2600 2778 2556 2818 2517M2643 2505C2635 2439 2626 2383 2625 2382C2619 2375 2459 2364 2455 2370C2450 2378 2648 2635 2655 2628C2657 2626 2652 2571 2643 2505M3384 2431C3327 2261 3327 2261 3256 2208C3171 2145 3058 2069 3012 2046C2979 2029 2979 2029 2989 2049C3004 2076 3115 2216 3161 2265C3194 2301 3251 2372 3389 2553C3413 2585 3435 2608 3437 2606C3440 2603 3416 2525 3384 2431M1780 2513C1792 2481 1817 2412 1835 2360C1853 2308 1875 2248 1884 2228C1903 2183 1904 2160 1887 2160C1873 2160 1857 2192 1794 2345C1727 2509 1715 2551 1731 2561C1754 2575 1756 2573 1780 2513M2274 2529C2263 2517 2239 2500 2220 2490C2200 2480 2151 2446 2110 2415C2033 2355 1946 2310 1907 2310C1888 2310 1880 2324 1847 2418C1827 2478 1810 2529 1810 2532C1810 2536 1827 2536 1848 2534C1868 2531 1923 2533 1970 2537C2017 2542 2108 2546 2174 2547C2293 2549 2293 2549 2274 2529M2382 2518C2387 2489 2375 2331 2368 2325C2366 2324 2284 2320 2185 2316C2005 2310 2005 2310 2041 2332C2095 2367 2230 2473 2230 2482C2230 2486 2236 2490 2243 2490C2249 2490 2275 2504 2299 2520C2357 2559 2376 2559 2382 2518M1738 2403C1761 2349 1780 2299 1780 2293C1780 2283 1734 2280 1585 2280C1400 2280 1390 2281 1399 2298C1404 2308 1439 2333 1475 2355C1512 2376 1572 2418 1609 2447C1645 2476 1680 2500 1685 2500C1691 2500 1715 2456 1738 2403M3872 2444C3904 2433 3930 2422 3930 2419C3930 2415 3909 2403 3883 2392C3856 2380 3801 2352 3760 2329C3680 2285 3561 2236 3553 2244C3550 2247 3557 2268 3568 2292C3579 2316 3598 2358 3610 2385C3621 2413 3645 2449 3662 2467C3692 2498 3692 2498 3754 2480C3787 2470 3841 2454 3872 2444M3614 2458C3593 2422 3360 2186 3331 2170C3311 2160 3311 2161 3331 2207C3352 2255 3359 2263 3538 2407C3621 2474 3625 2477 3614 2458M2955 2371C2951 2347 2939 2293 2928 2251C2905 2162 2903 2154 2890 2076C2878 2001 2867 1989 2849 2032C2842 2050 2805 2113 2768 2172C2700 2281 2656 2360 2662 2364C2664 2365 2703 2374 2749 2384C2795 2394 2842 2405 2854 2410C2865 2415 2894 2418 2918 2417C2961 2415 2961 2415 2955 2371M3541 2296C3524 2267 3510 2236 3510 2227C3510 2219 3491 2205 3468 2195C3418 2175 3370 2160 3370 2165C3370 2175 3566 2366 3568 2359C3570 2354 3558 2326 3541 2296M2656 2337C2671 2307 2716 2227 2751 2172C2844 2020 2852 1977 2775 2041C2693 2108 2658 2136 2590 2189C2463 2288 2421 2325 2426 2329C2432 2336 2573 2358 2615 2359C2637 2360 2648 2354 2656 2337M2495 2235C2707 2075 2828 1970 2801 1970C2788 1970 2480 2090 2315 2159C2194 2210 2149 2225 2060 2245C1974 2265 1941 2279 1980 2280C1994 2280 2048 2285 2100 2291C2152 2298 2234 2302 2282 2301C2335 2300 2371 2303 2375 2310C2379 2317 2386 2317 2393 2312C2400 2307 2446 2272 2495 2235M872 2159C996 2059 1052 2008 1046 2002C1044 2000 1034 2003 1023 2008C1006 2018 956 2040 865 2080C695 2154 620 2192 620 2202C620 2213 702 2248 732 2249C751 2250 789 2225 872 2159M1266 2218C1254 2188 1232 2150 1156 2022C1126 1972 1132 1970 1020 2069C982 2103 923 2152 888 2178C814 2233 799 2227 1040 2239C1313 2252 1282 2255 1266 2218M1690 2240C1690 2237 1668 2213 1641 2187C1591 2138 1591 2138 1543 2154C1480 2176 1387 2224 1382 2238C1380 2246 1423 2249 1534 2247C1620 2246 1690 2243 1690 2240M1822 2197C1834 2171 1841 2147 1838 2144C1831 2138 1694 2100 1678 2100C1671 2100 1659 2110 1651 2122C1638 2143 1641 2148 1696 2197C1771 2265 1793 2265 1822 2197M1998 2235C2027 2226 2050 2216 2050 2211C2050 2202 1982 2180 1953 2180C1941 2180 1930 2188 1927 2198C1925 2207 1919 2223 1915 2233C1906 2255 1928 2255 1998 2235M1399 2105C1447 2036 1467 1998 1458 1996C1451 1993 1405 1989 1355 1986C1306 1983 1241 1977 1212 1974L1159 1967L1197 2036C1295 2213 1305 2228 1316 2219C1323 2214 1360 2162 1399 2105M3289 2163C3282 2142 3271 2120 3266 2113C3246 2093 3020 2002 3020 2015C3020 2018 3059 2046 3108 2078C3156 2110 3217 2152 3245 2172C3272 2192 3296 2207 3298 2205C3300 2203 3296 2184 3289 2163M737 2110C766 2097 788 2085 786 2082C784 2080 756 2085 723 2093C691 2102 634 2116 595 2125C488 2150 491 2148 523 2174C551 2197 551 2197 618 2165C655 2148 709 2123 737 2110M1438 2170C1472 2154 1504 2140 1510 2140C1531 2140 1580 2110 1580 2097C1580 2079 1504 2006 1493 2013C1482 2020 1370 2185 1370 2194C1370 2203 1374 2202 1438 2170M2157 2176C2157 2168 2154 2162 2151 2163C2138 2166 1985 2127 1883 2095C1824 2076 1765 2060 1753 2060C1719 2060 1700 2049 1700 2029C1700 2019 1722 1944 1749 1863C1806 1693 1809 1679 1794 1673C1787 1671 1776 1694 1767 1732C1759 1767 1735 1853 1714 1923C1678 2043 1677 2053 1693 2064C1702 2071 1794 2101 1897 2129C2001 2158 2090 2183 2095 2185C2122 2194 2157 2189 2157 2176M2256 2093L2295 2045L2237 2094C2206 2121 2180 2147 2180 2152C2180 2169 2217 2141 2256 2093M2378 2115C2443 2090 2504 2065 2515 2060C2526 2055 2580 2034 2635 2014C2690 1994 2744 1973 2754 1968C2772 1958 2772 1957 2749 1944C2718 1927 2690 1926 2690 1944C2690 1952 2669 1961 2633 1969C2487 1997 2452 2003 2407 2007C2362 2012 2357 2016 2300 2086C2267 2127 2245 2160 2251 2160C2257 2160 2314 2140 2378 2115M3390 2080C3350 2035 3308 1994 3298 1989C3279 1979 3278 1981 3285 2022C3296 2095 3299 2099 3363 2130C3466 2179 3471 2170 3390 2080M2202 2080C2233 2052 2267 2012 2276 1990C2296 1945 2317 1936 2430 1925C2529 1916 2570 1909 2570 1902C2570 1898 2551 1884 2529 1870C2506 1856 2477 1834 2463 1820C2442 1799 2428 1795 2376 1794C2343 1794 2299 1797 2280 1802C2169 1829 2158 1829 2085 1805C2047 1792 1990 1770 1960 1757C1930 1743 1889 1729 1869 1726C1833 1720 1833 1720 1786 1858C1761 1934 1740 2000 1740 2006C1740 2024 2068 2128 2131 2130C2139 2130 2171 2107 2202 2080M1635 2077C1636 2070 1642 2052 1649 2035C1672 1984 1677 1968 1710 1848C1757 1674 1750 1666 1660 1785C1514 1978 1519 1962 1583 2048C1620 2097 1634 2105 1635 2077M3255 2013C3239 1916 3228 1900 3180 1900C3159 1900 3129 1905 3113 1911C3098 1917 3054 1929 3016 1939L2947 1956L3011 1979C3046 1992 3107 2017 3145 2035C3275 2095 3270 2096 3255 2013M2390 1977C2506 1966 2660 1936 2660 1924C2660 1906 2637 1901 2625 1917C2618 1927 2565 1938 2471 1950C2323 1969 2307 1975 2295 2020C2289 2044 2290 2043 2317 2013C2339 1989 2355 1981 2390 1977M1132 1922C1143 1911 1060 1804 999 1752L957 1716L963 1803C967 1851 974 1899 980 1910C985 1920 990 1938 990 1949C990 1960 998 1970 1008 1972C1025 1976 1114 1940 1132 1922M1524 1933C1537 1912 1580 1852 1618 1800C1657 1748 1687 1703 1685 1701C1683 1700 1613 1732 1530 1775C1446 1817 1357 1860 1331 1870C1210 1918 1186 1932 1204 1942C1213 1947 1267 1955 1323 1959C1506 1973 1497 1975 1524 1933M1301 1856C1424 1804 1682 1669 1687 1654C1690 1644 1415 1555 1343 1544C1304 1538 1301 1540 1286 1569C1266 1607 1180 1865 1180 1885C1180 1906 1185 1905 1301 1856M1170 1819C1170 1813 1193 1752 1220 1683C1248 1614 1270 1549 1270 1540C1270 1527 1256 1519 1224 1511C1198 1504 1174 1503 1170 1507C1145 1535 1137 1849 1161 1834C1166 1831 1170 1824 1170 1819M1130 1625C1136 1581 1143 1533 1146 1518C1151 1494 1147 1491 1101 1475C1073 1466 1043 1460 1034 1462C1023 1464 1007 1499 985 1565L952 1665L1034 1748L1115 1831L1117 1768C1119 1733 1124 1669 1130 1625M2215 1780C2222 1769 2190 1769 2145 1780C2118 1787 2120 1788 2162 1789C2188 1789 2212 1786 2215 1780M1879 1612C1856 1566 1852 1564 1826 1583C1800 1602 1820 1637 1863 1648C1880 1653 1896 1656 1897 1655C1898 1655 1890 1635 1879 1612M1665 1602C1652 1591 1559 1559 1440 1525C1388 1510 1339 1495 1333 1493C1326 1490 1320 1493 1320 1498C1320 1510 1376 1540 1399 1540C1408 1540 1467 1556 1530 1575C1649 1610 1681 1616 1665 1602M1849 1507C1801 1489 1671 1453 1674 1459C1675 1462 1687 1488 1699 1515C1746 1618 1742 1616 1812 1563C1870 1518 1872 1516 1849 1507M1700 1575C1700 1570 1638 1426 1600 1343C1589 1320 1564 1257 1544 1203C1524 1149 1501 1092 1493 1076C1478 1047 1478 1047 1458 1101C1404 1249 1400 1226 1501 1362C1616 1518 1669 1580 1686 1580C1694 1580 1700 1578 1700 1575M1569 1487C1513 1404 1413 1280 1402 1280C1389 1280 1330 1464 1340 1474C1347 1481 1582 1555 1612 1559C1616 1560 1597 1527 1569 1487M723 1370C729 1348 692 1288 675 1292C668 1294 635 1336 601 1385C554 1455 543 1477 553 1485C560 1491 570 1504 574 1515C581 1533 589 1527 650 1462C687 1421 720 1380 723 1370M1290 1490C1290 1481 1228 1460 1198 1460C1171 1460 1177 1477 1208 1488C1243 1501 1290 1503 1290 1490M1153 1455C1156 1441 1064 1411 1049 1421C1032 1431 1036 1434 1090 1453C1138 1469 1150 1470 1153 1455M1894 1423C1857 1399 1825 1381 1823 1384C1821 1386 1828 1406 1839 1429C1860 1469 1861 1470 1911 1468L1961 1467L1894 1423M1320 1418C1327 1394 1340 1359 1350 1340C1388 1265 1383 1248 1290 1144L1205 1049L1199 1092C1195 1116 1189 1201 1185 1281C1177 1440 1176 1437 1234 1451C1298 1466 1306 1463 1320 1418M1723 1365C1675 1313 1632 1270 1628 1270C1613 1270 1610 1311 1623 1337C1631 1352 1641 1380 1645 1398C1650 1422 1656 1430 1667 1426C1676 1422 1688 1424 1694 1428C1710 1442 1762 1458 1788 1459C1808 1460 1797 1444 1723 1365M521 1382C517 1372 515 1359 518 1351C520 1344 516 1334 509 1329C498 1323 498 1316 506 1303C525 1272 538 1278 547 1320L555 1362L598 1301C641 1240 641 1240 624 1208C586 1133 583 1133 529 1213C503 1253 477 1290 472 1295C467 1302 469 1333 479 1373C495 1439 495 1440 512 1419C524 1405 527 1393 521 1382M1018 1408C1016 1402 976 1386 929 1373C762 1325 743 1331 887 1385C979 1420 1024 1428 1018 1408M1160 1373C1161 1346 1163 1286 1166 1239C1170 1190 1168 1150 1163 1147C1154 1141 1072 1324 1063 1371C1059 1393 1063 1398 1092 1407C1155 1427 1160 1425 1160 1373M1766 1324C1753 1291 1735 1245 1726 1220C1702 1153 1695 1144 1677 1159C1668 1166 1657 1184 1651 1200C1642 1227 1645 1235 1686 1289C1726 1342 1780 1393 1788 1386C1789 1384 1780 1356 1766 1324M1049 1338C1091 1247 1112 1185 1091 1219C1083 1232 930 1289 900 1290C892 1291 872 1297 855 1304C825 1317 825 1317 920 1348C972 1365 1018 1379 1022 1379C1027 1380 1039 1361 1049 1338M739 1274C717 1248 706 1275 727 1306C745 1334 745 1334 748 1312C750 1299 746 1282 739 1274M1834 1297C1862 1285 1862 1285 1816 1242C1749 1180 1739 1184 1766 1263C1783 1313 1789 1316 1834 1297M800 1176C800 1162 761 1201 755 1221C752 1231 754 1250 761 1262C773 1284 774 1283 787 1235C794 1208 800 1181 800 1176M922 1158C946 1134 999 1084 1040 1047L1115 980L1018 980C914 980 904 984 866 1042C852 1065 828 1147 815 1224L808 1263L843 1233C863 1216 898 1182 922 1158M979 1238C1015 1227 1053 1210 1062 1201C1071 1192 1100 1145 1125 1096C1205 937 1184 940 1006 1113C931 1186 870 1249 870 1253C870 1266 913 1260 979 1238M1629 1193C1679 1092 1680 1097 1600 1066C1561 1050 1527 1040 1524 1042C1522 1045 1530 1071 1543 1101C1556 1131 1573 1176 1580 1203C1587 1229 1594 1250 1596 1250C1598 1250 1613 1224 1629 1193M1866 1222C1853 1196 1774 1143 1764 1153C1761 1156 1774 1168 1792 1181C1810 1193 1836 1214 1849 1227C1880 1257 1884 1256 1866 1222M1419 1135C1432 1097 1449 1055 1456 1043C1465 1028 1466 1019 1459 1015C1428 995 1220 999 1220 1019C1220 1033 1384 1220 1390 1213C1393 1209 1407 1174 1419 1135M761 1098C850 957 861 934 852 893C846 866 836 852 811 838C792 827 772 821 765 824C758 826 731 863 705 905C657 981 657 981 668 1061C678 1131 693 1180 704 1180C706 1180 732 1143 761 1098M1700 1050C1686 1023 1657 1006 1577 976C1519 954 1508 953 1503 966C1495 987 1500 990 1603 1032C1711 1076 1714 1076 1700 1050M1333 975C1377 972 1399 974 1395 980C1388 991 1392 992 1414 984C1426 979 1421 968 1389 928C1299 814 1271 787 1256 799C1239 814 1180 926 1180 945C1180 965 1220 990 1244 985C1256 983 1296 978 1333 975M1483 893C1503 817 1503 825 1485 806C1473 795 1448 791 1390 791C1346 791 1310 795 1310 798C1310 802 1335 831 1365 863C1395 895 1420 923 1420 927C1420 940 1454 970 1460 963C1464 958 1474 927 1483 893M1580 900C1537 848 1537 848 1524 872C1506 904 1506 907 1538 919C1553 926 1576 937 1590 945C1629 967 1626 955 1580 900M686 907C690 895 704 868 717 847C731 825 740 807 738 806C736 805 723 799 708 793C684 782 681 783 674 808C670 823 666 842 665 850C663 858 659 885 655 910C647 951 648 954 663 942C672 934 682 918 686 907M1080 920C1080 915 1063 899 1043 886C1022 873 987 842 965 816C943 791 922 774 917 779C912 784 912 820 916 859L923 930L1001 930C1046 930 1080 926 1080 920M1109 878C1097 854 1084 822 1081 805C1075 778 1069 775 1015 764C982 757 954 753 952 755C942 765 1101 918 1123 919C1127 920 1121 901 1109 878M1170 909C1170 903 1179 885 1190 870C1201 854 1217 825 1225 806C1240 770 1240 770 1175 770C1094 770 1089 778 1126 859C1150 915 1170 937 1170 909M1654 856C1662 825 1665 798 1661 796C1658 794 1639 793 1620 795C1601 797 1582 799 1578 799C1573 800 1570 810 1570 823C1570 845 1628 926 1637 917C1639 914 1647 887 1654 856M850 793C850 746 839 739 786 749C760 754 736 760 733 764C728 769 826 820 843 820C847 820 850 808 850 793M1414 762C1421 750 1240 640 1213 640C1190 640 1125 689 1148 690C1155 690 1194 705 1233 724C1273 743 1312 761 1320 763C1344 772 1408 771 1414 762M1060 743C1060 738 1047 695 1032 646L1004 558L979 591C965 610 944 642 931 662C906 704 904 703 1005 736C1053 751 1060 752 1060 743M1210 744C1210 737 1138 710 1119 710C1094 710 1095 729 1120 738C1142 746 1210 751 1210 744" id="ShapeObject_1256850979405" stroke="none" style="fill:#000000;fill-opacity:1" transform="matrix(0.1,0,0,0.1,0,0)" opacity="1"/>
      <path d="M740 943M740 943C741 890 761 854 785 863C807 872 804 926 779 961C750 1002 740 997 740 943" id="ShapeObject_1256850979407" stroke="none" style="fill:#000000;fill-opacity:1" transform="matrix(0.1,0,0,0.1,0,0)" opacity="1"/>
    </g>
  </g>
</svg>